<svg version="1.1" id="Layer_1" xmlns="http://www.w3.org/2000/svg" xmlns:xlink="http://www.w3.org/1999/xlink" x="0px" y="0px"
	 width="100%" viewBox="0 0 80 124" enable-background="new 0 0 80 124" xml:space="preserve">
<style>
  path { fill: #3E8668 !important; stroke: #3E8668 !important; }
  path[fill^="#F"], path[fill^="#f"] { fill: #FFFFFF !important; stroke: none !important; }
</style>
<path fill="#FCFDFD" opacity="1.000000" stroke="none" 
	d="
M40.000000,125.000000 
	C26.666666,125.000000 13.833333,125.000000 1.000000,125.000000 
	C1.000000,83.666664 1.000000,42.333332 1.000000,1.000000 
	C27.666666,1.000000 54.333332,1.000000 81.000000,1.000000 
	C81.000000,42.333332 81.000000,83.666664 81.000000,125.000000 
	C67.500000,125.000000 54.000000,125.000000 40.000000,125.000000 
M61.472786,62.835327 
	C61.361618,62.536724 61.250450,62.238125 61.036972,61.141720 
	C60.425442,58.561367 60.028576,55.906166 59.160110,53.415401 
	C56.991474,47.195793 52.279030,44.701736 45.692642,45.568249 
	C42.582016,45.977493 39.341743,45.400112 36.230709,45.807751 
	C33.505672,46.164810 30.446026,46.662300 28.300915,48.180840 
	C24.057461,51.184814 23.083014,56.029064 22.846411,61.933895 
	C22.557592,63.965828 22.652391,65.392097 25.475336,65.358719 
	C36.461269,65.228813 47.450375,65.359573 58.435810,65.210129 
	C59.277855,65.198669 60.100483,63.760006 61.039436,63.160847 
	C61.039436,63.160847 61.233627,63.091396 61.472786,62.835327 
M16.942335,114.915878 
	C33.952705,114.839478 50.963078,114.763077 68.519066,114.829567 
	C68.970268,114.537254 69.421471,114.244949 70.601448,113.640343 
	C71.020248,111.768173 71.777489,109.900246 71.801056,108.023117 
	C71.923164,98.298088 71.857841,88.570709 71.857841,79.953789 
	C74.074776,77.848457 75.572609,76.426033 77.318398,74.256569 
	C76.536530,72.878052 75.754654,71.499535 74.098343,69.761948 
	C58.516994,69.737892 42.935558,69.675262 27.354336,69.709045 
	C21.243673,69.722298 15.133481,69.951591 8.308886,70.129601 
	C7.736281,71.942566 6.261637,74.157539 6.840838,75.457191 
	C7.438591,76.798470 10.034204,77.249374 11.981065,78.992218 
	C12.035323,88.812149 12.041230,98.632744 12.174998,108.451591 
	C12.212332,111.192017 11.818371,114.431488 16.942335,114.915878 
M53.191616,28.095434 
	C51.236320,21.515781 47.769306,18.403038 42.253258,18.274786 
	C37.286179,18.159296 32.587223,21.340456 31.125469,25.988344 
	C29.718307,30.462650 30.393394,34.641113 33.819553,37.978104 
	C37.390537,41.456142 41.713497,42.057343 46.307831,40.301506 
	C51.544212,38.300293 53.358772,34.115784 53.191616,28.095434 
z"/>
<path fill="#233B64" opacity="1.000000" stroke="none" 
	d="
M69.872681,113.952644 
	C69.421471,114.244949 68.970268,114.537254 68.122269,114.389420 
	C66.023087,113.632362 64.322105,113.049042 62.618118,113.040092 
	C47.054783,112.958305 31.490929,112.976425 15.592010,112.768051 
	C14.838483,110.877899 14.083767,109.190018 14.058686,107.491371 
	C13.934018,99.048355 14.101624,90.600128 13.900777,82.160049 
	C13.868105,80.787064 12.504304,79.445763 11.755768,78.089813 
	C10.034204,77.249374 7.438591,76.798470 6.840838,75.457191 
	C6.261637,74.157539 7.736281,71.942566 8.970581,70.386986 
	C10.443287,70.763725 11.254189,70.986450 12.065325,70.987305 
	C31.792969,71.008041 51.520676,71.021133 71.248199,70.968536 
	C72.490471,70.965225 73.731293,70.416168 74.972778,70.121010 
	C75.754654,71.499535 76.536530,72.878052 76.775513,74.629013 
	C73.912483,75.431633 71.592346,75.861801 69.872681,76.180641 
	C69.872681,89.340759 69.872681,101.646706 69.872681,113.952644 
M55.962845,92.652496 
	C55.603184,91.045715 55.460785,89.349915 54.845352,87.847939 
	C52.486691,82.091591 46.498558,78.549065 40.543339,79.211174 
	C34.561001,79.876297 29.518696,83.960922 28.352491,89.086609 
	C26.372442,97.789291 31.221533,105.639328 39.437214,107.031319 
	C48.087708,108.496971 54.966953,102.858444 55.962845,92.652496 
z"/>
<path fill="#213962" opacity="1.000000" stroke="none" 
	d="
M23.038340,61.021942 
	C23.083014,56.029064 24.057461,51.184814 28.300915,48.180840 
	C30.446026,46.662300 33.505672,46.164810 36.230709,45.807751 
	C39.341743,45.400112 42.582016,45.977493 45.692642,45.568249 
	C52.279030,44.701736 56.991474,47.195793 59.160110,53.415401 
	C60.028576,55.906166 60.425442,58.561367 61.028107,61.835426 
	C61.090702,62.716560 61.162167,62.903980 61.233627,63.091396 
	C61.233627,63.091396 61.039436,63.160847 60.608597,63.243885 
	C48.784500,63.529499 37.391251,63.805008 25.997974,63.805950 
	C25.011507,63.806030 24.024887,61.992844 23.038340,61.021942 
z"/>
<path fill="#243C63" opacity="1.000000" stroke="none" 
	d="
M53.247856,28.466158 
	C53.358772,34.115784 51.544212,38.300293 46.307831,40.301506 
	C41.713497,42.057343 37.390537,41.456142 33.819553,37.978104 
	C30.393394,34.641113 29.718307,30.462650 31.125469,25.988344 
	C32.587223,21.340456 37.286179,18.159296 42.253258,18.274786 
	C47.769306,18.403038 51.236320,21.515781 53.247856,28.466158 
z"/>
<path fill="#122950" opacity="1.000000" stroke="none" 
	d="
M15.927224,112.965378 
	C31.490929,112.976425 47.054783,112.958305 62.618118,113.040092 
	C64.322105,113.049042 66.023087,113.632362 67.849457,114.317970 
	C50.963078,114.763077 33.952705,114.839478 16.486282,114.515945 
	C15.995895,113.732468 15.961559,113.348923 15.927224,112.965378 
z"/>
<path fill="#283C5B" opacity="1.000000" stroke="none" 
	d="
M70.237061,113.796494 
	C69.872681,101.646706 69.872681,89.340759 69.872681,76.180641 
	C71.592346,75.861801 73.912483,75.431633 76.651535,75.002533 
	C75.572609,76.426033 74.074776,77.848457 71.857841,79.953789 
	C71.857841,88.570709 71.923164,98.298088 71.801056,108.023117 
	C71.777489,109.900246 71.020248,111.768173 70.237061,113.796494 
z"/>
<path fill="#283C5B" opacity="1.000000" stroke="none" 
	d="
M15.592010,112.768059 
	C15.961559,113.348923 15.995895,113.732468 16.031849,114.404312 
	C11.818371,114.431488 12.212332,111.192017 12.174998,108.451591 
	C12.041230,98.632744 12.035323,88.812149 11.868416,78.541016 
	C12.504304,79.445763 13.868105,80.787064 13.900777,82.160049 
	C14.101624,90.600128 13.934018,99.048355 14.058686,107.491371 
	C14.083767,109.190018 14.838483,110.877899 15.592010,112.768059 
z"/>
<path fill="#192D49" opacity="1.000000" stroke="none" 
	d="
M74.535568,69.941483 
	C73.731293,70.416168 72.490471,70.965225 71.248199,70.968536 
	C51.520676,71.021133 31.792969,71.008041 12.065325,70.987305 
	C11.254189,70.986450 10.443287,70.763725 9.327676,70.363434 
	C15.133481,69.951591 21.243673,69.722298 27.354336,69.709045 
	C42.935558,69.675262 58.516994,69.737892 74.535568,69.941483 
z"/>
<path fill="#071439" opacity="1.000000" stroke="none" 
	d="
M22.942375,61.477921 
	C24.024887,61.992844 25.011507,63.806030 25.997974,63.805950 
	C37.391251,63.805008 48.784500,63.529499 60.554947,63.155823 
	C60.100483,63.760006 59.277855,65.198669 58.435810,65.210129 
	C47.450375,65.359573 36.461269,65.228813 25.475336,65.358719 
	C22.652391,65.392097 22.557592,63.965828 22.942375,61.477921 
z"/>
<path fill="#A7B0C3" opacity="1.000000" stroke="none" 
	d="
M61.353207,62.963364 
	C61.162167,62.903980 61.090702,62.716560 61.079262,62.234329 
	C61.250450,62.238125 61.361618,62.536724 61.353207,62.963364 
z"/>
<path fill="#EDF2F6" opacity="1.000000" stroke="none" 
	d="
M55.964512,93.067978 
	C54.966953,102.858444 48.087708,108.496971 39.437214,107.031319 
	C31.221533,105.639328 26.372442,97.789291 28.352491,89.086609 
	C29.518696,83.960922 34.561001,79.876297 40.543339,79.211174 
	C46.498558,78.549065 52.486691,82.091591 54.845352,87.847939 
	C55.460785,89.349915 55.603184,91.045715 55.964512,93.067978 
M44.116352,96.362755 
	C44.714371,91.699821 42.856735,89.959015 39.048424,91.083862 
	C39.048424,95.154900 39.048424,98.854630 39.048424,102.752563 
	C40.859314,102.752563 43.150002,102.752563 45.194336,102.752563 
	C44.840553,100.938164 44.478622,99.082008 44.116352,96.362755 
z"/>
<path fill="#223355" opacity="1.000000" stroke="none" 
	d="
M44.116524,96.794296 
	C44.478622,99.082008 44.840553,100.938164 45.194336,102.752563 
	C43.150002,102.752563 40.859314,102.752563 39.048424,102.752563 
	C39.048424,98.854630 39.048424,95.154900 39.048424,91.083862 
	C42.856735,89.959015 44.714371,91.699821 44.116524,96.794296 
z"/>
<path fill="#A7B0C3" opacity="1.000000" stroke="none" 
	d="
M61.353207,62.963364 
	C61.162167,62.903980 61.090702,62.716560 61.079262,62.234329 
	C61.250450,62.238125 61.361618,62.536724 61.353207,62.963364 
z"/>
<path fill="#EDF2F6" opacity="1.000000" stroke="none" 
	d="
M55.964512,93.067978 
	C54.966953,102.858444 48.087708,108.496971 39.437214,107.031319 
	C31.221533,105.639328 26.372442,97.789291 28.352491,89.086609 
	C29.518696,83.960922 34.561001,79.876297 40.543339,79.211174 
	C46.498558,78.549065 52.486691,82.091591 54.845352,87.847939 
	C55.460785,89.349915 55.603184,91.045715 55.964512,93.067978 
M44.116352,96.362755 
	C44.714371,91.699821 42.856735,89.959015 39.048424,91.083862 
	C39.048424,95.154900 39.048424,98.854630 39.048424,102.752563 
	C40.859314,102.752563 43.150002,102.752563 45.194336,102.752563 
	C44.840553,100.938164 44.478622,99.082008 44.116352,96.362755 
z"/>
<path fill="#223355" opacity="1.000000" stroke="none" 
	d="
M44.116524,96.794296 
	C44.478622,99.082008 44.840553,100.938164 45.194336,102.752563 
	C43.150002,102.752563 40.859314,102.752563 39.048424,102.752563 
	C39.048424,98.854630 39.048424,95.154900 39.048424,91.083862 
	C42.856735,89.959015 44.714371,91.699821 44.116524,96.794296 
z"/>
</svg>