<svg version="1.1" id="Layer_1" xmlns="http://www.w3.org/2000/svg" xmlns:xlink="http://www.w3.org/1999/xlink" x="0px" y="0px"
	 width="100%" viewBox="0 0 342 380" enable-background="new 0 0 342 380" xml:space="preserve">
<style>
  path { fill: #3E8668 !important; stroke: #3E8668 !important; }
  path[fill^="#F"], path[fill^="#f"] { fill: #FFFFFF !important; stroke: none !important; }
</style>
<path fill="#FDFEFE" opacity="1.000000" stroke="none" 
	d="
M1.000000,134.000000 
	C1.000000,89.348618 1.000000,45.197235 1.000000,1.022927 
	C114.945259,1.022927 228.890518,1.022927 342.917908,1.022927 
	C342.917908,127.568047 342.917908,254.136169 342.917908,380.852142 
	C229.000137,380.852142 115.000099,380.852142 1.000000,380.852142 
	C1.000000,298.776154 1.000000,216.638077 1.000000,134.000000 
M48.234238,29.911030 
	C34.961567,34.430023 30.262106,41.047153 30.262964,55.125229 
	C30.268545,146.621780 30.265480,238.118317 30.268148,329.614868 
	C30.268532,342.803650 31.086418,343.695496 44.046410,343.698944 
	C123.543396,343.720093 203.040390,343.715546 282.537384,343.704437 
	C291.631775,343.703156 294.118164,341.217560 294.119720,332.182068 
	C294.130768,268.184479 294.130157,204.186920 294.128143,140.189346 
	C294.127258,111.361885 294.162109,82.534302 294.085632,53.707027 
	C294.051758,40.937798 286.717133,31.978199 274.100555,29.765715 
	C199.886124,29.748241 125.671700,29.729818 51.457275,29.725451 
	C50.636448,29.725403 49.815609,29.908607 48.234238,29.911030 
z"/>
<path fill="#415583" opacity="1.000000" stroke="none" 
	d="
M275.008575,30.030203 
	C286.717133,31.978199 294.051758,40.937798 294.085632,53.707027 
	C294.162109,82.534302 294.127258,111.361885 294.128143,140.189346 
	C294.130157,204.186920 294.130768,268.184479 294.119720,332.182068 
	C294.118164,341.217560 291.631775,343.703156 282.537384,343.704437 
	C203.040390,343.715546 123.543396,343.720093 44.046410,343.698944 
	C31.086418,343.695496 30.268532,342.803650 30.268148,329.614868 
	C30.265480,238.118317 30.268545,146.621780 30.262964,55.125229 
	C30.262106,41.047153 34.961567,34.430023 48.895531,30.249210 
	C52.368958,30.732359 55.181099,30.877329 57.907288,31.405937 
	C55.657078,32.197632 53.378601,32.315964 51.366234,33.109310 
	C49.870647,33.698921 47.738640,35.082962 47.641956,36.257378 
	C47.490421,38.098076 48.524384,40.269123 49.663029,41.868156 
	C50.115440,42.503498 52.222359,42.181961 53.515350,41.953156 
	C56.564342,41.413609 59.580078,40.093842 62.603577,40.110687 
	C72.718170,40.167034 82.831955,40.990887 92.942970,40.937466 
	C113.545937,40.828617 134.146011,40.221783 154.749130,40.069187 
	C162.195526,40.014030 169.645691,40.912262 177.096741,40.958786 
	C198.073288,41.089767 219.051178,41.007454 240.028549,40.996643 
	C241.356934,40.995960 242.685669,40.829552 244.013550,40.838860 
	C251.421585,40.890781 258.839478,40.794273 266.227966,41.210659 
	C267.550659,41.285202 268.751373,43.523277 269.561890,44.917824 
	C199.359436,45.089417 129.603531,45.101315 59.847645,45.138119 
	C57.191448,45.139523 54.517776,45.233353 51.883411,45.546375 
	C48.002258,46.007549 45.906876,48.422436 45.907276,52.269127 
	C45.908772,66.749535 46.034897,81.229919 45.999855,95.980469 
	C45.589985,96.498611 45.294609,96.746613 44.683929,96.836548 
	C43.317013,94.057228 41.844055,91.515503 41.330261,88.792770 
	C40.798046,85.972412 41.105930,82.973083 41.218403,80.058685 
	C41.293495,78.112968 41.083134,75.817345 42.015984,74.304443 
	C45.397049,68.821022 44.477016,62.913757 43.418839,57.386559 
	C42.393726,52.032097 41.681892,47.039581 43.479603,41.773716 
	C43.916832,40.492981 43.139194,38.797501 42.920162,37.292725 
	C41.440434,38.046703 39.717503,38.529182 38.521805,39.600243 
	C32.351250,45.127598 34.502930,53.371761 32.206501,60.201595 
	C31.235424,63.089680 31.741922,66.960892 32.796761,69.955536 
	C36.417419,80.234398 35.403183,90.314980 33.318058,100.696465 
	C32.245720,106.035446 31.649836,112.119186 33.169205,117.164558 
	C35.047894,123.403122 34.658855,128.889740 33.704742,135.089844 
	C32.606117,142.229095 33.420708,149.668686 33.471848,156.977371 
	C33.529015,165.146912 34.831890,173.523804 33.428001,181.425888 
	C32.063286,189.107437 31.306757,196.357147 33.398125,203.846130 
	C35.763874,212.317657 35.374458,220.644775 33.639790,229.308167 
	C32.311302,235.942978 31.840645,243.267624 33.233730,249.807144 
	C35.292332,259.470764 35.501846,268.555817 33.178307,278.187805 
	C31.790115,283.942413 31.524878,290.592621 32.979416,296.270386 
	C35.533756,306.241089 36.307091,315.814423 32.745274,325.506256 
	C28.847456,336.112335 32.583252,341.898010 43.588501,342.004272 
	C44.088261,342.009125 44.588112,342.004913 45.087921,342.004883 
	C121.725281,342.003693 198.362640,342.002441 275.426270,342.002563 
	C278.966095,341.741486 282.102112,341.113068 285.187897,341.302612 
	C289.782776,341.584808 292.042114,340.002258 291.947144,335.263550 
	C291.847717,330.303131 291.010590,325.347443 291.065582,320.395996 
	C291.220490,306.441315 291.831696,292.491119 291.932892,278.536743 
	C291.985718,271.251190 291.062073,263.959595 291.087189,256.672485 
	C291.118652,247.550385 291.879700,238.431213 291.929077,229.308624 
	C291.964020,222.855270 291.035645,216.396271 291.080200,209.943527 
	C291.152435,199.487839 291.855194,189.037003 291.957397,178.580872 
	C292.117828,162.173523 292.086395,145.762756 291.954376,129.354919 
	C291.906403,123.397171 291.012604,117.440643 291.067352,111.488731 
	C291.221130,94.762215 291.708099,78.039001 291.960724,61.312927 
	C292.005127,58.372147 291.402679,55.425880 291.362457,52.478550 
	C291.299866,47.891479 292.106659,43.013405 285.741730,41.673302 
	C284.896332,41.495308 284.216949,40.467216 283.489532,39.801281 
	C280.656464,37.207592 277.835022,34.601177 275.006775,31.671272 
	C275.005768,30.905426 275.007172,30.467813 275.008575,30.030203 
z"/>
<path fill="#3F4C6D" opacity="1.000000" stroke="none" 
	d="
M57.993237,31.022301 
	C55.181099,30.877329 52.368958,30.732359 49.275799,30.296827 
	C49.815609,29.908607 50.636448,29.725403 51.457275,29.725451 
	C125.671700,29.729818 199.886124,29.748241 274.554565,29.897959 
	C275.007172,30.467813 275.005768,30.905426 274.751404,31.673016 
	C274.328217,32.004124 274.158051,32.005253 273.700867,31.711517 
	C269.611450,31.284954 265.808990,31.153252 261.630005,31.016748 
	C260.500336,31.015203 259.747192,31.018461 258.620575,31.016373 
	C257.500031,31.014791 256.753021,31.018555 255.536987,31.016926 
	C232.709976,31.014923 210.351944,31.018316 187.620453,31.016384 
	C186.499985,31.014874 185.752991,31.018688 184.551361,31.017185 
	C181.062576,31.015390 178.028427,31.018919 174.662842,31.017262 
	C173.889511,31.015360 173.447586,31.018644 172.629303,31.017056 
	C171.500168,31.015377 170.747406,31.018572 169.663132,31.016748 
	C168.889633,31.015062 168.447632,31.018393 167.588043,31.016571 
	C165.778412,31.014935 164.386368,31.018448 162.662888,31.016945 
	C161.889557,31.015427 161.447678,31.018927 160.536804,31.017031 
	C145.709763,31.015226 131.351700,31.018816 116.594933,31.016785 
	C115.132797,31.014647 114.069382,31.018127 112.537338,31.016293 
	C106.043762,31.014511 100.018814,31.018042 93.595123,31.016205 
	C92.132988,31.014820 91.069588,31.018801 89.670898,31.019138 
	C88.888573,31.018246 88.441521,31.020996 87.662994,31.018305 
	C86.889557,31.016493 86.447578,31.020121 85.588013,31.018198 
	C83.778366,31.015915 82.386314,31.019182 80.662827,31.017265 
	C79.889496,31.015366 79.447594,31.018650 78.629311,31.017063 
	C77.500168,31.015385 76.747398,31.018579 75.663132,31.016754 
	C74.889641,31.015064 74.447647,31.018394 73.538452,31.016363 
	C68.045258,31.014767 63.019245,31.018532 57.993237,31.022301 
z"/>
<path fill="#F9FBFC" opacity="1.000000" stroke="none" 
	d="
M46.114349,95.710327 
	C46.034897,81.229919 45.908772,66.749535 45.907276,52.269127 
	C45.906876,48.422436 48.002258,46.007549 51.883411,45.546375 
	C54.517776,45.233353 57.191448,45.139523 59.847645,45.138119 
	C129.603531,45.101315 199.359436,45.089417 269.892395,45.074306 
	C271.638824,45.099777 272.608215,45.124191 273.806366,45.439377 
	C277.282257,47.570374 278.430267,50.425476 278.370300,54.060871 
	C278.266052,60.378204 278.421661,66.699760 278.322632,73.017258 
	C278.203033,80.644211 277.931763,88.268784 277.278564,95.828491 
	C269.221222,95.842499 261.611542,95.922409 253.674530,95.886658 
	C252.897552,95.847916 252.447861,95.924820 251.540283,95.891937 
	C184.710129,95.776306 118.337883,95.769234 51.965637,95.776283 
	C50.976868,95.776382 49.988110,95.951866 48.653297,95.925827 
	C47.576279,95.774216 46.845314,95.742271 46.114349,95.710327 
M251.298843,63.539883 
	C247.405777,63.765709 244.027908,65.333305 244.216965,69.534195 
	C244.329483,72.034431 245.981293,75.231537 247.980560,76.703156 
	C251.065704,78.974052 255.651443,77.010017 257.188507,73.665939 
	C259.080353,69.550003 257.166382,65.843979 251.298843,63.539883 
M179.266357,63.844482 
	C174.602692,66.135445 172.737732,69.558395 174.469879,73.158707 
	C176.056580,76.456726 178.614868,78.382805 182.509705,77.231026 
	C186.779816,75.968285 188.080338,72.486343 187.726578,68.657204 
	C187.313232,64.183044 183.789185,63.456108 179.266357,63.844482 
M212.723892,76.764824 
	C216.407654,78.250214 219.814087,77.711525 221.809860,74.233574 
	C223.574783,71.157883 223.319778,67.668556 220.374939,65.211952 
	C217.679398,62.963318 214.573196,62.970444 211.659546,65.023285 
	C207.932327,67.649338 208.124390,72.369232 212.723892,76.764824 
z"/>
<path fill="#394D81" opacity="1.000000" stroke="none" 
	d="
M48.999348,96.045494 
	C49.988110,95.951866 50.976868,95.776382 51.965637,95.776283 
	C118.337883,95.769234 184.710129,95.776306 251.576782,96.190735 
	C252.480453,96.917191 252.889740,97.235062 253.299026,97.552933 
	C253.533295,97.036064 253.767563,96.519188 254.001831,96.002312 
	C261.611542,95.922409 269.221222,95.842499 277.667206,95.836166 
	C282.071716,94.859810 282.257538,92.387062 281.640686,89.227463 
	C280.886444,85.364098 280.088562,81.420433 280.102661,77.514343 
	C280.132050,69.364433 280.589691,61.211182 281.047211,53.069180 
	C281.437836,46.117008 280.399780,44.902740 273.577576,45.148605 
	C272.608215,45.124191 271.638824,45.099777 270.338928,44.918880 
	C268.751373,43.523277 267.550659,41.285202 266.227966,41.210659 
	C258.839478,40.794273 251.421585,40.890781 244.013550,40.838860 
	C242.685669,40.829552 241.356934,40.995960 240.028549,40.996643 
	C219.051178,41.007454 198.073288,41.089767 177.096741,40.958786 
	C169.645691,40.912262 162.195526,40.014030 154.749130,40.069187 
	C134.146011,40.221783 113.545937,40.828617 92.942970,40.937466 
	C82.831955,40.990887 72.718170,40.167034 62.603577,40.110687 
	C59.580078,40.093842 56.564342,41.413609 53.515350,41.953156 
	C52.222359,42.181961 50.115440,42.503498 49.663029,41.868156 
	C48.524384,40.269123 47.490421,38.098076 47.641956,36.257378 
	C47.738640,35.082962 49.870647,33.698921 51.366234,33.109310 
	C53.378601,32.315964 55.657078,32.197632 57.907288,31.405937 
	C63.019245,31.018532 68.045258,31.014767 73.576797,31.311111 
	C74.486778,31.925817 74.891235,32.240414 75.295685,32.555012 
	C75.528664,32.043934 75.761650,31.532852 75.994629,31.021774 
	C76.747398,31.018579 77.500168,31.015385 78.667587,31.311821 
	C79.486626,31.926140 79.891022,32.240826 80.295418,32.555511 
	C80.528366,32.044491 80.761314,31.533472 80.994255,31.022449 
	C82.386314,31.019182 83.778366,31.015915 85.626404,31.312698 
	C86.486717,31.927048 86.891068,32.241352 87.295410,32.555656 
	C87.528427,32.045017 87.761444,31.534380 87.994469,31.023743 
	C88.441521,31.020996 88.888573,31.018246 89.731972,31.362076 
	C91.802879,33.651516 93.151550,33.760967 93.993858,31.021572 
	C100.018814,31.018042 106.043762,31.014511 112.598389,31.359352 
	C114.801628,33.651134 116.150322,33.762070 116.993645,31.022406 
	C131.351700,31.018816 145.709763,31.015226 160.575073,31.311718 
	C161.486816,31.926237 161.891281,32.240673 162.295746,32.555115 
	C162.528610,32.044067 162.761475,31.533016 162.994324,31.021963 
	C164.386368,31.018448 165.778412,31.014935 167.626404,31.311317 
	C168.486786,31.925804 168.891251,32.240395 169.295700,32.554985 
	C169.528671,32.043911 169.761658,31.532837 169.994629,31.021765 
	C170.747406,31.018572 171.500168,31.015377 172.667572,31.311813 
	C173.486618,31.926136 173.891006,32.240826 174.295410,32.555519 
	C174.528366,32.044495 174.761322,31.533470 174.994263,31.022446 
	C178.028427,31.018919 181.062576,31.015390 184.601166,31.347538 
	C186.068375,31.462709 187.031143,31.242207 187.993927,31.021706 
	C210.351944,31.018316 232.709976,31.014923 255.586823,31.347250 
	C257.068451,31.462553 258.031281,31.242136 258.994080,31.021717 
	C259.747192,31.018461 260.500336,31.015203 261.719452,31.405567 
	C266.119598,31.868252 270.053711,31.937317 273.987854,32.006382 
	C274.158051,32.005253 274.328217,32.004124 274.753815,32.001251 
	C277.835022,34.601177 280.656464,37.207592 283.489532,39.801281 
	C284.216949,40.467216 284.896332,41.495308 285.741730,41.673302 
	C292.106659,43.013405 291.299866,47.891479 291.362457,52.478550 
	C291.402679,55.425880 292.005127,58.372147 291.960724,61.312927 
	C291.708099,78.039001 291.221130,94.762215 291.067352,111.488731 
	C291.012604,117.440643 291.906403,123.397171 291.954376,129.354919 
	C292.086395,145.762756 292.117828,162.173523 291.957397,178.580872 
	C291.855194,189.037003 291.152435,199.487839 291.080200,209.943527 
	C291.035645,216.396271 291.964020,222.855270 291.929077,229.308624 
	C291.879700,238.431213 291.118652,247.550385 291.087189,256.672485 
	C291.062073,263.959595 291.985718,271.251190 291.932892,278.536743 
	C291.831696,292.491119 291.220490,306.441315 291.065582,320.395996 
	C291.010590,325.347443 291.847717,330.303131 291.947144,335.263550 
	C292.042114,340.002258 289.782776,341.584808 285.187897,341.302612 
	C282.102112,341.113068 278.966095,341.741486 275.335022,341.606018 
	C273.151245,340.805450 271.486481,340.059631 269.818573,340.052460 
	C250.674942,339.970123 231.530853,340.000000 212.386887,340.000000 
	C162.945511,340.000000 113.504082,339.967468 64.062874,340.059326 
	C59.929474,340.066986 57.032566,339.333344 55.893200,334.756409 
	C55.601238,333.583588 53.344463,332.899872 52.084412,331.595825 
	C54.180073,330.799042 56.181389,330.048828 58.183334,330.047150 
	C129.138367,329.987122 200.093460,329.997253 271.048553,329.997345 
	C272.381042,329.997345 273.717041,330.057648 275.045410,329.983063 
	C280.078369,329.700348 283.184326,326.743988 282.935089,321.796356 
	C282.527557,313.708099 281.572021,305.647858 281.146912,297.560028 
	C280.837067,291.664520 280.108063,285.575226 281.174530,279.873169 
	C282.825867,271.043915 283.736328,262.224365 281.766296,253.594269 
	C279.753235,244.775497 280.963531,236.276505 281.430145,227.540848 
	C281.844421,219.784821 284.339478,212.158859 281.516479,203.969727 
	C279.632294,198.503983 280.977112,191.931427 280.838959,185.855072 
	C280.756195,182.215210 280.615814,178.576401 280.471924,174.938278 
	C280.373871,172.459625 279.991089,169.968735 280.141052,167.508026 
	C280.664246,158.923904 281.390656,150.352402 281.982269,141.772125 
	C282.199005,138.628632 282.403503,135.471710 282.353851,132.325027 
	C282.245636,125.469154 282.742828,118.460983 281.412720,111.832062 
	C280.817322,108.864784 276.672363,106.253990 273.599579,104.351234 
	C272.648773,103.762459 269.922424,106.041008 267.664093,106.828163 
	C265.309601,106.099709 263.303711,105.088844 261.289886,105.072838 
	C244.969421,104.943123 228.647461,104.999992 212.325958,105.000000 
	C169.357117,105.000008 126.388268,104.999786 83.419426,105.000587 
	C80.631081,105.000641 77.332436,104.317528 77.531059,109.002441 
	C70.424377,109.003166 63.784031,108.911362 57.150154,109.077614 
	C55.751003,109.112686 54.375557,110.093597 52.573589,110.762680 
	C50.435963,110.789902 48.713932,110.693153 46.994293,110.222839 
	C46.331123,107.566177 45.665562,105.283089 45.356686,102.963943 
	C50.268600,102.285683 49.663807,99.179832 48.999348,96.045494 
z"/>
<path fill="#374E81" opacity="1.000000" stroke="none" 
	d="
M45.000000,103.000000 
	C45.665562,105.283089 46.331123,107.566177 46.691959,110.517136 
	C46.126198,113.114807 45.865166,115.044609 45.248665,116.994324 
	C40.968796,120.576378 39.229233,126.882309 41.826374,132.078735 
	C42.972443,134.371826 41.077034,138.615234 45.709969,139.347321 
	C45.739525,140.107651 45.679993,140.545563 45.267586,141.110931 
	C45.149963,144.497879 45.385216,147.757385 45.709698,151.339279 
	C45.739582,152.099640 45.680229,152.537582 45.252701,152.999420 
	C44.345348,153.337616 43.370007,153.605865 43.331234,153.973007 
	C42.511494,161.735840 41.198853,169.524902 41.394051,177.273270 
	C41.460407,179.907364 41.193417,184.626602 45.709969,186.347321 
	C45.739529,187.107651 45.679993,187.545563 45.267582,188.110931 
	C45.149960,191.497894 45.385212,194.757385 45.709694,198.339279 
	C45.739578,199.099640 45.680225,199.537582 45.252693,199.999420 
	C44.345337,200.337601 43.369995,200.605850 43.331223,200.973007 
	C42.511482,208.735840 41.198879,216.524887 41.394012,224.273270 
	C41.460350,226.907440 41.193447,231.626572 45.709969,233.347321 
	C45.739529,234.107651 45.679996,234.545563 45.267582,235.110931 
	C45.149960,238.497894 45.385212,241.757385 45.709694,245.339279 
	C45.739574,246.099640 45.680222,246.537582 45.252693,246.999420 
	C44.345341,247.337601 43.369987,247.605850 43.331215,247.973007 
	C42.511478,255.735825 41.198864,263.524872 41.394012,271.273224 
	C41.460358,273.907410 41.193405,278.626556 45.709969,280.347290 
	C45.739529,281.107697 45.679993,281.545685 45.270443,282.108093 
	C45.153500,285.160614 45.386574,288.088654 45.713100,291.406097 
	C45.744659,292.855469 45.682766,293.915436 45.256886,294.997925 
	C44.434566,295.193817 43.681572,295.251190 43.560890,295.557617 
	C40.307281,303.818573 40.069271,312.354828 41.958782,320.884796 
	C42.513813,323.390381 44.481804,325.583038 45.928925,328.020813 
	C46.348175,328.281921 46.624866,328.462646 47.049950,328.975983 
	C48.806252,330.188629 50.398296,331.090057 51.990353,331.991455 
	C53.344463,332.899872 55.601238,333.583588 55.893200,334.756409 
	C57.032566,339.333344 59.929474,340.066986 64.062874,340.059326 
	C113.504082,339.967468 162.945511,340.000000 212.386887,340.000000 
	C231.530853,340.000000 250.674942,339.970123 269.818573,340.052460 
	C271.486481,340.059631 273.151245,340.805450 274.908752,341.604675 
	C198.362640,342.002441 121.725281,342.003693 45.087921,342.004883 
	C44.588112,342.004913 44.088261,342.009125 43.588501,342.004272 
	C32.583252,341.898010 28.847456,336.112335 32.745274,325.506256 
	C36.307091,315.814423 35.533756,306.241089 32.979416,296.270386 
	C31.524878,290.592621 31.790115,283.942413 33.178307,278.187805 
	C35.501846,268.555817 35.292332,259.470764 33.233730,249.807144 
	C31.840645,243.267624 32.311302,235.942978 33.639790,229.308167 
	C35.374458,220.644775 35.763874,212.317657 33.398125,203.846130 
	C31.306757,196.357147 32.063286,189.107437 33.428001,181.425888 
	C34.831890,173.523804 33.529015,165.146912 33.471848,156.977371 
	C33.420708,149.668686 32.606117,142.229095 33.704742,135.089844 
	C34.658855,128.889740 35.047894,123.403122 33.169205,117.164558 
	C31.649836,112.119186 32.245720,106.035446 33.318058,100.696465 
	C35.403183,90.314980 36.417419,80.234398 32.796761,69.955536 
	C31.741922,66.960892 31.235424,63.089680 32.206501,60.201595 
	C34.502930,53.371761 32.351250,45.127598 38.521805,39.600243 
	C39.717503,38.529182 41.440434,38.046703 42.920162,37.292725 
	C43.139194,38.797501 43.916832,40.492981 43.479603,41.773716 
	C41.681892,47.039581 42.393726,52.032097 43.418839,57.386559 
	C44.477016,62.913757 45.397049,68.821022 42.015984,74.304443 
	C41.083134,75.817345 41.293495,78.112968 41.218403,80.058685 
	C41.105930,82.973083 40.798046,85.972412 41.330261,88.792770 
	C41.844055,91.515503 43.317013,94.057228 44.684223,97.265671 
	C44.999886,99.568581 44.999943,101.284294 45.000000,103.000000 
z"/>
<path fill="#384C82" opacity="1.000000" stroke="none" 
	d="
M45.356686,102.963943 
	C44.999943,101.284294 44.999886,99.568581 44.999535,97.423744 
	C45.294609,96.746613 45.589985,96.498611 45.999855,95.980469 
	C46.845314,95.742271 47.576279,95.774216 48.653297,95.925827 
	C49.663807,99.179832 50.268600,102.285683 45.356686,102.963943 
z"/>
<path fill="#415583" opacity="1.000000" stroke="none" 
	d="
M273.700867,31.711517 
	C270.053711,31.937317 266.119598,31.868252 262.096008,31.410370 
	C265.808990,31.153252 269.611450,31.284954 273.700867,31.711517 
z"/>
<path fill="#415583" opacity="1.000000" stroke="none" 
	d="
M116.594933,31.016785 
	C116.150322,33.762070 114.801628,33.651134 113.067009,31.364664 
	C114.069382,31.018127 115.132797,31.014647 116.594933,31.016785 
z"/>
<path fill="#415583" opacity="1.000000" stroke="none" 
	d="
M93.595123,31.016205 
	C93.151550,33.760967 91.802879,33.651516 90.067245,31.365721 
	C91.069588,31.018801 92.132988,31.014820 93.595123,31.016205 
z"/>
<path fill="#415583" opacity="1.000000" stroke="none" 
	d="
M258.620575,31.016373 
	C258.031281,31.242136 257.068451,31.462553 256.055817,31.352646 
	C256.753021,31.018555 257.500031,31.014791 258.620575,31.016373 
z"/>
<path fill="#415583" opacity="1.000000" stroke="none" 
	d="
M187.620453,31.016382 
	C187.031143,31.242207 186.068375,31.462709 185.055786,31.352858 
	C185.752991,31.018688 186.499985,31.014874 187.620453,31.016382 
z"/>
<path fill="#415583" opacity="1.000000" stroke="none" 
	d="
M174.662842,31.017262 
	C174.761322,31.533470 174.528366,32.044495 174.295410,32.555519 
	C173.891006,32.240826 173.486618,31.926136 173.043945,31.316689 
	C173.447586,31.018644 173.889511,31.015360 174.662842,31.017262 
z"/>
<path fill="#415583" opacity="1.000000" stroke="none" 
	d="
M75.663132,31.016754 
	C75.761650,31.532852 75.528664,32.043934 75.295685,32.555012 
	C74.891235,32.240414 74.486778,31.925817 74.043991,31.316473 
	C74.447647,31.018394 74.889641,31.015064 75.663132,31.016754 
z"/>
<path fill="#415583" opacity="1.000000" stroke="none" 
	d="
M80.662827,31.017265 
	C80.761314,31.533472 80.528366,32.044491 80.295418,32.555511 
	C79.891022,32.240826 79.486626,31.926140 79.043961,31.316696 
	C79.447594,31.018650 79.889496,31.015366 80.662827,31.017265 
z"/>
<path fill="#415583" opacity="1.000000" stroke="none" 
	d="
M87.662994,31.018303 
	C87.761444,31.534380 87.528427,32.045017 87.295410,32.555656 
	C86.891068,32.241352 86.486717,31.927048 86.043991,31.318245 
	C86.447578,31.020121 86.889557,31.016493 87.662994,31.018303 
z"/>
<path fill="#415583" opacity="1.000000" stroke="none" 
	d="
M162.662888,31.016945 
	C162.761475,31.533016 162.528610,32.044067 162.295746,32.555115 
	C161.891281,32.240673 161.486816,31.926237 161.044067,31.317114 
	C161.447678,31.018927 161.889557,31.015427 162.662888,31.016945 
z"/>
<path fill="#415583" opacity="1.000000" stroke="none" 
	d="
M169.663132,31.016748 
	C169.761658,31.532837 169.528671,32.043911 169.295700,32.554985 
	C168.891251,32.240395 168.486786,31.925804 168.043976,31.316469 
	C168.447632,31.018393 168.889633,31.015062 169.663132,31.016748 
z"/>
<path fill="#4B5D87" opacity="1.000000" stroke="none" 
	d="
M251.658508,63.597263 
	C257.166382,65.843979 259.080353,69.550003 257.188507,73.665939 
	C255.651443,77.010017 251.065704,78.974052 247.980560,76.703156 
	C245.981293,75.231537 244.329483,72.034431 244.216965,69.534195 
	C244.027908,65.333305 247.405777,63.765709 251.658508,63.597263 
z"/>
<path fill="#4A5A85" opacity="1.000000" stroke="none" 
	d="
M179.627319,63.752319 
	C183.789185,63.456108 187.313232,64.183044 187.726578,68.657204 
	C188.080338,72.486343 186.779816,75.968285 182.509705,77.231026 
	C178.614868,78.382805 176.056580,76.456726 174.469879,73.158707 
	C172.737732,69.558395 174.602692,66.135445 179.627319,63.752319 
z"/>
<path fill="#495980" opacity="1.000000" stroke="none" 
	d="
M212.388458,76.595718 
	C208.124390,72.369232 207.932327,67.649338 211.659546,65.023285 
	C214.573196,62.970444 217.679398,62.963318 220.374939,65.211952 
	C223.319778,67.668556 223.574783,71.157883 221.809860,74.233574 
	C219.814087,77.711525 216.407654,78.250214 212.388458,76.595718 
z"/>
<path fill="#415583" opacity="1.000000" stroke="none" 
	d="
M273.806366,45.439377 
	C280.399780,44.902740 281.437836,46.117008 281.047211,53.069180 
	C280.589691,61.211182 280.132050,69.364433 280.102661,77.514343 
	C280.088562,81.420433 280.886444,85.364098 281.640686,89.227463 
	C282.257538,92.387062 282.071716,94.859810 278.114807,95.902069 
	C277.931763,88.268784 278.203033,80.644211 278.322632,73.017258 
	C278.421661,66.699760 278.266052,60.378204 278.370300,54.060871 
	C278.430267,50.425476 277.282257,47.570374 273.806366,45.439377 
z"/>
<path fill="#415583" opacity="1.000000" stroke="none" 
	d="
M253.674530,95.886658 
	C253.767563,96.519188 253.533295,97.036064 253.299026,97.552933 
	C252.889740,97.235062 252.480453,96.917191 252.034668,96.300529 
	C252.447861,95.924820 252.897552,95.847916 253.674530,95.886658 
z"/>
<path fill="#FDFDFD" opacity="1.000000" stroke="none" 
	d="
M45.620461,187.983475 
	C45.679993,187.545563 45.739529,187.107651 45.815323,185.887390 
	C45.761345,174.395203 45.691109,163.685379 45.620876,152.975540 
	C45.680229,152.537582 45.739582,152.099640 45.814461,150.893509 
	C45.760147,147.078049 45.690304,144.030762 45.620461,140.983475 
	C45.679993,140.545563 45.739525,140.107651 45.815308,138.887466 
	C45.755749,131.061600 45.679939,124.018013 45.604130,116.974419 
	C45.865166,115.044609 46.126198,113.114807 46.689568,110.890701 
	C48.713932,110.693153 50.435963,110.789902 53.024990,110.901398 
	C128.487732,110.916153 203.083466,110.916153 277.963562,110.916153 
	C277.963562,183.570801 277.963562,255.601166 277.963562,328.164215 
	C275.811218,328.164215 274.024750,328.164185 272.238312,328.164276 
	C199.422623,328.167084 126.606926,328.165436 53.791245,328.193451 
	C51.489334,328.194336 49.187542,328.500732 46.885693,328.664734 
	C46.624866,328.462646 46.348175,328.281921 45.975800,327.626770 
	C45.804276,316.412445 45.712574,305.693939 45.620872,294.975433 
	C45.682766,293.915436 45.744659,292.855469 45.817978,290.964172 
	C45.759754,287.416473 45.690105,284.700073 45.620461,281.983643 
	C45.679993,281.545685 45.739529,281.107697 45.815323,279.887390 
	C45.761345,268.395172 45.691109,257.685364 45.620872,246.975540 
	C45.680222,246.537582 45.739574,246.099640 45.814457,244.893509 
	C45.760147,241.078049 45.690304,238.030762 45.620461,234.983475 
	C45.679996,234.545563 45.739529,234.107651 45.815319,232.887390 
	C45.761345,221.395203 45.691109,210.685379 45.620872,199.975540 
	C45.680225,199.537582 45.739578,199.099640 45.814457,197.893509 
	C45.760143,194.078049 45.690300,191.030762 45.620461,187.983475 
M186.000107,291.569794 
	C186.915466,291.171600 187.809235,290.711334 188.749313,290.384186 
	C221.235458,279.078400 243.826126,244.167633 238.824448,206.414627 
	C234.321518,172.426117 203.501877,142.582001 168.867172,140.286163 
	C133.905579,137.968658 103.955559,156.323502 90.196068,188.499680 
	C76.266930,221.072540 88.802246,262.279755 118.414253,281.737366 
	C139.185547,295.385925 161.470963,298.324799 186.000107,291.569794 
z"/>
<path fill="#415583" opacity="1.000000" stroke="none" 
	d="
M47.049950,328.975983 
	C49.187542,328.500732 51.489334,328.194336 53.791245,328.193451 
	C126.606926,328.165436 199.422623,328.167084 272.238312,328.164276 
	C274.024750,328.164185 275.811218,328.164215 277.963562,328.164215 
	C277.963562,255.601166 277.963562,183.570801 277.963562,110.916153 
	C203.083466,110.916153 128.487732,110.916153 53.440590,110.777428 
	C54.375557,110.093597 55.751003,109.112686 57.150154,109.077614 
	C63.784031,108.911362 70.424377,109.003166 77.999756,109.003059 
	C91.749519,109.003479 104.561951,109.004181 117.374390,109.004219 
	C165.795456,109.004349 214.216583,109.025635 262.637421,108.920006 
	C264.429321,108.916100 266.218536,107.672592 268.009003,107.006767 
	C269.922424,106.041008 272.648773,103.762459 273.599579,104.351234 
	C276.672363,106.253990 280.817322,108.864784 281.412720,111.832062 
	C282.742828,118.460983 282.245636,125.469154 282.353851,132.325027 
	C282.403503,135.471710 282.199005,138.628632 281.982269,141.772125 
	C281.390656,150.352402 280.664246,158.923904 280.141052,167.508026 
	C279.991089,169.968735 280.373871,172.459625 280.471924,174.938278 
	C280.615814,178.576401 280.756195,182.215210 280.838959,185.855072 
	C280.977112,191.931427 279.632294,198.503983 281.516479,203.969727 
	C284.339478,212.158859 281.844421,219.784821 281.430145,227.540848 
	C280.963531,236.276505 279.753235,244.775497 281.766296,253.594269 
	C283.736328,262.224365 282.825867,271.043915 281.174530,279.873169 
	C280.108063,285.575226 280.837067,291.664520 281.146912,297.560028 
	C281.572021,305.647858 282.527557,313.708099 282.935089,321.796356 
	C283.184326,326.743988 280.078369,329.700348 275.045410,329.983063 
	C273.717041,330.057648 272.381042,329.997345 271.048553,329.997345 
	C200.093460,329.997253 129.138367,329.987122 58.183334,330.047150 
	C56.181389,330.048828 54.180073,330.799042 52.084404,331.595825 
	C50.398296,331.090057 48.806252,330.188629 47.049950,328.975983 
z"/>
<path fill="#384C82" opacity="1.000000" stroke="none" 
	d="
M267.664093,106.828163 
	C266.218536,107.672592 264.429321,108.916100 262.637421,108.920006 
	C214.216583,109.025635 165.795456,109.004349 117.374390,109.004219 
	C104.561951,109.004181 91.749519,109.003479 78.468384,109.002457 
	C77.332436,104.317528 80.631081,105.000641 83.419426,105.000587 
	C126.388268,104.999786 169.357117,105.000008 212.325958,105.000000 
	C228.647461,104.999992 244.969421,104.943123 261.289886,105.072838 
	C263.303711,105.088844 265.309601,106.099709 267.664093,106.828163 
z"/>
<path fill="#415583" opacity="1.000000" stroke="none" 
	d="
M45.252693,246.999420 
	C45.691109,257.685364 45.761345,268.395172 45.726227,279.564941 
	C41.193405,278.626556 41.460358,273.907410 41.394012,271.273224 
	C41.198864,263.524872 42.511478,255.735825 43.331215,247.973007 
	C43.369987,247.605850 44.345341,247.337601 45.252693,246.999420 
z"/>
<path fill="#415583" opacity="1.000000" stroke="none" 
	d="
M45.252693,199.999420 
	C45.691109,210.685379 45.761345,221.395203 45.726227,232.564972 
	C41.193447,231.626572 41.460350,226.907440 41.394012,224.273270 
	C41.198879,216.524887 42.511482,208.735840 43.331223,200.973007 
	C43.369995,200.605850 44.345337,200.337601 45.252693,199.999420 
z"/>
<path fill="#415583" opacity="1.000000" stroke="none" 
	d="
M45.252701,152.999420 
	C45.691109,163.685379 45.761345,174.395203 45.726227,185.564972 
	C41.193417,184.626602 41.460407,179.907364 41.394051,177.273270 
	C41.198853,169.524902 42.511494,161.735840 43.331234,153.973007 
	C43.370007,153.605865 44.345348,153.337616 45.252701,152.999420 
z"/>
<path fill="#415583" opacity="1.000000" stroke="none" 
	d="
M45.256886,294.997925 
	C45.712574,305.693939 45.804276,316.412445 45.849102,327.525024 
	C44.481804,325.583038 42.513813,323.390381 41.958782,320.884796 
	C40.069271,312.354828 40.307281,303.818573 43.560890,295.557617 
	C43.681572,295.251190 44.434566,295.193817 45.256886,294.997925 
z"/>
<path fill="#415583" opacity="1.000000" stroke="none" 
	d="
M45.248665,116.994324 
	C45.679939,124.018013 45.755749,131.061600 45.726215,138.565033 
	C41.077034,138.615234 42.972443,134.371826 41.826374,132.078735 
	C39.229233,126.882309 40.968796,120.576378 45.248665,116.994324 
z"/>
<path fill="#415583" opacity="1.000000" stroke="none" 
	d="
M45.267586,141.110931 
	C45.690304,144.030762 45.760147,147.078049 45.725227,150.571106 
	C45.385216,147.757385 45.149963,144.497879 45.267586,141.110931 
z"/>
<path fill="#415583" opacity="1.000000" stroke="none" 
	d="
M45.267582,235.110931 
	C45.690304,238.030762 45.760147,241.078049 45.725227,244.571106 
	C45.385212,241.757385 45.149960,238.497894 45.267582,235.110931 
z"/>
<path fill="#415583" opacity="1.000000" stroke="none" 
	d="
M45.267578,188.110931 
	C45.690300,191.030762 45.760143,194.078049 45.725227,197.571106 
	C45.385212,194.757385 45.149960,191.497894 45.267578,188.110931 
z"/>
<path fill="#415583" opacity="1.000000" stroke="none" 
	d="
M45.270443,282.108093 
	C45.690105,284.700073 45.759754,287.416473 45.724522,290.574829 
	C45.386574,288.088654 45.153500,285.160614 45.270443,282.108093 
z"/>
<path fill="#455883" opacity="1.000000" stroke="none" 
	d="
M185.613617,291.658386 
	C161.470963,298.324799 139.185547,295.385925 118.414253,281.737366 
	C88.802246,262.279755 76.266930,221.072540 90.196068,188.499680 
	C103.955559,156.323502 133.905579,137.968658 168.867172,140.286163 
	C203.501877,142.582001 234.321518,172.426117 238.824448,206.414627 
	C243.826126,244.167633 221.235458,279.078400 188.749313,290.384186 
	C187.809235,290.711334 186.915466,291.171600 185.613617,291.658386 
M215.687866,175.844330 
	C197.343170,153.018219 168.260803,143.932159 141.535065,152.677155 
	C107.777008,163.723175 88.475121,197.226120 95.727180,232.187424 
	C101.037521,257.787903 122.535263,279.389282 147.813843,284.171295 
	C176.660110,289.628296 200.275833,280.378601 217.373032,256.848083 
	C235.327438,232.137817 234.295898,201.999146 215.687866,175.844330 
z"/>
<path fill="#F5F8F9" opacity="1.000000" stroke="none" 
	d="
M215.906128,176.128784 
	C234.295898,201.999146 235.327438,232.137817 217.373032,256.848083 
	C200.275833,280.378601 176.660110,289.628296 147.813843,284.171295 
	C122.535263,279.389282 101.037521,257.787903 95.727180,232.187424 
	C88.475121,197.226120 107.777008,163.723175 141.535065,152.677155 
	C168.260803,143.932159 197.343170,153.018219 215.906128,176.128784 
M169.778061,267.933899 
	C200.289963,263.030365 217.197205,234.309998 212.356750,208.180237 
	C208.043137,184.894409 189.461807,167.633163 165.106384,166.150894 
	C142.160309,164.754379 121.030426,177.711746 113.535110,201.127228 
	C103.527100,232.392410 124.361183,265.073425 156.894592,268.141632 
	C160.931534,268.039642 164.968491,267.937653 169.778061,267.933899 
z"/>
<path fill="#3B5080" opacity="1.000000" stroke="none" 
	d="
M155.991394,267.903625 
	C124.361183,265.073425 103.527100,232.392410 113.535110,201.127228 
	C121.030426,177.711746 142.160309,164.754379 165.106384,166.150894 
	C189.461807,167.633163 208.043137,184.894409 212.356750,208.180237 
	C217.197205,234.309998 200.289963,263.030365 169.283722,267.505127 
	C164.422684,265.794250 160.045471,264.349426 155.991394,267.903625 
M187.492584,240.990204 
	C192.788681,235.330368 195.944168,228.822586 195.865860,220.879700 
	C195.827164,216.954361 194.285049,214.283417 190.292953,214.051926 
	C186.032715,213.804916 184.202042,216.419907 183.808899,220.545334 
	C182.890198,230.186111 176.783051,236.319870 167.302872,237.423599 
	C162.111053,238.028076 159.871658,240.293335 160.297241,244.510193 
	C160.694794,248.449081 163.729492,250.442230 168.819580,249.861526 
	C175.769165,249.068665 181.930542,246.450714 187.492584,240.990204 
z"/>
<path fill="#424E76" opacity="1.000000" stroke="none" 
	d="
M156.442993,268.022644 
	C160.045471,264.349426 164.422684,265.794250 168.897400,267.456055 
	C164.968491,267.937653 160.931534,268.039642 156.442993,268.022644 
z"/>
<path fill="#F0F4F7" opacity="1.000000" stroke="none" 
	d="
M187.248947,241.254303 
	C181.930542,246.450714 175.769165,249.068665 168.819580,249.861526 
	C163.729492,250.442230 160.694794,248.449081 160.297241,244.510193 
	C159.871658,240.293335 162.111053,238.028076 167.302872,237.423599 
	C176.783051,236.319870 182.890198,230.186111 183.808899,220.545334 
	C184.202042,216.419907 186.032715,213.804916 190.292953,214.051926 
	C194.285049,214.283417 195.827164,216.954361 195.865860,220.879700 
	C195.944168,228.822586 192.788681,235.330368 187.248947,241.254303 
z"/>
</svg>