<svg version="1.1" id="Layer_1" xmlns="http://www.w3.org/2000/svg" xmlns:xlink="http://www.w3.org/1999/xlink" x="0px" y="0px"
	 width="100%" viewBox="0 0 464 422" enable-background="new 0 0 464 422" xml:space="preserve">
<path fill="#3E8668" opacity="1.000000" stroke="none" 
	d="
M230.000000,423.000000 
	C153.354813,423.000000 77.209625,423.000000 1.032217,423.000000 
	C1.032217,282.394470 1.032217,141.788956 1.032217,1.091717 
	C155.561859,1.091717 310.123810,1.091717 464.842865,1.091717 
	C464.842865,141.666534 464.842865,282.333252 464.842865,423.000000 
	C386.788940,423.000000 308.644470,423.000000 230.000000,423.000000 
M269.478241,261.301971 
	C274.998901,291.565674 280.510590,321.831055 286.051361,352.091064 
	C286.752930,355.922516 289.331757,357.344086 292.981659,356.863678 
	C297.265900,356.299866 301.525085,355.545593 305.795013,354.872833 
	C329.620483,351.119110 353.456665,347.431519 377.264832,343.571014 
	C384.544983,342.390594 385.336151,340.851227 384.209991,333.370209 
	C383.249817,326.991913 382.485687,320.584106 381.569519,313.698364 
	C385.128174,313.071167 388.231323,312.690399 391.248718,311.956787 
	C397.017029,310.554382 403.406464,310.095825 408.344360,307.205872 
	C420.670258,299.991974 423.344818,288.030518 421.357880,274.718567 
	C419.074524,259.420746 416.413696,244.178528 414.199615,228.871262 
	C411.389832,209.445236 394.301453,197.742325 378.936340,202.576263 
	C376.044647,203.486008 372.844940,203.416672 369.373657,203.850876 
	C369.373657,199.348160 369.473724,195.394165 369.353973,191.446838 
	C369.056213,181.632492 356.967651,167.708008 347.268311,165.907684 
	C346.779144,165.816864 346.274628,165.808563 345.777191,165.762314 
	C340.539337,165.275253 335.247833,164.074020 330.075684,164.462234 
	C321.491852,165.106522 312.976379,166.289337 304.312225,166.294342 
	C301.449463,166.295990 298.341492,170.191971 295.770966,169.762375 
	C287.023315,168.300476 280.414459,174.250656 272.485168,175.566055 
	C268.132721,176.288116 263.685364,180.059204 260.524872,183.574112 
	C254.385864,190.401535 251.291000,198.475571 252.057404,208.196609 
	C252.633423,215.503113 254.635208,221.351715 260.392914,226.008102 
	C261.995148,227.303909 263.324188,229.548447 263.756683,231.575760 
	C265.802155,241.163666 267.493469,250.827148 269.478241,261.301971 
M223.941208,196.812698 
	C222.841019,187.098419 217.784454,178.751984 209.943939,174.396378 
	C201.731735,169.834290 191.665634,168.607910 182.404541,165.941956 
	C182.102768,165.855087 181.730743,166.036255 181.412674,165.977524 
	C180.448624,165.799561 179.314667,165.827728 178.564606,165.312805 
	C168.491089,158.397263 156.400085,164.707901 145.954987,160.308838 
	C145.572784,160.147873 144.992630,160.503113 144.498123,160.555222 
	C140.769714,160.948135 137.036194,161.295029 133.311508,161.719879 
	C131.343597,161.944336 129.038376,161.732864 127.496391,162.696152 
	C122.916389,165.557388 118.584122,168.830109 114.259010,172.080383 
	C109.587753,175.590820 107.136131,180.351334 107.047150,186.219620 
	C106.974815,190.990112 107.032455,195.762589 107.032455,200.887619 
	C103.502205,200.425446 100.343391,200.315033 97.342705,199.568787 
	C80.566513,195.396683 66.001328,208.186020 63.249584,224.413391 
	C61.635990,233.928955 60.141872,243.467743 58.790134,253.023849 
	C57.509415,262.077850 55.720940,271.151276 55.521088,280.246185 
	C55.197987,294.949829 64.601364,305.410156 79.059319,307.944794 
	C84.417236,308.884094 89.786659,309.757843 95.580170,310.733826 
	C94.556816,318.500397 93.593460,325.715912 92.659523,332.935272 
	C92.092384,337.319305 93.731537,339.730988 98.405411,340.451660 
	C126.704361,344.814728 154.972321,349.378296 183.261322,353.806610 
	C188.555862,354.635406 190.420761,353.075165 191.390976,347.606445 
	C193.047897,338.267181 194.669312,328.921265 196.387466,319.593231 
	C201.149307,293.740662 205.774582,267.860748 210.840622,242.067612 
	C212.542999,233.400162 211.792496,223.690994 220.296356,217.307144 
	C222.244461,215.844696 223.200134,212.391113 223.605927,209.701996 
	C224.196655,205.787308 223.874741,201.734894 223.941208,196.812698 
M237.482056,155.067886 
	C238.467880,153.099274 240.270355,151.146027 240.307724,149.159561 
	C240.560776,135.703934 240.443558,122.241295 240.439972,108.780922 
	C240.438950,104.937103 238.935928,102.223999 234.727066,102.161415 
	C230.411850,102.097275 229.036011,104.931175 229.028946,108.726913 
	C229.004211,122.021103 228.942276,135.315857 229.039093,148.609329 
	C229.079971,154.223129 230.977829,155.730743 237.482056,155.067886 
M198.125137,132.552338 
	C201.694305,138.749847 205.359055,144.894928 208.796616,151.164597 
	C210.840515,154.892441 213.454437,156.921890 217.664764,154.907410 
	C220.906403,153.356430 221.389603,149.579544 219.013535,145.392776 
	C213.102661,134.977386 207.131012,124.596497 201.188110,114.199280 
	C199.256226,110.819420 196.801544,108.607727 192.684830,110.712692 
	C189.289490,112.448807 188.732727,115.813499 191.105804,120.193718 
	C193.246124,124.144295 195.503708,128.031326 198.125137,132.552338 
M271.454468,132.131668 
	C273.850464,127.942650 276.276337,123.770355 278.632904,119.559258 
	C280.475189,116.267189 280.673370,113.058144 277.051575,110.901176 
	C273.213654,108.615517 270.370789,110.339493 268.365692,113.841003 
	C262.332031,124.377556 256.313690,134.923065 250.344330,145.496094 
	C248.475143,148.806870 247.785538,152.189987 251.499741,154.748230 
	C254.664703,156.928192 257.991577,155.655212 260.472473,151.416840 
	C264.085968,145.243530 267.599335,139.011597 271.454468,132.131668 
z"/>
<path fill="#F9F9FA" opacity="1.000000" stroke="none" 
	d="
M269.394653,260.882812 
	C267.493469,250.827148 265.802155,241.163666 263.756683,231.575760 
	C263.324188,229.548447 261.995148,227.303909 260.392914,226.008102 
	C254.635208,221.351715 252.633423,215.503113 252.057404,208.196609 
	C251.291000,198.475571 254.385864,190.401535 260.524872,183.574112 
	C263.685364,180.059204 268.132721,176.288116 272.485168,175.566055 
	C280.414459,174.250656 287.023315,168.300476 295.770966,169.762375 
	C298.341492,170.191971 301.449463,166.295990 304.312225,166.294342 
	C312.976379,166.289337 321.491852,165.106522 330.075684,164.462234 
	C335.247833,164.074020 340.539337,165.275253 345.777191,165.762314 
	C346.274628,165.808563 346.779144,165.816864 347.268311,165.907684 
	C356.967651,167.708008 369.056213,181.632492 369.353973,191.446838 
	C369.473724,195.394165 369.373657,199.348160 369.373657,203.850876 
	C372.844940,203.416672 376.044647,203.486008 378.936340,202.576263 
	C394.301453,197.742325 411.389832,209.445236 414.199615,228.871262 
	C416.413696,244.178528 419.074524,259.420746 421.357880,274.718567 
	C423.344818,288.030518 420.670258,299.991974 408.344360,307.205872 
	C403.406464,310.095825 397.017029,310.554382 391.248718,311.956787 
	C388.231323,312.690399 385.128174,313.071167 381.569519,313.698364 
	C382.485687,320.584106 383.249817,326.991913 384.209991,333.370209 
	C385.336151,340.851227 384.544983,342.390594 377.264832,343.571014 
	C353.456665,347.431519 329.620483,351.119110 305.795013,354.872833 
	C301.525085,355.545593 297.265900,356.299866 292.981659,356.863678 
	C289.331757,357.344086 286.752930,355.922516 286.051361,352.091064 
	C280.510590,321.831055 274.998901,291.565674 269.394653,260.882812 
M290.082886,314.412018 
	C290.976959,319.148529 291.977356,323.868286 292.726868,328.627563 
	C293.208221,331.683990 294.410217,332.865875 297.734161,332.314575 
	C320.382355,328.558441 343.032074,324.791077 365.744598,321.458740 
	C370.826599,320.713135 371.527130,318.655121 370.932526,314.224640 
	C367.037781,285.205261 363.338440,256.159698 359.536346,227.127792 
	C359.145691,224.144531 358.498749,221.194839 357.828369,217.430145 
	C350.955292,223.416306 344.250916,225.940948 336.246979,224.121780 
	C334.933380,223.823227 333.361908,224.743317 331.894836,225.022430 
	C321.375549,227.023590 310.875122,229.136581 300.323181,230.949234 
	C292.266205,232.333298 284.142517,233.328949 275.449036,234.583923 
	C280.287567,260.986511 285.106140,287.280060 290.082886,314.412018 
M402.410889,286.308167 
	C399.557983,293.704498 393.282318,295.390381 386.339081,295.843719 
	C382.304901,296.107147 380.364655,297.542236 382.666229,302.216461 
	C387.168671,301.558777 391.734650,300.837250 396.316376,300.235291 
	C403.361206,299.309662 408.272522,295.330231 409.758148,288.653809 
	C410.835266,283.813446 410.583740,278.466797 409.903442,273.485382 
	C407.857483,258.504059 405.624786,243.532776 402.861084,228.669861 
	C400.674469,216.910538 393.152466,211.844971 381.350708,213.151077 
	C379.041870,213.406601 376.763977,213.935333 374.468170,214.315933 
	C367.793945,215.422394 367.553741,215.922546 370.991852,222.192993 
	C373.178894,221.921844 375.489563,221.728088 377.766357,221.337158 
	C387.990356,219.581650 395.075287,224.682144 396.603973,234.799576 
	C398.391479,246.630035 400.484528,258.417389 402.075958,270.273010 
	C402.748596,275.283630 402.479156,280.420715 402.410889,286.308167 
M374.129303,256.618134 
	C375.227142,265.198578 376.260193,273.788391 377.495544,282.348999 
	C377.672760,283.576965 378.609772,285.426422 379.561920,285.696808 
	C387.846527,288.049408 393.268402,283.045258 391.885040,274.582031 
	C390.034485,263.260376 388.069061,251.955139 386.408783,240.605438 
	C385.063354,231.407776 383.989471,230.590729 374.759796,232.554291 
	C372.143372,233.110901 371.016876,234.191513 371.427368,236.945740 
	C372.358917,243.196304 373.142334,249.468933 374.129303,256.618134 
M332.466980,339.922302 
	C344.444092,338.003479 356.400696,335.937897 368.411133,334.257172 
	C371.917267,333.766541 373.488312,332.801270 372.957031,329.000000 
	C372.401459,325.024719 369.999786,325.884308 367.461548,326.284637 
	C353.348969,328.510315 339.224976,330.663635 325.110443,332.877167 
	C315.128601,334.442596 305.155548,336.064148 295.278412,337.644684 
	C294.461945,344.711182 295.172058,345.556580 301.535522,344.634430 
	C311.566589,343.180786 321.573120,341.558075 332.466980,339.922302 
z"/>
<path fill="#F9F9FA" opacity="1.000000" stroke="none" 
	d="
M223.941589,197.276947 
	C223.874741,201.734894 224.196655,205.787308 223.605927,209.701996 
	C223.200134,212.391113 222.244461,215.844696 220.296356,217.307144 
	C211.792496,223.690994 212.542999,233.400162 210.840622,242.067612 
	C205.774582,267.860748 201.149307,293.740662 196.387466,319.593231 
	C194.669312,328.921265 193.047897,338.267181 191.390976,347.606445 
	C190.420761,353.075165 188.555862,354.635406 183.261322,353.806610 
	C154.972321,349.378296 126.704361,344.814728 98.405411,340.451660 
	C93.731537,339.730988 92.092384,337.319305 92.659523,332.935272 
	C93.593460,325.715912 94.556816,318.500397 95.580170,310.733826 
	C89.786659,309.757843 84.417236,308.884094 79.059319,307.944794 
	C64.601364,305.410156 55.197987,294.949829 55.521088,280.246185 
	C55.720940,271.151276 57.509415,262.077850 58.790134,253.023849 
	C60.141872,243.467743 61.635990,233.928955 63.249584,224.413391 
	C66.001328,208.186020 80.566513,195.396683 97.342705,199.568787 
	C100.343391,200.315033 103.502205,200.425446 107.032455,200.887619 
	C107.032455,195.762589 106.974815,190.990112 107.047150,186.219620 
	C107.136131,180.351334 109.587753,175.590820 114.259010,172.080383 
	C118.584122,168.830109 122.916389,165.557388 127.496391,162.696152 
	C129.038376,161.732864 131.343597,161.944336 133.311508,161.719879 
	C137.036194,161.295029 140.769714,160.948135 144.498123,160.555222 
	C144.992630,160.503113 145.572784,160.147873 145.954987,160.308838 
	C156.400085,164.707901 168.491089,158.397263 178.564606,165.312805 
	C179.314667,165.827728 180.448624,165.799561 181.412674,165.977524 
	C181.730743,166.036255 182.102768,165.855087 182.404541,165.941956 
	C191.665634,168.607910 201.731735,169.834290 209.943939,174.396378 
	C217.784454,178.751984 222.841019,187.098419 223.941589,197.276947 
M187.258957,309.819092 
	C192.193481,283.266632 197.128006,256.714172 201.994614,230.527130 
	C191.915985,229.255966 182.638489,228.334793 173.451706,226.851669 
	C165.509933,225.569550 157.583221,223.981964 149.809036,221.927139 
	C139.899139,219.307800 128.624176,223.411011 119.531731,214.542999 
	C118.896416,217.379272 118.373009,219.090485 118.142799,220.840256 
	C115.799911,238.648346 113.531036,256.466156 111.187256,274.274139 
	C109.559578,286.641205 107.940399,299.010803 106.122665,311.350616 
	C105.480629,315.709137 106.295860,317.791779 111.320251,318.531494 
	C134.189941,321.898346 156.990799,325.733673 179.811890,329.428497 
	C182.343155,329.838348 183.889465,329.350616 184.320831,326.393005 
	C185.088699,321.128326 186.190186,315.912292 187.258957,309.819092 
M78.109756,288.415497 
	C76.660889,284.326843 73.613228,280.060822 74.043663,276.180664 
	C75.781738,260.512787 78.339767,244.918854 81.110123,229.389496 
	C82.559105,221.267151 90.206245,216.789871 98.468018,218.187485 
	C101.211349,218.651566 103.980339,218.963974 106.638000,219.331924 
	C109.021706,212.357224 109.022545,212.351654 102.588455,211.384933 
	C99.302803,210.891281 96.021431,210.356995 92.724243,209.954865 
	C85.775429,209.107361 80.710396,212.299789 77.368752,218.014648 
	C75.650330,220.953445 74.437004,224.397583 73.865341,227.761185 
	C71.136765,243.815918 68.585220,259.903503 66.216263,276.015533 
	C64.830063,285.443481 69.485672,294.125519 77.519287,296.462555 
	C83.020210,298.062805 88.868355,298.469543 94.411484,299.385101 
	C96.963280,294.756470 94.809517,293.732666 91.232437,292.910583 
	C86.960091,291.928680 82.836769,290.298370 78.109756,288.415497 
M103.404099,251.015396 
	C104.168793,245.576462 104.985283,240.143936 105.659180,234.693771 
	C105.813896,233.442520 105.745651,231.116959 105.326401,231.006439 
	C101.848526,230.089554 98.212204,228.959167 94.737892,229.251144 
	C93.381325,229.365143 91.621017,232.827179 91.234909,234.977982 
	C89.148064,246.602798 87.506668,258.306610 85.571304,269.959869 
	C83.761513,280.856995 84.946487,282.520660 96.006454,282.738525 
	C97.251411,282.763031 99.463501,280.878906 99.655540,279.636902 
	C101.079430,270.427795 102.105453,261.157196 103.404099,251.015396 
M139.566574,328.106598 
	C129.377060,326.501007 119.173203,324.979004 109.007385,323.235229 
	C106.208946,322.755249 104.546555,322.916931 104.267357,326.283600 
	C104.020401,329.261505 104.557602,330.840424 108.003159,331.264160 
	C116.089218,332.258606 124.119865,333.703491 132.173203,334.964294 
	C148.265106,337.483612 164.357208,340.001770 180.339951,342.503296 
	C183.480606,336.846527 183.238922,334.839508 179.408646,334.232788 
	C166.425781,332.176270 153.430618,330.197357 139.566574,328.106598 
z"/>
<path fill="#F4F6F9" opacity="1.000000" stroke="none" 
	d="
M237.141418,155.229279 
	C230.977829,155.730743 229.079971,154.223129 229.039093,148.609329 
	C228.942276,135.315857 229.004211,122.021103 229.028946,108.726913 
	C229.036011,104.931175 230.411850,102.097275 234.727066,102.161415 
	C238.935928,102.223999 240.438950,104.937103 240.439972,108.780922 
	C240.443558,122.241295 240.560776,135.703934 240.307724,149.159561 
	C240.270355,151.146027 238.467880,153.099274 237.141418,155.229279 
z"/>
<path fill="#F2F4F7" opacity="1.000000" stroke="none" 
	d="
M197.917358,132.249359 
	C195.503708,128.031326 193.246124,124.144295 191.105804,120.193718 
	C188.732727,115.813499 189.289490,112.448807 192.684830,110.712692 
	C196.801544,108.607727 199.256226,110.819420 201.188110,114.199280 
	C207.131012,124.596497 213.102661,134.977386 219.013535,145.392776 
	C221.389603,149.579544 220.906403,153.356430 217.664764,154.907410 
	C213.454437,156.921890 210.840515,154.892441 208.796616,151.164597 
	C205.359055,144.894928 201.694305,138.749847 197.917358,132.249359 
z"/>
<path fill="#F1F3F7" opacity="1.000000" stroke="none" 
	d="
M271.304932,132.468170 
	C267.599335,139.011597 264.085968,145.243530 260.472473,151.416840 
	C257.991577,155.655212 254.664703,156.928192 251.499741,154.748230 
	C247.785538,152.189987 248.475143,148.806870 250.344330,145.496094 
	C256.313690,134.923065 262.332031,124.377556 268.365692,113.841003 
	C270.370789,110.339493 273.213654,108.615517 277.051575,110.901176 
	C280.673370,113.058144 280.475189,116.267189 278.632904,119.559258 
	C276.276337,123.770355 273.850464,127.942650 271.304932,132.468170 
z"/>
<path fill="#F4CD70" opacity="1.000000" stroke="none" 
	d="
M290.003784,313.992798 
	C285.106140,287.280060 280.287567,260.986511 275.449036,234.583923 
	C284.142517,233.328949 292.266205,232.333298 300.323181,230.949234 
	C310.875122,229.136581 321.375549,227.023590 331.894836,225.022430 
	C333.361908,224.743317 334.933380,223.823227 336.246979,224.121780 
	C344.250916,225.940948 350.955292,223.416306 357.828369,217.430145 
	C358.498749,221.194839 359.145691,224.144531 359.536346,227.127792 
	C363.338440,256.159698 367.037781,285.205261 370.932526,314.224640 
	C371.527130,318.655121 370.826599,320.713135 365.744598,321.458740 
	C343.032074,324.791077 320.382355,328.558441 297.734161,332.314575 
	C294.410217,332.865875 293.208221,331.683990 292.726868,328.627563 
	C291.977356,323.868286 290.976959,319.148529 290.003784,313.992798 
M332.063171,307.493774 
	C330.668854,310.792877 331.208435,313.370636 335.251831,313.169098 
	C336.372559,313.113251 338.420868,310.348358 338.212891,309.141907 
	C337.688995,306.102875 335.354309,305.332672 332.063171,307.493774 
M347.149414,292.483673 
	C347.917084,290.914185 349.050903,289.390350 349.255188,287.750702 
	C349.327393,287.171143 346.898529,285.509888 346.024048,285.763702 
	C344.726624,286.140289 342.691589,288.246094 342.922577,288.795898 
	C343.549652,290.288635 345.203125,291.350189 347.149414,292.483673 
M340.120148,239.405502 
	C339.695801,241.077484 338.990143,242.758743 339.044708,244.414917 
	C339.058411,244.829559 341.719696,245.741226 342.792572,245.364960 
	C343.777618,245.019516 345.109222,242.625641 344.809814,242.216843 
	C343.868011,240.930740 342.230530,240.154099 340.120148,239.405502 
M336.627289,267.929932 
	C337.894775,266.768219 339.162231,265.606506 340.429688,264.444794 
	C339.499023,263.432190 338.693695,261.801483 337.602600,261.580200 
	C336.505127,261.357727 334.007538,262.689209 334.060181,263.076385 
	C334.282410,264.710144 335.227448,266.245575 336.627289,267.929932 
M309.211578,243.296814 
	C307.812653,244.305267 306.161133,245.124008 305.172455,246.440582 
	C304.884979,246.823349 306.273499,249.250854 307.292511,249.610123 
	C308.336121,249.978058 310.955322,249.031158 310.988068,248.534668 
	C311.096527,246.890137 310.349823,245.189194 309.211578,243.296814 
M303.538269,269.048492 
	C302.286774,270.219208 301.035309,271.389923 299.783813,272.560638 
	C300.717041,273.555481 301.537964,275.177399 302.614777,275.370270 
	C303.709686,275.566315 306.142609,274.245331 306.095856,273.778076 
	C305.936890,272.188934 304.941833,270.683441 303.538269,269.048492 
M314.015503,294.319458 
	C312.436432,295.046295 310.661743,295.550049 309.408813,296.648743 
	C309.074036,296.942322 310.012512,299.484772 310.963715,300.196198 
	C311.726837,300.766998 314.390259,300.375641 314.486359,299.986084 
	C314.899506,298.310730 314.676270,296.478455 314.015503,294.319458 
z"/>
<path fill="#3E8668" opacity="1.000000" stroke="none" 
	d="
M402.524414,285.904236 
	C402.479156,280.420715 402.748596,275.283630 402.075958,270.273010 
	C400.484528,258.417389 398.391479,246.630035 396.603973,234.799576 
	C395.075287,224.682144 387.990356,219.581650 377.766357,221.337158 
	C375.489563,221.728088 373.178894,221.921844 370.991852,222.192993 
	C367.553741,215.922546 367.793945,215.422394 374.468170,214.315933 
	C376.763977,213.935333 379.041870,213.406601 381.350708,213.151077 
	C393.152466,211.844971 400.674469,216.910538 402.861084,228.669861 
	C405.624786,243.532776 407.857483,258.504059 409.903442,273.485382 
	C410.583740,278.466797 410.835266,283.813446 409.758148,288.653809 
	C408.272522,295.330231 403.361206,299.309662 396.316376,300.235291 
	C391.734650,300.837250 387.168671,301.558777 382.666229,302.216461 
	C380.364655,297.542236 382.304901,296.107147 386.339081,295.843719 
	C393.282318,295.390381 399.557983,293.704498 402.524414,285.904236 
z"/>
<path fill="#3E8668" opacity="1.000000" stroke="none" 
	d="
M374.057617,256.175354 
	C373.142334,249.468933 372.358917,243.196304 371.427368,236.945740 
	C371.016876,234.191513 372.143372,233.110901 374.759796,232.554291 
	C383.989471,230.590729 385.063354,231.407776 386.408783,240.605438 
	C388.069061,251.955139 390.034485,263.260376 391.885040,274.582031 
	C393.268402,283.045258 387.846527,288.049408 379.561920,285.696808 
	C378.609772,285.426422 377.672760,283.576965 377.495544,282.348999 
	C376.260193,273.788391 375.227142,265.198578 374.057617,256.175354 
z"/>
<path fill="#3E8668" opacity="1.000000" stroke="none" 
	d="
M332.028503,339.964630 
	C321.573120,341.558075 311.566589,343.180786 301.535522,344.634430 
	C295.172058,345.556580 294.461945,344.711182 295.278412,337.644684 
	C305.155548,336.064148 315.128601,334.442596 325.110443,332.877167 
	C339.224976,330.663635 353.348969,328.510315 367.461548,326.284637 
	C369.999786,325.884308 372.401459,325.024719 372.957031,329.000000 
	C373.488312,332.801270 371.917267,333.766541 368.411133,334.257172 
	C356.400696,335.937897 344.444092,338.003479 332.028503,339.964630 
z"/>
<path fill="#F4CD70" opacity="1.000000" stroke="none" 
	d="
M187.205536,310.247498 
	C186.190186,315.912292 185.088699,321.128326 184.320831,326.393005 
	C183.889465,329.350616 182.343155,329.838348 179.811890,329.428497 
	C156.990799,325.733673 134.189941,321.898346 111.320251,318.531494 
	C106.295860,317.791779 105.480629,315.709137 106.122665,311.350616 
	C107.940399,299.010803 109.559578,286.641205 111.187256,274.274139 
	C113.531036,256.466156 115.799911,238.648346 118.142799,220.840256 
	C118.373009,219.090485 118.896416,217.379272 119.531731,214.542999 
	C128.624176,223.411011 139.899139,219.307800 149.809036,221.927139 
	C157.583221,223.981964 165.509933,225.569550 173.451706,226.851669 
	C182.638489,228.334793 191.915985,229.255966 201.994614,230.527130 
	C197.128006,256.714172 192.193481,283.266632 187.205536,310.247498 
M130.249939,279.603241 
	C128.962891,280.778351 127.202538,281.757782 126.599823,283.215759 
	C126.322105,283.887543 128.163544,286.243866 129.311783,286.468597 
	C130.453796,286.692047 133.063049,285.153168 133.034515,284.470367 
	C132.968063,282.879547 131.702835,281.338837 130.249939,279.603241 
M140.294800,309.940308 
	C141.781418,309.754242 144.019699,310.079590 144.576599,309.260986 
	C145.390457,308.064728 145.438644,305.891266 144.927582,304.447906 
	C144.682632,303.756134 142.405685,303.783905 141.049011,303.485809 
	C140.626755,305.459534 140.204498,307.433289 140.294800,309.940308 
M168.897568,289.740082 
	C167.187210,289.759155 165.243256,289.314484 163.871353,290.005463 
	C163.245468,290.320709 163.347382,293.045654 163.895477,294.351898 
	C164.206085,295.092072 166.964249,295.713959 167.119919,295.462036 
	C168.085403,293.899719 168.625443,292.074463 168.897568,289.740082 
M138.822952,239.455734 
	C137.492340,238.364090 136.268326,237.044617 134.757675,236.337784 
	C134.370300,236.156540 132.407150,237.878906 132.366394,238.780869 
	C132.311874,239.987274 133.652603,242.363464 133.998734,242.293076 
	C135.653091,241.956573 137.173752,240.962738 138.822952,239.455734 
M163.974899,244.413605 
	C164.630829,242.841141 165.286758,241.268692 165.942688,239.696228 
	C164.659500,239.168213 163.268494,238.065430 162.124634,238.280029 
	C161.062149,238.479355 160.263321,240.084137 159.348419,241.070114 
	C160.661713,242.223083 161.974991,243.376053 163.974899,244.413605 
M175.690994,264.221649 
	C177.443298,264.026337 179.299820,264.089386 180.874603,263.454041 
	C181.268204,263.295227 181.241348,260.465637 180.519821,259.633240 
	C179.810135,258.814484 177.092300,258.375244 176.793732,258.814636 
	C175.871979,260.171143 175.684311,262.026489 175.690994,264.221649 
M153.574860,265.457703 
	C151.896805,265.975464 150.094269,266.289734 148.642746,267.177765 
	C148.342117,267.361664 148.961914,270.166718 149.858536,270.870056 
	C150.717133,271.543579 153.528885,271.420898 153.672760,271.011810 
	C154.225189,269.441010 154.050659,267.614563 153.574860,265.457703 
z"/>
<path fill="#3E8668" opacity="1.000000" stroke="none" 
	d="
M78.379326,288.682190 
	C82.836769,290.298370 86.960091,291.928680 91.232437,292.910583 
	C94.809517,293.732666 96.963280,294.756470 94.411484,299.385101 
	C88.868355,298.469543 83.020210,298.062805 77.519287,296.462555 
	C69.485672,294.125519 64.830063,285.443481 66.216263,276.015533 
	C68.585220,259.903503 71.136765,243.815918 73.865341,227.761185 
	C74.437004,224.397583 75.650330,220.953445 77.368752,218.014648 
	C80.710396,212.299789 85.775429,209.107361 92.724243,209.954865 
	C96.021431,210.356995 99.302803,210.891281 102.588455,211.384933 
	C109.022545,212.351654 109.021706,212.357224 106.638000,219.331924 
	C103.980339,218.963974 101.211349,218.651566 98.468018,218.187485 
	C90.206245,216.789871 82.559105,221.267151 81.110123,229.389496 
	C78.339767,244.918854 75.781738,260.512787 74.043663,276.180664 
	C73.613228,280.060822 76.660889,284.326843 78.379326,288.682190 
z"/>
<path fill="#3E8668" opacity="1.000000" stroke="none" 
	d="
M103.330276,251.460663 
	C102.105453,261.157196 101.079430,270.427795 99.655540,279.636902 
	C99.463501,280.878906 97.251411,282.763031 96.006454,282.738525 
	C84.946487,282.520660 83.761513,280.856995 85.571304,269.959869 
	C87.506668,258.306610 89.148064,246.602798 91.234909,234.977982 
	C91.621017,232.827179 93.381325,229.365143 94.737892,229.251144 
	C98.212204,228.959167 101.848526,230.089554 105.326401,231.006439 
	C105.745651,231.116959 105.813896,233.442520 105.659180,234.693771 
	C104.985283,240.143936 104.168793,245.576462 103.330276,251.460663 
z"/>
<path fill="#3E8668" opacity="1.000000" stroke="none" 
	d="
M140.003357,328.147705 
	C153.430618,330.197357 166.425781,332.176270 179.408646,334.232788 
	C183.238922,334.839508 183.480606,336.846527 180.339951,342.503296 
	C164.357208,340.001770 148.265106,337.483612 132.173203,334.964294 
	C124.119865,333.703491 116.089218,332.258606 108.003159,331.264160 
	C104.557602,330.840424 104.020401,329.261505 104.267357,326.283600 
	C104.546555,322.916931 106.208946,322.755249 109.007385,323.235229 
	C119.173203,324.979004 129.377060,326.501007 140.003357,328.147705 
z"/>
<path fill="#FCF3DE" opacity="1.000000" stroke="none" 
	d="
M332.299683,307.219299 
	C335.354309,305.332672 337.688995,306.102875 338.212891,309.141907 
	C338.420868,310.348358 336.372559,313.113251 335.251831,313.169098 
	C331.208435,313.370636 330.668854,310.792877 332.299683,307.219299 
z"/>
<path fill="#FCF4E3" opacity="1.000000" stroke="none" 
	d="
M346.799561,292.533203 
	C345.203125,291.350189 343.549652,290.288635 342.922577,288.795898 
	C342.691589,288.246094 344.726624,286.140289 346.024048,285.763702 
	C346.898529,285.509888 349.327393,287.171143 349.255188,287.750702 
	C349.050903,289.390350 347.917084,290.914185 346.799561,292.533203 
z"/>
<path fill="#FCF5E2" opacity="1.000000" stroke="none" 
	d="
M340.491272,239.292877 
	C342.230530,240.154099 343.868011,240.930740 344.809814,242.216843 
	C345.109222,242.625641 343.777618,245.019516 342.792572,245.364960 
	C341.719696,245.741226 339.058411,244.829559 339.044708,244.414917 
	C338.990143,242.758743 339.695801,241.077484 340.491272,239.292877 
z"/>
<path fill="#FBF4E6" opacity="1.000000" stroke="none" 
	d="
M336.267700,267.873474 
	C335.227448,266.245575 334.282410,264.710144 334.060181,263.076385 
	C334.007538,262.689209 336.505127,261.357727 337.602600,261.580200 
	C338.693695,261.801483 339.499023,263.432190 340.429688,264.444794 
	C339.162231,265.606506 337.894775,266.768219 336.267700,267.873474 
z"/>
<path fill="#FDF5E3" opacity="1.000000" stroke="none" 
	d="
M309.571411,243.403351 
	C310.349823,245.189194 311.096527,246.890137 310.988068,248.534668 
	C310.955322,249.031158 308.336121,249.978058 307.292511,249.610123 
	C306.273499,249.250854 304.884979,246.823349 305.172455,246.440582 
	C306.161133,245.124008 307.812653,244.305267 309.571411,243.403351 
z"/>
<path fill="#FCF7E4" opacity="1.000000" stroke="none" 
	d="
M303.902161,269.097229 
	C304.941833,270.683441 305.936890,272.188934 306.095856,273.778076 
	C306.142609,274.245331 303.709686,275.566315 302.614777,275.370270 
	C301.537964,275.177399 300.717041,273.555481 299.783813,272.560669 
	C301.035309,271.389923 302.286774,270.219208 303.902161,269.097229 
z"/>
<path fill="#FCF6E5" opacity="1.000000" stroke="none" 
	d="
M314.350159,294.511414 
	C314.676270,296.478455 314.899506,298.310730 314.486359,299.986084 
	C314.390259,300.375641 311.726837,300.766998 310.963715,300.196198 
	C310.012512,299.484772 309.074036,296.942322 309.408813,296.648743 
	C310.661743,295.550049 312.436432,295.046295 314.350159,294.511414 
z"/>
<path fill="#FCF5DE" opacity="1.000000" stroke="none" 
	d="
M130.586609,279.690521 
	C131.702835,281.338837 132.968063,282.879547 133.034515,284.470367 
	C133.063049,285.153168 130.453796,286.692047 129.311783,286.468597 
	C128.163544,286.243866 126.322105,283.887543 126.599823,283.215759 
	C127.202538,281.757782 128.962891,280.778351 130.586609,279.690521 
z"/>
<path fill="#FCF3DD" opacity="1.000000" stroke="none" 
	d="
M140.038513,309.673645 
	C140.204498,307.433289 140.626755,305.459534 141.049011,303.485809 
	C142.405685,303.783905 144.682632,303.756134 144.927582,304.447906 
	C145.438644,305.891266 145.390457,308.064728 144.576599,309.260986 
	C144.019699,310.079590 141.781418,309.754242 140.038513,309.673645 
z"/>
<path fill="#FCF5E0" opacity="1.000000" stroke="none" 
	d="
M169.102142,290.038269 
	C168.625443,292.074463 168.085403,293.899719 167.119919,295.462036 
	C166.964249,295.713959 164.206085,295.092072 163.895477,294.351898 
	C163.347382,293.045654 163.245468,290.320709 163.871353,290.005463 
	C165.243256,289.314484 167.187210,289.759155 169.102142,290.038269 
z"/>
<path fill="#FCF5E5" opacity="1.000000" stroke="none" 
	d="
M138.782440,239.829163 
	C137.173752,240.962738 135.653091,241.956573 133.998734,242.293076 
	C133.652603,242.363464 132.311874,239.987274 132.366394,238.780869 
	C132.407150,237.878906 134.370300,236.156540 134.757675,236.337784 
	C136.268326,237.044617 137.492340,238.364090 138.782440,239.829163 
z"/>
<path fill="#FDF5E6" opacity="1.000000" stroke="none" 
	d="
M163.631592,244.471313 
	C161.974991,243.376053 160.661713,242.223083 159.348419,241.070114 
	C160.263321,240.084137 161.062149,238.479355 162.124634,238.280029 
	C163.268494,238.065430 164.659500,239.168213 165.942688,239.696228 
	C165.286758,241.268692 164.630829,242.841141 163.631592,244.471313 
z"/>
<path fill="#FCF7E6" opacity="1.000000" stroke="none" 
	d="
M175.451263,263.954865 
	C175.684311,262.026489 175.871979,260.171143 176.793732,258.814636 
	C177.092300,258.375244 179.810135,258.814484 180.519821,259.633240 
	C181.241348,260.465637 181.268204,263.295227 180.874603,263.454041 
	C179.299820,264.089386 177.443298,264.026337 175.451263,263.954865 
z"/>
<path fill="#FCF6E2" opacity="1.000000" stroke="none" 
	d="
M153.861084,265.670593 
	C154.050659,267.614563 154.225189,269.441010 153.672760,271.011810 
	C153.528885,271.420898 150.717133,271.543579 149.858536,270.870056 
	C148.961914,270.166718 148.342117,267.361664 148.642746,267.177765 
	C150.094269,266.289734 151.896805,265.975464 153.861084,265.670593 
z"/>
</svg>