<?xml version="1.0" encoding="utf-8" ?><svg xmlns="http://www.w3.org/2000/svg" xmlns:xlink="http://www.w3.org/1999/xlink" width="338" height="314" viewBox="0 0 338 314"><path fill="#FFFFFF" d="M0 0L338 0L338 314L0 314L0 0Z"/><path fill="#3E8668" d="M262.887 151.547C263.813 151.51 265.337 151.594 266.231 151.883C289.633 159.386 326.621 176.751 320.273 207.085C315.802 225.207 295.715 236.969 280.02 243.474C243.94 258.427 203.968 262.648 165.234 262.545C155.347 262.518 145.351 262.2 135.481 261.404C117.759 259.999 100.177 257.177 82.9057 252.965C55.7348 246.342 -2.83544 224.367 17.7145 184.658C21.5829 177.183 31.7473 169.187 38.893 164.884C44.2827 161.462 51.1284 158.304 57.0914 155.985C61.3297 154.337 66.5933 155.497 67.8603 160.438C70.0251 168.88 62.4379 170.249 56.5676 173.087C46.9733 177.709 36.7317 183.424 31.0555 192.771C29.029 196.115 28.184 200.213 29.4301 203.881C31.9734 212.705 42.6929 220.33 50.4471 224.383C93.2011 246.73 158.481 250.349 205.355 245.382C223.374 243.605 241.178 240.082 258.516 234.861C273.265 230.41 295.78 221.247 303.586 207.551C313.7 189.804 283.626 174.948 271.16 169.997C264.061 167.178 252.976 166.053 257.166 155.54C257.984 153.489 260.939 152.141 262.887 151.547Z"/><path fill="#3E8668" d="M159.343 23.5793C159.519 23.6235 159.642 23.648 159.814 23.7305C161.356 24.4706 162.988 25.8488 164.25 26.953C170.42 32.353 174.595 36.9312 178.786 43.8054C197.52 74.5292 189.335 95.6891 177.148 126.208C171.711 139.822 168.138 150.312 169.334 165.23C170.022 173.814 173.156 182.694 178.455 189.628C180.315 192.061 183.112 194.43 184.204 197.237L184.303 197.496C182.942 200.293 181.709 201.655 179.704 203.968C178.803 203.057 176.803 201.633 175.745 200.766C173.275 198.744 170.665 196.625 168.57 194.213C157.011 180.9 148.231 165.619 148.64 147.475C148.738 143.144 148.695 139.609 149.76 135.303C152.726 123.318 157.927 111.511 162.393 99.9971C166.444 89.5514 170.533 78.5456 170.515 67.1633C170.5 57.4571 167.169 46.6859 161.695 38.6492C160.403 36.7513 156.416 32.7918 155.83 30.8657C155.314 29.1702 158.342 25.0654 159.343 23.5793Z"/><path fill="#3E8668" d="M94.7811 67.6508C102.271 70.9128 112.117 79.8459 116.665 86.6077C132.298 109.85 123.206 124.558 112.001 146.678C109.23 152.15 105.852 158.7 104.819 164.702C103.14 174.461 105.129 185.01 112.022 192.399C114.011 194.531 117.921 197.727 119.356 199.845L119.52 200.092C119.35 200.439 119.163 200.777 118.959 201.105C117.925 202.755 116.362 204.87 114.366 205.31C105.04 199.803 97.2419 193.501 91.06 184.379C75.908 163.613 87.1085 145.211 97.6879 125.672C105.919 110.47 110.274 94.819 97.28 80.3964C95.179 78.0643 92.1947 75.6438 90.3935 73.0612C91.8632 70.7326 92.6806 69.5429 94.7811 67.6508Z"/><path fill="#3E8668" d="M224.118 67.9381C224.253 67.9402 224.633 67.9487 224.755 67.9976C232.633 71.1556 241.895 80.0132 246.336 86.5979C262.044 109.889 253.076 124.222 241.733 146.635C238.733 152.563 235.505 159.002 234.446 165.548C232.814 175.641 235.045 185.156 242.09 192.739C244.057 194.856 247.631 197.661 249.119 199.816L249.283 200.059C248.421 201.701 246.311 204.413 244.659 205.334C236.222 201.421 228.076 193.968 222.603 186.73C204.381 162.629 216.725 146.744 228.353 123.746C231.346 117.824 234.162 111.665 235.069 105.022C236.268 96.2412 233.089 87.2175 227.316 80.6109C224.971 77.9276 222.354 75.9985 220.065 73.0211C221.347 71.2608 222.569 69.4683 224.118 67.9381Z"/></svg>