<svg version="1.1" id="Layer_1" xmlns="http://www.w3.org/2000/svg" xmlns:xlink="http://www.w3.org/1999/xlink" x="0px" y="0px"
	 width="100%" viewBox="0 0 364 366" enable-background="new 0 0 364 366" xml:space="preserve">
<style>
  path { fill: #3E8668 !important; stroke: #3E8668 !important; }
  path[fill^="#F"], path[fill^="#f"] { fill: #FFFFFF !important; stroke: none !important; }
</style>
<path fill="#FEFEFE" opacity="1.000000" stroke="none" 
	d="
M206.000000,367.000000 
	C137.356674,367.000000 69.213348,367.000000 1.035013,367.000000 
	C1.035013,245.065125 1.035013,123.130241 1.035013,1.097678 
	C122.226593,1.097678 243.453293,1.097678 364.839996,1.097678 
	C364.839996,122.999832 364.839996,244.999893 364.839996,367.000000 
	C312.130341,367.000000 259.315155,367.000000 206.000000,367.000000 
M93.121941,67.914795 
	C87.322983,72.106735 83.903496,77.677818 82.726776,85.350845 
	C82.585960,100.590546 82.445145,115.830246 81.827133,131.564774 
	C79.264099,134.150192 76.428818,136.520584 74.186737,139.359482 
	C65.955536,149.781754 64.768593,162.785645 61.170765,175.651855 
	C61.163273,176.120346 61.155777,176.588821 60.581886,177.501709 
	C58.472527,185.003601 56.363167,192.505478 54.019012,200.655121 
	C54.029930,201.110046 54.040848,201.564957 53.631119,202.592224 
	C50.775829,212.987259 47.697060,223.329300 45.212147,233.812134 
	C44.535854,236.665131 45.648727,239.942245 45.753723,243.677917 
	C45.828316,244.118896 45.902912,244.559875 45.842564,245.717407 
	C46.230946,246.810913 46.619328,247.904434 46.930397,249.597794 
	C47.245323,250.081360 47.560249,250.564926 47.832394,251.979080 
	C47.884537,253.795303 47.972359,255.611298 47.983227,257.427765 
	C48.076141,272.956268 48.155106,288.484894 48.059311,304.662781 
	C48.117710,305.104004 48.176109,305.545227 48.040085,306.627625 
	C48.269611,307.442566 48.499134,308.257538 48.884270,309.829926 
	C50.552864,313.206482 53.516254,313.607513 56.880882,313.609955 
	C94.665367,313.637299 132.449799,313.796295 170.234253,313.797119 
	C209.512665,313.797943 248.791092,313.669830 288.069458,313.578094 
	C291.033875,313.571167 293.997925,313.404327 297.623322,313.679413 
	C298.095093,313.554901 298.566864,313.430420 299.828064,313.671143 
	C301.539246,313.553741 303.250397,313.436340 305.637787,313.728210 
	C312.925751,313.375122 315.231384,311.096283 315.255676,304.124390 
	C315.285828,295.473145 315.234039,286.821442 315.292847,278.170441 
	C315.356110,268.858765 313.999664,259.220215 315.936890,250.305374 
	C319.802124,232.517822 312.793457,217.037964 308.346039,200.270035 
	C308.249054,199.846039 308.152039,199.422058 308.133148,198.200592 
	C307.646545,196.633759 307.141510,195.072357 306.676270,193.499191 
	C303.382477,182.361099 300.096863,171.220596 296.883850,159.357422 
	C296.706879,158.913864 296.529938,158.470306 296.548248,157.306824 
	C294.213318,146.574570 289.056702,137.610580 280.302917,130.133347 
	C280.146820,125.766762 279.990692,121.400169 280.091095,116.122269 
	C279.955963,106.412476 279.820831,96.702675 279.850037,86.247566 
	C279.445618,84.504395 279.041229,82.761215 278.698792,80.308502 
	C275.807709,76.517479 272.916595,72.726456 269.839264,68.307579 
	C268.195557,67.331482 266.551880,66.355385 264.361938,64.914879 
	C262.555328,64.501427 260.748718,64.087975 258.236908,63.290455 
	C257.450500,63.303204 256.664124,63.315948 255.240768,62.845173 
	C254.253906,62.721771 253.267151,62.491192 252.280182,62.490356 
	C205.041550,62.450222 157.802750,62.375771 110.564568,62.513836 
	C106.920204,62.524487 103.280266,64.046234 99.278992,64.780594 
	C99.278992,64.780594 99.003052,65.025887 98.306114,64.967827 
	C96.808853,65.916695 95.311600,66.865555 93.121941,67.914795 
z"/>
<path fill="#394E7E" opacity="1.000000" stroke="none" 
	d="
M48.234505,305.986450 
	C48.176109,305.545227 48.117710,305.104004 48.543533,304.314819 
	C53.232338,301.342224 49.923534,297.231140 51.360771,294.027893 
	C54.199749,295.367950 55.712223,294.129883 55.788719,291.837219 
	C55.937103,287.389862 55.587219,282.925873 55.433258,278.141541 
	C53.192120,278.581879 52.097061,278.797028 50.999687,278.542816 
	C51.273956,270.342590 51.737701,262.609467 51.643604,254.883163 
	C51.627857,253.589844 49.192497,252.325974 47.875175,251.048508 
	C47.560249,250.564926 47.245323,250.081360 47.233612,249.075500 
	C47.017052,247.369080 46.497276,246.184967 45.977505,245.000854 
	C45.902912,244.559875 45.828316,244.118896 46.154423,243.074020 
	C47.703766,235.647141 48.852409,228.824142 50.345242,221.947266 
	C51.123974,220.928650 51.558514,219.963943 52.204094,218.714905 
	C53.202606,217.652298 54.669296,216.871338 54.666248,216.096161 
	C54.647816,211.403336 54.293694,206.711823 54.051773,202.019882 
	C54.040848,201.564957 54.029930,201.110046 54.478149,200.242966 
	C56.903355,195.225510 59.224354,190.730270 60.699333,185.972717 
	C61.553005,183.219177 61.044014,180.043182 61.148285,177.057312 
	C61.155777,176.588821 61.163273,176.120346 61.640625,175.232483 
	C64.128914,168.887894 71.704498,165.474045 68.778107,157.018845 
	C67.473877,153.250534 70.915115,148.973495 73.732658,145.203308 
	C75.971581,142.207367 76.525391,138.021286 81.000053,137.383682 
	C81.084366,141.435089 82.172363,143.281738 85.990097,140.699219 
	C86.403206,140.419754 87.321518,140.887100 87.866943,141.319214 
	C86.871941,142.586716 85.585388,143.408295 85.235977,144.523483 
	C83.953369,148.617172 82.982048,152.808380 81.941803,157.311768 
	C81.843933,158.101151 81.697807,158.541656 81.305969,159.027618 
	C80.949593,159.682327 80.838936,160.291565 80.773888,161.270111 
	C80.621498,162.085159 80.423500,162.530899 79.944733,163.072388 
	C79.443001,164.445236 79.222054,165.722336 79.048508,167.339539 
	C78.970917,168.115524 78.845932,168.551407 78.371696,169.045746 
	C74.083145,171.306702 74.265923,174.470154 76.004089,178.323227 
	C75.959976,179.104599 75.864006,179.546875 75.406036,180.043686 
	C72.483513,181.413132 67.954674,180.571457 68.303734,185.014542 
	C68.417168,186.458313 71.359253,187.679871 73.051346,189.345016 
	C72.960411,190.121506 72.825676,190.556046 72.344765,191.091537 
	C70.246033,193.525024 70.781914,194.860245 73.736290,194.977692 
	C76.229019,195.076767 78.727859,195.016434 81.221886,195.094131 
	C81.640984,195.107208 82.049393,195.463257 82.686157,195.767639 
	C81.772774,196.745438 81.008125,197.564011 80.243469,198.382599 
	C80.303001,198.913513 80.362534,199.444427 80.422066,199.975342 
	C85.738327,200.393707 91.054588,200.812073 96.370850,201.230438 
	C96.496010,200.732681 96.621178,200.234924 96.746346,199.737183 
	C95.246101,198.580811 93.745857,197.424438 91.409698,195.623749 
	C156.276337,195.623749 220.029266,195.623749 284.287445,195.623749 
	C283.413757,197.633514 282.847748,198.935486 282.256531,200.295471 
	C286.620972,201.084961 286.552856,201.069946 287.363098,197.393250 
	C287.544708,196.569031 288.273865,195.763168 288.945679,195.168991 
	C290.756500,193.567413 293.206360,184.871796 291.503113,183.618011 
	C286.951752,180.267578 287.464386,175.215454 286.006317,170.797729 
	C285.648071,169.712357 284.438873,168.907837 283.448669,167.658142 
	C283.255676,166.867813 283.234924,166.393539 283.451080,165.671539 
	C281.751678,157.678726 280.249756,149.861511 275.311707,143.127884 
	C273.156464,140.188934 272.341217,140.851501 270.676544,143.154999 
	C270.446472,143.104904 270.003998,142.943542 269.990021,142.556000 
	C268.318817,141.438431 266.661560,140.708405 265.062073,139.630768 
	C268.747345,137.522079 272.374908,135.761002 276.047333,134.380219 
	C276.847870,139.334274 282.177429,138.307983 284.650024,142.029922 
	C287.482574,146.293716 292.431976,149.154846 293.314148,155.063522 
	C293.480469,156.177658 295.297607,157.045334 296.352997,158.026749 
	C296.529938,158.470306 296.706879,158.913864 296.593750,159.998489 
	C296.281708,164.751328 292.745361,169.631897 298.895691,172.421570 
	C299.204529,172.561630 299.265503,173.305862 299.391785,173.782059 
	C301.274719,180.882385 303.045898,188.015213 305.109741,195.062378 
	C305.541168,196.535446 307.045288,197.694366 308.055054,198.998062 
	C308.152039,199.422058 308.249054,199.846039 307.974854,200.800018 
	C305.648041,204.680817 306.524261,207.772934 308.285614,210.908264 
	C309.370758,212.839890 310.112274,214.964569 310.593262,217.002243 
	C306.966827,216.368103 305.407990,218.179932 305.640228,220.948502 
	C305.819427,223.084778 307.146118,225.124786 308.032928,227.387009 
	C310.434052,225.744171 311.715790,224.867203 312.999329,224.406158 
	C313.587891,227.375336 314.270844,229.911240 314.735291,232.486557 
	C315.225433,235.204391 315.982727,237.992661 315.796478,240.693146 
	C315.037842,251.694229 313.609009,262.657318 313.105804,273.665405 
	C312.629059,284.094269 313.000427,294.561920 312.631958,305.016174 
	C307.938995,305.694122 311.433777,308.340393 310.714417,310.126862 
	C308.599915,311.276398 306.780731,312.297638 304.961578,313.318909 
	C303.250397,313.436340 301.539246,313.553741 299.414398,313.210876 
	C298.654663,312.288818 298.308594,311.827057 297.962524,311.365265 
	C297.629059,312.014099 297.295593,312.662964 296.962128,313.311798 
	C293.997925,313.404327 291.033875,313.571167 288.069458,313.578094 
	C248.791092,313.669830 209.512665,313.797943 170.234253,313.797119 
	C132.449799,313.796295 94.665367,313.637299 56.880882,313.609955 
	C53.516254,313.607513 50.552864,313.206482 49.172989,309.431946 
	C50.183067,308.616241 50.904430,308.198547 51.625793,307.780823 
	C50.495365,307.182709 49.364937,306.584564 48.234505,305.986450 
M58.543785,242.342834 
	C59.028381,242.892242 59.512981,243.441650 60.234138,244.444489 
	C60.510548,244.636185 60.786957,244.827896 61.185421,245.374939 
	C61.185421,245.374939 61.107990,245.742569 61.021778,246.362869 
	C61.004059,246.570847 60.986336,246.778839 60.303150,247.005127 
	C59.870338,248.003418 59.437527,249.001709 58.242714,250.002701 
	C56.746910,251.211777 54.748913,252.158463 53.931923,253.722198 
	C53.387619,254.763977 54.094398,257.659851 54.983967,258.055328 
	C60.711769,260.601959 59.096359,265.318268 58.591621,269.517914 
	C58.237061,272.467987 58.868187,273.989716 61.984154,274.873840 
	C61.654324,277.081085 61.984528,279.732147 60.859810,281.404938 
	C58.376816,285.097900 59.047222,288.370178 60.573860,292.013977 
	C61.356205,293.881378 61.542484,295.998505 61.908291,298.775879 
	C60.926277,301.302979 61.348396,305.200562 56.498932,303.814270 
	C55.599247,303.557068 54.287560,304.741089 53.166019,305.259949 
	C54.293381,306.145081 55.428284,307.804260 56.546909,307.793335 
	C65.753647,307.703552 74.957031,307.050537 84.162041,307.038666 
	C145.463577,306.959656 206.765930,307.148621 268.066345,306.875061 
	C280.917877,306.817749 293.762451,305.197357 307.993683,304.200287 
	C307.993683,295.290375 308.051117,287.369263 307.927582,279.450958 
	C307.910400,278.348511 307.002289,277.259979 306.506622,276.164978 
	C305.488190,276.813202 304.432220,277.410248 303.460724,278.122467 
	C302.213104,279.037140 301.033325,280.044342 299.609283,280.220490 
	C299.050903,277.751892 298.492554,275.283295 297.590546,272.380646 
	C297.060364,272.254150 296.530182,272.127686 295.893982,271.325439 
	C292.279236,268.833313 292.695007,272.229584 291.301117,274.301758 
	C286.587006,274.869110 281.860809,275.354980 277.166077,276.052643 
	C275.728058,276.266357 274.376312,277.060822 272.068909,277.781586 
	C257.717651,277.717957 243.366379,277.654358 228.871582,277.014069 
	C227.909210,277.206268 226.946838,277.398438 225.068497,277.782257 
	C218.384033,277.718414 211.699570,277.654572 204.906357,277.085419 
	C204.265747,277.253845 203.625122,277.422272 202.068466,277.781921 
	C195.384018,277.718170 188.699554,277.654449 181.871582,277.014099 
	C180.909210,277.206268 179.946838,277.398468 178.068268,277.782227 
	C163.383911,277.717133 148.699554,277.652008 133.906189,277.082458 
	C133.265579,277.250305 132.624954,277.418182 131.068481,277.779053 
	C117.717033,277.719177 104.365578,277.659302 90.739807,276.880127 
	C84.964325,276.646637 79.188835,276.413147 72.816635,276.366302 
	C72.210930,276.245667 71.605225,276.125000 70.933296,275.316895 
	C70.288666,273.879456 69.644028,272.442047 69.728714,270.998322 
	C70.669022,270.761688 71.609322,270.525024 72.549629,270.288391 
	C72.315453,269.822815 72.081268,269.357239 71.847084,268.891663 
	C70.896553,269.594421 69.946014,270.297211 68.376846,270.735992 
	C66.919174,270.821136 65.461502,270.906311 64.003815,270.186310 
	C64.836037,269.125824 65.641800,268.043213 66.507019,267.010345 
	C67.647751,265.648621 68.835136,264.326019 70.879967,262.990295 
	C87.096985,263.658997 103.309349,264.713593 119.532074,264.909088 
	C146.228745,265.230835 172.932098,264.996338 199.632645,264.996338 
	C219.097122,264.996338 238.561691,265.028229 258.026062,264.983704 
	C268.758514,264.959167 279.398834,265.084015 289.967773,261.837158 
	C294.825409,260.344849 296.101624,257.711243 297.043549,253.400681 
	C297.150452,253.167603 297.324829,253.008667 298.301147,252.940598 
	C299.531525,251.955994 300.761871,250.971390 302.825775,249.995468 
	C306.119812,248.635635 309.454834,247.357986 312.635284,245.770569 
	C312.909790,245.633545 312.161530,243.447327 311.888367,242.212982 
	C311.584686,241.756027 311.281006,241.299057 310.977325,240.842087 
	C309.102356,246.828125 306.366333,242.759476 303.923340,242.288910 
	C302.856293,240.114471 303.260010,238.704773 305.288116,236.955490 
	C309.193237,233.587326 308.660004,231.694321 303.877533,229.311081 
	C302.238617,227.328293 300.897766,227.268539 299.200378,229.862946 
	C297.130341,229.575500 295.060272,229.288055 292.900391,228.248642 
	C289.919952,225.115799 286.241547,225.395660 282.080933,229.004105 
	C278.051117,229.003143 274.021271,229.002182 269.873596,228.287170 
	C266.354340,225.331299 263.041992,225.236099 259.081055,229.003983 
	C255.050583,229.002869 251.020096,229.001740 246.889893,228.306229 
	C242.495178,224.025803 239.414505,224.222412 235.079102,229.003998 
	C230.716537,229.003067 226.353989,229.002151 221.881424,228.290848 
	C218.615005,224.664948 215.739182,225.921417 212.078552,229.003998 
	C207.715775,229.002869 203.353012,229.001740 198.918610,228.282608 
	C196.023941,224.228561 191.812881,224.505722 187.081970,229.003922 
	C183.051636,229.003021 179.021286,229.002121 174.881256,228.290833 
	C171.614883,224.664917 168.739120,225.921448 165.078552,229.003998 
	C160.715775,229.002869 156.353012,229.001740 151.918808,228.293762 
	C148.687134,224.395737 144.615341,224.659561 140.081970,229.003922 
	C136.051697,229.003021 132.021423,229.002121 127.881325,228.290863 
	C124.614952,224.664993 121.739151,225.921463 118.070694,229.003998 
	C101.609123,229.003937 85.147263,228.960831 68.686462,229.073334 
	C67.116005,229.084045 65.552185,230.066757 63.329105,230.810745 
	C62.871590,230.834351 62.414078,230.857941 61.617569,230.270630 
	C58.737797,227.972610 57.936371,229.120392 58.228764,232.270248 
	C58.529446,235.509445 58.746307,238.756424 58.543785,242.342834 
M297.992432,213.255585 
	C297.109924,212.164215 296.227417,211.072845 294.899689,209.442764 
	C294.271576,209.150909 293.643433,208.859070 292.731506,207.854980 
	C291.492096,207.571594 290.252838,207.040924 289.013245,207.040222 
	C218.085602,207.000229 147.157913,206.995285 76.230331,207.068512 
	C74.814156,207.069977 73.398979,208.035690 71.194305,208.740219 
	C70.113510,208.784897 69.032715,208.829575 67.585091,208.446732 
	C66.722679,209.298218 65.860268,210.149719 64.231651,211.013275 
	C61.861191,214.214249 59.412270,217.363953 57.237274,220.692657 
	C57.010788,221.039261 58.427711,223.241257 59.049217,223.226166 
	C61.861748,223.157898 64.788239,222.946762 67.385666,221.998291 
	C68.102989,221.736359 67.827568,218.755737 68.790199,217.026184 
	C72.226349,217.019287 75.662506,217.006577 79.098656,217.006348 
	C151.732437,217.001358 224.366226,216.997757 297.002533,217.754745 
	C297.421326,219.132141 297.840118,220.509521 298.596680,222.997849 
	C301.029541,220.048676 302.747711,218.165695 304.185059,216.088364 
	C304.562286,215.543152 304.383942,214.055603 303.899323,213.606262 
	C303.218781,212.975250 301.983429,212.596115 301.040833,212.686646 
	C299.991547,212.787415 299.004547,213.536072 297.992432,213.255585 
M311.534424,254.463577 
	C311.329834,253.362259 311.125214,252.260925 310.920624,251.159607 
	C310.033661,251.688629 309.146729,252.217651 308.259766,252.746674 
	C309.149536,253.439621 310.039307,254.132568 311.534424,254.463577 
M281.533691,147.815659 
	C281.945129,146.778214 282.356567,145.740768 282.768036,144.703308 
	C282.131622,144.610092 281.495209,144.516876 280.858795,144.423660 
	C280.858795,145.510971 280.858795,146.598297 281.533691,147.815659 
z"/>
<path fill="#384D7E" opacity="1.000000" stroke="none" 
	d="
M278.636810,81.018036 
	C279.041229,82.761215 279.445618,84.504395 279.398804,86.740891 
	C278.631317,88.764854 278.064087,90.291855 278.041809,91.826767 
	C277.939453,98.883247 277.989227,105.941948 277.614380,112.954185 
	C276.162872,110.391899 274.531067,107.963303 274.111633,105.340805 
	C273.163910,99.415443 272.814972,93.394302 272.210571,87.292145 
	C269.544647,89.760506 267.794678,91.380768 266.031921,92.611618 
	C265.549774,90.473671 265.080414,88.725159 264.435974,86.664589 
	C264.231812,85.880775 264.202667,85.409012 264.395203,84.768692 
	C264.744965,84.066956 264.873108,83.533783 265.249329,82.793137 
	C263.559326,80.169273 261.621246,77.752892 259.215057,74.752831 
	C257.626190,75.700264 255.812363,76.781822 253.536346,77.945633 
	C234.460449,78.036003 215.846725,78.066055 197.233047,78.047211 
	C167.488693,78.017097 137.744385,77.954498 107.990585,77.536224 
	C105.721809,75.602058 103.462509,74.037300 101.203209,72.472542 
	C100.914650,72.870186 100.626091,73.267822 100.337532,73.665466 
	C100.558456,74.776878 100.779381,75.888283 100.993553,77.362396 
	C100.245186,78.553345 99.356224,79.295540 98.806892,80.236092 
	C98.336594,81.041313 98.255463,82.073814 97.973297,83.324028 
	C97.936951,84.753525 97.929520,85.864792 97.995438,87.441315 
	C97.987511,98.605652 97.906227,109.304733 97.474075,119.994736 
	C96.531845,119.564217 95.392799,119.089088 95.428093,118.729095 
	C96.837502,104.353928 90.903633,90.398773 93.341042,75.949677 
	C95.121185,73.599571 96.560593,71.299782 98.000473,68.670349 
	C98.004196,67.901482 98.007454,67.462257 98.253242,66.853523 
	C98.664864,66.131302 98.833961,65.578590 99.003052,65.025887 
	C99.003052,65.025887 99.278992,64.780594 99.907059,64.871811 
	C102.024170,64.975601 103.513222,64.988182 105.001251,65.334076 
	C105.000160,66.111603 105.000084,66.555801 104.766998,67.204361 
	C104.935196,67.918633 105.336395,68.428543 105.737595,68.938454 
	C106.491707,68.292305 107.245819,67.646156 107.999969,66.666504 
	C107.999657,65.888672 107.999313,65.444336 108.448959,64.998947 
	C119.507729,64.670273 130.114685,64.166794 140.725739,64.056633 
	C156.284042,63.895100 171.846115,63.922245 187.404877,64.059570 
	C193.855927,64.116501 200.305298,64.980896 206.750809,64.926949 
	C221.355423,64.804749 235.957672,64.359657 250.559464,63.990021 
	C252.336655,63.945034 254.105194,63.557491 255.877731,63.328697 
	C256.664124,63.315948 257.450500,63.303204 258.544617,63.769241 
	C260.284027,67.767014 262.775696,65.611794 264.908173,65.379288 
	C266.551880,66.355385 268.195557,67.331482 269.918823,69.002441 
	C271.000580,71.133224 272.002716,72.569160 272.837952,74.091965 
	C272.782257,74.449303 272.893524,74.719780 273.002380,74.994980 
	C273.000000,74.999695 273.010681,74.995834 273.048523,75.317123 
	C273.724670,76.091980 274.362946,76.545540 275.260315,77.181091 
	C276.558563,78.581398 277.597687,79.799721 278.636810,81.018036 
z"/>
<path fill="#415582" opacity="1.000000" stroke="none" 
	d="
M255.559250,63.086937 
	C254.105194,63.557491 252.336655,63.945034 250.559464,63.990021 
	C235.957672,64.359657 221.355423,64.804749 206.750809,64.926949 
	C200.305298,64.980896 193.855927,64.116501 187.404877,64.059570 
	C171.846115,63.922245 156.284042,63.895100 140.725739,64.056633 
	C130.114685,64.166794 119.507729,64.670273 108.074341,64.998558 
	C106.500587,64.999741 105.751427,65.000244 105.002266,65.000755 
	C103.513222,64.988182 102.024170,64.975601 100.086700,64.914330 
	C103.280266,64.046234 106.920204,62.524487 110.564568,62.513836 
	C157.802750,62.375771 205.041550,62.450222 252.280182,62.490356 
	C253.267151,62.491192 254.253906,62.721771 255.559250,63.086937 
z"/>
<path fill="#415582" opacity="1.000000" stroke="none" 
	d="
M305.299683,313.523560 
	C306.780731,312.297638 308.599915,311.276398 311.081940,310.055420 
	C312.162781,308.241333 312.580780,306.626923 312.998779,305.012512 
	C313.000427,294.561920 312.629059,284.094269 313.105804,273.665405 
	C313.609009,262.657318 315.037842,251.694229 315.796478,240.693146 
	C315.982727,237.992661 315.225433,235.204391 314.735291,232.486557 
	C314.270844,229.911240 313.587891,227.375336 312.994171,224.024048 
	C312.327545,221.151535 311.667816,219.077057 311.008057,217.002579 
	C310.112274,214.964569 309.370758,212.839890 308.285614,210.908264 
	C306.524261,207.772934 305.648041,204.680817 307.902588,201.123474 
	C312.793457,217.037964 319.802124,232.517822 315.936890,250.305374 
	C313.999664,259.220215 315.356110,268.858765 315.292847,278.170441 
	C315.234039,286.821442 315.285828,295.473145 315.255676,304.124390 
	C315.231384,311.096283 312.925751,313.375122 305.299683,313.523560 
z"/>
<path fill="#415582" opacity="1.000000" stroke="none" 
	d="
M51.001984,293.988007 
	C49.923534,297.231140 53.232338,301.342224 48.632996,303.990173 
	C48.155106,288.484894 48.076141,272.956268 47.983227,257.427765 
	C47.972359,255.611298 47.884537,253.795303 47.853783,251.513794 
	C49.192497,252.325974 51.627857,253.589844 51.643604,254.883163 
	C51.737701,262.609467 51.273956,270.342590 50.998421,279.007507 
	C51.000309,284.623749 51.001144,289.305878 51.001984,293.988007 
z"/>
<path fill="#415582" opacity="1.000000" stroke="none" 
	d="
M80.999016,136.993240 
	C76.525391,138.021286 75.971581,142.207367 73.732658,145.203308 
	C70.915115,148.973495 67.473877,153.250534 68.778107,157.018845 
	C71.704498,165.474045 64.128914,168.887894 61.800671,174.914795 
	C64.768593,162.785645 65.955536,149.781754 74.186737,139.359482 
	C76.428818,136.520584 79.264099,134.150192 82.339584,131.324127 
	C83.216103,131.050644 83.580170,131.017822 84.209320,130.995331 
	C84.650818,131.010147 84.827240,131.014648 85.002823,131.346558 
	C85.001526,132.110489 85.001068,132.546997 84.864410,133.272614 
	C83.485146,134.705566 82.242081,135.849411 80.999016,136.993240 
z"/>
<path fill="#415582" opacity="1.000000" stroke="none" 
	d="
M296.450623,157.666779 
	C295.297607,157.045334 293.480469,156.177658 293.314148,155.063522 
	C292.431976,149.154846 287.482574,146.293716 284.650024,142.029922 
	C282.177429,138.307983 276.847870,139.334274 276.048584,134.006836 
	C276.005768,132.506393 276.006531,131.759598 276.379272,131.010529 
	C277.494720,130.999481 278.238190,130.990707 279.165955,130.987701 
	C279.595764,131.000778 279.840912,131.015305 280.085602,131.037048 
	C289.056702,137.610580 294.213318,146.574570 296.450623,157.666779 
z"/>
<path fill="#415582" opacity="1.000000" stroke="none" 
	d="
M53.841446,202.306061 
	C54.293694,206.711823 54.647816,211.403336 54.666248,216.096161 
	C54.669296,216.871338 53.202606,217.652298 51.916000,218.856689 
	C50.944927,220.188904 50.472988,221.095032 50.001053,222.001160 
	C48.852409,228.824142 47.703766,235.647141 46.247795,242.747406 
	C45.648727,239.942245 44.535854,236.665131 45.212147,233.812134 
	C47.697060,223.329300 50.775829,212.987259 53.841446,202.306061 
z"/>
<path fill="#415582" opacity="1.000000" stroke="none" 
	d="
M308.094116,198.599335 
	C307.045288,197.694366 305.541168,196.535446 305.109741,195.062378 
	C303.045898,188.015213 301.274719,180.882385 299.391785,173.782059 
	C299.265503,173.305862 299.204529,172.561630 298.895691,172.421570 
	C292.745361,169.631897 296.281708,164.751328 296.556152,160.360199 
	C300.096863,171.220596 303.382477,182.361099 306.676270,193.499191 
	C307.141510,195.072357 307.646545,196.633759 308.094116,198.599335 
z"/>
<path fill="#627596" opacity="1.000000" stroke="none" 
	d="
M83.944244,130.985001 
	C83.580170,131.017822 83.216103,131.050644 82.578171,131.076706 
	C82.445145,115.830246 82.585960,100.590546 83.422592,85.170212 
	C84.668564,85.034401 85.218712,85.079224 85.804367,85.303200 
	C85.839874,85.482346 85.876434,85.847412 85.554398,86.068062 
	C84.825600,89.191559 84.418839,92.094414 83.998550,95.465973 
	C83.995506,103.290947 84.005989,110.647202 84.007660,118.466293 
	C83.980652,122.947762 83.962448,126.966377 83.944244,130.985001 
z"/>
<path fill="#415582" opacity="1.000000" stroke="none" 
	d="
M277.984436,112.999847 
	C277.989227,105.941948 277.939453,98.883247 278.041809,91.826767 
	C278.064087,90.291855 278.631317,88.764854 279.316650,87.113548 
	C279.820831,96.702675 279.955963,106.412476 279.740356,116.576309 
	C279.389618,117.030357 278.944885,117.046661 278.688354,116.797157 
	C278.282684,115.365051 278.133575,114.182449 277.984436,112.999847 
z"/>
<path fill="#415582" opacity="1.000000" stroke="none" 
	d="
M60.865082,177.279510 
	C61.044014,180.043182 61.553005,183.219177 60.699333,185.972717 
	C59.224354,190.730270 56.903355,195.225510 54.595547,199.919098 
	C56.363167,192.505478 58.472527,185.003601 60.865082,177.279510 
z"/>
<path fill="#415582" opacity="1.000000" stroke="none" 
	d="
M85.768867,85.124054 
	C85.218712,85.079224 84.668564,85.034401 83.704819,84.932770 
	C83.903496,77.677818 87.322983,72.106735 93.545441,67.943817 
	C93.968941,67.972832 94.122131,68.132416 94.029167,68.442444 
	C93.287682,69.832703 92.639160,70.912926 91.671104,72.036865 
	C90.901466,72.719673 90.451355,73.358765 89.999969,74.248558 
	C89.998718,74.666382 89.998749,74.833511 89.837494,75.320892 
	C88.373756,78.802116 87.071312,81.963081 85.768867,85.124054 
z"/>
<path fill="#415685" opacity="1.000000" stroke="none" 
	d="
M278.667786,80.663269 
	C277.597687,79.799721 276.558563,78.581398 275.217957,76.861565 
	C274.281219,75.905319 273.645966,75.450577 273.010681,74.995834 
	C273.010681,74.995834 273.000000,74.999695 273.002747,74.748741 
	C273.005463,74.497787 273.004883,74.005096 273.004883,74.005096 
	C272.002716,72.569160 271.000580,71.133224 270.011963,69.316360 
	C272.916595,72.726456 275.807709,76.517479 278.667786,80.663269 
z"/>
<path fill="#415685" opacity="1.000000" stroke="none" 
	d="
M278.944885,117.046661 
	C278.944885,117.046661 279.389618,117.030357 279.612122,117.031967 
	C279.990692,121.400169 280.146820,125.766762 280.194275,130.585205 
	C279.840912,131.015305 279.595764,131.000778 279.166687,130.589890 
	C278.947693,129.124893 278.912170,128.063477 278.906250,126.549515 
	C278.938843,123.080208 278.941864,120.063438 278.944885,117.046661 
z"/>
<path fill="#415582" opacity="1.000000" stroke="none" 
	d="
M264.635071,65.147079 
	C262.775696,65.611794 260.284027,67.767014 258.897217,63.961277 
	C260.748718,64.087975 262.555328,64.501427 264.635071,65.147079 
z"/>
<path fill="#415582" opacity="1.000000" stroke="none" 
	d="
M48.137299,306.307037 
	C49.364937,306.584564 50.495365,307.182709 51.625793,307.780823 
	C50.904430,308.198547 50.183067,308.616241 49.095184,309.053223 
	C48.499134,308.257538 48.269611,307.442566 48.137299,306.307037 
z"/>
<path fill="#415582" opacity="1.000000" stroke="none" 
	d="
M98.654587,64.996857 
	C98.833961,65.578590 98.664864,66.131302 97.953743,66.868164 
	C96.941261,67.371483 96.470810,67.690651 95.686012,68.015450 
	C94.955154,68.058197 94.538643,68.095306 94.122131,68.132416 
	C94.122131,68.132416 93.968941,67.972832 93.891640,67.893631 
	C95.311600,66.865555 96.808853,65.916695 98.654587,64.996857 
z"/>
<path fill="#415582" opacity="1.000000" stroke="none" 
	d="
M45.910034,245.359131 
	C46.497276,246.184967 47.017052,247.369080 47.272270,248.775574 
	C46.619328,247.904434 46.230946,246.810913 45.910034,245.359131 
z"/>
<path fill="#415582" opacity="1.000000" stroke="none" 
	d="
M297.292725,313.495605 
	C297.295593,312.662964 297.629059,312.014099 297.962524,311.365265 
	C298.308594,311.827057 298.654663,312.288818 299.019684,313.028259 
	C298.566864,313.430420 298.095093,313.554901 297.292725,313.495605 
z"/>
<path fill="#FCFCFD" opacity="1.000000" stroke="none" 
	d="
M81.551689,158.982162 
	C81.697807,158.541656 81.843933,158.101151 82.188713,157.070068 
	C84.437668,149.565704 89.958534,145.493179 95.423172,141.127090 
	C96.877518,141.014816 97.930794,140.821747 99.449615,140.689346 
	C131.176376,140.708755 162.437592,140.668411 193.698807,140.625931 
	C216.804901,140.594528 239.910995,140.560303 263.318909,140.706238 
	C264.083130,140.901840 264.545532,140.918564 265.277222,141.162933 
	C267.032318,141.908218 268.518158,142.425888 270.003998,142.943542 
	C270.003998,142.943542 270.446472,143.104904 270.747833,143.479691 
	C274.165375,148.605423 277.454865,153.254883 280.322571,158.151337 
	C281.697906,160.499664 282.275360,163.315277 283.214172,165.919266 
	C283.234924,166.393539 283.255676,166.867813 283.362793,168.022385 
	C285.567291,176.601028 287.685425,184.499374 290.021698,193.211212 
	C286.824219,193.211212 284.862915,193.211548 282.901611,193.211166 
	C247.415985,193.204208 211.930344,193.184692 176.444717,193.193832 
	C143.791367,193.202240 111.137878,193.280212 78.484978,193.169540 
	C76.551193,193.162994 74.622177,191.749405 72.690941,190.990585 
	C72.825676,190.556046 72.960411,190.121506 73.278900,189.078003 
	C74.231110,185.642426 74.999580,182.815796 75.768051,179.989166 
	C75.864006,179.546875 75.959976,179.104599 76.248932,178.070374 
	C77.201607,174.648056 77.961281,171.817657 78.720947,168.987274 
	C78.845932,168.551407 78.970917,168.115524 79.289650,167.131500 
	C79.730759,165.381088 79.978127,164.178864 80.225494,162.976624 
	C80.423500,162.530899 80.621498,162.085159 81.028183,161.130402 
	C81.341805,160.074982 81.446747,159.528580 81.551689,158.982162 
z"/>
<path fill="#FCFDFD" opacity="1.000000" stroke="none" 
	d="
M297.566742,252.923889 
	C297.324829,253.008667 297.150452,253.167603 296.704834,253.737106 
	C291.913208,259.197906 286.614410,262.311493 279.515900,262.303619 
	C213.929321,262.230865 148.342575,262.284912 82.755959,262.222687 
	C74.711838,262.215057 68.380142,258.898438 64.562576,251.467148 
	C63.546543,249.489334 62.266708,247.647064 61.107994,245.742569 
	C61.107990,245.742569 61.185421,245.374939 61.305252,244.891876 
	C61.602242,239.899719 61.779400,235.390640 61.956558,230.881546 
	C62.414078,230.857941 62.871590,230.834351 64.116272,230.809113 
	C143.398575,230.807465 221.893707,230.807465 300.421661,230.807465 
	C302.772095,238.995224 300.875427,246.051987 297.566742,252.923889 
z"/>
<path fill="#FDFDFE" opacity="1.000000" stroke="none" 
	d="
M70.999512,276.004333 
	C71.605225,276.125000 72.210930,276.245667 73.396866,276.571838 
	C79.656113,277.051392 85.335121,277.325409 91.014130,277.599426 
	C104.365578,277.659302 117.717033,277.719177 131.859818,277.784149 
	C133.105835,277.721802 133.560516,277.654327 134.015198,277.586853 
	C148.699554,277.652008 163.383911,277.717133 178.898117,277.791595 
	C180.490341,277.730896 181.252731,277.660828 182.015106,277.590729 
	C188.699554,277.654449 195.384018,277.718170 202.859924,277.787292 
	C204.105972,277.725372 204.560532,277.658051 205.015106,277.590729 
	C211.699570,277.654572 218.384033,277.718414 225.898224,277.791626 
	C227.490341,277.730896 228.252731,277.660797 229.015106,277.590759 
	C243.366379,277.654358 257.717651,277.717957 272.983185,277.792175 
	C282.306702,278.053223 290.706024,278.255768 297.934174,272.814697 
	C298.492554,275.283295 299.050903,277.751892 299.601715,281.067017 
	C299.421112,287.396454 299.248077,292.879333 298.725250,298.346008 
	C297.923950,298.425079 297.472412,298.520447 296.596741,298.479736 
	C294.108765,298.436951 292.044983,298.530243 289.529449,298.497589 
	C219.985535,298.363464 150.893356,298.349884 81.801163,298.361023 
	C77.815712,298.361664 73.830284,298.563385 69.489288,298.541809 
	C68.135841,298.478088 67.137962,298.544098 65.765900,298.443909 
	C64.837891,297.756104 63.809139,297.241089 63.801743,296.711792 
	C63.696793,289.198364 63.730255,281.683014 63.730255,273.646729 
	C66.711716,274.613708 68.855614,275.309021 70.999512,276.004333 
z"/>
<path fill="#3D5283" opacity="1.000000" stroke="none" 
	d="
M289.981171,298.623566 
	C292.044983,298.530243 294.108765,298.436951 296.673279,298.713623 
	C297.807648,298.843170 298.441315,298.602722 299.075012,298.362244 
	C299.248077,292.879333 299.421112,287.396454 299.709229,281.462616 
	C301.033325,280.044342 302.213104,279.037140 303.460724,278.122467 
	C304.432220,277.410248 305.488190,276.813202 306.506592,276.164978 
	C307.002289,277.259979 307.910400,278.348511 307.927582,279.450958 
	C308.051117,287.369263 307.993683,295.290375 307.993683,304.200287 
	C293.762451,305.197357 280.917877,306.817749 268.066345,306.875061 
	C206.765930,307.148621 145.463577,306.959656 84.162041,307.038666 
	C74.957031,307.050537 65.753647,307.703552 56.546909,307.793335 
	C55.428284,307.804260 54.293381,306.145081 53.166023,305.259949 
	C54.287560,304.741089 55.599247,303.557068 56.498932,303.814270 
	C61.348396,305.200562 60.926277,301.302979 62.249245,298.532013 
	C63.773491,298.395447 64.956779,298.502747 66.140076,298.610077 
	C67.137962,298.544098 68.135841,298.478088 69.761497,298.894440 
	C71.843109,299.585724 73.296875,299.976837 74.750809,299.977448 
	C145.037567,300.007385 215.324356,300.011963 285.611053,299.946106 
	C287.068176,299.944763 288.524506,299.083618 289.981171,298.623566 
z"/>
<path fill="#374D81" opacity="1.000000" stroke="none" 
	d="
M265.007965,140.935287 
	C264.545532,140.918564 264.083130,140.901840 263.178406,140.352142 
	C261.182495,139.541809 259.630920,139.037903 258.074982,139.024109 
	C248.384323,138.938202 238.692673,138.961990 228.961151,138.606842 
	C226.938583,135.979309 224.634125,133.895645 223.050476,131.361542 
	C220.762558,127.700478 216.343613,126.417671 213.215073,129.432587 
	C210.211090,132.327454 207.717621,135.752075 204.531342,138.956635 
	C193.041794,138.960754 182.020706,138.952118 170.946136,138.610107 
	C168.595108,134.518433 166.297546,130.760132 164.468658,127.000404 
	C173.478302,126.998482 182.020996,127.084785 190.558624,126.915474 
	C192.051804,126.885864 193.523666,125.781601 195.419449,125.117805 
	C197.218201,125.130737 198.602875,125.199539 200.052429,125.619545 
	C202.434464,128.826355 204.514511,129.602951 206.373322,125.198280 
	C207.721390,125.032372 208.711197,124.966316 210.082336,124.778046 
	C213.886658,119.976425 211.252228,115.510254 209.890106,110.838921 
	C209.797394,110.681808 209.868881,110.324020 209.916962,109.937576 
	C209.976303,109.033180 209.987549,108.515213 209.998474,107.597885 
	C209.997147,106.133568 209.996124,105.068619 210.402191,104.003448 
	C215.563141,104.130516 219.297104,105.632706 220.911758,110.692558 
	C221.227936,111.683350 222.889313,112.244865 223.945709,113.336166 
	C223.951355,114.110687 223.941559,114.553421 223.531860,115.013763 
	C220.143814,117.483734 220.088699,121.254982 223.108917,124.222427 
	C223.415573,124.711761 223.675171,124.898499 224.309631,125.012283 
	C225.041855,125.034424 225.460251,125.044693 225.910873,125.034943 
	C225.943085,125.014908 225.966064,125.087204 226.021149,125.405060 
	C227.055191,125.569000 228.034164,125.415085 229.442703,125.175117 
	C231.910477,125.148842 233.948669,125.208611 236.089386,125.618317 
	C238.465698,125.735352 240.739502,125.502441 243.471558,125.180603 
	C248.948807,125.151505 253.967758,125.211334 259.088867,125.621750 
	C262.705933,125.696457 266.220886,125.420586 268.637726,125.230896 
	C267.530884,121.118912 266.231201,118.319519 266.117096,115.472618 
	C265.817322,107.993134 266.033875,100.492958 266.044708,93.001038 
	C267.794678,91.380768 269.544647,89.760506 272.210571,87.292145 
	C272.814972,93.394302 273.163910,99.415443 274.111633,105.340805 
	C274.531067,107.963303 276.162872,110.391899 277.614380,112.954185 
	C278.133575,114.182449 278.282684,115.365051 278.688354,116.797157 
	C278.941864,120.063438 278.938843,123.080208 278.536072,126.560829 
	C277.426666,128.354065 276.717010,129.683441 276.007324,131.012817 
	C276.006531,131.759598 276.005768,132.506393 276.003723,133.626556 
	C272.374908,135.761002 268.747345,137.522079 265.058838,139.870132 
	C264.997864,140.457123 265.007965,140.935287 265.007965,140.935287 
z"/>
<path fill="#F5F8FA" opacity="1.000000" stroke="none" 
	d="
M67.951920,208.874268 
	C69.032715,208.829575 70.113510,208.784897 72.048576,208.747131 
	C145.448715,208.769592 217.994568,208.785934 290.540436,208.791046 
	C291.365387,208.791107 292.190369,208.645081 293.015320,208.567230 
	C293.643433,208.859070 294.271576,209.150909 295.045868,210.099060 
	C295.310547,212.140076 295.429047,213.524780 295.553802,214.982834 
	C219.146255,214.982834 143.231735,214.982834 66.670082,214.982834 
	C67.158531,212.655136 67.555222,210.764694 67.951920,208.874268 
z"/>
<path fill="#374D81" opacity="1.000000" stroke="none" 
	d="
M98.984070,140.628662 
	C97.930794,140.821747 96.877518,141.014816 95.182770,140.846329 
	C92.362694,140.659195 90.184090,140.833603 88.005486,141.008026 
	C87.321518,140.887100 86.403206,140.419754 85.990097,140.699219 
	C82.172363,143.281738 81.084366,141.435089 81.000053,137.383682 
	C82.242081,135.849411 83.485146,134.705566 85.192451,133.275238 
	C86.104263,132.325623 86.551826,131.662506 87.042908,130.627167 
	C88.042305,127.164284 89.761421,124.084625 89.806175,120.980827 
	C89.924530,112.772049 89.583397,104.529877 88.876511,96.348389 
	C88.568916,92.788231 86.917519,89.344193 85.876434,85.847412 
	C85.876434,85.847412 85.839874,85.482346 85.804367,85.303200 
	C87.071312,81.963081 88.373756,78.802116 90.132584,75.446091 
	C91.392738,75.500694 92.196526,75.750343 93.000305,76.000000 
	C90.903633,90.398773 96.837502,104.353928 95.428093,118.729095 
	C95.392799,119.089088 96.531845,119.564217 97.572433,120.361656 
	C97.960449,121.489334 97.899239,122.240997 97.478165,122.994949 
	C96.230141,123.248611 95.341988,123.499977 94.453827,123.751343 
	C94.497459,124.052567 94.541092,124.353790 94.584717,124.655014 
	C95.766083,124.743523 96.947449,124.832031 98.080658,124.920776 
	C98.032509,124.921021 98.099655,124.851974 98.098404,125.188049 
	C98.730980,126.015884 99.364815,126.507637 100.211609,126.897873 
	C100.694366,126.609909 100.873955,126.358917 100.983170,125.846649 
	C101.003006,125.649925 101.014915,125.254662 101.474823,125.165558 
	C112.287857,125.146309 122.640984,125.216164 132.996674,125.634552 
	C133.473969,126.851364 133.948715,127.719627 134.423462,128.587891 
	C134.950302,127.474297 135.477142,126.360710 136.224091,125.102280 
	C136.787064,124.917709 137.129929,124.877975 137.892517,124.879639 
	C145.318405,125.875336 151.227646,133.635391 148.533966,138.964844 
	C143.713272,138.966293 139.357025,138.957108 134.945679,138.611053 
	C133.629028,136.820923 131.867493,135.562897 131.208252,133.874496 
	C129.763245,130.173630 127.034935,129.325516 123.514870,128.945923 
	C115.894524,128.124146 113.630707,133.696686 110.541824,138.958649 
	C106.384628,139.523331 102.684349,140.076004 98.984070,140.628662 
z"/>
<path fill="#415582" opacity="1.000000" stroke="none" 
	d="
M72.344765,191.091537 
	C74.622177,191.749405 76.551193,193.162994 78.484978,193.169540 
	C111.137878,193.280212 143.791367,193.202240 176.444717,193.193832 
	C211.930344,193.184692 247.415985,193.204208 282.901611,193.211166 
	C284.862915,193.211548 286.824219,193.211212 290.021698,193.211212 
	C287.685425,184.499374 285.567291,176.601028 283.535034,168.338440 
	C284.438873,168.907837 285.648071,169.712357 286.006317,170.797729 
	C287.464386,175.215454 286.951752,180.267578 291.503113,183.618011 
	C293.206360,184.871796 290.756500,193.567413 288.945679,195.168991 
	C288.273865,195.763168 287.544708,196.569031 287.363098,197.393250 
	C286.552856,201.069946 286.620972,201.084961 282.256531,200.295471 
	C282.847748,198.935486 283.413757,197.633514 284.287445,195.623749 
	C220.029266,195.623749 156.276337,195.623749 91.409698,195.623749 
	C93.745857,197.424438 95.246101,198.580811 96.746346,199.737183 
	C96.621178,200.234924 96.496010,200.732681 96.370850,201.230438 
	C91.054588,200.812073 85.738327,200.393707 80.422066,199.975342 
	C80.362534,199.444427 80.303001,198.913513 80.243469,198.382599 
	C81.008125,197.564011 81.772774,196.745438 82.686157,195.767639 
	C82.049393,195.463257 81.640984,195.107208 81.221886,195.094131 
	C78.727859,195.016434 76.229019,195.076767 73.736290,194.977692 
	C70.781914,194.860245 70.246033,193.525024 72.344765,191.091537 
z"/>
<path fill="#415582" opacity="1.000000" stroke="none" 
	d="
M61.064888,246.052719 
	C62.266708,247.647064 63.546543,249.489334 64.562576,251.467148 
	C68.380142,258.898438 74.711838,262.215057 82.755959,262.222687 
	C148.342575,262.284912 213.929321,262.230865 279.515900,262.303619 
	C286.614410,262.311493 291.913208,259.197906 296.671417,253.914627 
	C296.101624,257.711243 294.825409,260.344849 289.967773,261.837158 
	C279.398834,265.084015 268.758514,264.959167 258.026062,264.983704 
	C238.561691,265.028229 219.097122,264.996338 199.632645,264.996338 
	C172.932098,264.996338 146.228745,265.230835 119.532074,264.909088 
	C103.309349,264.713593 87.096985,263.658997 70.405609,262.643707 
	C66.620552,258.198456 63.309856,254.099823 60.125641,249.705704 
	C60.490955,248.602432 60.729790,247.794647 60.968620,246.986847 
	C60.986336,246.778839 61.004059,246.570847 61.064888,246.052719 
z"/>
<path fill="#415582" opacity="1.000000" stroke="none" 
	d="
M297.933960,252.932251 
	C300.875427,246.051987 302.772095,238.995224 300.421661,230.807465 
	C221.893707,230.807465 143.398575,230.807465 64.444366,230.702850 
	C65.552185,230.066757 67.116005,229.084045 68.686462,229.073334 
	C85.147263,228.960831 101.609123,229.003937 118.988708,229.003082 
	C122.601532,229.001862 125.296341,229.001541 127.991150,229.001221 
	C132.021423,229.002121 136.051697,229.003021 141.002747,229.003082 
	C145.279099,229.001709 148.634659,229.001160 151.990234,229.000610 
	C156.353012,229.001740 160.715775,229.002869 165.992645,229.003082 
	C169.601471,229.001862 172.296204,229.001541 174.990952,229.001221 
	C179.021286,229.002121 183.051636,229.003021 188.002747,229.003082 
	C192.279099,229.001694 195.634659,229.001160 198.990234,229.000610 
	C203.353012,229.001740 207.715775,229.002869 212.992645,229.003082 
	C216.601639,229.001862 219.296524,229.001541 221.991425,229.001221 
	C226.353989,229.002151 230.716537,229.003067 236.001312,229.003143 
	C240.278885,229.001724 243.634247,229.001175 246.989624,229.000610 
	C251.020096,229.001740 255.050583,229.002869 259.997925,229.003098 
	C263.940338,229.001877 266.965912,229.001541 269.991455,229.001221 
	C274.021271,229.002182 278.051117,229.003143 282.997772,229.003235 
	C286.939819,229.001785 289.965027,229.001205 292.990234,229.000610 
	C295.060272,229.288055 297.130341,229.575500 299.989868,229.918503 
	C301.850464,229.983322 302.921570,229.992584 303.992676,230.001831 
	C308.660004,231.694321 309.193237,233.587326 305.288116,236.955490 
	C303.260010,238.704773 302.856293,240.114471 303.960632,243.015015 
	C303.329376,245.823013 302.660797,247.904892 301.992218,249.986786 
	C300.761871,250.971390 299.531525,251.955994 297.933960,252.932251 
z"/>
<path fill="#415582" opacity="1.000000" stroke="none" 
	d="
M67.768501,208.660492 
	C67.555222,210.764694 67.158531,212.655136 66.670082,214.982834 
	C143.231735,214.982834 219.146255,214.982834 295.553802,214.982834 
	C295.429047,213.524780 295.310547,212.140076 295.268494,210.368423 
	C296.227417,211.072845 297.109924,212.164215 297.731750,213.835358 
	C297.314056,215.274704 297.157043,216.134308 297.000000,216.993896 
	C224.366226,216.997757 151.732437,217.001358 79.098656,217.006348 
	C75.662506,217.006577 72.226349,217.019287 68.023903,216.970749 
	C66.504356,214.943954 65.751106,212.972580 64.997864,211.001221 
	C65.860268,210.149719 66.722679,209.298218 67.768501,208.660492 
z"/>
<path fill="#415582" opacity="1.000000" stroke="none" 
	d="
M292.873413,208.211105 
	C292.190369,208.645081 291.365387,208.791107 290.540436,208.791046 
	C217.994568,208.785934 145.448715,208.769592 72.443085,208.652786 
	C73.398979,208.035690 74.814156,207.069977 76.230331,207.068512 
	C147.157913,206.995285 218.085602,207.000229 289.013245,207.040222 
	C290.252838,207.040924 291.492096,207.571594 292.873413,208.211105 
z"/>
<path fill="#3D5283" opacity="1.000000" stroke="none" 
	d="
M59.999165,250.001175 
	C63.309856,254.099823 66.620552,258.198456 69.966850,262.641846 
	C68.835136,264.326019 67.647751,265.648621 66.507019,267.010345 
	C65.641800,268.043213 64.836037,269.125824 63.825943,270.851440 
	C63.088116,272.350891 62.528156,273.185181 61.968197,274.019470 
	C58.868187,273.989716 58.237061,272.467987 58.591621,269.517914 
	C59.096359,265.318268 60.711769,260.601959 54.983967,258.055328 
	C54.094398,257.659851 53.387619,254.763977 53.931923,253.722198 
	C54.748913,252.158463 56.746910,251.211777 58.872299,250.001617 
	C59.501884,250.000534 59.999165,250.001175 59.999165,250.001175 
z"/>
<path fill="#415582" opacity="1.000000" stroke="none" 
	d="
M61.976173,274.446655 
	C62.528156,273.185181 63.088116,272.350891 63.825951,271.254028 
	C65.461502,270.906311 66.919174,270.821136 68.688423,270.867981 
	C69.000000,271.000000 68.999390,271.004608 68.999390,271.004608 
	C69.644028,272.442047 70.288666,273.879456 70.966400,275.660645 
	C68.855614,275.309021 66.711716,274.613708 63.730255,273.646729 
	C63.730255,281.683014 63.696793,289.198364 63.801743,296.711792 
	C63.809139,297.241089 64.837891,297.756104 65.765900,298.443909 
	C64.956779,298.502747 63.773491,298.395447 62.294174,298.145447 
	C61.542484,295.998505 61.356205,293.881378 60.573860,292.013977 
	C59.047222,288.370178 58.376816,285.097900 60.859810,281.404938 
	C61.984528,279.732147 61.654324,277.081085 61.976173,274.446655 
z"/>
<path fill="#3B4F84" opacity="1.000000" stroke="none" 
	d="
M64.614761,211.007248 
	C65.751106,212.972580 66.504356,214.943954 67.632629,216.968918 
	C67.827568,218.755737 68.102989,221.736359 67.385666,221.998291 
	C64.788239,222.946762 61.861748,223.157898 59.049217,223.226166 
	C58.427711,223.241257 57.010788,221.039261 57.237274,220.692657 
	C59.412270,217.363953 61.861191,214.214249 64.614761,211.007248 
z"/>
<path fill="#3D5283" opacity="1.000000" stroke="none" 
	d="
M51.360771,294.027893 
	C51.001144,289.305878 51.000309,284.623749 51.000740,279.476929 
	C52.097061,278.797028 53.192120,278.581879 55.433258,278.141541 
	C55.587219,282.925873 55.937103,287.389862 55.788719,291.837219 
	C55.712223,294.129883 54.199749,295.367950 51.360771,294.027893 
z"/>
<path fill="#415582" opacity="1.000000" stroke="none" 
	d="
M87.866943,141.319214 
	C90.184090,140.833603 92.362694,140.659195 94.781708,140.765533 
	C89.958534,145.493179 84.437668,149.565704 82.140457,156.721191 
	C82.982048,152.808380 83.953369,148.617172 85.235977,144.523483 
	C85.585388,143.408295 86.871941,142.586716 87.866943,141.319214 
z"/>
<path fill="#415582" opacity="1.000000" stroke="none" 
	d="
M283.451080,165.671539 
	C282.275360,163.315277 281.697906,160.499664 280.322571,158.151337 
	C277.454865,153.254883 274.165375,148.605423 270.977905,143.529785 
	C272.341217,140.851501 273.156464,140.188934 275.311707,143.127884 
	C280.249756,149.861511 281.751678,157.678726 283.451080,165.671539 
z"/>
<path fill="#415582" opacity="1.000000" stroke="none" 
	d="
M297.762360,272.597656 
	C290.706024,278.255768 282.306702,278.053223 273.441284,277.696045 
	C274.376312,277.060822 275.728058,276.266357 277.166077,276.052643 
	C281.860809,275.354980 286.587006,274.869110 291.980194,274.120819 
	C293.772858,273.293671 294.886444,272.647461 296.000000,272.001221 
	C296.530182,272.127686 297.060364,272.254150 297.762360,272.597656 
z"/>
<path fill="#3D5283" opacity="1.000000" stroke="none" 
	d="
M310.593262,217.002243 
	C311.667816,219.077057 312.327545,221.151535 312.992432,223.608124 
	C311.715790,224.867203 310.434052,225.744171 308.032928,227.387009 
	C307.146118,225.124786 305.819427,223.084778 305.640228,220.948502 
	C305.407990,218.179932 306.966827,216.368103 310.593262,217.002243 
z"/>
<path fill="#3D5283" opacity="1.000000" stroke="none" 
	d="
M302.408997,249.991119 
	C302.660797,247.904892 303.329376,245.823013 303.998962,243.374542 
	C306.366333,242.759476 309.102356,246.828125 310.977325,240.842087 
	C311.281006,241.299057 311.584686,241.756027 311.888367,242.212982 
	C312.161530,243.447327 312.909790,245.633545 312.635284,245.770569 
	C309.454834,247.357986 306.119812,248.635635 302.408997,249.991119 
z"/>
<path fill="#3D5283" opacity="1.000000" stroke="none" 
	d="
M297.001282,217.374329 
	C297.157043,216.134308 297.314056,215.274704 297.730774,214.208893 
	C299.004547,213.536072 299.991547,212.787415 301.040833,212.686646 
	C301.983429,212.596115 303.218781,212.975250 303.899323,213.606262 
	C304.383942,214.055603 304.562286,215.543152 304.185059,216.088364 
	C302.747711,218.165695 301.029541,220.048676 298.596680,222.997849 
	C297.840118,220.509521 297.421326,219.132141 297.001282,217.374329 
z"/>
<path fill="#415582" opacity="1.000000" stroke="none" 
	d="
M75.406044,180.043686 
	C74.999580,182.815796 74.231110,185.642426 73.235092,188.736053 
	C71.359253,187.679871 68.417168,186.458313 68.303734,185.014542 
	C67.954674,180.571457 72.483513,181.413132 75.406044,180.043686 
z"/>
<path fill="#415582" opacity="1.000000" stroke="none" 
	d="
M61.787064,230.576080 
	C61.779400,235.390640 61.602242,239.899719 61.244225,244.714203 
	C60.786957,244.827896 60.510548,244.636185 60.096031,243.921204 
	C59.638565,242.931946 59.319210,242.465973 58.999855,242.000000 
	C58.746307,238.756424 58.529446,235.509445 58.228764,232.270248 
	C57.936371,229.120392 58.737797,227.972610 61.787064,230.576080 
z"/>
<path fill="#415582" opacity="1.000000" stroke="none" 
	d="
M90.876968,277.239777 
	C85.335121,277.325409 79.656113,277.051392 73.695229,276.478516 
	C79.188835,276.413147 84.964325,276.646637 90.876968,277.239777 
z"/>
<path fill="#3D5282" opacity="1.000000" stroke="none" 
	d="
M198.954422,228.641602 
	C195.634659,229.001160 192.279099,229.001694 188.466644,229.001434 
	C191.812881,224.505722 196.023941,224.228561 198.954422,228.641602 
z"/>
<path fill="#3D5282" opacity="1.000000" stroke="none" 
	d="
M246.939758,228.653412 
	C243.634247,229.001175 240.278885,229.001724 236.466644,229.001450 
	C239.414505,224.222412 242.495178,224.025803 246.939758,228.653412 
z"/>
<path fill="#3D5282" opacity="1.000000" stroke="none" 
	d="
M151.954529,228.647186 
	C148.634659,229.001160 145.279099,229.001709 141.466644,229.001434 
	C144.615341,224.659561 148.687134,224.395737 151.954529,228.647186 
z"/>
<path fill="#415582" opacity="1.000000" stroke="none" 
	d="
M78.371704,169.045746 
	C77.961281,171.817657 77.201607,174.648056 76.197083,177.731293 
	C74.265923,174.470154 74.083145,171.306702 78.371704,169.045746 
z"/>
<path fill="#3D5282" opacity="1.000000" stroke="none" 
	d="
M292.945312,228.624634 
	C289.965027,229.001205 286.939819,229.001785 283.461578,229.001801 
	C286.241547,225.395660 289.919952,225.115799 292.945312,228.624634 
z"/>
<path fill="#3D5282" opacity="1.000000" stroke="none" 
	d="
M269.932526,228.644196 
	C266.965912,229.001541 263.940338,229.001877 260.461792,229.001404 
	C263.041992,225.236099 266.354340,225.331299 269.932526,228.644196 
z"/>
<path fill="#3D5282" opacity="1.000000" stroke="none" 
	d="
M221.936432,228.646027 
	C219.296524,229.001541 216.601639,229.001862 213.457947,229.001404 
	C215.739182,225.921417 218.615005,224.664948 221.936432,228.646027 
z"/>
<path fill="#3D5282" opacity="1.000000" stroke="none" 
	d="
M174.936096,228.646027 
	C172.296204,229.001541 169.601471,229.001862 166.457947,229.001404 
	C168.739120,225.921448 171.614883,224.664917 174.936096,228.646027 
z"/>
<path fill="#3D5282" opacity="1.000000" stroke="none" 
	d="
M127.936234,228.646042 
	C125.296341,229.001541 122.601532,229.001862 119.457939,229.001404 
	C121.739151,225.921463 124.614952,224.664993 127.936234,228.646042 
z"/>
<path fill="#3D5283" opacity="1.000000" stroke="none" 
	d="
M311.231750,254.644547 
	C310.039307,254.132568 309.149536,253.439621 308.259766,252.746674 
	C309.146729,252.217651 310.033661,251.688629 310.920624,251.159607 
	C311.125214,252.260925 311.329834,253.362259 311.231750,254.644547 
z"/>
<path fill="#3D5283" opacity="1.000000" stroke="none" 
	d="
M312.631958,305.016174 
	C312.580780,306.626923 312.162781,308.241333 311.377289,309.927185 
	C311.433777,308.340393 307.938995,305.694122 312.631958,305.016174 
z"/>
<path fill="#3D5283" opacity="1.000000" stroke="none" 
	d="
M295.946991,271.663330 
	C294.886444,272.647461 293.772858,273.293671 292.326782,273.967285 
	C292.695007,272.229584 292.279236,268.833313 295.946991,271.663330 
z"/>
<path fill="#415582" opacity="1.000000" stroke="none" 
	d="
M281.196228,147.750641 
	C280.858795,146.598297 280.858795,145.510971 280.858795,144.423660 
	C281.495209,144.516876 282.131622,144.610092 282.768036,144.703308 
	C282.356567,145.740768 281.945129,146.778214 281.196228,147.750641 
z"/>
<path fill="#415582" opacity="1.000000" stroke="none" 
	d="
M265.277222,141.162933 
	C265.007965,140.935287 264.997864,140.457123 265.001099,140.217743 
	C266.661560,140.708405 268.318817,141.438431 269.990021,142.556000 
	C268.518158,142.425888 267.032318,141.908218 265.277222,141.162933 
z"/>
<path fill="#415582" opacity="1.000000" stroke="none" 
	d="
M79.944725,163.072388 
	C79.978127,164.178864 79.730759,165.381088 79.242249,166.791382 
	C79.222054,165.722336 79.443001,164.445236 79.944725,163.072388 
z"/>
<path fill="#3D5283" opacity="1.000000" stroke="none" 
	d="
M68.997742,271.000000 
	C69.946014,270.297211 70.896553,269.594421 71.847084,268.891663 
	C72.081268,269.357239 72.315453,269.822815 72.549629,270.288391 
	C71.609322,270.525024 70.669022,270.761688 69.364052,271.001465 
	C68.999390,271.004608 69.000000,271.000000 68.997742,271.000000 
z"/>
<path fill="#3D5282" opacity="1.000000" stroke="none" 
	d="
M303.935120,229.656464 
	C302.921570,229.992584 301.850464,229.983322 300.377930,229.944885 
	C300.897766,227.268539 302.238617,227.328293 303.935120,229.656464 
z"/>
<path fill="#3D5282" opacity="1.000000" stroke="none" 
	d="
M60.125641,249.705704 
	C59.999165,250.001175 59.501884,250.000534 59.253304,250.000275 
	C59.437527,249.001709 59.870338,248.003418 60.635887,246.995987 
	C60.729790,247.794647 60.490955,248.602432 60.125641,249.705704 
z"/>
<path fill="#415582" opacity="1.000000" stroke="none" 
	d="
M228.943344,277.302399 
	C228.252731,277.660797 227.490341,277.730896 226.356232,277.695801 
	C226.946838,277.398438 227.909210,277.206268 228.943344,277.302399 
z"/>
<path fill="#415582" opacity="1.000000" stroke="none" 
	d="
M181.943344,277.302429 
	C181.252731,277.660828 180.490341,277.730896 179.356232,277.695801 
	C179.946838,277.398468 180.909210,277.206268 181.943344,277.302429 
z"/>
<path fill="#3D5282" opacity="1.000000" stroke="none" 
	d="
M50.345242,221.947266 
	C50.472988,221.095032 50.944927,220.188904 51.704960,219.140991 
	C51.558514,219.963943 51.123974,220.928650 50.345242,221.947266 
z"/>
<path fill="#3D5282" opacity="1.000000" stroke="none" 
	d="
M58.771820,242.171417 
	C59.319210,242.465973 59.638565,242.931946 59.977753,243.694489 
	C59.512981,243.441650 59.028381,242.892242 58.771820,242.171417 
z"/>
<path fill="#415582" opacity="1.000000" stroke="none" 
	d="
M81.305969,159.027618 
	C81.446747,159.528580 81.341805,160.074982 80.982567,160.761108 
	C80.838936,160.291565 80.949593,159.682327 81.305969,159.027618 
z"/>
<path fill="#415582" opacity="1.000000" stroke="none" 
	d="
M204.960724,277.338074 
	C204.560532,277.658051 204.105972,277.725372 203.317963,277.691681 
	C203.625122,277.422272 204.265747,277.253845 204.960724,277.338074 
z"/>
<path fill="#415582" opacity="1.000000" stroke="none" 
	d="
M133.960693,277.334656 
	C133.560516,277.654327 133.105835,277.721802 132.317749,277.687622 
	C132.624954,277.418182 133.265579,277.250305 133.960693,277.334656 
z"/>
<path fill="#FAFBFC" opacity="1.000000" stroke="none" 
	d="
M97.838028,122.992661 
	C97.899239,122.240997 97.960449,121.489334 97.923302,120.370743 
	C97.906227,109.304733 97.987511,98.605652 98.203033,87.201591 
	C98.756302,85.323845 99.175331,84.151070 99.792053,82.864906 
	C99.989754,82.751518 100.112656,82.312584 100.383179,82.201340 
	C100.818550,81.744072 100.983414,81.398056 101.457733,80.957291 
	C103.197037,79.950172 104.626884,79.037796 106.387085,78.188766 
	C107.144974,78.136612 107.572510,78.021118 108.000053,77.905624 
	C137.744385,77.954498 167.488693,78.017097 197.233047,78.047211 
	C215.846725,78.066055 234.460449,78.036003 253.872131,78.084435 
	C257.432373,79.767860 260.194641,81.394745 262.974182,83.323990 
	C263.385529,84.063324 263.779541,84.500282 264.173553,84.937241 
	C264.202667,85.409012 264.231812,85.880775 264.336304,87.124710 
	C264.411713,100.213409 264.411713,112.529945 264.411713,124.729340 
	C261.939941,124.976212 260.463348,125.123688 258.986725,125.271164 
	C253.967758,125.211334 248.948807,125.151505 243.041229,125.078629 
	C240.097351,125.133179 238.042114,125.200783 235.986862,125.268387 
	C233.948669,125.208611 231.910477,125.148842 229.071442,125.072472 
	C227.502426,125.066322 226.734238,125.076759 225.966064,125.087204 
	C225.966064,125.087204 225.943085,125.014908 225.793427,124.573715 
	C225.356583,117.785240 225.069382,111.437958 224.909454,104.711250 
	C224.922546,103.556808 224.808350,102.781792 224.820099,101.707718 
	C224.690140,100.600304 224.434235,99.791939 224.194855,98.666641 
	C223.803040,97.912621 223.394684,97.475517 222.909714,96.747528 
	C222.114548,96.231194 221.396011,96.005768 220.422516,95.423462 
	C219.230225,94.781494 218.292587,94.246681 217.355621,94.247810 
	C193.896606,94.276154 170.437683,94.360970 146.654770,94.343353 
	C145.891083,94.318253 145.451370,94.385597 144.673187,94.362564 
	C143.334991,94.759476 142.335281,95.246780 140.989258,95.776306 
	C139.709915,98.211151 138.776886,100.603767 137.743973,103.451286 
	C137.709961,107.939140 137.775833,111.972092 137.725342,116.369507 
	C137.678482,117.488045 137.748016,118.242126 137.718384,119.405182 
	C137.570419,121.488853 137.521606,123.163551 137.472794,124.838242 
	C137.129929,124.877975 136.787064,124.917709 135.851135,125.020279 
	C134.503403,125.150749 133.748764,125.218384 132.994110,125.286018 
	C122.640984,125.216164 112.287857,125.146309 101.118896,125.066963 
	C99.568588,124.988976 98.834122,124.920479 98.099655,124.851974 
	C98.099655,124.851974 98.032509,124.921021 98.084808,124.592651 
	C98.037422,123.840401 97.937721,123.416534 97.838028,122.992661 
z"/>
<path fill="#415685" opacity="1.000000" stroke="none" 
	d="
M259.088867,125.621750 
	C260.463348,125.123688 261.939941,124.976212 264.411713,124.729340 
	C264.411713,112.529945 264.411713,100.213409 264.511353,87.436752 
	C265.080414,88.725159 265.549774,90.473671 266.031921,92.611610 
	C266.033875,100.492958 265.817322,107.993134 266.117096,115.472618 
	C266.231201,118.319519 267.530884,121.118912 268.637726,125.230896 
	C266.220886,125.420586 262.705933,125.696457 259.088867,125.621750 
z"/>
<path fill="#3C507F" opacity="1.000000" stroke="none" 
	d="
M262.956879,83.021637 
	C260.194641,81.394745 257.432373,79.767860 254.334320,78.002182 
	C255.812363,76.781822 257.626190,75.700264 259.215057,74.752831 
	C261.621246,77.752892 263.559326,80.169273 264.908508,82.792892 
	C263.865387,83.007294 263.411133,83.014465 262.956879,83.021637 
z"/>
<path fill="#394E7E" opacity="1.000000" stroke="none" 
	d="
M93.341042,75.949677 
	C92.196526,75.750343 91.392738,75.500694 90.293869,75.125839 
	C89.998749,74.833511 89.998718,74.666382 90.320602,74.207146 
	C91.091896,73.274414 91.541267,72.633781 91.990631,71.993156 
	C92.639160,70.912926 93.287682,69.832703 94.029167,68.442444 
	C94.538643,68.095306 94.955154,68.058197 95.854431,68.258606 
	C96.891464,68.664085 97.445732,68.832047 98.000000,69.000000 
	C96.560593,71.299782 95.121185,73.599571 93.341042,75.949677 
z"/>
<path fill="#394E7E" opacity="1.000000" stroke="none" 
	d="
M107.990585,77.536217 
	C107.572510,78.021118 107.144974,78.136612 106.148399,77.888641 
	C104.053009,77.350021 102.526657,77.174858 101.000305,76.999695 
	C100.779381,75.888283 100.558456,74.776878 100.337532,73.665466 
	C100.626091,73.267822 100.914650,72.870186 101.203209,72.472542 
	C103.462509,74.037300 105.721809,75.602058 107.990585,77.536217 
z"/>
<path fill="#3C507F" opacity="1.000000" stroke="none" 
	d="
M100.993553,77.362396 
	C102.526657,77.174858 104.053009,77.350021 105.818054,77.825302 
	C104.626884,79.037796 103.197037,79.950172 101.191055,81.076691 
	C100.447502,81.631409 100.280075,81.971992 100.112656,82.312584 
	C100.112656,82.312584 99.989754,82.751518 99.527054,82.866028 
	C98.710304,82.988960 98.356255,82.997383 98.002213,83.005798 
	C98.255463,82.073814 98.336594,81.041313 98.806892,80.236092 
	C99.356224,79.295540 100.245186,78.553345 100.993553,77.362396 
z"/>
<path fill="#415685" opacity="1.000000" stroke="none" 
	d="
M97.973297,83.324028 
	C98.356255,82.997383 98.710304,82.988960 99.329346,82.979416 
	C99.175331,84.151070 98.756302,85.323845 98.129684,86.736343 
	C97.929520,85.864792 97.936951,84.753525 97.973297,83.324028 
z"/>
<path fill="#394E7E" opacity="1.000000" stroke="none" 
	d="
M107.999931,67.000000 
	C107.245819,67.646156 106.491707,68.292305 105.737595,68.938454 
	C105.336395,68.428543 104.935196,67.918633 105.141998,67.204346 
	C106.499969,66.999977 107.249954,66.999985 107.999931,67.000000 
z"/>
<path fill="#3C507F" opacity="1.000000" stroke="none" 
	d="
M107.999969,66.666504 
	C107.249954,66.999985 106.499969,66.999977 105.375000,66.999985 
	C105.000084,66.555801 105.000160,66.111603 105.001251,65.334076 
	C105.751427,65.000244 106.500587,64.999741 107.624359,64.999619 
	C107.999313,65.444336 107.999657,65.888672 107.999969,66.666504 
z"/>
<path fill="#3C507F" opacity="1.000000" stroke="none" 
	d="
M98.000473,68.670349 
	C97.445732,68.832047 96.891464,68.664085 96.168777,68.252968 
	C96.470810,67.690651 96.941261,67.371483 97.711212,67.037674 
	C98.007454,67.462257 98.004196,67.901482 98.000473,68.670349 
z"/>
<path fill="#3C507F" opacity="1.000000" stroke="none" 
	d="
M273.048523,75.317123 
	C273.645966,75.450577 274.281219,75.905319 274.958862,76.679581 
	C274.362946,76.545540 273.724670,76.091980 273.048523,75.317123 
z"/>
<path fill="#415685" opacity="1.000000" stroke="none" 
	d="
M262.974182,83.323997 
	C263.411133,83.014465 263.865387,83.007294 264.660431,83.000366 
	C264.873108,83.533783 264.744965,84.066956 264.395203,84.768684 
	C263.779541,84.500282 263.385529,84.063324 262.974182,83.323997 
z"/>
<path fill="#3C507F" opacity="1.000000" stroke="none" 
	d="
M272.837952,74.091965 
	C273.004883,74.005096 273.005463,74.497787 273.005127,74.744019 
	C272.893524,74.719780 272.782257,74.449303 272.837952,74.091965 
z"/>
<path fill="#394E7E" opacity="1.000000" stroke="none" 
	d="
M85.554398,86.068062 
	C86.917519,89.344193 88.568916,92.788231 88.876511,96.348389 
	C89.583397,104.529877 89.924530,112.772049 89.806175,120.980827 
	C89.761421,124.084625 88.042305,127.164284 86.710251,130.628845 
	C85.890610,131.008209 85.447136,131.013687 85.003662,131.019165 
	C84.827240,131.014648 84.650818,131.010147 84.209328,130.995331 
	C83.962448,126.966377 83.980652,122.947762 84.401382,118.371353 
	C85.175140,117.309784 85.862030,116.810715 85.869637,116.301491 
	C85.963905,109.993698 86.029716,103.682892 85.892624,97.377434 
	C85.875076,96.570801 84.668053,95.790016 84.012070,94.997261 
	C84.418839,92.094414 84.825600,89.191559 85.554398,86.068062 
z"/>
<path fill="#415685" opacity="1.000000" stroke="none" 
	d="
M85.002823,131.346558 
	C85.447136,131.013687 85.890610,131.008209 86.666733,131.001068 
	C86.551826,131.662506 86.104263,132.325623 85.328651,132.986130 
	C85.001068,132.546997 85.001526,132.110489 85.002823,131.346558 
z"/>
<path fill="#384D7E" opacity="1.000000" stroke="none" 
	d="
M276.379272,131.010529 
	C276.717010,129.683441 277.426666,128.354065 278.506500,127.013359 
	C278.912170,128.063477 278.947693,129.124893 278.982422,130.584137 
	C278.238190,130.990707 277.494720,130.999481 276.379272,131.010529 
z"/>
<path fill="#415582" opacity="1.000000" stroke="none" 
	d="
M83.998550,95.465973 
	C84.668053,95.790016 85.875076,96.570801 85.892624,97.377434 
	C86.029716,103.682892 85.963905,109.993698 85.869637,116.301491 
	C85.862030,116.810715 85.175140,117.309784 84.410187,117.908508 
	C84.005989,110.647202 83.995506,103.290947 83.998550,95.465973 
z"/>
<path fill="#3C507F" opacity="1.000000" stroke="none" 
	d="
M91.671112,72.036865 
	C91.541267,72.633781 91.091896,73.274414 90.321884,73.956451 
	C90.451355,73.358765 90.901466,72.719673 91.671112,72.036865 
z"/>
<path fill="#415685" opacity="1.000000" stroke="none" 
	d="
M99.449615,140.689346 
	C102.684349,140.076004 106.384628,139.523331 111.010330,138.973938 
	C119.624092,138.967438 127.312424,138.957687 135.000763,138.947937 
	C139.357025,138.957108 143.713272,138.966293 149.002518,138.977814 
	C156.956879,138.967911 163.978241,138.955688 170.999619,138.943481 
	C182.020706,138.952118 193.041794,138.960754 204.999664,138.972839 
	C213.624756,138.967346 221.313065,138.958389 229.001358,138.949432 
	C238.692673,138.961990 248.384323,138.938202 258.074982,139.024109 
	C259.630920,139.037903 261.182495,139.541809 262.876587,140.173248 
	C239.910995,140.560303 216.804901,140.594528 193.698807,140.625931 
	C162.437592,140.668411 131.176376,140.708755 99.449615,140.689346 
z"/>
<path fill="#3A4C76" opacity="1.000000" stroke="none" 
	d="
M289.529449,298.497620 
	C288.524506,299.083618 287.068176,299.944763 285.611053,299.946106 
	C215.324356,300.011963 145.037567,300.007385 74.750809,299.977448 
	C73.296875,299.976837 71.843109,299.585724 70.117058,299.024170 
	C73.830284,298.563385 77.815712,298.361664 81.801163,298.361023 
	C150.893356,298.349884 219.985535,298.363464 289.529449,298.497620 
z"/>
<path fill="#3A4C76" opacity="1.000000" stroke="none" 
	d="
M298.725250,298.346008 
	C298.441315,298.602722 297.807648,298.843170 297.097412,298.849731 
	C297.472412,298.520447 297.923950,298.425079 298.725250,298.346008 
z"/>
<path fill="#F6F8FA" opacity="1.000000" stroke="none" 
	d="
M209.868881,110.324020 
	C209.868881,110.324020 209.797394,110.681808 209.813248,111.298073 
	C209.786407,116.242981 209.743713,120.571625 209.701004,124.900269 
	C208.711197,124.966316 207.721390,125.032372 205.951935,125.094337 
	C203.444046,125.149612 201.715790,125.208977 199.987549,125.268341 
	C198.602875,125.199539 197.218201,125.130737 194.957153,125.032387 
	C184.961426,125.010712 175.840302,124.915810 166.723572,125.074608 
	C162.810867,125.142761 158.907349,125.737991 154.593628,125.969818 
	C153.771820,120.498260 153.356033,115.150642 153.412689,109.829742 
	C169.762466,109.820404 185.639832,109.755959 201.517120,109.775009 
	C204.301254,109.778351 207.084976,110.132095 209.868881,110.324020 
z"/>
<path fill="#394E7E" opacity="1.000000" stroke="none" 
	d="
M152.940247,109.803024 
	C153.356033,115.150642 153.771820,120.498260 154.662567,126.310501 
	C158.091675,126.850685 161.045837,126.926262 164.000000,127.001831 
	C166.297546,130.760132 168.595108,134.518433 170.946136,138.610107 
	C163.978241,138.955688 156.956879,138.967911 149.466949,138.967163 
	C151.227646,133.635391 145.318405,125.875336 137.892517,124.879646 
	C137.521606,123.163551 137.570419,121.488853 138.078583,119.362686 
	C139.024475,117.941528 139.511017,116.971832 140.413681,116.001404 
	C144.111786,115.290062 147.393753,114.579445 150.752838,113.852135 
	C150.425232,112.075157 150.142960,110.978569 150.040146,109.865417 
	C149.935150,108.728310 149.985184,107.574593 150.004013,106.428757 
	C150.083603,101.590561 150.898483,101.128754 155.998917,103.373093 
	C155.661041,105.158928 155.328522,106.576248 154.688385,108.029236 
	C153.900589,108.644279 153.420410,109.223648 152.940247,109.803024 
z"/>
<path fill="#394E7E" opacity="1.000000" stroke="none" 
	d="
M220.677475,95.780342 
	C221.396011,96.005768 222.114548,96.231194 222.906372,97.073349 
	C222.985992,98.124496 222.992325,98.558929 222.744446,99.197647 
	C223.224869,100.270218 223.959503,101.138496 224.694153,102.006775 
	C224.808350,102.781792 224.922546,103.556808 224.655869,105.003586 
	C224.160080,108.118347 224.045166,110.561363 223.930252,113.004372 
	C222.889313,112.244865 221.227936,111.683350 220.911758,110.692558 
	C219.297104,105.632706 215.563141,104.130516 210.000336,104.002838 
	C206.089798,104.059578 202.887878,103.935318 201.619614,107.985718 
	C200.500168,107.987274 199.753860,107.986000 198.994095,107.591927 
	C197.040298,106.133171 195.135788,104.232285 193.153397,104.147247 
	C185.008911,103.797920 176.840134,104.052658 168.681824,103.955833 
	C167.117111,103.937271 165.559311,103.335442 164.292542,102.705719 
	C179.538742,102.408737 194.490723,102.408737 209.442688,102.408737 
	C209.545883,101.614479 209.649094,100.820213 209.752289,100.025955 
	C207.964783,99.683998 206.178604,99.053284 204.389557,99.045082 
	C187.797180,98.968903 171.202332,99.126984 154.613708,98.865974 
	C152.062027,98.825821 149.538422,97.000580 147.459213,96.000427 
	C152.179153,96.332596 156.446350,96.999924 160.703476,96.940834 
	C180.696335,96.663315 200.686401,96.186203 220.677475,95.780342 
M217.392303,98.201828 
	C217.786057,98.206024 218.179810,98.210220 218.573578,98.214417 
	C218.575104,98.051018 218.587585,97.745621 218.576553,97.744766 
	C218.184738,97.714531 217.790710,97.712822 217.392303,98.201828 
z"/>
<path fill="#394E7E" opacity="1.000000" stroke="none" 
	d="
M228.961151,138.606842 
	C221.313065,138.958389 213.624756,138.967346 205.468140,138.960098 
	C207.717621,135.752075 210.211090,132.327454 213.215073,129.432587 
	C216.343613,126.417671 220.762558,127.700478 223.050476,131.361542 
	C224.634125,133.895645 226.938583,135.979309 228.961151,138.606842 
z"/>
<path fill="#415685" opacity="1.000000" stroke="none" 
	d="
M199.007553,107.984734 
	C199.753860,107.986000 200.500168,107.987274 202.064514,107.991440 
	C205.254639,107.995300 207.626709,107.996277 209.998779,107.997253 
	C209.987549,108.515213 209.976303,109.033180 209.916962,109.937576 
	C207.084976,110.132095 204.301254,109.778351 201.517120,109.775009 
	C185.639832,109.755959 169.762466,109.820404 153.412689,109.829750 
	C153.420410,109.223648 153.900589,108.644279 155.157486,108.031578 
	C170.291992,107.993744 184.649765,107.989243 199.007553,107.984734 
z"/>
<path fill="#3D517E" opacity="1.000000" stroke="none" 
	d="
M164.468658,127.000404 
	C161.045837,126.926262 158.091675,126.850685 155.068573,126.434433 
	C158.907349,125.737991 162.810867,125.142761 166.723572,125.074608 
	C175.840302,124.915810 184.961426,125.010712 194.543076,125.088249 
	C193.523666,125.781601 192.051804,126.885864 190.558624,126.915474 
	C182.020996,127.084785 173.478302,126.998482 164.468658,127.000404 
z"/>
<path fill="#415685" opacity="1.000000" stroke="none" 
	d="
M223.945709,113.336166 
	C224.045166,110.561363 224.160080,108.118347 224.528595,105.383011 
	C225.069382,111.437958 225.356583,117.785240 225.761230,124.593750 
	C225.460251,125.044693 225.041855,125.034424 224.302368,124.757263 
	C223.968811,124.320732 223.956329,124.151100 223.950867,123.649780 
	C223.952698,122.875786 223.947525,122.433479 223.960480,121.593170 
	C223.970200,120.132545 223.961777,119.069916 223.961884,117.630890 
	C223.957565,116.501717 223.944672,115.748932 223.931778,114.996155 
	C223.941559,114.553421 223.951355,114.110687 223.945709,113.336166 
z"/>
<path fill="#3D517E" opacity="1.000000" stroke="none" 
	d="
M209.998474,107.597885 
	C207.626709,107.996277 205.254639,107.995300 202.437653,107.988609 
	C202.887878,103.935318 206.089798,104.059578 209.593262,104.003059 
	C209.996124,105.068619 209.997147,106.133568 209.998474,107.597885 
z"/>
<path fill="#394E7E" opacity="1.000000" stroke="none" 
	d="
M223.531860,115.013763 
	C223.944672,115.748932 223.957565,116.501717 223.712357,117.845253 
	C223.616959,119.621063 223.779648,120.806122 223.942352,121.991180 
	C223.947525,122.433479 223.952698,122.875786 223.715454,123.657463 
	C223.473022,123.996841 223.000809,124.004677 223.000809,124.004677 
	C220.088699,121.254982 220.143814,117.483734 223.531860,115.013763 
z"/>
<path fill="#415685" opacity="1.000000" stroke="none" 
	d="
M210.082336,124.778046 
	C209.743713,120.571625 209.786407,116.242981 209.905960,111.455185 
	C211.252228,115.510254 213.886658,119.976425 210.082336,124.778046 
z"/>
<path fill="#3D517E" opacity="1.000000" stroke="none" 
	d="
M200.052429,125.619545 
	C201.715790,125.208977 203.444046,125.149612 205.593689,125.194199 
	C204.514511,129.602951 202.434464,128.826355 200.052429,125.619545 
z"/>
<path fill="#415685" opacity="1.000000" stroke="none" 
	d="
M236.089386,125.618324 
	C238.042114,125.200783 240.097351,125.133179 242.582947,125.167557 
	C240.739502,125.502441 238.465698,125.735352 236.089386,125.618324 
z"/>
<path fill="#415685" opacity="1.000000" stroke="none" 
	d="
M226.021149,125.405060 
	C226.734238,125.076759 227.502426,125.066322 228.641861,125.158524 
	C228.034164,125.415085 227.055191,125.569000 226.021149,125.405060 
z"/>
<path fill="#3D517E" opacity="1.000000" stroke="none" 
	d="
M223.108917,124.222427 
	C223.000809,124.004677 223.473022,123.996841 223.708435,123.989151 
	C223.956329,124.151100 223.968811,124.320732 223.988556,124.745384 
	C223.675171,124.898499 223.415573,124.711761 223.108917,124.222427 
z"/>
<path fill="#394E7E" opacity="1.000000" stroke="none" 
	d="
M134.945679,138.611038 
	C127.312424,138.957687 119.624092,138.967438 111.467247,138.961899 
	C113.630707,133.696686 115.894524,128.124146 123.514870,128.945923 
	C127.034935,129.325516 129.763245,130.173630 131.208252,133.874496 
	C131.867493,135.562897 133.629028,136.820923 134.945679,138.611038 
z"/>
<path fill="#394E7E" opacity="1.000000" stroke="none" 
	d="
M132.996674,125.634552 
	C133.748764,125.218384 134.503403,125.150749 135.631012,125.165115 
	C135.477142,126.360710 134.950302,127.474297 134.423462,128.587891 
	C133.948715,127.719627 133.473969,126.851364 132.996674,125.634552 
z"/>
<path fill="#3C507F" opacity="1.000000" stroke="none" 
	d="
M97.478165,122.994949 
	C97.937721,123.416534 98.037422,123.840401 98.132965,124.592407 
	C96.947449,124.832031 95.766083,124.743523 94.584717,124.655014 
	C94.541092,124.353790 94.497459,124.052567 94.453827,123.751343 
	C95.341988,123.499977 96.230141,123.248611 97.478165,122.994949 
z"/>
<path fill="#415685" opacity="1.000000" stroke="none" 
	d="
M98.098404,125.188049 
	C98.834122,124.920479 99.568588,124.988976 100.658981,125.156067 
	C101.014915,125.254662 101.003006,125.649925 100.770645,125.946075 
	C100.273582,126.434120 100.093704,126.686516 99.998650,126.999390 
	C99.364815,126.507637 98.730980,126.015884 98.098404,125.188049 
z"/>
<path fill="#394E7E" opacity="1.000000" stroke="none" 
	d="
M100.211609,126.897873 
	C100.093704,126.686516 100.273582,126.434120 100.750809,126.142799 
	C100.873955,126.358917 100.694366,126.609909 100.211609,126.897873 
z"/>
<path fill="#374D81" opacity="1.000000" stroke="none" 
	d="
M147.001831,96.000916 
	C149.538422,97.000580 152.062027,98.825821 154.613708,98.865974 
	C171.202332,99.126984 187.797180,98.968903 204.389557,99.045082 
	C206.178604,99.053284 207.964783,99.683998 209.752289,100.025955 
	C209.649094,100.820213 209.545883,101.614479 209.442688,102.408737 
	C194.490723,102.408737 179.538742,102.408737 163.848663,102.705246 
	C160.741776,103.002701 158.373032,103.003639 156.004272,103.004578 
	C150.898483,101.128754 150.083603,101.590561 150.004013,106.428757 
	C149.985184,107.574593 149.935150,108.728310 150.040146,109.865417 
	C150.142960,110.978569 150.425232,112.075157 150.752838,113.852135 
	C147.393753,114.579445 144.111786,115.290062 140.054459,116.001167 
	C138.799973,116.002792 138.320831,116.003922 137.841705,116.005051 
	C137.775833,111.972092 137.709961,107.939140 138.116119,103.421257 
	C142.017426,101.899391 145.191696,100.698265 143.264801,96.036942 
	C143.511322,96.019333 144.005219,95.999146 144.209747,95.902847 
	C144.681198,95.630348 144.839203,95.384224 144.930817,94.916725 
	C144.973373,94.765266 145.011642,94.452950 145.011642,94.452950 
	C145.451370,94.385597 145.891083,94.318253 146.657211,94.604210 
	C146.989685,95.305321 146.995758,95.653114 147.001831,96.000916 
z"/>
<path fill="#3D517E" opacity="1.000000" stroke="none" 
	d="
M147.459213,96.000427 
	C146.995758,95.653114 146.989685,95.305321 146.981171,94.696663 
	C170.437683,94.360970 193.896606,94.276154 217.355621,94.247810 
	C218.292587,94.246681 219.230225,94.781494 220.422516,95.423462 
	C200.686401,96.186203 180.696335,96.663315 160.703476,96.940834 
	C156.446350,96.999924 152.179153,96.332596 147.459213,96.000427 
z"/>
<path fill="#3D517E" opacity="1.000000" stroke="none" 
	d="
M143.018280,96.054558 
	C145.191696,100.698265 142.017426,101.899391 138.215973,102.966362 
	C138.776886,100.603767 139.709915,98.211151 141.408463,95.868813 
	C142.455414,95.964256 142.736847,96.009407 143.018280,96.054558 
z"/>
<path fill="#3D517E" opacity="1.000000" stroke="none" 
	d="
M224.820099,101.707718 
	C223.959503,101.138496 223.224869,100.270218 223.039398,99.199005 
	C223.785141,98.991898 223.981735,98.987732 224.178314,98.983574 
	C224.434235,99.791939 224.690140,100.600304 224.820099,101.707718 
z"/>
<path fill="#3D517E" opacity="1.000000" stroke="none" 
	d="
M137.725327,116.369507 
	C138.320831,116.003922 138.799973,116.002792 139.638336,116.001900 
	C139.511017,116.971832 139.024475,117.941528 138.177734,118.953712 
	C137.748016,118.242126 137.678482,117.488045 137.725327,116.369507 
z"/>
<path fill="#415685" opacity="1.000000" stroke="none" 
	d="
M143.264801,96.036942 
	C142.736847,96.009407 142.455414,95.964256 141.754761,95.826599 
	C142.335281,95.246780 143.334991,94.759476 144.673187,94.362564 
	C145.011642,94.452950 144.973373,94.765266 144.734161,95.016373 
	C144.252914,95.458588 144.089676,95.702477 144.005219,95.999146 
	C144.005219,95.999146 143.511322,96.019333 143.264801,96.036942 
z"/>
<path fill="#415685" opacity="1.000000" stroke="none" 
	d="
M224.194855,98.666641 
	C223.981735,98.987732 223.785141,98.991898 223.293610,98.994713 
	C222.992325,98.558929 222.985992,98.124496 222.983002,97.364243 
	C223.394684,97.475517 223.803040,97.912621 224.194855,98.666641 
z"/>
<path fill="#415685" opacity="1.000000" stroke="none" 
	d="
M100.383171,82.201340 
	C100.280075,81.971992 100.447502,81.631409 100.881607,81.171432 
	C100.983414,81.398056 100.818550,81.744072 100.383171,82.201340 
z"/>
<path fill="#3D517E" opacity="1.000000" stroke="none" 
	d="
M155.998917,103.373093 
	C158.373032,103.003639 160.741776,103.002701 163.554428,103.002228 
	C165.559311,103.335442 167.117111,103.937271 168.681824,103.955833 
	C176.840134,104.052658 185.008911,103.797920 193.153397,104.147247 
	C195.135788,104.232285 197.040298,106.133171 198.994095,107.591927 
	C184.649765,107.989243 170.291992,107.993744 155.465118,107.995911 
	C155.328522,106.576248 155.661041,105.158928 155.998917,103.373093 
z"/>
<path fill="#3D517E" opacity="1.000000" stroke="none" 
	d="
M217.394653,97.954475 
	C217.790710,97.712822 218.184738,97.714531 218.576553,97.744766 
	C218.587585,97.745621 218.575104,98.051018 218.573578,98.214417 
	C218.179810,98.210220 217.786057,98.206024 217.394653,97.954475 
z"/>
<path fill="#3D517E" opacity="1.000000" stroke="none" 
	d="
M223.960495,121.593170 
	C223.779648,120.806122 223.616959,119.621063 223.703796,118.221649 
	C223.961777,119.069916 223.970200,120.132545 223.960495,121.593170 
z"/>
<path fill="#3D517E" opacity="1.000000" stroke="none" 
	d="
M144.209747,95.902847 
	C144.089676,95.702477 144.252914,95.458588 144.691605,95.167831 
	C144.839203,95.384224 144.681198,95.630348 144.209747,95.902847 
z"/>
</svg>