<svg version="1.1" id="Layer_1" xmlns="http://www.w3.org/2000/svg" xmlns:xlink="http://www.w3.org/1999/xlink" x="0px" y="0px"
	 width="100%" viewBox="0 0 336 340" enable-background="new 0 0 336 340" xml:space="preserve">
<style>
  path { fill: #3E8668 !important; stroke: #3E8668 !important; }
  path[fill^="#F"], path[fill^="#f"] { fill: #FFFFFF !important; stroke: none !important; }
</style>
<path fill="#FEFFFF" opacity="1.000000" stroke="none" 
	d="
M183.000000,341.000000 
	C122.000008,341.000000 61.500023,341.000000 1.000024,341.000000 
	C1.000016,227.666702 1.000016,114.333397 1.000008,1.000070 
	C112.999947,1.000047 224.999893,1.000047 336.999878,1.000023 
	C336.999939,114.333260 336.999939,227.666519 336.999969,340.999878 
	C285.833344,341.000000 234.666672,341.000000 183.000000,341.000000 
M202.887924,146.406174 
	C202.143616,145.984009 201.399292,145.561859 200.100433,144.982925 
	C199.745285,144.538605 199.390121,144.094284 199.032806,142.908081 
	C198.762177,139.290039 197.809677,136.709015 193.174683,139.282959 
	C193.174683,139.282959 192.997650,139.029037 192.906845,138.330002 
	C188.133942,133.003235 182.008377,130.931885 174.261993,130.941513 
	C173.527832,130.725159 172.793686,130.508804 172.030426,129.705322 
	C171.020279,129.136276 170.010147,128.567230 169.126129,127.295166 
	C170.680099,126.370239 172.234055,125.445312 172.974838,125.004402 
	C172.974838,121.490585 172.974838,118.781425 173.007217,115.628479 
	C173.007217,115.628479 172.974365,115.184715 173.699738,115.049316 
	C175.130707,115.410103 176.561676,115.770889 178.127884,116.825989 
	C179.183319,118.333214 180.287872,119.808853 181.282455,121.355217 
	C182.708603,123.572517 184.296463,124.680649 187.066040,123.306702 
	C188.765503,122.463623 190.773010,122.241425 193.140350,121.657288 
	C193.431061,121.813957 193.721756,121.970627 194.277496,122.555359 
	C194.581207,122.680489 194.884903,122.805618 195.647934,122.994232 
	C195.647934,122.994232 195.980728,123.317123 196.150146,123.972404 
	C196.934906,124.251190 197.719650,124.529984 199.129700,124.886467 
	C200.431335,125.898514 201.732971,126.910553 203.068146,128.643967 
	C206.280457,131.710052 209.251297,135.097595 212.777222,137.746170 
	C215.912048,140.100983 218.328995,138.919052 218.943436,134.936752 
	C218.943436,134.936752 218.822159,134.865997 219.578705,134.949570 
	C223.682312,133.821762 226.448349,131.445145 227.211975,126.395157 
	C228.477966,125.264313 229.743942,124.133476 231.729294,122.887779 
	C232.284317,120.997398 232.839340,119.107018 233.394363,117.216637 
	C231.232773,116.834946 229.071182,116.453255 226.999374,116.017357 
	C226.999374,116.017357 226.931854,116.097656 226.904984,115.399406 
	C226.194519,114.991432 225.484039,114.583458 224.897659,114.099037 
	C224.897659,114.099037 224.827652,114.226860 224.881424,113.466576 
	C223.783798,112.787544 222.686188,112.108513 221.796524,111.295937 
	C221.796524,111.295937 221.580048,111.442001 221.782150,110.791428 
	C221.507797,110.323616 221.233459,109.855804 220.959137,109.387993 
	C220.616623,109.651817 220.274109,109.915642 219.317612,110.057449 
	C218.536255,109.394608 217.754883,108.731758 216.894989,107.355827 
	C215.906128,106.914093 214.917252,106.472359 213.330826,105.904274 
	C212.544861,105.292221 211.758896,104.680176 211.001282,103.222794 
	C210.890289,96.679161 210.550949,96.827644 204.632324,96.455292 
	C200.913666,96.221359 197.350143,94.093826 193.616287,93.275330 
	C191.886246,92.896095 189.915909,93.613060 187.354462,93.886147 
	C186.912338,93.744514 186.470200,93.602882 185.769485,92.825958 
	C184.926468,92.688881 184.083450,92.551796 182.531555,92.544792 
	C181.357147,92.323486 180.182724,92.102180 178.884323,91.213440 
	C177.590607,91.138367 176.296875,91.063293 174.146835,91.079689 
	C172.440506,90.894615 170.734192,90.709541 168.787506,89.871109 
	C163.054962,86.699715 157.447830,86.871170 151.124146,90.730728 
	C149.077759,90.806847 147.031387,90.882965 144.554504,90.433220 
	C143.367523,90.921661 142.180557,91.410095 140.236298,92.146614 
	C138.927139,92.345253 137.617996,92.543900 135.952682,92.005684 
	C133.931854,90.887596 131.911011,89.769501 129.841553,88.624504 
	C131.543411,86.003738 132.779221,84.100670 134.639511,81.935066 
	C135.087326,81.941177 135.535141,81.947281 136.421997,82.504860 
	C138.294571,81.906616 140.167130,81.308372 142.776871,80.325562 
	C143.873672,80.276756 144.970459,80.227951 146.538284,80.666931 
	C148.032959,80.232338 149.527634,79.797752 151.923477,79.109703 
	C157.276413,79.167641 162.629333,79.225586 168.172134,79.964699 
	C170.103363,80.007462 172.034607,80.050224 174.764542,79.942749 
	C176.841705,80.314400 178.918869,80.686058 181.085190,81.707779 
	C182.065430,81.780197 183.045685,81.852623 184.699219,81.839386 
	C185.128372,81.966949 185.557526,82.094513 186.186966,82.963112 
	C187.367462,83.187057 188.547974,83.411003 190.302887,83.425652 
	C190.870712,83.598251 191.438522,83.770851 191.996689,84.716736 
	C192.843658,85.572121 193.544479,86.772285 194.569809,87.206924 
	C196.377136,87.973045 198.367325,88.345741 200.309372,88.744995 
	C202.112488,89.115677 203.952682,89.305946 206.439316,89.466896 
	C207.962387,90.303589 209.485474,91.140282 211.135574,92.732147 
	C211.996506,93.045120 212.857422,93.358093 214.190521,93.612251 
	C214.520691,93.666069 214.787460,93.825760 214.987244,94.952782 
	C215.035172,103.101791 215.033676,103.095581 223.167709,101.137276 
	C223.790634,100.987297 224.455597,101.011871 225.734192,101.042809 
	C226.839081,101.996872 227.943954,102.950928 228.749100,104.572945 
	C227.434402,110.554375 232.149185,108.373833 235.350784,109.346100 
	C236.564713,110.599426 237.778641,111.852753 239.061691,113.684494 
	C239.384506,113.990768 239.707306,114.297043 240.030121,114.603325 
	C240.356339,114.115028 240.682556,113.626732 241.356750,112.660393 
	C242.111160,112.056061 242.865555,111.451729 244.377228,110.890923 
	C245.227402,109.868584 246.077576,108.846245 247.176102,107.237167 
	C248.717667,105.796341 250.259232,104.355515 252.581055,102.971405 
	C253.719177,101.645920 254.857300,100.320427 256.111237,98.298698 
	C255.989716,97.408455 255.868179,96.518211 255.865509,94.839615 
	C253.907669,93.226410 251.949844,91.613197 249.431808,89.733307 
	C248.239975,88.608475 247.048141,87.483643 245.935989,85.550591 
	C245.694916,80.881836 241.816910,81.754967 238.999390,81.000778 
	C238.999390,81.000778 238.997299,80.994553 238.938248,80.269691 
	C237.588638,79.540321 236.239044,78.810951 234.988419,78.035133 
	C234.988419,78.035133 234.921310,78.121460 234.932098,77.439323 
	C233.934265,77.013763 232.936417,76.588203 231.333679,76.094841 
	C230.889603,75.726280 230.445526,75.357727 229.878632,74.255859 
	C229.048843,73.916374 228.219055,73.576889 227.145370,73.277588 
	C227.145370,73.277588 226.994003,73.082169 226.861649,72.310989 
	C225.988739,72.001358 225.115845,71.691727 223.629196,71.436157 
	C222.754990,70.927284 221.880768,70.418419 220.878250,69.184517 
	C219.343155,68.572006 217.808060,67.959503 215.583069,67.324646 
	C214.950897,67.122696 214.295151,66.974846 213.689987,66.710983 
	C191.904739,57.212433 169.207245,53.307831 145.575562,56.300358 
	C136.561951,57.441772 127.683296,59.649017 117.821381,61.150623 
	C115.258774,61.435997 112.701347,61.885075 110.132286,61.966198 
	C106.755081,62.072845 104.945976,63.513596 104.640152,67.288734 
	C104.348503,67.455765 104.046913,67.476227 102.820259,67.142181 
	C98.000511,66.559036 95.162842,69.253319 92.843681,73.281815 
	C92.843681,73.281815 92.586983,73.224854 91.714233,73.096649 
	C89.366058,73.048927 86.772942,72.691483 87.302734,76.162094 
	C87.302734,76.162094 87.398689,76.488808 86.720566,76.144775 
	C85.699577,75.570068 84.678581,74.995369 83.223259,74.176186 
	C82.779472,76.498627 82.427528,78.340408 81.721092,80.744362 
	C76.470093,85.158821 71.219101,89.573280 65.227020,93.994568 
	C61.580528,95.953400 61.345024,97.017105 64.706131,99.228661 
	C66.154686,100.777985 67.603241,102.327309 69.013100,104.694916 
	C68.693016,108.629929 70.945229,109.360229 74.066780,108.935097 
	C74.066780,108.935097 74.146507,108.807663 74.096695,109.534233 
	C75.248291,111.024940 76.207344,112.762924 77.646873,113.883873 
	C78.217407,114.328140 79.854980,113.402092 81.370461,112.540016 
	C82.964531,111.045151 84.558601,109.550285 86.869278,108.033295 
	C88.231117,106.652008 89.592949,105.270729 91.104362,103.400620 
	C91.549919,103.196609 91.995483,102.992599 93.253105,102.912537 
	C94.765572,102.381210 96.308945,101.328423 97.784737,101.415894 
	C102.291664,101.682991 102.964279,99.150658 102.920387,95.624641 
	C102.920387,95.624641 102.651680,95.644859 103.336830,95.824966 
	C103.892227,95.230301 104.447624,94.635635 105.483910,93.597626 
	C106.648079,93.046410 107.812248,92.495201 109.446472,92.521355 
	C112.083847,91.725464 114.801575,91.125481 117.338547,90.084808 
	C120.615860,88.740433 123.748718,87.043892 128.015228,84.980934 
	C128.015228,89.459801 128.015228,92.299629 127.664246,95.431892 
	C127.369919,95.597870 127.075661,95.597717 125.868225,95.173813 
	C121.843460,96.254517 117.786758,97.238365 113.835350,98.541496 
	C113.354591,98.700043 113.440338,100.576332 113.020241,102.051788 
	C112.588722,102.148994 112.157204,102.246208 110.957550,102.173988 
	C110.305458,102.785950 109.653374,103.397911 108.606590,104.541367 
	C107.094002,105.419563 105.581413,106.297768 103.725029,106.625885 
	C102.500610,107.793800 101.276192,108.961708 99.898865,110.600510 
	C99.479538,110.820808 99.060211,111.041107 97.804131,111.111160 
	C91.312134,109.579788 92.402771,110.475327 91.414810,117.417725 
	C91.414810,117.417725 91.488953,117.563637 90.748428,117.237373 
	C90.038956,117.348289 89.329475,117.459206 88.620003,117.570122 
	C88.936691,118.138138 89.253380,118.706161 89.465111,119.726822 
	C89.465111,119.726822 89.096695,120.009956 88.356415,120.111252 
	C86.363907,123.367325 86.706474,124.053329 90.862572,124.717735 
	C90.862572,124.717735 90.990051,124.873856 91.214508,125.384941 
	C91.526466,125.570480 91.838425,125.756020 92.670670,126.142189 
	C93.140358,126.700211 93.610039,127.258224 94.024994,128.655518 
	C92.965675,133.966003 97.602982,134.054886 100.404037,136.252060 
	C104.176178,139.210938 106.956734,138.738205 110.495453,136.368561 
	C113.126381,134.606812 116.150047,133.431580 118.893280,132.685486 
	C115.668114,135.119614 115.534149,137.784302 118.171425,140.784103 
	C118.658516,141.338165 118.734467,142.253677 118.278587,143.087692 
	C114.912949,146.117996 114.608429,147.694839 117.437775,150.377014 
	C118.284523,150.933594 119.131271,151.490173 120.242409,152.548584 
	C120.979950,153.129074 121.717491,153.709549 122.698616,154.938187 
	C125.759270,158.551590 128.819931,162.164993 131.880585,165.778397 
	C132.330566,165.371887 132.780563,164.965363 133.230545,164.558838 
	C135.426346,162.902374 137.622131,161.245895 140.103699,160.294266 
	C141.736145,163.196991 143.368576,166.099716 144.695084,169.626083 
	C142.255554,171.938919 140.155777,174.396912 140.977905,178.623337 
	C140.977905,178.623337 140.636139,178.977676 139.977310,179.167755 
	C139.729462,179.978531 139.481613,180.789322 139.337784,181.823883 
	C139.337784,181.823883 139.186508,182.018860 138.368347,182.153305 
	C136.154495,185.980209 136.423462,191.575424 139.225769,194.546555 
	C139.238434,195.150742 139.251083,195.754913 139.126617,197.053894 
	C139.615814,197.710770 140.105026,198.367645 141.070984,199.510880 
	C142.483704,201.439743 143.896423,203.368622 145.178299,206.175629 
	C145.525375,209.247971 147.537674,209.137878 150.226364,208.487839 
	C150.547409,208.515808 150.808228,208.655853 151.071945,209.566284 
	C152.037079,209.742142 153.002197,209.917999 154.729721,210.003540 
	C155.478638,210.141663 156.227570,210.279770 157.188660,211.075317 
	C159.134033,210.852112 161.079391,210.628906 163.744080,210.141769 
	C164.507370,210.129700 165.270645,210.117645 166.399841,210.564194 
	C167.270340,209.991196 168.140823,209.418213 169.195541,208.687347 
	C169.195541,208.687347 169.419006,208.781815 170.214783,208.884872 
	C171.469559,207.860809 172.724319,206.836731 174.103180,205.684830 
	C174.103180,205.684830 174.281189,205.677628 175.198517,205.856476 
	C180.709686,206.507019 178.560913,202.392883 178.979507,199.375671 
	C178.979507,199.375671 179.292877,199.018951 179.968964,198.854141 
	C184.623566,190.555023 184.435440,184.481293 178.912918,178.472900 
	C178.494247,177.702194 178.075592,176.931488 178.262497,175.793976 
	C178.145325,171.456299 175.130157,169.078796 171.126999,170.354446 
	C171.126999,170.354446 170.981277,170.176743 170.913589,169.459686 
	C168.969193,168.897354 167.024796,168.335022 164.316467,167.850769 
	C161.172485,167.801437 158.028519,167.752106 154.447739,167.269104 
	C153.632431,167.180954 152.817139,167.092804 152.000824,166.200134 
	C152.665268,163.918823 153.329712,161.637512 153.765350,160.141800 
	C152.335358,158.095764 151.096817,156.323654 150.322937,154.215851 
	C150.865829,154.043564 151.408722,153.871262 152.608932,153.865982 
	C153.059982,153.876358 153.511047,153.886734 154.379166,154.466187 
	C155.585968,153.972717 156.792786,153.479233 158.818558,152.782715 
	C160.210403,152.876068 161.602264,152.969406 162.986374,153.706558 
	C162.991730,154.135742 162.997086,154.564926 162.989746,155.748993 
	C162.075500,157.765015 161.161255,159.781021 159.991135,162.361282 
	C162.789383,163.449921 165.555695,164.673218 168.416397,165.607498 
	C173.837982,167.378113 175.859940,165.823807 176.636002,160.323212 
	C178.438507,163.922043 181.524063,164.508347 185.013489,163.971176 
	C185.013489,163.971176 185.071838,163.889191 185.069000,164.585632 
	C185.828491,165.282135 186.587967,165.978653 187.347458,166.675156 
	C188.507019,165.041672 189.666580,163.408173 190.904770,161.901779 
	C190.904770,161.901779 190.775543,161.826736 191.543533,161.885086 
	C195.387482,160.116287 200.254959,159.334213 199.920486,152.799347 
	C200.942596,151.863831 201.964706,150.928329 203.670990,149.914474 
	C205.604889,148.346985 205.251328,147.426849 202.965790,147.042267 
	C202.965790,147.042267 202.911850,147.131348 202.887924,146.406174 
M214.001266,243.998871 
	C214.001266,243.998871 214.033005,244.028366 213.228348,244.126450 
	C212.983109,244.339340 212.525726,244.549622 212.523071,244.765503 
	C212.392685,255.336243 212.118729,265.913391 212.461212,276.470367 
	C212.499496,277.650909 216.012573,279.509674 217.999863,279.629089 
	C220.307114,279.767761 224.420013,281.816254 224.553635,275.711273 
	C224.543152,265.297943 224.532669,254.884598 224.674789,243.658752 
	C221.358627,241.259476 216.597763,241.426514 214.001266,243.998871 
M168.769089,244.350708 
	C164.337646,242.210449 160.328812,242.550140 158.451721,246.111221 
	C158.557861,256.466217 158.664001,266.821198 158.997269,277.919800 
	C162.335892,278.703094 165.744049,280.104980 168.753052,275.929810 
	C168.729446,265.666321 168.705856,255.402832 168.769089,244.350708 
M135.795044,252.725708 
	C135.060638,251.725174 134.326233,250.724625 133.481232,248.980942 
	C133.364838,247.985291 133.248444,246.989639 133.596436,245.551086 
	C133.137253,244.320282 132.678070,243.089462 132.125458,241.145660 
	C132.060623,240.429550 131.995789,239.713440 132.373550,238.508072 
	C131.815170,236.243515 131.256805,233.978943 130.548813,230.982147 
	C129.351837,227.103500 127.527306,223.425980 122.817192,223.999924 
	C118.324699,224.547379 116.852028,228.266266 116.417580,232.390182 
	C116.226021,234.208588 115.952545,236.019623 115.672501,237.827225 
	C114.750359,243.779510 113.808220,249.728699 112.873764,255.679077 
	C112.526237,255.669861 112.178711,255.660629 111.831177,255.651398 
	C110.199181,245.396713 108.567184,235.142029 106.962700,225.060242 
	C102.895294,225.060242 99.337234,225.060242 95.275391,225.060242 
	C98.675194,241.298843 102.088463,257.011047 105.180489,272.786194 
	C105.952293,276.723816 108.380348,278.141876 111.664566,278.513947 
	C115.303673,278.926239 117.757233,276.874084 118.667763,273.426453 
	C119.471245,270.384216 119.874863,267.231750 120.375526,264.115173 
	C121.237740,258.747894 122.038177,253.370712 122.864540,247.997696 
	C123.304985,247.983597 123.745430,247.969498 124.185867,247.955399 
	C124.850380,251.637344 125.512245,255.319794 126.180031,259.001129 
	C127.068527,263.899170 127.399658,269.003906 129.098419,273.603149 
	C129.904129,275.784546 133.196533,278.108765 135.592392,278.386932 
	C138.986450,278.781006 141.763962,276.527313 142.492126,272.565033 
	C143.935074,264.713287 145.536469,256.890625 147.662338,248.913803 
	C147.748215,247.943039 147.834106,246.972290 148.013062,245.298325 
	C148.116135,244.596573 148.219223,243.894821 148.966141,242.848724 
	C149.110107,241.447876 149.254089,240.047012 149.537476,237.891205 
	C149.732407,236.623505 149.927353,235.355789 150.706299,233.943726 
	C150.789749,232.963287 150.873215,231.982864 151.012695,230.291412 
	C151.098557,229.583450 151.184418,228.875473 151.892853,227.876511 
	C151.890015,226.563156 151.887192,225.249802 151.884369,223.936462 
	C148.254044,224.278305 144.623734,224.620148 140.823975,225.391296 
	C140.823975,225.391296 140.704422,225.837082 140.053055,226.176376 
	C139.943359,227.579880 139.833649,228.983383 139.582825,231.145111 
	C139.447464,232.428818 139.312119,233.712540 138.660248,235.469879 
	C138.431763,237.644714 138.203262,239.819550 137.915176,242.755661 
	C137.831940,243.769852 137.748703,244.784058 137.082275,246.044357 
	C136.981430,247.359360 136.880569,248.674377 136.720688,250.665939 
	C136.596710,251.333054 136.472748,252.000168 135.795044,252.725708 
M193.656067,235.234360 
	C198.089615,235.234360 202.523148,235.234360 207.152191,235.234360 
	C207.152191,231.409576 207.152191,228.323959 207.152191,224.674713 
	C200.963562,224.674713 195.016144,224.625763 189.069901,224.688202 
	C182.880600,224.753174 180.220917,227.325455 180.182663,233.416275 
	C180.109451,245.067734 180.143036,256.719879 180.137405,268.371765 
	C180.132111,279.351318 180.135117,279.352112 191.186203,277.693390 
	C191.336548,277.670807 191.468033,277.522583 192.204498,277.052277 
	C192.204498,270.376709 192.204498,263.307434 192.204498,255.584457 
	C194.733719,255.584457 196.685394,255.589142 198.637024,255.583633 
	C206.319946,255.561966 206.222992,255.564148 205.954041,247.817688 
	C205.860107,245.111710 205.065231,243.849197 202.174515,244.024078 
	C199.067184,244.212067 195.939682,244.066544 192.148926,244.066544 
	C192.392715,240.824265 192.585861,238.255722 193.656067,235.234360 
M162.081802,228.639740 
	C158.644623,229.566193 156.900177,232.090118 157.796295,235.272018 
	C158.299103,237.057388 160.512619,239.115952 162.343506,239.608414 
	C165.711899,240.514404 168.543396,239.120255 169.152649,235.124847 
	C169.779160,231.016251 168.028015,229.194260 162.081802,228.639740 
M220.767670,239.458145 
	C225.097626,237.064285 226.206406,231.811417 222.472733,229.779999 
	C220.570648,228.745102 217.146729,228.636887 215.417999,229.718994 
	C213.913712,230.660614 213.051834,233.948730 213.281509,236.049576 
	C213.687607,239.763977 216.679169,240.456772 220.767670,239.458145 
M184.626755,169.005020 
	C182.482971,169.191818 180.139816,169.669907 181.659912,172.464508 
	C183.663895,176.148697 192.158264,175.802429 194.198883,172.055588 
	C194.741089,171.060013 194.976761,169.093750 194.396484,168.484787 
	C193.588989,167.637390 191.838882,167.254120 190.567688,167.388138 
	C188.821228,167.572250 187.145432,168.426453 184.626755,169.005020 
M138.518326,166.406494 
	C138.518326,166.406494 138.590042,166.524078 138.518326,166.406494 
z"/>
<path fill="#3D5281" opacity="1.000000" stroke="none" 
	d="
M86.152679,108.055435 
	C84.558601,109.550285 82.964531,111.045151 80.829346,112.795647 
	C78.240997,111.636742 76.193748,110.222206 74.146507,108.807663 
	C74.146507,108.807663 74.066780,108.935097 74.046631,108.576614 
	C72.368256,106.770973 70.710022,105.323807 69.051796,103.876633 
	C67.603241,102.327309 66.154686,100.777985 64.372284,98.731895 
	C64.681656,96.819336 65.324883,95.403542 65.968109,93.987747 
	C71.219101,89.573280 76.470093,85.158821 82.239708,80.416153 
	C84.305115,78.888229 85.851898,77.688522 87.398689,76.488808 
	C87.398689,76.488808 87.302734,76.162094 87.710419,76.277069 
	C89.607735,75.336319 91.097359,74.280586 92.586983,73.224854 
	C92.586983,73.224854 92.843681,73.281815 93.292374,73.183609 
	C97.072495,71.173637 100.403931,69.261871 103.735367,67.350113 
	C104.046913,67.476227 104.348503,67.455765 105.195953,67.145271 
	C110.082214,65.124718 114.412674,63.247623 118.743141,61.370529 
	C127.683296,59.649017 136.561951,57.441772 145.575562,56.300358 
	C169.207245,53.307831 191.904739,57.212433 213.689987,66.710983 
	C214.295151,66.974846 214.950897,67.122696 216.101624,67.640518 
	C218.082291,68.607437 219.544434,69.258492 221.006561,69.909554 
	C221.880768,70.418419 222.754990,70.927284 224.107620,71.708298 
	C225.388702,72.347679 226.191345,72.714920 226.994003,73.082169 
	C226.994003,73.082169 227.145370,73.277588 227.416809,73.557510 
	C228.459305,74.221344 229.230377,74.605255 230.001450,74.989166 
	C230.445526,75.357727 230.889603,75.726280 231.764862,76.412407 
	C233.104477,77.193802 234.012894,77.657631 234.921310,78.121460 
	C234.921310,78.121460 234.988419,78.035133 235.061325,78.361664 
	C236.421921,79.456985 237.709610,80.225769 238.997299,80.994553 
	C238.997299,80.994553 238.999390,81.000778 239.109558,81.319092 
	C241.431946,83.211205 243.644135,84.785004 245.856323,86.358803 
	C247.048141,87.483643 248.239975,88.608475 249.836151,90.176926 
	C252.075882,92.289688 253.911255,93.958824 255.746643,95.627968 
	C255.868179,96.518211 255.989716,97.408455 255.751556,98.761955 
	C254.194855,100.455040 252.997818,101.684868 251.800797,102.914688 
	C250.259232,104.355515 248.717667,105.796341 246.738403,107.633873 
	C245.407120,108.969513 244.513535,109.908455 243.619965,110.847397 
	C242.865555,111.451729 242.111160,112.056061 240.847626,112.859497 
	C239.889847,113.074425 239.441223,113.090248 238.992584,113.106071 
	C237.778641,111.852753 236.564713,110.599426 234.988586,108.869896 
	C232.767212,106.897453 230.908035,105.401222 229.048843,103.904991 
	C227.943954,102.950928 226.839081,101.996872 225.286835,100.684311 
	C221.556610,98.247650 218.273743,96.169495 214.990860,94.091339 
	C214.787460,93.825760 214.520691,93.666069 213.802338,93.336609 
	C212.612289,92.699646 211.810410,92.338310 211.008545,91.976974 
	C209.485474,91.140282 207.962387,90.303589 205.913513,89.215347 
	C200.927261,87.290352 196.466797,85.616905 192.006348,83.943451 
	C191.438522,83.770851 190.870712,83.598251 189.810608,83.240707 
	C188.207764,82.777870 187.097229,82.499969 185.986679,82.222069 
	C185.557526,82.094513 185.128372,81.966949 184.137268,81.635162 
	C182.715561,81.306541 181.855804,81.182129 180.996033,81.057716 
	C178.918869,80.686058 176.841705,80.314400 174.093079,79.753342 
	C171.608505,79.470474 169.795395,79.376999 167.982269,79.283524 
	C162.629333,79.225586 157.276413,79.167641 151.098999,79.147247 
	C148.872101,79.516251 147.469681,79.847694 146.067261,80.179146 
	C144.970459,80.227951 143.873672,80.276756 142.069366,80.394318 
	C139.568878,80.959846 137.775925,81.456619 135.982956,81.953384 
	C135.535141,81.947281 135.087326,81.941177 133.944366,82.012146 
	C125.158295,85.374146 117.067352,88.659065 108.976410,91.943985 
	C107.812248,92.495201 106.648079,93.046410 104.935730,93.815674 
	C103.808922,94.570770 103.230293,95.107811 102.651672,95.644852 
	C102.651680,95.644859 102.920387,95.624641 102.441833,95.635353 
	C98.789207,98.026909 95.615128,100.407753 92.441040,102.788589 
	C91.995483,102.992599 91.549919,103.196609 90.706726,103.712875 
	C88.923615,105.368561 87.538147,106.711998 86.152679,108.055435 
z"/>
<path fill="#3E5281" opacity="1.000000" stroke="none" 
	d="
M111.725685,102.343414 
	C112.157204,102.246208 112.588722,102.148994 113.515266,101.775558 
	C118.267357,99.476692 122.524422,97.454063 126.781479,95.431427 
	C127.075661,95.597717 127.369919,95.597870 128.234100,95.330109 
	C131.305573,94.399734 133.807205,93.571136 136.308838,92.742546 
	C137.617996,92.543900 138.927139,92.345253 140.970764,92.092964 
	C142.798492,91.679237 143.891739,91.319160 144.985001,90.959091 
	C147.031387,90.882965 149.077759,90.806847 152.011932,90.683899 
	C158.275772,90.599533 163.651810,90.561996 169.027863,90.524460 
	C170.734192,90.709541 172.440506,90.894615 174.806366,91.309601 
	C176.646713,91.653305 177.827515,91.767090 179.008316,91.880875 
	C180.182724,92.102180 181.357147,92.323486 183.056671,92.758522 
	C184.397217,93.135254 185.212646,93.298256 186.028076,93.461243 
	C186.470200,93.602882 186.912338,93.744514 187.916794,94.156860 
	C195.977066,97.641083 203.474991,100.854607 210.972931,104.068130 
	C211.758896,104.680176 212.544861,105.292221 213.757751,106.262108 
	C215.114288,107.102936 216.043915,107.585922 216.973526,108.068916 
	C217.754883,108.731758 218.536255,109.394608 219.714279,110.390190 
	C220.600647,110.962616 221.090347,111.202309 221.580048,111.442001 
	C221.580048,111.442001 221.796524,111.295937 221.784332,111.665131 
	C222.790634,112.765167 223.809143,113.496010 224.827652,114.226860 
	C224.827652,114.226860 224.897659,114.099037 224.912003,114.438637 
	C225.594849,115.218048 226.263351,115.657852 226.931854,116.097656 
	C226.931854,116.097656 226.999374,116.017357 227.063477,116.369057 
	C228.421692,118.814713 229.715805,120.908676 231.009918,123.002640 
	C229.743942,124.133476 228.477966,125.264313 226.779175,126.780457 
	C223.838303,129.732513 221.330231,132.299255 218.822159,134.865997 
	C218.822159,134.865997 218.943436,134.936752 218.573822,134.975784 
	C216.317551,137.033875 214.729050,137.394287 212.410141,135.148880 
	C209.593475,132.421509 206.186310,130.303970 203.034607,127.922600 
	C201.732971,126.910553 200.431335,125.898514 198.655624,124.573074 
	C197.447937,123.945488 196.714340,123.631310 195.980728,123.317123 
	C195.980728,123.317123 195.647934,122.994232 195.322723,122.707130 
	C194.669159,122.322449 194.340805,122.224876 194.012466,122.127304 
	C193.721756,121.970627 193.431061,121.813957 192.692566,121.383858 
	C187.494064,119.450844 182.743362,117.791267 177.992645,116.131683 
	C176.561676,115.770889 175.130707,115.410103 173.115021,114.873718 
	C171.676788,114.685143 170.823288,114.672173 169.556396,114.498581 
	C167.081345,114.262627 165.019684,114.187294 162.691711,113.864342 
	C160.307816,113.805870 158.190231,113.995010 155.653351,114.104492 
	C153.838379,114.207672 152.442719,114.390526 150.677414,114.471542 
	C148.193298,114.863846 146.078812,115.357979 143.628937,115.810684 
	C142.866058,115.898582 142.438583,116.027931 141.676941,116.087959 
	C140.570114,116.367226 139.797440,116.715813 138.674744,117.050476 
	C137.892654,117.201340 137.460587,117.366135 136.680069,117.472122 
	C133.356781,118.867996 130.381927,120.322662 127.288071,121.735031 
	C127.169060,121.692734 126.987198,121.868042 126.620773,121.859238 
	C120.223648,126.133835 114.010544,130.189301 108.244713,134.803665 
	C105.641670,136.886871 104.101250,137.321365 101.735191,134.768875 
	C99.400421,132.250137 96.648590,130.117996 94.079727,127.816246 
	C93.610039,127.258224 93.140358,126.700211 92.341476,125.752975 
	C91.671532,125.200455 91.330795,125.037155 90.990051,124.873856 
	C90.990051,124.873856 90.862572,124.717735 90.610130,124.383896 
	C89.937355,122.703354 89.517029,121.356651 89.096695,120.009956 
	C89.096695,120.009956 89.465111,119.726822 89.789551,119.444199 
	C90.572319,118.628937 91.030640,118.096291 91.488953,117.563644 
	C91.488953,117.563637 91.414810,117.417725 91.799164,117.377945 
	C94.335983,115.312584 96.488434,113.286995 98.640884,111.261398 
	C99.060211,111.041107 99.479538,110.820808 100.299370,110.327789 
	C101.822853,109.095367 102.945839,108.135666 104.068825,107.175972 
	C105.581413,106.297768 107.094002,105.419563 109.145309,104.273888 
	C110.364571,103.452072 111.045128,102.897743 111.725685,102.343414 
z"/>
<path fill="#435682" opacity="1.000000" stroke="none" 
	d="
M133.132065,245.993988 
	C133.248444,246.989639 133.364838,247.985291 133.378021,249.721527 
	C133.863724,252.861481 134.452606,255.260834 135.041489,257.660217 
	C135.477249,257.606079 135.913010,257.551941 136.348770,257.497833 
	C136.348770,255.887650 136.348770,254.277466 136.348770,252.667282 
	C136.472748,252.000168 136.596710,251.333054 137.060074,250.105911 
	C137.488129,248.296677 137.576797,247.047455 137.665466,245.798248 
	C137.748703,244.784058 137.831940,243.769852 138.191681,242.131134 
	C138.704391,239.336472 138.940582,237.166367 139.176758,234.996246 
	C139.312119,233.712540 139.447464,232.428818 139.927094,230.555328 
	C140.415710,228.589401 140.560059,227.213242 140.704407,225.837082 
	C140.704422,225.837082 140.823975,225.391296 141.364471,225.167816 
	C143.852524,224.935837 145.814148,225.071518 147.744171,224.883194 
	C150.294189,224.634354 151.250977,225.832321 151.270264,228.167511 
	C151.184418,228.875473 151.098557,229.583450 150.725677,230.871124 
	C150.333206,232.329926 150.227753,233.209015 150.122299,234.088089 
	C149.927353,235.355789 149.732407,236.623505 149.182709,238.471252 
	C148.659393,240.431900 148.490845,241.812485 148.322296,243.193069 
	C148.219223,243.894821 148.116135,244.596573 147.693542,245.856445 
	C147.273468,247.295013 147.172928,248.175461 147.072372,249.055923 
	C145.536469,256.890625 143.935074,264.713287 142.492126,272.565033 
	C141.763962,276.527313 138.986450,278.781006 135.592392,278.386932 
	C133.196533,278.108765 129.904129,275.784546 129.098419,273.603149 
	C127.399658,269.003906 127.068527,263.899170 126.180031,259.001129 
	C125.512245,255.319794 124.850380,251.637344 124.185867,247.955399 
	C123.745430,247.969498 123.304985,247.983597 122.864540,247.997696 
	C122.038177,253.370712 121.237740,258.747894 120.375526,264.115173 
	C119.874863,267.231750 119.471245,270.384216 118.667763,273.426453 
	C117.757233,276.874084 115.303673,278.926239 111.664566,278.513947 
	C108.380348,278.141876 105.952293,276.723816 105.180489,272.786194 
	C102.088463,257.011047 98.675194,241.298843 95.275391,225.060242 
	C99.337234,225.060242 102.895294,225.060242 106.962700,225.060242 
	C108.567184,235.142029 110.199181,245.396713 111.831177,255.651398 
	C112.178711,255.660629 112.526237,255.669861 112.873764,255.679077 
	C113.808220,249.728699 114.750359,243.779510 115.672501,237.827225 
	C115.952545,236.019623 116.226021,234.208588 116.417580,232.390182 
	C116.852028,228.266266 118.324699,224.547379 122.817192,223.999924 
	C127.527306,223.425980 129.351837,227.103500 130.448624,231.708984 
	C130.875946,234.622986 131.403442,236.810150 131.930939,238.997330 
	C131.995789,239.713440 132.060623,240.429550 132.066986,241.872009 
	C132.383041,243.730240 132.757553,244.862122 133.132065,245.993988 
z"/>
<path fill="#3C5181" opacity="1.000000" stroke="none" 
	d="
M199.034958,143.649979 
	C199.390121,144.094284 199.745285,144.538605 200.527313,145.335144 
	C201.606750,146.168701 202.259308,146.650024 202.911850,147.131348 
	C202.911850,147.131348 202.965790,147.042267 202.930374,147.427399 
	C202.925568,148.539291 202.956192,149.266068 202.986816,149.992828 
	C201.964706,150.928329 200.942596,151.863831 199.507477,153.230392 
	C196.321472,156.383194 193.548508,159.104965 190.775543,161.826736 
	C190.775543,161.826736 190.904770,161.901779 190.520950,161.930023 
	C188.448700,162.601898 186.760269,163.245544 185.071838,163.889191 
	C185.071838,163.889191 185.013489,163.971176 184.990967,163.622498 
	C182.981400,161.498184 180.994354,159.722549 178.958252,157.596863 
	C174.615433,155.802261 170.321655,154.357712 165.647186,152.944672 
	C164.509048,153.005051 163.751572,153.033905 162.994110,153.062744 
	C161.602264,152.969406 160.210403,152.876068 158.008301,152.810349 
	C156.115494,152.848099 155.032959,152.858215 153.800842,152.649292 
	C153.084732,152.853165 152.518173,153.276062 151.951614,153.698959 
	C151.408722,153.871262 150.865829,154.043564 149.722443,154.406616 
	C147.721481,154.978455 146.321014,155.359528 144.706421,155.530365 
	C143.328949,156.223297 142.165634,157.126480 140.909210,158.148300 
	C140.816071,158.266922 140.514740,158.253464 140.073441,158.200897 
	C135.309723,159.342773 131.227432,160.227234 127.809822,155.778809 
	C126.907562,154.604416 124.286713,154.750381 122.455032,154.290039 
	C121.717491,153.709549 120.979950,153.129074 120.124222,151.889328 
	C120.588470,148.725494 121.170914,146.220917 121.865723,143.833679 
	C121.978081,143.951019 121.731728,143.739197 122.077721,143.790344 
	C122.933327,143.204514 123.442940,142.567551 123.974533,141.964676 
	C123.996506,141.998764 123.934059,141.946930 124.311630,141.973587 
	C127.802368,139.977570 132.590714,140.371490 133.876312,135.479706 
	C133.914032,135.301483 133.979858,134.943130 134.342880,134.969818 
	C136.807877,134.007828 138.909836,133.019165 141.352478,132.055176 
	C142.121597,131.935379 142.550034,131.790878 143.375214,131.690811 
	C148.183594,130.830032 152.595245,129.924835 157.426147,129.116119 
	C159.559509,129.153717 161.273621,129.094803 163.302551,129.240387 
	C166.431427,129.727402 169.245483,130.009933 172.059525,130.292450 
	C172.793686,130.508804 173.527832,130.725159 174.850922,131.223022 
	C181.292450,134.012711 187.145050,136.520874 192.997650,139.029037 
	C192.997650,139.029037 193.174683,139.282959 193.490021,139.562378 
	C195.548569,141.111176 197.291763,142.380569 199.034958,143.649979 
z"/>
<path fill="#3D5281" opacity="1.000000" stroke="none" 
	d="
M139.263733,196.359100 
	C139.251083,195.754913 139.238434,195.150742 139.131378,193.815659 
	C139.086823,189.396133 139.136673,185.707489 139.186523,182.018860 
	C139.186508,182.018860 139.337784,181.823883 139.556671,181.540436 
	C140.062424,180.497223 140.349274,179.737442 140.636139,178.977676 
	C140.636139,178.977676 140.977905,178.623337 141.329529,178.240845 
	C144.000793,175.359726 146.320435,172.861084 148.755859,170.357422 
	C148.871628,170.352371 149.005676,170.163315 149.279449,170.166916 
	C149.705887,170.070511 149.858566,169.970490 150.284927,169.879440 
	C150.776306,169.617325 150.994019,169.346207 151.433441,169.052277 
	C151.655182,169.029465 151.975937,168.719849 152.306305,168.766388 
	C153.385956,168.442871 154.135239,168.072830 154.884537,167.702774 
	C158.028519,167.752106 161.172485,167.801437 164.905914,168.100296 
	C167.324005,168.958801 169.152634,169.567780 170.981277,170.176743 
	C170.981277,170.176743 171.126999,170.354446 171.403442,170.651031 
	C173.672241,172.685333 175.664597,174.423065 177.656937,176.160782 
	C178.075592,176.931488 178.494247,177.702194 179.130493,179.110168 
	C182.218689,186.179565 181.402618,192.601105 179.292877,199.018951 
	C179.292877,199.018951 178.979507,199.375671 178.649597,199.756653 
	C176.973526,201.984299 175.627350,203.830963 174.281189,205.677628 
	C174.281189,205.677628 174.103180,205.684830 173.695465,205.795334 
	C171.998154,206.864502 170.708588,207.823151 169.419006,208.781815 
	C169.419006,208.781815 169.195541,208.687347 168.763092,208.735779 
	C167.565063,209.224686 166.799500,209.665131 166.033936,210.105591 
	C165.270645,210.117645 164.507370,210.129700 162.957306,210.196930 
	C160.439178,210.307343 158.707840,210.362610 156.976486,210.417877 
	C156.227570,210.279770 155.478638,210.141663 154.149475,209.775742 
	C152.715775,209.334610 151.862305,209.121292 151.008820,208.907959 
	C150.808228,208.655853 150.547409,208.515808 149.844681,208.221710 
	C148.078369,207.069565 146.693756,206.183533 145.309128,205.297501 
	C143.896423,203.368622 142.483704,201.439743 140.875183,198.950653 
	C140.207489,197.713303 139.735611,197.036209 139.263733,196.359100 
z"/>
<path fill="#425582" opacity="1.000000" stroke="none" 
	d="
M193.217529,235.460770 
	C192.585861,238.255722 192.392715,240.824265 192.148926,244.066544 
	C195.939682,244.066544 199.067184,244.212067 202.174515,244.024078 
	C205.065231,243.849197 205.860107,245.111710 205.954041,247.817688 
	C206.222992,255.564148 206.319946,255.561966 198.637024,255.583633 
	C196.685394,255.589142 194.733719,255.584457 192.204498,255.584457 
	C192.204498,263.307434 192.204498,270.376709 192.204498,277.052277 
	C191.468033,277.522583 191.336548,277.670807 191.186203,277.693390 
	C180.135117,279.352112 180.132111,279.351318 180.137405,268.371765 
	C180.143036,256.719879 180.109451,245.067734 180.182663,233.416275 
	C180.220917,227.325455 182.880600,224.753174 189.069901,224.688202 
	C195.016144,224.625763 200.963562,224.674713 207.152191,224.674713 
	C207.152191,228.323959 207.152191,231.409576 207.152191,235.234360 
	C202.523148,235.234360 198.089615,235.234360 193.217529,235.460770 
z"/>
<path fill="#FEFEFE" opacity="1.000000" stroke="none" 
	d="
M142.978485,131.646393 
	C142.550034,131.790878 142.121597,131.935379 141.120300,131.773438 
	C137.161636,130.364868 134.821960,131.239273 133.979858,134.943130 
	C133.979858,134.943130 133.914032,135.301483 133.514725,135.511047 
	C130.054962,137.796066 126.994514,139.871506 123.934059,141.946930 
	C123.934059,141.946930 123.996506,141.998764 123.665298,141.993713 
	C122.799965,142.572174 122.265846,143.155685 121.731728,143.739197 
	C121.731728,143.739197 121.978081,143.951019 121.572083,143.854446 
	C120.800362,143.902039 120.434639,144.046188 119.961449,143.935608 
	C119.569382,143.454681 119.284782,143.228516 119.000183,143.002350 
	C118.734467,142.253677 118.658516,141.338165 118.171425,140.784103 
	C115.534149,137.784302 115.668114,135.119614 119.101059,132.027191 
	C121.868286,128.201950 124.427742,125.034996 126.987198,121.868042 
	C126.987198,121.868042 127.169060,121.692734 127.712296,121.804108 
	C129.816132,122.244301 131.376724,122.573128 133.081589,122.932358 
	C134.412918,121.110413 135.720718,119.320671 137.028503,117.530930 
	C137.460587,117.366135 137.892654,117.201340 138.865433,117.298203 
	C140.274445,117.092323 141.142761,116.624802 142.011093,116.157272 
	C142.438583,116.027931 142.866058,115.898582 143.636566,116.099258 
	C143.986221,116.621590 143.992874,116.813911 144.038528,117.304382 
	C144.485504,117.920021 144.893494,118.237503 145.301483,118.554977 
	C145.534317,118.036751 145.767151,117.518524 146.338089,116.853210 
	C148.115631,116.466789 149.555069,116.227448 151.164001,116.322159 
	C151.555695,120.433128 151.777878,124.210030 151.742416,128.095428 
	C150.989655,128.459488 150.494522,128.715088 149.994690,128.606308 
	C149.359299,127.274925 148.728607,126.307930 148.097931,125.340927 
	C147.398407,126.562241 146.698898,127.783562 145.717255,129.125305 
	C144.616257,130.045959 143.797363,130.846176 142.978485,131.646393 
z"/>
<path fill="#425582" opacity="1.000000" stroke="none" 
	d="
M224.522171,244.471252 
	C224.532669,254.884598 224.543152,265.297943 224.226791,276.339661 
	C215.341492,279.463379 214.014145,278.516174 214.017746,269.909210 
	C214.021347,261.282257 214.027802,252.655319 214.032990,244.028366 
	C214.033005,244.028366 214.001266,243.998871 214.463928,244.028030 
	C218.125122,244.195206 221.323639,244.333221 224.522171,244.471252 
z"/>
<path fill="#3A4C7B" opacity="1.000000" stroke="none" 
	d="
M158.770142,277.176208 
	C158.664001,266.821198 158.557861,256.466217 158.916031,245.548462 
	C162.480972,245.036911 165.581619,245.088120 168.682251,245.139343 
	C168.705856,255.402832 168.729446,265.666321 168.259003,276.437927 
	C164.766693,277.022736 161.768417,277.099457 158.770142,277.176208 
z"/>
<path fill="#FEFEFF" opacity="1.000000" stroke="none" 
	d="
M152.000061,127.986938 
	C151.777878,124.210030 151.555695,120.433128 151.169998,116.086304 
	C151.033905,115.202652 151.047424,114.888313 151.047043,114.573380 
	C152.442719,114.390526 153.838379,114.207672 155.919296,114.358047 
	C158.722366,114.498169 160.840195,114.305069 162.958023,114.111961 
	C165.019684,114.187294 167.081345,114.262627 169.668686,114.777008 
	C171.121185,115.501457 172.048019,115.786865 172.974838,116.072273 
	C172.974838,118.781425 172.974838,121.490585 172.974838,125.004402 
	C172.234055,125.445312 170.680099,126.370239 168.656799,127.647141 
	C166.454208,128.344711 164.720963,128.690292 162.987717,129.035889 
	C161.273621,129.094803 159.559509,129.153717 157.181580,128.831207 
	C155.011841,128.295517 153.505951,128.141220 152.000061,127.986938 
z"/>
<path fill="#FEFDFE" opacity="1.000000" stroke="none" 
	d="
M176.003357,159.992249 
	C175.859940,165.823807 173.837982,167.378113 168.416397,165.607498 
	C165.555695,164.673218 162.789383,163.449921 159.991135,162.361282 
	C161.161255,159.781021 162.075500,157.765015 163.344452,155.370529 
	C164.478012,154.623993 165.256882,154.255920 166.422607,153.857025 
	C169.867645,154.927582 172.925842,156.028961 175.984222,157.488190 
	C175.990723,158.561447 175.997040,159.276840 176.003357,159.992249 
z"/>
<path fill="#FEFDFE" opacity="1.000000" stroke="none" 
	d="
M150.011246,169.870453 
	C149.858566,169.970490 149.705887,170.070511 149.253586,169.860367 
	C148.301849,169.368027 147.649719,169.185837 146.664825,169.003418 
	C145.888382,169.002945 145.444702,169.002701 145.001022,169.002441 
	C143.368576,166.099716 141.736145,163.196991 140.049774,159.705292 
	C140.168808,158.828705 140.341782,158.541077 140.514740,158.253464 
	C140.514740,158.253464 140.816071,158.266922 141.249207,158.134033 
	C142.761749,157.247635 143.841156,156.494125 144.920563,155.740601 
	C146.321014,155.359528 147.721481,154.978455 149.490097,154.574463 
	C151.096817,156.323654 152.335358,158.095764 153.765350,160.141800 
	C153.329712,161.637512 152.665268,163.918823 151.995850,166.888275 
	C151.985886,167.957565 151.980911,168.338699 151.975937,168.719849 
	C151.975937,168.719849 151.655182,169.029465 151.182068,169.094604 
	C150.476379,169.396637 150.243805,169.633545 150.011246,169.870453 
z"/>
<path fill="#4E5E86" opacity="1.000000" stroke="none" 
	d="
M162.435760,228.543213 
	C168.028015,229.194260 169.779160,231.016251 169.152649,235.124847 
	C168.543396,239.120255 165.711899,240.514404 162.343506,239.608414 
	C160.512619,239.115952 158.299103,237.057388 157.796295,235.272018 
	C156.900177,232.090118 158.644623,229.566193 162.435760,228.543213 
z"/>
<path fill="#4F6088" opacity="1.000000" stroke="none" 
	d="
M220.390533,239.591492 
	C216.679169,240.456772 213.687607,239.763977 213.281509,236.049576 
	C213.051834,233.948730 213.913712,230.660614 215.417999,229.718994 
	C217.146729,228.636887 220.570648,228.745102 222.472733,229.779999 
	C226.206406,231.811417 225.097626,237.064285 220.390533,239.591492 
z"/>
<path fill="#F1F4F7" opacity="1.000000" stroke="none" 
	d="
M126.620773,121.859238 
	C124.427742,125.034996 121.868286,128.201950 119.153809,131.682007 
	C116.150047,133.431580 113.126381,134.606812 110.495453,136.368561 
	C106.956734,138.738205 104.176178,139.210938 100.404037,136.252060 
	C97.602982,134.054886 92.965675,133.966003 94.052361,128.235886 
	C96.648590,130.117996 99.400421,132.250137 101.735191,134.768875 
	C104.101250,137.321365 105.641670,136.886871 108.244713,134.803665 
	C114.010544,130.189301 120.223648,126.133835 126.620773,121.859238 
z"/>
<path fill="#F1F4F7" opacity="1.000000" stroke="none" 
	d="
M136.130768,92.374115 
	C133.807205,93.571136 131.305573,94.399734 128.409576,95.183899 
	C128.015228,92.299629 128.015228,89.459801 128.015228,84.980934 
	C123.748718,87.043892 120.615860,88.740433 117.338547,90.084808 
	C114.801575,91.125481 112.083847,91.725464 109.211441,92.232666 
	C117.067352,88.659065 125.158295,85.374146 133.632126,82.143417 
	C132.779221,84.100670 131.543411,86.003738 129.841553,88.624504 
	C131.911011,89.769501 133.931854,90.887596 136.130768,92.374115 
z"/>
<path fill="#BBC6D9" opacity="1.000000" stroke="none" 
	d="
M213.630676,244.077408 
	C214.027802,252.655319 214.021347,261.282257 214.017746,269.909210 
	C214.014145,278.516174 215.341492,279.463379 224.242142,276.781525 
	C224.420013,281.816254 220.307114,279.767761 217.999863,279.629089 
	C216.012573,279.509674 212.499496,277.650909 212.461212,276.470367 
	C212.118729,265.913391 212.392685,255.336243 212.523071,244.765503 
	C212.525726,244.549622 212.983109,244.339340 213.630676,244.077408 
z"/>
<path fill="#F1F4F7" opacity="1.000000" stroke="none" 
	d="
M210.987106,103.645462 
	C203.474991,100.854607 195.977066,97.641083 188.266815,94.130310 
	C189.915909,93.613060 191.886246,92.896095 193.616287,93.275330 
	C197.350143,94.093826 200.913666,96.221359 204.632324,96.455292 
	C210.550949,96.827644 210.890289,96.679161 210.987106,103.645462 
z"/>
<path fill="#FEFDFE" opacity="1.000000" stroke="none" 
	d="
M185.033051,168.999268 
	C187.145432,168.426453 188.821228,167.572250 190.567688,167.388138 
	C191.838882,167.254120 193.588989,167.637390 194.396484,168.484787 
	C194.976761,169.093750 194.741089,171.060013 194.198883,172.055588 
	C192.158264,175.802429 183.663895,176.148697 181.659912,172.464508 
	C180.139816,169.669907 182.482971,169.191818 185.033051,168.999268 
z"/>
<path fill="#5C6B89" opacity="1.000000" stroke="none" 
	d="
M140.073441,158.200897 
	C140.341782,158.541077 140.168808,158.828705 139.906891,159.352875 
	C137.622131,161.245895 135.426346,162.902374 133.230545,164.558838 
	C132.780563,164.965363 132.330566,165.371887 131.880585,165.778397 
	C128.819931,162.164993 125.759270,158.551590 122.576828,154.614105 
	C124.286713,154.750381 126.907562,154.604416 127.809822,155.778809 
	C131.227432,160.227234 135.309723,159.342773 140.073441,158.200897 
z"/>
<path fill="#F1F4F7" opacity="1.000000" stroke="none" 
	d="
M178.060272,116.478836 
	C182.743362,117.791267 187.494064,119.450844 192.443481,121.425423 
	C190.773010,122.241425 188.765503,122.463623 187.066040,123.306702 
	C184.296463,124.680649 182.708603,123.572517 181.282455,121.355217 
	C180.287872,119.808853 179.183319,118.333214 178.060272,116.478836 
z"/>
<path fill="#F1F4F7" opacity="1.000000" stroke="none" 
	d="
M214.989044,94.522064 
	C218.273743,96.169495 221.556610,98.247650 224.970245,100.640556 
	C224.455597,101.011871 223.790634,100.987297 223.167709,101.137276 
	C215.033676,103.095581 215.035172,103.101791 214.989044,94.522064 
z"/>
<path fill="#F1F4F7" opacity="1.000000" stroke="none" 
	d="
M203.051376,128.283279 
	C206.186310,130.303970 209.593475,132.421509 212.410141,135.148880 
	C214.729050,137.394287 216.317551,137.033875 218.534973,134.917313 
	C218.328995,138.919052 215.912048,140.100983 212.777222,137.746170 
	C209.251297,135.097595 206.280457,131.710052 203.051376,128.283279 
z"/>
<path fill="#F1F4F7" opacity="1.000000" stroke="none" 
	d="
M168.907684,90.197784 
	C163.651810,90.561996 158.275772,90.599533 152.435104,90.569565 
	C157.447830,86.871170 163.054962,86.699715 168.907684,90.197784 
z"/>
<path fill="#F1F4F7" opacity="1.000000" stroke="none" 
	d="
M179.630920,198.936554 
	C181.402618,192.601105 182.218689,186.179565 179.350708,179.362213 
	C184.435440,184.481293 184.623566,190.555023 179.630920,198.936554 
z"/>
<path fill="#F1F4F7" opacity="1.000000" stroke="none" 
	d="
M192.952240,138.679520 
	C187.145050,136.520874 181.292450,134.012711 175.236877,131.204041 
	C182.008377,130.931885 188.133942,133.003235 192.952240,138.679520 
z"/>
<path fill="#F1F4F7" opacity="1.000000" stroke="none" 
	d="
M118.282257,61.260578 
	C114.412674,63.247623 110.082214,65.124718 105.376007,66.997467 
	C104.945976,63.513596 106.755081,62.072845 110.132286,61.966198 
	C112.701347,61.885075 115.258774,61.435997 118.282257,61.260578 
z"/>
<path fill="#F1F4F7" opacity="1.000000" stroke="none" 
	d="
M126.324852,95.302628 
	C122.524422,97.454063 118.267357,99.476692 113.636917,101.577927 
	C113.440338,100.576332 113.354591,98.700043 113.835350,98.541496 
	C117.786758,97.238365 121.843460,96.254517 126.324852,95.302628 
z"/>
<path fill="#F1F4F7" opacity="1.000000" stroke="none" 
	d="
M92.847076,102.850571 
	C95.615128,100.407753 98.789207,98.026909 102.307602,95.623734 
	C102.964279,99.150658 102.291664,101.682991 97.784737,101.415894 
	C96.308945,101.328423 94.765572,102.381210 92.847076,102.850571 
z"/>
<path fill="#F1F4F7" opacity="1.000000" stroke="none" 
	d="
M192.001526,84.330093 
	C196.466797,85.616905 200.927261,87.290352 205.582123,89.269730 
	C203.952682,89.305946 202.112488,89.115677 200.309372,88.744995 
	C198.367325,88.345741 196.377136,87.973045 194.569809,87.206924 
	C193.544479,86.772285 192.843658,85.572121 192.001526,84.330093 
z"/>
<path fill="#F1F4F7" opacity="1.000000" stroke="none" 
	d="
M176.319672,160.157730 
	C175.997040,159.276840 175.990723,158.561447 176.304230,157.496246 
	C177.418472,157.413284 178.212875,157.680099 179.007294,157.946915 
	C180.994354,159.722549 182.981400,161.498184 185.036957,163.602081 
	C181.524063,164.508347 178.438507,163.922043 176.319672,160.157730 
z"/>
<path fill="#F1F4F7" opacity="1.000000" stroke="none" 
	d="
M191.159546,161.855911 
	C193.548508,159.104965 196.321472,156.383194 199.422134,153.517075 
	C200.254959,159.334213 195.387482,160.116287 191.159546,161.855911 
z"/>
<path fill="#A5B0C8" opacity="1.000000" stroke="none" 
	d="
M151.581558,228.022003 
	C151.250977,225.832321 150.294189,224.634354 147.744171,224.883194 
	C145.814148,225.071518 143.852524,224.935837 141.449188,224.953186 
	C144.623734,224.620148 148.254044,224.278305 151.884369,223.936462 
	C151.887192,225.249802 151.890015,226.563156 151.581558,228.022003 
z"/>
<path fill="#F1F4F7" opacity="1.000000" stroke="none" 
	d="
M144.848053,169.314270 
	C145.444702,169.002701 145.888382,169.002945 146.872955,169.299103 
	C147.822601,169.850830 148.231339,170.106644 148.640076,170.362457 
	C146.320435,172.861084 144.000793,175.359726 141.370071,177.998047 
	C140.155777,174.396912 142.255554,171.938919 144.848053,169.314270 
z"/>
<path fill="#F1F4F7" opacity="1.000000" stroke="none" 
	d="
M98.222511,111.186279 
	C96.488434,113.286995 94.335983,115.312584 91.868904,117.420769 
	C92.402771,110.475327 91.312134,109.579788 98.222511,111.186279 
z"/>
<path fill="#F1F4F7" opacity="1.000000" stroke="none" 
	d="
M103.277817,67.246147 
	C100.403931,69.261871 97.072495,71.173637 93.374451,73.080902 
	C95.162842,69.253319 98.000511,66.559036 103.277817,67.246147 
z"/>
<path fill="#F1F4F7" opacity="1.000000" stroke="none" 
	d="
M231.369598,122.945206 
	C229.715805,120.908676 228.421692,118.814713 227.018585,116.396164 
	C229.071182,116.453255 231.232773,116.834946 233.394363,117.216637 
	C232.839340,119.107018 232.284317,120.997398 231.369598,122.945206 
z"/>
<path fill="#F1F4F7" opacity="1.000000" stroke="none" 
	d="
M177.959717,175.977386 
	C175.664597,174.423065 173.672241,172.685333 171.518326,170.648163 
	C175.130157,169.078796 178.145325,171.456299 177.959717,175.977386 
z"/>
<path fill="#F1F4F7" opacity="1.000000" stroke="none" 
	d="
M138.777435,182.086090 
	C139.136673,185.707489 139.086823,189.396133 138.987503,193.544327 
	C136.423462,191.575424 136.154495,185.980209 138.777435,182.086090 
z"/>
<path fill="#F1F4F7" opacity="1.000000" stroke="none" 
	d="
M219.200439,134.907776 
	C221.330231,132.299255 223.838303,129.732513 226.673065,127.083344 
	C226.448349,131.445145 223.682312,133.821762 219.200439,134.907776 
z"/>
<path fill="#7E8BA2" opacity="1.000000" stroke="none" 
	d="
M168.725677,244.745026 
	C165.581619,245.088120 162.480972,245.036911 158.981537,245.099762 
	C160.328812,242.550140 164.337646,242.210449 168.725677,244.745026 
z"/>
<path fill="#F1F4F7" opacity="1.000000" stroke="none" 
	d="
M228.898972,104.238968 
	C230.908035,105.401222 232.767212,106.897453 234.699890,108.708473 
	C232.149185,108.373833 227.434402,110.554375 228.898972,104.238968 
z"/>
<path fill="#BBC6D9" opacity="1.000000" stroke="none" 
	d="
M224.598480,244.065002 
	C221.323639,244.333221 218.125122,244.195206 214.476715,244.044769 
	C216.597763,241.426514 221.358627,241.259476 224.598480,244.065002 
z"/>
<path fill="#F1F4F7" opacity="1.000000" stroke="none" 
	d="
M163.302551,129.240387 
	C164.720963,128.690292 166.454208,128.344711 168.593719,127.998642 
	C170.010147,128.567230 171.020279,129.136276 172.044983,129.998886 
	C169.245483,130.009933 166.431427,129.727402 163.302551,129.240387 
z"/>
<path fill="#5C6B89" opacity="1.000000" stroke="none" 
	d="
M120.068924,144.190353 
	C120.434639,144.046188 120.800362,143.902039 121.459717,143.737106 
	C121.170914,146.220917 120.588470,148.725494 119.992027,151.638412 
	C119.131271,151.490173 118.284523,150.933594 117.190964,149.835663 
	C117.985741,147.593002 119.027328,145.891678 120.068924,144.190353 
z"/>
<path fill="#7E8BA2" opacity="1.000000" stroke="none" 
	d="
M158.883698,277.547974 
	C161.768417,277.099457 164.766693,277.022736 168.196182,276.891724 
	C165.744049,280.104980 162.335892,278.703094 158.883698,277.547974 
z"/>
<path fill="#F1F4F7" opacity="1.000000" stroke="none" 
	d="
M245.896149,85.954697 
	C243.644135,84.785004 241.431946,83.211205 239.112732,81.319962 
	C241.816910,81.754967 245.694916,80.881836 245.896149,85.954697 
z"/>
<path fill="#F1F4F7" opacity="1.000000" stroke="none" 
	d="
M87.059631,76.316788 
	C85.851898,77.688522 84.305115,78.888229 82.416954,80.135063 
	C82.427528,78.340408 82.779472,76.498627 83.223259,74.176186 
	C84.678581,74.995369 85.699577,75.570068 87.059631,76.316788 
z"/>
<path fill="#F1F4F7" opacity="1.000000" stroke="none" 
	d="
M199.033875,143.279022 
	C197.291763,142.380569 195.548569,141.111176 193.644348,139.550446 
	C197.809677,136.709015 198.762177,139.290039 199.033875,143.279022 
z"/>
<path fill="#A5B0C8" opacity="1.000000" stroke="none" 
	d="
M136.071899,252.696503 
	C136.348770,254.277466 136.348770,255.887650 136.348770,257.497833 
	C135.913010,257.551941 135.477249,257.606079 135.041489,257.660217 
	C134.452606,255.260834 133.863724,252.861481 133.433319,250.093094 
	C134.326233,250.724625 135.060638,251.725174 136.071899,252.696503 
z"/>
<path fill="#F1F4F7" opacity="1.000000" stroke="none" 
	d="
M119.961456,143.935608 
	C119.027328,145.891678 117.985741,147.593002 116.943581,149.648819 
	C114.608429,147.694839 114.912949,146.117996 118.639389,143.045013 
	C119.284782,143.228516 119.569382,143.454681 119.961456,143.935608 
z"/>
<path fill="#F1F4F7" opacity="1.000000" stroke="none" 
	d="
M74.121597,109.170944 
	C76.193748,110.222206 78.240997,111.636742 80.647484,113.075615 
	C79.854980,113.402092 78.217407,114.328140 77.646873,113.883873 
	C76.207344,112.762924 75.248291,111.024940 74.121597,109.170944 
z"/>
<path fill="#F1F4F7" opacity="1.000000" stroke="none" 
	d="
M174.739853,205.767059 
	C175.627350,203.830963 176.973526,201.984299 178.627686,199.993042 
	C178.560913,202.392883 180.709686,206.507019 174.739853,205.767059 
z"/>
<path fill="#F1F4F7" opacity="1.000000" stroke="none" 
	d="
M185.070419,164.237396 
	C186.760269,163.245544 188.448700,162.601898 190.481644,161.866470 
	C189.666580,163.408173 188.507019,165.041672 187.347458,166.675156 
	C186.587967,165.978653 185.828491,165.282135 185.070419,164.237396 
z"/>
<path fill="#F1F4F7" opacity="1.000000" stroke="none" 
	d="
M69.032448,104.285774 
	C70.710022,105.323807 72.368256,106.770973 74.109154,108.534897 
	C70.945229,109.360229 68.693016,108.629929 69.032448,104.285774 
z"/>
<path fill="#F1F4F7" opacity="1.000000" stroke="none" 
	d="
M255.806076,95.233795 
	C253.911255,93.958824 252.075882,92.289688 250.116241,90.310272 
	C251.949844,91.613197 253.907669,93.226410 255.806076,95.233795 
z"/>
<path fill="#A5B0C8" opacity="1.000000" stroke="none" 
	d="
M138.918503,235.233063 
	C138.940582,237.166367 138.704391,239.336472 138.221497,241.750488 
	C138.203262,239.819550 138.431763,237.644714 138.918503,235.233063 
z"/>
<path fill="#F1F4F7" opacity="1.000000" stroke="none" 
	d="
M136.202484,82.229126 
	C137.775925,81.456619 139.568878,80.959846 141.700775,80.586601 
	C140.167130,81.308372 138.294571,81.906616 136.202484,82.229126 
z"/>
<path fill="#A5B0C8" opacity="1.000000" stroke="none" 
	d="
M132.152252,238.752701 
	C131.403442,236.810150 130.875946,234.622986 130.523438,232.075104 
	C131.256805,233.978943 131.815170,236.243515 132.152252,238.752701 
z"/>
<path fill="#F1F4F7" opacity="1.000000" stroke="none" 
	d="
M92.150604,73.160751 
	C91.097359,74.280586 89.607735,75.336319 87.784119,76.430557 
	C86.772942,72.691483 89.366058,73.048927 92.150604,73.160751 
z"/>
<path fill="#F1F4F7" opacity="1.000000" stroke="none" 
	d="
M168.077209,79.624115 
	C169.795395,79.376999 171.608505,79.470474 173.693726,79.828468 
	C172.034607,80.050224 170.103363,80.007462 168.077209,79.624115 
z"/>
<path fill="#F1F4F7" opacity="1.000000" stroke="none" 
	d="
M157.082581,210.746582 
	C158.707840,210.362610 160.439178,210.307343 162.597656,210.328888 
	C161.079391,210.628906 159.134033,210.852112 157.082581,210.746582 
z"/>
<path fill="#F1F4F7" opacity="1.000000" stroke="none" 
	d="
M86.510979,108.044365 
	C87.538147,106.711998 88.923615,105.368561 90.631935,103.957291 
	C89.592949,105.270729 88.231117,106.652008 86.510979,108.044365 
z"/>
<path fill="#F1F4F7" opacity="1.000000" stroke="none" 
	d="
M170.947433,169.818207 
	C169.152634,169.567780 167.324005,168.958801 165.287872,168.061249 
	C167.024796,168.335022 168.969193,168.897354 170.947433,169.818207 
z"/>
<path fill="#F1F4F7" opacity="1.000000" stroke="none" 
	d="
M88.726555,120.060608 
	C89.517029,121.356651 89.937355,122.703354 90.509445,124.388382 
	C86.706474,124.053329 86.363907,123.367325 88.726555,120.060608 
z"/>
<path fill="#F1F4F7" opacity="1.000000" stroke="none" 
	d="
M65.597565,93.991158 
	C65.324883,95.403542 64.681656,96.819336 64.084442,98.591301 
	C61.345024,97.017105 61.580528,95.953400 65.597565,93.991158 
z"/>
<path fill="#F1F4F7" opacity="1.000000" stroke="none" 
	d="
M103.896927,106.900925 
	C102.945839,108.135666 101.822853,109.095367 100.375824,110.092346 
	C101.276192,108.961708 102.500610,107.793800 103.896927,106.900925 
z"/>
<path fill="#F1F4F7" opacity="1.000000" stroke="none" 
	d="
M146.302765,80.423035 
	C147.469681,79.847694 148.872101,79.516251 150.648407,79.273987 
	C149.527634,79.797752 148.032959,80.232338 146.302765,80.423035 
z"/>
<path fill="#F1F4F7" opacity="1.000000" stroke="none" 
	d="
M145.243713,205.736572 
	C146.693756,206.183533 148.078369,207.069565 149.622467,208.270050 
	C147.537674,209.137878 145.525375,209.247971 145.243713,205.736572 
z"/>
<path fill="#F1F4F7" opacity="1.000000" stroke="none" 
	d="
M252.190918,102.943047 
	C252.997818,101.684868 254.194855,100.455040 255.693649,99.110077 
	C254.857300,100.320427 253.719177,101.645920 252.190918,102.943047 
z"/>
<path fill="#F1F4F7" opacity="1.000000" stroke="none" 
	d="
M169.816895,208.833344 
	C170.708588,207.823151 171.998154,206.864502 173.633408,205.859253 
	C172.724319,206.836731 171.469559,207.860809 169.816895,208.833344 
z"/>
<path fill="#A5B0C8" opacity="1.000000" stroke="none" 
	d="
M148.644226,243.020905 
	C148.490845,241.812485 148.659393,240.431900 149.113007,238.848740 
	C149.254089,240.047012 149.110107,241.447876 148.644226,243.020905 
z"/>
<path fill="#F1F4F7" opacity="1.000000" stroke="none" 
	d="
M238.967773,80.632126 
	C237.709610,80.225769 236.421921,79.456985 235.011841,78.384895 
	C236.239044,78.810951 237.588638,79.540321 238.967773,80.632126 
z"/>
<path fill="#A5B0C8" opacity="1.000000" stroke="none" 
	d="
M133.364258,245.772537 
	C132.757553,244.862122 132.383041,243.730240 132.113708,242.228516 
	C132.678070,243.089462 133.137253,244.320282 133.364258,245.772537 
z"/>
<path fill="#A5B0C8" opacity="1.000000" stroke="none" 
	d="
M140.378723,226.006729 
	C140.560059,227.213242 140.415710,228.589401 139.997650,230.176224 
	C139.833649,228.983383 139.943359,227.579880 140.378723,226.006729 
z"/>
<path fill="#F1F4F7" opacity="1.000000" stroke="none" 
	d="
M144.769745,90.696152 
	C143.891739,91.319160 142.798492,91.679237 141.349396,91.968918 
	C142.180557,91.410095 143.367523,90.921661 144.769745,90.696152 
z"/>
<path fill="#F1F4F7" opacity="1.000000" stroke="none" 
	d="
M153.950409,152.868332 
	C155.032959,152.858215 156.115494,152.848099 157.598816,152.911865 
	C156.792786,153.479233 155.585968,153.972717 154.175323,153.924408 
	C153.964462,153.211182 153.957443,153.039749 153.950409,152.868332 
z"/>
<path fill="#F1F4F7" opacity="1.000000" stroke="none" 
	d="
M178.946320,91.547157 
	C177.827515,91.767090 176.646713,91.653305 175.234528,91.263863 
	C176.296875,91.063293 177.590607,91.138367 178.946320,91.547157 
z"/>
<path fill="#F1F4F7" opacity="1.000000" stroke="none" 
	d="
M220.942413,69.547035 
	C219.544434,69.258492 218.082291,68.607437 216.446564,67.651688 
	C217.808060,67.959503 219.343155,68.572006 220.942413,69.547035 
z"/>
<path fill="#A5B0C8" opacity="1.000000" stroke="none" 
	d="
M137.373871,245.921295 
	C137.576797,247.047455 137.488129,248.296677 137.089600,249.767639 
	C136.880569,248.674377 136.981430,247.359360 137.373871,245.921295 
z"/>
<path fill="#F1F4F7" opacity="1.000000" stroke="none" 
	d="
M243.998596,110.869156 
	C244.513535,109.908455 245.407120,108.969513 246.614227,107.927246 
	C246.077576,108.846245 245.227402,109.868584 243.998596,110.869156 
z"/>
<path fill="#F1F4F7" opacity="1.000000" stroke="none" 
	d="
M234.926697,77.780396 
	C234.012894,77.657631 233.104477,77.193802 232.067322,76.446304 
	C232.936417,76.588203 233.934265,77.013763 234.926697,77.780396 
z"/>
<path fill="#F1F4F7" opacity="1.000000" stroke="none" 
	d="
M224.854538,113.846718 
	C223.809143,113.496010 222.790634,112.765167 221.680344,111.731903 
	C222.686188,112.108513 223.783798,112.787544 224.854538,113.846718 
z"/>
<path fill="#F1F4F7" opacity="1.000000" stroke="none" 
	d="
M186.086823,82.592590 
	C187.097229,82.499969 188.207764,82.777870 189.523392,83.345352 
	C188.547974,83.411003 187.367462,83.187057 186.086823,82.592590 
z"/>
<path fill="#F1F4F7" opacity="1.000000" stroke="none" 
	d="
M151.040375,209.237122 
	C151.862305,209.121292 152.715775,209.334610 153.768280,209.820892 
	C153.002197,209.917999 152.037079,209.742142 151.040375,209.237122 
z"/>
<path fill="#F1F4F7" opacity="1.000000" stroke="none" 
	d="
M91.118698,117.400513 
	C91.030640,118.096291 90.572319,118.628937 89.842033,119.217880 
	C89.253380,118.706161 88.936691,118.138138 88.620003,117.570122 
	C89.329475,117.459206 90.038956,117.348289 91.118698,117.400513 
z"/>
<path fill="#A5B0C8" opacity="1.000000" stroke="none" 
	d="
M147.367371,248.984863 
	C147.172928,248.175461 147.273468,247.295013 147.647003,246.208038 
	C147.834106,246.972290 147.748215,247.943039 147.367371,248.984863 
z"/>
<path fill="#A5B0C8" opacity="1.000000" stroke="none" 
	d="
M150.414307,234.015900 
	C150.227753,233.209015 150.333206,232.329926 150.697662,231.226639 
	C150.873215,231.982864 150.789749,232.963287 150.414307,234.015900 
z"/>
<path fill="#F1F4F7" opacity="1.000000" stroke="none" 
	d="
M172.991028,115.850372 
	C172.048019,115.786865 171.121185,115.501457 170.082077,114.937622 
	C170.823288,114.672173 171.676788,114.685143 172.752319,114.941414 
	C172.974365,115.184715 173.007217,115.628479 172.991028,115.850372 
z"/>
<path fill="#F1F4F7" opacity="1.000000" stroke="none" 
	d="
M203.328903,149.953644 
	C202.956192,149.266068 202.925568,148.539291 202.882019,147.446686 
	C205.251328,147.426849 205.604889,148.346985 203.328903,149.953644 
z"/>
<path fill="#F1F4F7" opacity="1.000000" stroke="none" 
	d="
M181.040619,81.382751 
	C181.855804,81.182129 182.715561,81.306541 183.800629,81.677994 
	C183.045685,81.852623 182.065430,81.780197 181.040619,81.382751 
z"/>
<path fill="#F1F4F7" opacity="1.000000" stroke="none" 
	d="
M152.306305,168.766388 
	C151.980911,168.338699 151.985886,167.957565 151.996338,167.290527 
	C152.817139,167.092804 153.632431,167.180954 154.666138,167.485931 
	C154.135239,168.072830 153.385956,168.442871 152.306305,168.766388 
z"/>
<path fill="#F1F4F7" opacity="1.000000" stroke="none" 
	d="
M166.035767,153.887848 
	C165.256882,154.255920 164.478012,154.623993 163.350784,154.993088 
	C162.997086,154.564926 162.991730,154.135742 162.990234,153.384644 
	C163.751572,153.033905 164.509048,153.005051 165.648758,153.188385 
	C166.031006,153.400558 166.035767,153.887848 166.035767,153.887848 
z"/>
<path fill="#F1F4F7" opacity="1.000000" stroke="none" 
	d="
M216.934265,107.712372 
	C216.043915,107.585922 215.114288,107.102936 214.056534,106.325279 
	C214.917252,106.472359 215.906128,106.914093 216.934265,107.712372 
z"/>
<path fill="#F1F4F7" opacity="1.000000" stroke="none" 
	d="
M166.216888,210.334885 
	C166.799500,209.665131 167.565063,209.224686 168.670990,208.814728 
	C168.140823,209.418213 167.270340,209.991196 166.216888,210.334885 
z"/>
<path fill="#F1F4F7" opacity="1.000000" stroke="none" 
	d="
M226.927826,72.696579 
	C226.191345,72.714920 225.388702,72.347679 224.414490,71.681267 
	C225.115845,71.691727 225.988739,72.001358 226.927826,72.696579 
z"/>
<path fill="#F1F4F7" opacity="1.000000" stroke="none" 
	d="
M185.898773,93.143600 
	C185.212646,93.298256 184.397217,93.135254 183.411102,92.693481 
	C184.083450,92.551796 184.926468,92.688881 185.898773,93.143600 
z"/>
<path fill="#F1F4F7" opacity="1.000000" stroke="none" 
	d="
M211.072052,92.354561 
	C211.810410,92.338310 212.612289,92.699646 213.566254,93.366013 
	C212.857422,93.358093 211.996506,93.045120 211.072052,92.354561 
z"/>
<path fill="#F1F4F7" opacity="1.000000" stroke="none" 
	d="
M102.994247,95.734909 
	C103.230293,95.107811 103.808922,94.570770 104.695282,94.037354 
	C104.447624,94.635635 103.892227,95.230301 102.994247,95.734909 
z"/>
<path fill="#F1F4F7" opacity="1.000000" stroke="none" 
	d="
M196.065430,123.644760 
	C196.714340,123.631310 197.447937,123.945488 198.342987,124.534225 
	C197.719650,124.529984 196.934906,124.251190 196.065430,123.644760 
z"/>
<path fill="#F1F4F7" opacity="1.000000" stroke="none" 
	d="
M226.918427,115.748535 
	C226.263351,115.657852 225.594849,115.218048 224.849960,114.476852 
	C225.484039,114.583458 226.194519,114.991432 226.918427,115.748535 
z"/>
<path fill="#F1F4F7" opacity="1.000000" stroke="none" 
	d="
M239.027130,113.395279 
	C239.441223,113.090248 239.889847,113.074425 240.673615,113.098518 
	C240.682556,113.626732 240.356339,114.115028 240.030121,114.603317 
	C239.707306,114.297043 239.384506,113.990768 239.027130,113.395279 
z"/>
<path fill="#F1F4F7" opacity="1.000000" stroke="none" 
	d="
M202.899887,146.768768 
	C202.259308,146.650024 201.606750,146.168701 200.804596,145.413544 
	C201.399292,145.561859 202.143616,145.984009 202.899887,146.768768 
z"/>
<path fill="#5C6B89" opacity="1.000000" stroke="none" 
	d="
M153.800842,152.649292 
	C153.957443,153.039749 153.964462,153.211182 153.966797,153.639862 
	C153.511047,153.886734 153.059982,153.876358 152.280273,153.782471 
	C152.518173,153.276062 153.084732,152.853165 153.800842,152.649292 
z"/>
<path fill="#F1F4F7" opacity="1.000000" stroke="none" 
	d="
M221.681091,111.116714 
	C221.090347,111.202309 220.600647,110.962616 220.021271,110.451195 
	C220.274109,109.915642 220.616623,109.651817 220.959137,109.387985 
	C221.233459,109.855804 221.507797,110.323616 221.681091,111.116714 
z"/>
<path fill="#F1F4F7" opacity="1.000000" stroke="none" 
	d="
M140.306717,179.072723 
	C140.349274,179.737442 140.062424,180.497223 139.504669,181.428558 
	C139.481613,180.789322 139.729462,179.978531 140.306717,179.072723 
z"/>
<path fill="#F1F4F7" opacity="1.000000" stroke="none" 
	d="
M111.341614,102.258698 
	C111.045128,102.897743 110.364571,103.452072 109.342651,104.008148 
	C109.653374,103.397911 110.305458,102.785950 111.341614,102.258698 
z"/>
<path fill="#F1F4F7" opacity="1.000000" stroke="none" 
	d="
M139.195175,196.706497 
	C139.735611,197.036209 140.207489,197.713303 140.636795,198.707458 
	C140.105026,198.367645 139.615814,197.710770 139.195175,196.706497 
z"/>
<path fill="#F1F4F7" opacity="1.000000" stroke="none" 
	d="
M229.940033,74.622513 
	C229.230377,74.605255 228.459305,74.221344 227.538757,73.537430 
	C228.219055,73.576889 229.048843,73.916374 229.940033,74.622513 
z"/>
<path fill="#F1F4F7" opacity="1.000000" stroke="none" 
	d="
M138.554184,166.465286 
	C138.590042,166.524078 138.518326,166.406494 138.554184,166.465286 
z"/>
<path fill="#F1F4F7" opacity="1.000000" stroke="none" 
	d="
M91.102280,125.129395 
	C91.330795,125.037155 91.671532,125.200455 92.081329,125.652657 
	C91.838425,125.756020 91.526466,125.570480 91.102280,125.129395 
z"/>
<path fill="#F1F4F7" opacity="1.000000" stroke="none" 
	d="
M194.144989,122.341331 
	C194.340805,122.224876 194.669159,122.322449 195.093048,122.675385 
	C194.884903,122.805618 194.581207,122.680489 194.144989,122.341331 
z"/>
<path fill="#F1F4F7" opacity="1.000000" stroke="none" 
	d="
M136.680069,117.472130 
	C135.720718,119.320671 134.412918,121.110413 133.081589,122.932358 
	C131.376724,122.573128 129.816132,122.244301 127.831314,121.846405 
	C130.381927,120.322662 133.356781,118.867996 136.680069,117.472130 
z"/>
<path fill="#F1F4F7" opacity="1.000000" stroke="none" 
	d="
M162.691711,113.864342 
	C160.840195,114.305069 158.722366,114.498169 156.338593,114.437714 
	C158.190231,113.995010 160.307816,113.805870 162.691711,113.864342 
z"/>
<path fill="#F1F4F7" opacity="1.000000" stroke="none" 
	d="
M150.677414,114.471542 
	C151.047424,114.888313 151.033905,115.202652 151.000488,115.752251 
	C149.555069,116.227448 148.115631,116.466789 146.004669,116.852753 
	C144.888626,117.001663 144.444077,117.003944 143.999542,117.006226 
	C143.992874,116.813911 143.986221,116.621590 143.971954,116.140701 
	C146.078812,115.357979 148.193298,114.863846 150.677414,114.471542 
z"/>
<path fill="#F1F4F7" opacity="1.000000" stroke="none" 
	d="
M141.676941,116.087952 
	C141.142761,116.624802 140.274445,117.092323 139.215439,117.312134 
	C139.797440,116.715813 140.570114,116.367226 141.676941,116.087952 
z"/>
<path fill="#F1F4F7" opacity="1.000000" stroke="none" 
	d="
M151.742432,128.095428 
	C153.505951,128.141220 155.011841,128.295517 156.762299,128.734711 
	C152.595245,129.924835 148.183594,130.830032 143.375214,131.690811 
	C143.797363,130.846176 144.616257,130.045959 146.117310,129.125534 
	C147.866119,128.993774 148.932755,128.982239 149.999390,128.970688 
	C150.494522,128.715088 150.989655,128.459488 151.742432,128.095428 
z"/>
<path fill="#5C6B89" opacity="1.000000" stroke="none" 
	d="
M166.422607,153.857025 
	C166.035767,153.887848 166.031006,153.400558 166.029449,153.156860 
	C170.321655,154.357712 174.615433,155.802261 178.958252,157.596863 
	C178.212875,157.680099 177.418472,157.413284 176.304047,157.138397 
	C172.925842,156.028961 169.867645,154.927582 166.422607,153.857025 
z"/>
<path fill="#5C6B89" opacity="1.000000" stroke="none" 
	d="
M124.311630,141.973587 
	C126.994514,139.871506 130.054962,137.796066 133.476990,135.689285 
	C132.590714,140.371490 127.802368,139.977570 124.311630,141.973587 
z"/>
<path fill="#F1F4F7" opacity="1.000000" stroke="none" 
	d="
M134.342880,134.969818 
	C134.821960,131.239273 137.161636,130.364868 140.779633,131.748749 
	C138.909836,133.019165 136.807877,134.007828 134.342880,134.969818 
z"/>
<path fill="#5C6B89" opacity="1.000000" stroke="none" 
	d="
M144.706421,155.530365 
	C143.841156,156.494125 142.761749,157.247635 141.342346,158.015411 
	C142.165634,157.126480 143.328949,156.223297 144.706421,155.530365 
z"/>
<path fill="#5C6B89" opacity="1.000000" stroke="none" 
	d="
M122.077721,143.790344 
	C122.265846,143.155685 122.799965,142.572174 123.643326,141.959625 
	C123.442940,142.567551 122.933327,143.204514 122.077721,143.790344 
z"/>
<path fill="#FEFFFF" opacity="1.000000" stroke="none" 
	d="
M148.755859,170.357422 
	C148.231339,170.106644 147.822601,169.850830 147.205734,169.299332 
	C147.649719,169.185837 148.301849,169.368027 148.979828,169.856766 
	C149.005676,170.163315 148.871628,170.352371 148.755859,170.357422 
z"/>
<path fill="#F1F4F7" opacity="1.000000" stroke="none" 
	d="
M150.284927,169.879440 
	C150.243805,169.633545 150.476379,169.396637 150.960327,169.117416 
	C150.994019,169.346207 150.776306,169.617325 150.284927,169.879440 
z"/>
<path fill="#FEFEFF" opacity="1.000000" stroke="none" 
	d="
M149.994690,128.606308 
	C148.932755,128.982239 147.866119,128.993774 146.399429,129.005096 
	C146.698898,127.783562 147.398407,126.562241 148.097931,125.340927 
	C148.728607,126.307930 149.359299,127.274925 149.994690,128.606308 
z"/>
<path fill="#FEFEFF" opacity="1.000000" stroke="none" 
	d="
M144.038528,117.304382 
	C144.444077,117.003944 144.888626,117.001663 145.666565,116.999840 
	C145.767151,117.518524 145.534317,118.036751 145.301483,118.554977 
	C144.893494,118.237503 144.485504,117.920021 144.038528,117.304382 
z"/>
</svg>