<?xml version="1.0" encoding="utf-8" ?><svg xmlns="http://www.w3.org/2000/svg" xmlns:xlink="http://www.w3.org/1999/xlink" width="282" height="372" viewBox="0 0 282 372"><path fill="white" d="M0 0L282 0L282 372L0 372L0 0Z"/><path fill="#3E8668" d="M186.363 25.5493C190.755 25.3792 195.024 27.0928 195.619 31.9947C196.197 36.762 195.904 41.8768 195.894 46.7097L195.874 73.7591L195.873 138.32C195.873 149.823 195.765 161.533 195.979 173.027C196.055 177.081 197.299 182.179 197.49 186.861C197.957 200.863 198.314 214.868 198.563 228.875L199.814 275.832C200.109 285.384 200.337 294.939 200.498 304.494C200.639 310.157 200.956 315.809 200.826 321.488C200.77 325.671 198.764 329.786 195.646 332.591C188.965 338.602 178.546 337.63 172.641 331.133C167.44 324.71 169.006 318.377 169.178 310.826L169.714 287.09L171.321 222.031L172.023 197.807C172.16 193.005 172.318 187.966 172.228 183.171C172.159 179.476 169.951 175.663 168.75 172.177C167.635 168.94 166.547 165.668 165.491 162.394C163.031 154.899 160.963 147.281 159.296 139.57C151.521 103.958 151.846 62.6561 176.725 33.3545C179.308 30.3126 182.333 26.4262 186.363 25.5493Z"/><path fill="white" d="M183.368 44.4394C184.012 45.2466 183.839 56.1517 183.845 57.7937L183.86 86.5828L183.869 140.373C183.871 149.578 183.883 158.822 183.849 168.028C183.845 169.046 183.711 170.886 183.062 171.687C182.9 171.888 182.878 171.807 182.493 171.865C180.753 170.608 178.855 163.978 178.085 161.69C174.872 152.23 172.301 142.564 170.39 132.758C165.333 107.842 164.844 80.07 176.096 56.6618C178.143 52.4034 180.761 48.3739 183.368 44.4394Z"/><path fill="#3E8668" d="M57.4588 26.5323C62.3814 25.9184 65.7197 27.7913 65.722 33.0367C65.7236 36.6384 65.6976 40.2809 65.6985 43.8853L65.7125 78.8827C65.7079 84.1777 65.3888 92.3671 65.9977 97.3531C67.2456 107.573 77.2475 125.885 88.0435 128.356C100.288 131.158 112.272 109.307 114.141 99.5069C115.236 93.6477 114.852 84.6134 114.845 78.2622L114.809 45.738C114.805 41.2246 114.508 34.8851 115.172 30.4768C116.08 24.9961 124.966 25.5205 126.354 29.5671C127.452 32.7652 126.994 41.1723 126.997 44.6874L127.005 66.2872L127.004 84.8782C127.004 88.2699 127.107 92.3637 126.906 95.6819C126.679 99.1125 126.063 102.506 125.071 105.798C120.911 119.941 112.296 132.123 99.2337 139.216C99.595 141.816 99.5691 145.262 99.6315 147.956L100 162.339C100.705 180.534 101.225 198.736 101.559 216.942C102.318 233.657 102.505 251.02 102.981 267.802C103.602 284.534 104.104 301.27 104.488 318.009C104.562 323.084 104.235 326.831 100.426 330.763C97.8835 333.382 93.8919 335.017 90.2373 334.993C83.1068 334.944 76.3404 329.334 76.1018 321.995C75.9206 316.422 76.2222 310.892 76.3598 305.358L77.3579 269.759L79.5357 192.149C80.1799 174.398 80.6143 156.64 80.8388 138.879C71.0378 134.043 66.4844 127.701 60.7071 118.381C49.7385 100.687 54.8033 79.6385 53.7157 59.8507C53.1936 50.3531 53.7616 39.4332 54.1037 29.9376C54.1496 28.6639 56.3982 27.0696 57.4588 26.5323Z"/><path fill="#3E8668" d="M78.7625 26.5284C82.893 26.3093 83.661 26.6697 86.1973 29.9624C86.5713 31.9768 86.4767 35.5555 86.4782 37.6985L86.4808 49.376C86.4794 59.1508 86.5241 68.9318 86.4206 78.7044C86.3812 82.4253 85.5938 84.5592 81.8869 85.7135C80.5627 85.7847 79.3171 85.7516 78.0473 85.326C76.7897 84.9044 75.5082 84.066 74.9701 82.7978C74.4568 81.588 74.3936 79.7961 74.3243 78.4743C74.0272 72.8109 73.9076 32.0143 74.8381 29.7705C75.5335 28.0936 77.1865 27.1911 78.7625 26.5284Z"/><path fill="#3E8668" d="M97.8507 26.5457C102.491 25.9366 105.885 27.154 105.933 32.2602C106 39.1685 105.984 46.0718 105.983 52.9804L105.975 70.14C105.973 73.7369 106.201 79.9983 105.347 83.2716C104.278 84.3964 103.281 84.9415 101.875 85.5304C95.5087 87.0043 93.874 82.3411 93.8495 77.0531C93.7393 63.7049 93.7726 50.3472 93.7584 36.9977C93.7536 32.5008 93.4564 28.9776 97.8507 26.5457Z"/></svg>