<svg version="1.1" id="Layer_1" xmlns="http://www.w3.org/2000/svg" xmlns:xlink="http://www.w3.org/1999/xlink" x="0px" y="0px"
	 width="100%" viewBox="0 0 400 512" enable-background="new 0 0 400 512" xml:space="preserve">
<style>
  path { stroke: #85B510 !important; }
</style>
<path fill="none" opacity="1.000000" stroke="#85B510" stroke-linecap="round" stroke-linejoin="round" stroke-width="9.000000"
	d="
M232.000000,354.000000 
	C235.263824,351.792389 237.290558,348.910614 238.589584,345.029999 
	C248.928909,314.142853 259.647827,283.382324 269.892517,252.464386 
	C272.349548,245.049210 275.796478,239.050888 282.947083,235.396454 
	C284.477570,234.614288 285.632599,234.453186 286.993286,235.016235 
	C297.640320,239.421738 309.039093,241.193695 320.023926,244.418488 
	C325.398071,245.996155 329.825165,251.084869 329.409393,257.494110 
	C328.985962,264.020721 327.959015,270.519073 326.976410,276.996429 
	C324.042084,296.339722 321.013092,315.668701 317.996948,334.999512 
	C313.341797,364.834656 308.695801,394.671265 303.981995,424.497162 
	C302.590698,433.300690 295.320312,437.728241 286.496033,435.515869 
	C267.675690,430.797363 248.881332,425.956268 229.967834,421.640961 
	C224.944016,420.494720 221.627869,417.421997 218.052536,414.437073 
	C216.827286,413.414124 217.500900,411.498993 217.525406,410.000427 
	C217.656174,402.010712 220.796021,394.654785 222.564865,387.015015 
	C224.971283,376.621429 227.812958,366.327972 230.537964,356.010040 
	C230.759995,355.169312 231.632660,354.366638 230.979004,353.516144 
	C226.394287,347.550964 228.943329,340.986206 230.164795,335.033813 
	C236.645538,303.452728 242.391388,271.738892 247.944778,239.990341 
	C250.754471,223.927460 257.911285,210.170029 268.489471,197.990860 
	C269.733765,196.558273 270.670166,194.830399 272.025482,193.526505 
	C284.246887,181.768829 288.869843,166.873672 291.176208,150.524857 
	C293.355682,135.075760 296.876526,119.807777 300.042664,104.508835 
	C302.213531,94.019386 299.358429,89.503822 289.000000,88.000000 
	C284.839447,87.395973 280.890656,90.298920 281.080841,94.496338 
	C281.509888,103.968414 278.335297,112.840103 276.885437,121.981834 
	C274.654114,136.050873 271.636383,149.994385 269.038788,164.007187 
	C268.718506,165.734818 268.172333,167.385712 266.959473,168.453995 
	C261.826965,172.974777 259.937195,179.788315 255.083008,184.584015 
	C249.719589,189.882812 244.970566,195.807693 240.007385,201.506439 
	C233.643692,208.813324 226.822098,215.793549 221.129074,223.594193 
	C213.972748,233.399918 210.813263,244.804489 209.915253,256.993744 
	C208.575119,275.184479 206.549118,293.323547 205.031784,311.502655 
	C203.391281,331.157593 201.967911,350.831024 200.539536,370.502869 
	C200.355637,373.035645 199.831924,375.627777 198.379318,377.401154 
	C196.270798,379.975250 196.028946,382.772186 196.590576,385.481232 
	C198.349777,393.966736 197.540314,402.510773 197.334625,410.996002 
	C197.228317,415.381470 199.507935,417.491272 202.558762,418.869965 
	C205.572372,420.231842 209.092606,420.091553 211.968018,417.956909 
	C213.731750,416.647583 215.004517,414.683014 217.250000,414.000000 
"/>
<path fill="none" opacity="1.000000" stroke="#85B510" stroke-linecap="round" stroke-linejoin="round" stroke-width="9.000000"
	d="
M188.750000,148.500000 
	C191.000000,155.833328 193.262283,163.162933 195.497314,170.500824 
	C199.506836,183.664581 203.518967,196.827606 207.490250,210.002945 
	C208.990402,214.979889 208.505249,216.491928 203.981735,217.943069 
	C192.536774,221.614655 181.001770,225.005814 169.499222,228.497437 
	C164.098618,230.136795 158.833130,232.272903 153.445847,233.810242 
	C148.738937,235.153442 149.345474,238.359924 150.122574,240.963409 
	C155.218018,258.034424 160.790359,274.962402 165.971252,292.008728 
	C173.914001,318.142151 181.610001,344.350586 189.562363,370.481018 
	C190.727661,374.309998 192.353455,378.128601 196.000000,380.500000 
"/>
<path fill="none" opacity="1.000000" stroke="#85B510" stroke-linecap="round" stroke-linejoin="round" stroke-width="9.000000"
	d="
M122.750000,243.000000 
	C131.011536,269.062317 138.859894,295.248169 146.559662,321.482483 
	C151.576431,338.575409 157.217529,355.484253 162.482819,372.505310 
	C166.237976,384.644592 169.997177,396.787354 173.430267,409.019562 
	C175.123840,415.053894 182.082474,420.526489 189.002518,419.517212 
	C192.271545,419.040436 194.580658,416.650574 197.500000,415.500000 
"/>
<path fill="none" opacity="1.000000" stroke="#85B510" stroke-linecap="round" stroke-linejoin="round" stroke-width="9.000000"
	d="
M188.500000,151.500000 
	C183.309616,151.187454 178.680069,153.652618 174.063873,155.191589 
	C141.854889,165.929672 109.295486,175.547836 76.992119,185.975571 
	C67.209717,189.133377 57.312691,191.934753 47.511436,195.036133 
	C44.173782,196.092270 42.727695,198.122589 43.931190,202.021240 
	C49.421314,219.806168 54.625526,237.679230 60.057518,255.482452 
	C60.665035,257.473572 62.065746,259.222626 63.192337,261.252838 
	C78.697174,257.719543 93.524162,252.366364 108.515076,247.546890 
	C113.084526,246.077850 117.833336,245.166672 122.500000,244.000000 
"/>
<path fill="none" opacity="1.000000" stroke="#85B510" stroke-linecap="round" stroke-linejoin="round" stroke-width="9.000000"
	d="
M324.000000,244.500000 
	C327.383362,238.752701 326.294373,232.155472 327.395508,225.981369 
	C328.390411,220.402954 328.354797,214.649200 329.033752,209.004059 
	C330.076324,200.335464 329.674347,199.593185 321.500549,197.497818 
	C316.997406,196.343414 312.511169,195.121201 307.997040,194.012070 
	C302.918304,192.764252 301.570404,193.368668 299.515228,198.006744 
	C295.463562,207.150513 291.605835,216.381882 287.436340,225.470795 
	C286.164673,228.242828 285.678101,231.121017 285.000000,234.000000 
"/>
<path fill="none" opacity="1.000000" stroke="#85B510" stroke-linecap="round" stroke-linejoin="round" stroke-width="9.000000"
	d="
M174.000000,175.500000 
	C168.649597,175.164963 163.918335,177.717575 159.047012,179.158905 
	C142.424225,184.077225 126.016968,189.719955 109.494278,194.982025 
	C97.690414,198.741257 85.855743,202.408585 73.983238,205.943710 
	C71.233406,206.762497 68.863846,209.743454 65.500000,207.750000 
"/>
<path fill="none" opacity="1.000000" stroke="#85B510" stroke-linecap="round" stroke-linejoin="round" stroke-width="9.000000"
	d="
M174.500000,174.000000 
	C174.639954,177.692688 177.396179,180.403671 178.135391,183.971954 
	C178.817139,187.262817 177.999374,189.021988 174.998459,189.995224 
	C164.169067,193.507385 153.354279,197.066696 142.492966,200.477600 
	C134.695831,202.926208 126.814201,205.104630 119.004082,207.513260 
	C103.840393,212.189682 88.860420,217.465332 73.493736,221.475998 
	C72.001450,221.865463 71.918945,222.818039 72.000000,224.000000 
"/>
<path fill="none" opacity="1.000000" stroke="#85B510" stroke-linecap="round" stroke-linejoin="round" stroke-width="9.000000"
	d="
M281.000000,93.000000 
	C276.162415,92.512718 271.948883,90.164734 267.484436,88.542824 
	C264.286133,87.380890 261.132660,85.998146 257.491974,86.432846 
	C254.743561,86.761017 252.954803,84.349693 251.067688,82.911201 
	C243.436707,77.094223 233.914261,83.056519 232.454834,90.991692 
	C228.588028,112.016190 224.581039,133.015991 220.443146,153.988785 
	C219.406403,159.243378 219.976364,163.760880 224.530502,166.956528 
	C228.479248,169.727356 232.873459,170.522537 237.501572,168.503601 
	C238.323837,168.144897 239.470505,167.303726 239.953583,167.580887 
	C245.554031,170.794067 251.642532,169.038696 257.499054,169.511673 
	C259.348785,169.661041 260.967957,170.496750 262.500000,171.500000 
"/>
<path fill="none" opacity="1.000000" stroke="#85B510" stroke-linecap="round" stroke-linejoin="round" stroke-width="9.000000"
	d="
M255.999985,87.000000 
	C254.166656,97.500000 252.746521,108.093201 250.404053,118.478363 
	C246.806122,134.429520 245.147003,150.773544 240.511307,166.503342 
	C240.420929,166.810028 240.500000,167.166672 240.500000,167.500000 
"/>
</svg>
