<svg version="1.1" id="Layer_1" xmlns="http://www.w3.org/2000/svg" xmlns:xlink="http://www.w3.org/1999/xlink" x="0px" y="0px"
	 width="100%" viewBox="0 0 332 358" enable-background="new 0 0 332 358" xml:space="preserve">
<style>
  path { fill: #3E8668 !important; stroke: #3E8668 !important; }
  path[fill^="#F"], path[fill^="#f"] { fill: #FFFFFF !important; stroke: none !important; }
</style>
<path fill="#FEFEFE" opacity="1.000000" stroke="none" 
	d="
M217.000000,359.000000 
	C144.666687,359.000000 72.833359,359.000000 1.000029,359.000000 
	C1.000019,239.666702 1.000019,120.333405 1.000010,1.000077 
	C111.666618,1.000051 222.333237,1.000051 332.999878,1.000026 
	C332.999939,120.333260 332.999939,239.666519 332.999969,358.999878 
	C294.500000,359.000000 256.000000,359.000000 217.000000,359.000000 
M234.124527,275.216797 
	C229.261581,270.290222 224.522720,265.231628 219.482468,260.493652 
	C217.022781,258.181488 214.130402,255.744308 209.917984,258.734863 
	C209.616806,258.924042 209.315628,259.113251 208.396255,259.381622 
	C207.708984,260.590637 207.021729,261.799622 206.043091,263.807465 
	C206.156403,265.202271 206.269714,266.597046 206.281265,268.653595 
	C214.986099,277.638855 223.541550,286.777832 232.508850,295.493011 
	C234.554459,297.481079 237.999664,298.936340 241.643387,295.808746 
	C245.708115,292.202972 246.304260,287.700317 242.953094,283.990906 
	C241.003723,281.833130 238.693405,280.001495 236.541031,277.714294 
	C236.410538,277.493073 236.232681,277.444275 235.816681,276.965576 
	C235.318527,276.602814 234.820374,276.240021 234.124527,275.216797 
M163.142914,40.085815 
	C163.130081,49.085491 162.970032,58.088562 163.177139,67.083168 
	C163.259552,70.662201 161.953354,71.701736 158.552185,71.611938 
	C151.390564,71.422836 144.220535,71.529724 137.054077,71.551659 
	C129.658768,71.574287 126.692429,74.475464 126.657486,81.729294 
	C126.626183,88.229034 126.904907,94.743996 126.524773,101.221603 
	C126.371346,103.836006 125.415054,106.820580 123.832306,108.871147 
	C100.541237,139.046463 77.123627,169.124603 53.605282,199.123291 
	C51.058533,202.371796 50.040699,205.677277 51.664139,209.263107 
	C53.410831,213.121216 57.169369,213.593262 61.033131,213.576004 
	C78.199127,213.499283 95.369972,213.710068 112.528885,213.342285 
	C117.493362,213.235855 119.462624,214.847244 120.532936,219.551636 
	C123.839783,234.086456 132.239700,245.269653 145.021072,252.692459 
	C177.010986,271.270691 215.851669,254.495132 224.829514,218.291031 
	C225.810272,214.336014 227.408539,213.369659 231.192825,213.410553 
	C248.690582,213.599670 266.191437,213.484100 283.690979,213.537827 
	C287.695404,213.550125 291.453979,213.182648 293.417755,209.015289 
	C295.367126,204.878448 293.284088,201.595993 290.876862,198.507965 
	C271.024506,173.041153 251.628876,147.195343 231.056580,122.323120 
	C221.653137,110.954216 215.459320,99.567032 218.025772,84.575714 
	C218.164429,83.765831 218.047913,82.912109 218.048676,82.078789 
	C218.056000,74.047363 215.451202,71.512367 207.205704,71.517662 
	C199.039185,71.522911 190.870468,71.414726 182.707245,71.580437 
	C179.437531,71.646805 178.376175,70.498161 178.449646,67.234612 
	C178.640930,58.739098 178.417526,50.234901 178.549973,41.737133 
	C178.621017,37.178776 177.265198,33.760616 172.379715,32.970852 
	C167.504227,32.182701 164.349884,34.320477 163.142914,40.085815 
M132.966003,257.608917 
	C130.319763,258.672882 127.083969,259.101593 125.131645,260.913330 
	C117.593071,267.908936 110.466202,275.348114 103.181946,282.618011 
	C99.256805,286.535400 98.645264,291.208862 101.639244,294.494080 
	C105.267578,298.475342 109.679443,298.378540 114.225868,293.932861 
	C121.582085,286.739655 128.894440,279.497406 136.066681,272.121613 
	C141.458145,266.577118 140.530762,261.636353 132.966003,257.608917 
M164.843185,293.499023 
	C164.848053,298.489197 164.827774,303.479523 164.865875,308.469452 
	C164.895432,312.339661 166.935303,314.635834 170.630249,315.534882 
	C174.358765,316.442078 177.381485,315.094452 179.092590,311.892059 
	C180.130981,309.948700 180.471085,307.450134 180.513931,305.189453 
	C180.671524,296.875549 180.613220,288.556488 180.548126,280.240051 
	C180.528732,277.764343 180.503738,275.229706 179.984543,272.829529 
	C178.995392,268.256836 175.475464,265.680725 171.354019,266.487793 
	C167.081467,267.324463 164.747070,269.945374 164.818237,274.535217 
	C164.911041,280.522003 164.842789,286.511261 164.843185,293.499023 
z"/>
<path fill="#3E5381" opacity="1.000000" stroke="none" 
	d="
M163.180054,39.653526 
	C164.349884,34.320477 167.504227,32.182701 172.379715,32.970852 
	C177.265198,33.760616 178.621017,37.178776 178.549973,41.737133 
	C178.417526,50.234901 178.640930,58.739098 178.449646,67.234612 
	C178.376175,70.498161 179.437531,71.646805 182.707245,71.580437 
	C190.870468,71.414726 199.039185,71.522911 207.205704,71.517662 
	C215.451202,71.512367 218.056000,74.047363 218.048676,82.078789 
	C218.047913,82.912109 218.164429,83.765831 218.025772,84.575714 
	C215.459320,99.567032 221.653137,110.954216 231.056580,122.323120 
	C251.628876,147.195343 271.024506,173.041153 290.876862,198.507965 
	C293.284088,201.595993 295.367126,204.878448 293.417755,209.015289 
	C291.453979,213.182648 287.695404,213.550125 283.690979,213.537827 
	C266.191437,213.484100 248.690582,213.599670 231.192825,213.410553 
	C227.408539,213.369659 225.810272,214.336014 224.829514,218.291031 
	C215.851669,254.495132 177.010986,271.270691 145.021072,252.692459 
	C132.239700,245.269653 123.839783,234.086456 120.532936,219.551636 
	C119.462624,214.847244 117.493362,213.235855 112.528885,213.342285 
	C95.369972,213.710068 78.199127,213.499283 61.033131,213.576004 
	C57.169369,213.593262 53.410831,213.121216 51.664139,209.263107 
	C50.040699,205.677277 51.058533,202.371796 53.605282,199.123291 
	C77.123627,169.124603 100.541237,139.046463 123.832306,108.871147 
	C125.415054,106.820580 126.371346,103.836006 126.524773,101.221603 
	C126.904907,94.743996 126.626183,88.229034 126.657486,81.729294 
	C126.692429,74.475464 129.658768,71.574287 137.054077,71.551659 
	C144.220535,71.529724 151.390564,71.422836 158.552185,71.611938 
	C161.953354,71.701736 163.259552,70.662201 163.177139,67.083168 
	C162.970032,58.088562 163.130081,49.085491 163.180054,39.653526 
M89.886375,179.027115 
	C89.886375,179.027115 89.701385,178.750443 89.121765,178.956360 
	C88.757057,179.642670 88.392349,180.328979 87.476082,181.390396 
	C83.391945,186.697403 79.307808,192.004395 75.001633,197.599899 
	C140.252884,197.599899 204.575150,197.599899 269.344086,197.599899 
	C268.616150,196.161880 268.305145,195.190063 267.716003,194.435349 
	C248.262741,169.514801 228.845123,144.565552 209.180176,119.812866 
	C207.717728,117.972046 204.464020,116.663216 202.023315,116.631645 
	C182.532043,116.379601 163.034622,116.618881 143.542526,116.400131 
	C139.378067,116.353394 136.790085,117.800453 134.395615,121.021904 
	C126.980682,130.997742 119.322411,140.792725 111.153206,150.905212 
	C110.442238,151.939819 109.731277,152.974442 108.666298,154.391296 
	C108.370758,154.818344 108.075218,155.245407 107.188789,155.889191 
	C106.764511,156.576202 106.340240,157.263199 105.395355,158.358170 
	C103.535683,160.814255 101.676010,163.270355 99.224152,165.928696 
	C98.824959,166.623184 98.425758,167.317673 97.480072,168.392456 
	C95.229080,171.463013 92.978088,174.533585 90.190742,177.769104 
	C90.033859,178.092865 89.876976,178.416626 89.886375,179.027115 
M200.426666,213.310196 
	C178.887070,213.310196 157.347488,213.310196 135.786469,213.310196 
	C136.545654,231.526535 156.245758,245.759918 177.539078,244.149414 
	C192.788010,242.996078 210.059555,226.236969 208.692886,213.312119 
	C206.310120,213.312119 203.853394,213.312119 200.426666,213.310196 
M191.452545,87.269386 
	C176.662231,87.266098 161.870209,87.383377 147.082748,87.176308 
	C143.297989,87.123322 141.877121,88.328644 142.379379,92.004639 
	C142.513000,92.982613 142.500381,94.011742 142.362488,94.990265 
	C141.745148,99.370918 143.542160,100.673683 147.943832,100.607033 
	C164.226013,100.360451 180.515259,100.414551 196.799469,100.584496 
	C200.927475,100.627571 202.865112,99.629425 202.763275,95.042770 
	C202.591095,87.286926 202.835480,87.281410 194.923721,87.270813 
	C194.092804,87.269699 193.261887,87.270584 191.452545,87.269386 
z"/>
<path fill="#435682" opacity="1.000000" stroke="none" 
	d="
M133.318619,257.709229 
	C140.530762,261.636353 141.458145,266.577118 136.066681,272.121613 
	C128.894440,279.497406 121.582085,286.739655 114.225868,293.932861 
	C109.679443,298.378540 105.267578,298.475342 101.639244,294.494080 
	C98.645264,291.208862 99.256805,286.535400 103.181946,282.618011 
	C110.466202,275.348114 117.593071,267.908936 125.131645,260.913330 
	C127.083969,259.101593 130.319763,258.672882 133.318619,257.709229 
z"/>
<path fill="#3F5380" opacity="1.000000" stroke="none" 
	d="
M164.843506,292.999237 
	C164.842789,286.511261 164.911041,280.522003 164.818237,274.535217 
	C164.747070,269.945374 167.081467,267.324463 171.354019,266.487793 
	C175.475464,265.680725 178.995392,268.256836 179.984543,272.829529 
	C180.503738,275.229706 180.528732,277.764343 180.548126,280.240051 
	C180.613220,288.556488 180.671524,296.875549 180.513931,305.189453 
	C180.471085,307.450134 180.130981,309.948700 179.092590,311.892059 
	C177.381485,315.094452 174.358765,316.442078 170.630249,315.534882 
	C166.935303,314.635834 164.895432,312.339661 164.865875,308.469452 
	C164.827774,303.479523 164.848053,298.489197 164.843506,292.999237 
z"/>
<path fill="#425482" opacity="1.000000" stroke="none" 
	d="
M209.014465,259.302460 
	C209.315628,259.113251 209.616806,258.924042 210.589294,258.845490 
	C215.433151,261.076782 219.439316,262.823090 222.333481,267.318115 
	C224.874298,271.264343 228.107361,276.197174 234.322220,275.877258 
	C234.820374,276.240021 235.318527,276.602814 236.002991,277.339355 
	C236.189301,277.713135 236.545502,278.023102 236.545502,278.023102 
	C238.693405,280.001495 241.003723,281.833130 242.953094,283.990906 
	C246.304260,287.700317 245.708115,292.202972 241.011719,295.566711 
	C238.083237,294.641815 235.247772,294.585846 233.588989,293.160492 
	C228.280746,288.599274 223.465546,283.469757 218.349533,278.677551 
	C214.447754,275.022736 210.378021,271.547180 206.383026,267.991852 
	C206.269714,266.597046 206.156403,265.202271 206.505707,263.354065 
	C207.650375,261.701263 208.332428,260.501862 209.014465,259.302460 
z"/>
<path fill="#485B7C" opacity="1.000000" stroke="none" 
	d="
M206.332153,268.322723 
	C210.378021,271.547180 214.447754,275.022736 218.349533,278.677551 
	C223.465546,283.469757 228.280746,288.599274 233.588989,293.160492 
	C235.247772,294.585846 238.083237,294.641815 240.650513,295.573486 
	C237.999664,298.936340 234.554459,297.481079 232.508850,295.493011 
	C223.541550,286.777832 214.986099,277.638855 206.332153,268.322723 
z"/>
<path fill="#485B7C" opacity="1.000000" stroke="none" 
	d="
M234.223373,275.547028 
	C228.107361,276.197174 224.874298,271.264343 222.333481,267.318115 
	C219.439316,262.823090 215.433151,261.076782 210.860229,258.885834 
	C214.130402,255.744308 217.022781,258.181488 219.482468,260.493652 
	C224.522720,265.231628 229.261581,270.290222 234.223373,275.547028 
z"/>
<path fill="#485B7C" opacity="1.000000" stroke="none" 
	d="
M208.705353,259.342041 
	C208.332428,260.501862 207.650375,261.701263 206.651398,262.954651 
	C207.021729,261.799622 207.708984,260.590637 208.705353,259.342041 
z"/>
<path fill="#485B7C" opacity="1.000000" stroke="none" 
	d="
M236.543274,277.868713 
	C236.545502,278.023102 236.189301,277.713135 236.098373,277.640503 
	C236.232681,277.444275 236.410538,277.493073 236.543274,277.868713 
z"/>
<path fill="#FBFCFD" opacity="1.000000" stroke="none" 
	d="
M90.727097,177.604156 
	C92.978088,174.533585 95.229080,171.463013 98.093903,168.166611 
	C99.077255,167.202652 99.446793,166.464539 99.816330,165.726440 
	C101.676010,163.270355 103.535683,160.814255 106.004822,158.118286 
	C107.002747,157.143082 107.391220,156.407776 107.779678,155.672455 
	C108.075218,155.245407 108.370758,154.818344 109.200256,154.167297 
	C110.409012,152.848175 111.083801,151.753036 111.758591,150.657913 
	C119.322411,140.792725 126.980682,130.997742 134.395615,121.021904 
	C136.790085,117.800453 139.378067,116.353394 143.542526,116.400131 
	C163.034622,116.618881 182.532043,116.379601 202.023315,116.631645 
	C204.464020,116.663216 207.717728,117.972046 209.180176,119.812866 
	C228.845123,144.565552 248.262741,169.514801 267.716003,194.435349 
	C268.305145,195.190063 268.616150,196.161880 269.344086,197.599899 
	C204.575150,197.599899 140.252884,197.599899 75.001633,197.599899 
	C79.307808,192.004395 83.391945,186.697403 88.089554,181.164856 
	C89.035812,180.209686 89.368599,179.480072 89.701385,178.750443 
	C89.701385,178.750443 89.886375,179.027115 90.085999,178.819122 
	C90.432785,178.275482 90.579948,177.939819 90.727097,177.604156 
z"/>
<path fill="#F6F8F9" opacity="1.000000" stroke="none" 
	d="
M200.911667,213.311157 
	C203.853394,213.312119 206.310120,213.312119 208.692886,213.312119 
	C210.059555,226.236969 192.788010,242.996078 177.539078,244.149414 
	C156.245758,245.759918 136.545654,231.526535 135.786469,213.310196 
	C157.347488,213.310196 178.887070,213.310196 200.911667,213.311157 
z"/>
<path fill="#F1F3F6" opacity="1.000000" stroke="none" 
	d="
M191.941757,87.269966 
	C193.261887,87.270584 194.092804,87.269699 194.923721,87.270813 
	C202.835480,87.281410 202.591095,87.286926 202.763275,95.042770 
	C202.865112,99.629425 200.927475,100.627571 196.799469,100.584496 
	C180.515259,100.414551 164.226013,100.360451 147.943832,100.607033 
	C143.542160,100.673683 141.745148,99.370918 142.362488,94.990265 
	C142.500381,94.011742 142.513000,92.982613 142.379379,92.004639 
	C141.877121,88.328644 143.297989,87.123322 147.082748,87.176308 
	C161.870209,87.383377 176.662231,87.266098 191.941757,87.269966 
z"/>
<path fill="#CAD4E0" opacity="1.000000" stroke="none" 
	d="
M111.455894,150.781555 
	C111.083801,151.753036 110.409012,152.848175 109.377266,153.976181 
	C109.731277,152.974442 110.442238,151.939819 111.455894,150.781555 
z"/>
<path fill="#CAD4E0" opacity="1.000000" stroke="none" 
	d="
M89.411575,178.853394 
	C89.368599,179.480072 89.035812,180.209686 88.365334,180.977310 
	C88.392349,180.328979 88.757057,179.642670 89.411575,178.853394 
z"/>
<path fill="#CAD4E0" opacity="1.000000" stroke="none" 
	d="
M99.520241,165.827576 
	C99.446793,166.464539 99.077255,167.202652 98.367142,167.976471 
	C98.425758,167.317673 98.824959,166.623184 99.520241,165.827576 
z"/>
<path fill="#CAD4E0" opacity="1.000000" stroke="none" 
	d="
M107.484238,155.780823 
	C107.391220,156.407776 107.002747,157.143082 106.265121,157.914291 
	C106.340240,157.263199 106.764511,156.576202 107.484238,155.780823 
z"/>
<path fill="#CAD4E0" opacity="1.000000" stroke="none" 
	d="
M90.458923,177.686630 
	C90.579948,177.939819 90.432785,178.275482 90.002869,178.675751 
	C89.876976,178.416626 90.033859,178.092865 90.458923,177.686630 
z"/>
</svg>