<svg version="1.1" id="Layer_1" xmlns="http://www.w3.org/2000/svg" xmlns:xlink="http://www.w3.org/1999/xlink" x="0px" y="0px"
	 width="100%" viewBox="0 0 382 394" enable-background="new 0 0 382 394" xml:space="preserve">
<style>
  path { fill: #3E8668 !important; stroke: #3E8668 !important; }
  path[fill^="#F"], path[fill^="#f"] { fill: #FFFFFF !important; stroke: none !important; }
</style>
<path fill="#FEFEFE" opacity="1.000000" stroke="none" 
	d="
M214.000000,395.000000 
	C142.666672,395.000000 71.833359,395.000000 1.000029,395.000000 
	C1.000019,263.666718 1.000019,132.333405 1.000010,1.000081 
	C128.333267,1.000054 255.666550,1.000054 382.999878,1.000027 
	C382.999908,132.333252 382.999908,263.666504 382.999939,394.999878 
	C326.833344,395.000000 270.666656,395.000000 214.000000,395.000000 
M167.785522,246.177399 
	C168.000702,245.854050 168.215897,245.530701 168.932343,245.022034 
	C169.263977,244.622269 169.595612,244.222488 170.604736,243.745697 
	C174.203339,240.897812 177.801941,238.049927 181.756790,235.074966 
	C181.756790,235.074966 181.946655,234.747864 182.598953,234.727890 
	C183.932755,233.606812 185.266556,232.485748 187.112869,231.117126 
	C187.728104,230.679642 188.343338,230.242157 189.772614,229.709518 
	C192.553436,228.103378 192.136566,229.997192 192.216736,231.781006 
	C192.429169,236.507080 192.822571,241.225021 193.030441,246.704987 
	C193.167099,247.454819 193.303757,248.204651 193.278442,249.658249 
	C193.762985,250.963684 194.247543,252.269135 194.599884,254.049026 
	C194.587570,254.392502 194.687042,254.699783 194.661575,255.389282 
	C195.053482,256.038605 195.445404,256.687897 195.816162,257.908752 
	C195.944809,258.264313 196.073471,258.619873 196.160858,259.707642 
	C197.682953,262.667328 199.205048,265.626984 200.760880,269.160095 
	C201.213425,269.768158 201.665970,270.376221 202.144501,271.609070 
	C202.699463,272.212311 203.254425,272.815521 204.025726,274.022308 
	C204.839996,275.001831 205.654266,275.981323 206.447540,277.786102 
	C206.543594,278.875061 206.639664,279.963989 206.372971,281.712433 
	C205.862457,283.368622 205.351944,285.024780 204.341309,286.982300 
	C204.172638,287.671021 204.003952,288.359772 203.434860,289.651550 
	C203.361237,290.123505 203.287613,290.595459 202.663544,291.453644 
	C202.264191,292.946228 201.864838,294.438812 200.948959,296.410736 
	C200.716476,297.300812 200.483994,298.190918 199.734268,299.376129 
	C199.632629,299.933014 199.530991,300.489899 199.101379,301.679382 
	C198.625015,303.239777 198.148636,304.800171 197.112534,306.820618 
	C196.383942,308.877594 195.655350,310.934601 194.683090,313.443756 
	C194.705231,313.779602 194.727371,314.115417 194.191345,314.901947 
	C193.001801,318.285400 191.812256,321.668884 190.242218,325.705719 
	C188.866837,329.263824 187.426331,332.798462 186.133377,336.386261 
	C184.680557,340.417664 185.332458,343.193390 190.038269,344.814606 
	C205.277481,350.064697 220.389847,355.682465 235.560074,361.133575 
	C242.329056,363.565857 243.208282,363.121155 245.686188,356.287567 
	C251.857315,339.268707 257.926025,322.211151 264.323792,305.277924 
	C265.189850,302.985596 267.402618,300.076233 269.511353,299.555206 
	C288.545532,294.852325 302.774933,284.159363 312.282837,267.015106 
	C312.936310,265.836792 314.930603,264.601532 316.198914,264.700897 
	C322.247559,265.174530 321.847168,260.180298 323.355194,256.800323 
	C324.791168,253.581940 324.242889,251.140930 320.903473,249.274918 
	C319.879639,248.702820 318.938293,246.706818 319.087891,245.503159 
	C321.227203,228.292282 316.709595,212.934509 306.858734,198.855499 
	C305.746704,197.266190 305.096191,194.436859 305.706512,192.701080 
	C312.044006,174.675552 318.675964,156.753433 325.244995,138.809494 
	C327.221466,133.410660 326.526581,132.060196 320.949432,130.030914 
	C305.655457,124.466103 290.375946,118.861153 275.106171,113.230179 
	C270.073761,111.374405 268.405945,112.032600 266.483459,117.243088 
	C259.984741,134.856812 253.474106,152.466980 247.156555,170.145889 
	C246.090805,173.128296 244.523376,174.666519 241.463943,175.435974 
	C217.965546,181.345963 202.420547,195.849609 194.273773,219.895096 
	C194.101898,220.244827 193.930023,220.594574 193.354858,219.951904 
	C193.140991,219.665970 192.927109,219.380035 192.906754,218.163086 
	C192.931625,176.937973 192.960754,135.712860 192.958939,94.487755 
	C192.958893,93.355606 192.625793,92.223473 192.581177,90.432899 
	C191.030792,89.091232 189.480392,87.749565 187.021912,86.210968 
	C178.994217,86.220490 170.966537,86.230019 162.400574,85.625038 
	C161.870712,83.101707 161.340851,80.578369 160.885117,77.381958 
	C160.787338,76.943588 160.689560,76.505211 160.765976,75.378090 
	C160.300125,74.152130 159.834259,72.926163 159.283630,71.704491 
	C159.283630,71.704491 159.315811,71.783035 159.432709,71.183792 
	C159.321899,70.794212 159.211090,70.404625 159.355850,69.609055 
	C158.953354,68.985031 158.550842,68.361008 158.128662,67.144592 
	C157.979996,66.781662 157.831329,66.418732 157.758453,65.437607 
	C157.252472,64.808975 156.746506,64.180351 156.165771,62.883297 
	C155.278381,61.616455 154.390976,60.349609 153.572876,58.428970 
	C151.023819,56.002762 148.474762,53.576557 145.907700,51.054684 
	C145.907700,51.054684 145.821045,51.099056 145.455048,50.574432 
	C143.945618,49.884808 142.436188,49.195187 140.288727,48.166050 
	C139.338730,48.034492 138.388718,47.902939 136.944519,47.155621 
	C136.155945,46.938786 135.367813,46.534752 134.578735,46.532871 
	C119.934753,46.497887 105.290291,46.464325 90.647148,46.582157 
	C89.101830,46.594593 87.564148,47.556667 85.293724,48.008434 
	C84.223022,48.535191 83.152313,49.061943 81.473122,49.410053 
	C80.347054,50.293175 79.220993,51.176296 78.023285,52.009628 
	C78.023285,52.009628 78.051094,52.092319 77.427780,52.120880 
	C76.887756,52.690468 76.347725,53.260052 75.971848,53.975597 
	C75.971848,53.975597 75.832466,53.805836 75.177948,53.924576 
	C73.887962,55.637257 72.597984,57.349934 71.006615,59.366631 
	C71.006615,59.366631 70.889389,59.778362 70.236176,59.996414 
	C68.669693,63.690521 67.103218,67.384628 65.259682,71.704048 
	C65.240562,72.156136 65.221436,72.608223 64.732300,73.514793 
	C64.462982,75.351425 64.193657,77.188065 63.762665,79.882248 
	C63.619949,81.825699 63.477230,83.769150 63.278114,86.480644 
	C53.606270,86.480644 44.340118,86.480644 34.496658,86.384338 
	C33.976238,86.906944 33.455818,87.429550 32.990486,88.003784 
	C32.990486,88.003784 32.955292,87.937309 32.230255,88.096626 
	C31.582802,90.764320 30.377089,93.430702 30.370831,96.099899 
	C30.259909,143.395615 30.288361,190.691666 30.305227,237.987640 
	C30.307896,245.468903 32.610485,247.700668 40.231884,247.701935 
	C78.368431,247.708298 116.504982,247.707932 154.641525,247.691788 
	C157.125107,247.690735 159.608612,247.537979 162.791183,247.608566 
	C163.498535,247.547058 164.205872,247.485550 165.357239,247.659927 
	C165.984406,247.188843 166.611572,246.717773 167.155624,246.057831 
	C167.155624,246.057831 167.186737,246.261810 167.785522,246.177399 
z"/>
<path fill="#3B507F" opacity="1.000000" stroke="none" 
	d="
M35.073963,86.480644 
	C44.340118,86.480644 53.606270,86.480644 63.278114,86.480644 
	C63.477230,83.769150 63.619949,81.825699 64.154709,79.280525 
	C64.765266,76.805969 64.983795,74.933144 65.202316,73.060310 
	C65.221436,72.608223 65.240562,72.156136 65.706497,71.284233 
	C67.732002,67.169067 69.310692,63.473713 70.889389,59.778362 
	C70.889389,59.778362 71.006615,59.366631 71.483299,59.164169 
	C73.250809,57.243084 74.541641,55.524460 75.832474,53.805840 
	C75.832466,53.805836 75.971848,53.975597 76.221695,53.931816 
	C76.998062,53.289463 77.524574,52.690891 78.051094,52.092319 
	C78.051094,52.092319 78.023285,52.009628 78.390152,52.037411 
	C79.865219,51.239697 80.973419,50.414196 82.081612,49.588699 
	C83.152313,49.061943 84.223022,48.535191 85.922813,48.315308 
	C91.977631,48.421127 97.401939,48.113739 102.829391,48.041012 
	C114.364967,47.886444 125.902176,47.853931 137.438721,47.771385 
	C138.388718,47.902939 139.338730,48.034492 140.693329,48.643768 
	C142.672287,49.780674 144.246674,50.439865 145.821045,51.099056 
	C145.821045,51.099056 145.907700,51.054684 145.963013,51.436733 
	C148.513412,54.240108 151.008499,56.661438 153.503571,59.082764 
	C154.390976,60.349609 155.278381,61.616455 156.135651,63.554070 
	C156.631241,64.835159 157.156952,65.445480 157.682648,66.055801 
	C157.831329,66.418732 157.979996,66.781662 158.068573,67.813400 
	C158.008057,68.986923 158.007645,69.491638 157.684219,70.046295 
	C157.112045,70.556122 156.862885,71.015999 156.613724,71.475868 
	C157.514420,71.578255 158.415115,71.680641 159.315811,71.783035 
	C159.315811,71.783035 159.283630,71.704491 159.199158,72.065994 
	C159.607056,73.640610 160.099426,74.853722 160.591797,76.066833 
	C160.689560,76.505211 160.787338,76.943588 160.594147,78.005646 
	C160.212082,80.402184 159.773666,82.256958 160.164948,83.916039 
	C160.386688,84.856308 161.969208,85.475655 162.938843,86.239548 
	C170.966537,86.230019 178.994217,86.220490 187.534058,86.622452 
	C189.513474,88.386398 190.980728,89.738869 192.447998,91.091331 
	C192.625793,92.223473 192.958893,93.355606 192.958939,94.487755 
	C192.960754,135.712860 192.931625,176.937973 192.587784,218.805557 
	C192.412109,220.299026 192.555405,221.150040 192.755646,222.330505 
	C192.850159,223.103607 192.887711,223.547256 192.641235,224.155365 
	C191.224319,226.148102 190.091431,227.976379 188.958557,229.804657 
	C188.343338,230.242157 187.728104,230.679642 186.488876,231.144653 
	C184.558807,232.364059 183.252731,233.555954 181.946655,234.747864 
	C181.946655,234.747864 181.756790,235.074966 181.202087,235.086288 
	C179.111038,235.763275 177.574707,236.428955 176.029907,236.711060 
	C177.847107,234.218704 179.271622,231.245911 181.578979,230.174667 
	C186.975067,227.669418 189.947937,224.613480 189.122131,218.125824 
	C188.247559,211.254990 188.109421,204.263870 188.046066,197.321686 
	C187.901917,181.529221 188.000671,165.734543 188.000595,149.940765 
	C188.000534,139.000000 188.000443,139.000000 176.951721,139.000000 
	C167.037140,139.000000 167.039948,139.000793 164.467148,148.143707 
	C164.435623,148.255753 163.913055,148.229599 162.848114,148.368805 
	C162.848114,138.315170 162.848114,128.334717 162.848114,118.011963 
	C160.606735,118.448448 159.179459,118.726387 157.623810,118.550117 
	C157.590881,112.257263 157.686340,106.418610 157.850800,100.123596 
	C157.027817,98.781555 156.232071,97.257355 155.229446,97.106300 
	C140.920059,94.950470 139.402893,96.346390 140.082596,110.581238 
	C140.098358,110.911362 140.167770,111.238907 140.236023,111.704422 
	C140.259888,111.841179 140.034637,112.003517 139.643738,112.040077 
	C132.740601,113.996109 131.038712,112.776062 130.993179,106.153183 
	C130.981781,104.496727 131.058640,102.834633 130.947601,101.185051 
	C130.770279,98.550873 129.698624,96.942398 126.639671,96.957199 
	C110.405525,97.035805 94.170639,96.968727 77.936783,97.072800 
	C77.137703,97.077927 76.345879,98.214989 75.602890,99.297089 
	C75.403305,103.169952 75.151505,106.570694 74.634445,110.089188 
	C71.263657,114.487495 67.712128,112.932701 63.956783,110.566177 
	C63.790302,106.609711 63.797943,103.076530 63.823204,99.099655 
	C62.459736,98.102943 61.100594,97.150238 59.693378,97.072975 
	C55.709904,96.854256 51.706741,96.987831 47.711349,96.993927 
	C41.021187,97.004128 41.007233,97.007812 41.006401,103.605927 
	C41.001118,145.557678 41.000420,187.509430 41.003696,229.461182 
	C41.004250,236.521255 41.495869,236.991837 48.803627,236.992554 
	C82.098671,236.995819 115.393707,236.994614 148.688751,236.993774 
	C150.686401,236.993713 152.818665,237.408020 154.636047,236.832687 
	C155.923828,236.425034 156.785950,234.672867 157.790604,233.295807 
	C157.744675,232.044235 157.746231,231.017700 158.146088,230.053040 
	C161.393845,233.502838 160.801483,236.741364 157.208374,238.732895 
	C154.089050,240.461792 153.180618,242.850677 152.532623,245.982559 
	C115.115547,245.998077 78.167068,246.003159 41.218594,246.005356 
	C33.578671,246.005814 32.015755,244.421112 32.014454,236.602402 
	C32.007057,191.997879 31.978418,147.393295 32.047897,102.788879 
	C32.055611,97.837891 32.638924,92.887810 32.955292,87.937309 
	C32.955292,87.937309 32.990486,88.003784 33.259190,87.995819 
	C34.043251,87.485451 34.558609,86.983047 35.073963,86.480644 
M146.517654,68.619736 
	C146.006302,68.080360 145.494949,67.540985 144.543640,66.499916 
	C141.965302,63.707424 139.973755,60.035675 135.909164,60.018837 
	C138.129501,68.729111 140.305527,77.265625 142.579483,86.186241 
	C144.446991,86.186241 146.758453,86.186241 149.521652,86.595573 
	C149.498062,85.053680 149.474472,83.511780 149.188553,81.174454 
	C149.130508,79.781319 149.072479,78.388191 149.465225,76.697693 
	C149.076996,76.124062 148.688766,75.550430 147.955383,74.338715 
	C147.329926,72.550507 146.704453,70.762299 146.517654,68.619736 
M115.747383,58.823082 
	C113.054672,58.703590 110.353615,58.678940 107.671143,58.443039 
	C103.328247,58.061119 101.556808,60.005898 101.990997,64.823051 
	C101.186668,65.898041 100.382339,66.973030 98.865692,68.167160 
	C98.486023,69.412666 98.106354,70.658165 97.787125,72.566788 
	C97.462212,73.375092 97.137299,74.183388 96.241722,75.069534 
	C96.203598,75.727837 96.165466,76.386139 96.240845,77.837486 
	C96.090492,78.888588 95.940140,79.939690 95.099609,81.159904 
	C93.387863,83.155823 93.063019,84.885544 96.956207,86.076073 
	C107.635506,86.048958 118.314796,86.021851 129.706314,85.888908 
	C129.576614,84.256241 129.446899,82.623573 128.969391,80.383774 
	C128.974930,79.924492 128.980469,79.465218 129.414917,78.764008 
	C129.191299,78.168106 128.967682,77.572205 128.366669,76.287354 
	C127.889336,74.532684 127.411995,72.778008 127.448265,70.658554 
	C126.812592,69.772041 126.176926,68.885529 125.071800,67.675873 
	C124.333717,66.573051 123.595634,65.470230 122.902168,63.596870 
	C121.219933,62.418613 119.537704,61.240360 117.207603,60.005005 
	C116.812042,59.833424 116.416473,59.661842 115.747383,58.823082 
M83.883621,81.569298 
	C85.088524,74.719559 86.293419,67.869827 87.486328,61.088238 
	C79.795212,64.540176 74.154160,76.803810 76.236656,86.159218 
	C78.945244,85.202560 83.641937,88.812576 83.883621,81.569298 
M93.449677,67.655716 
	C97.141251,68.332024 98.085274,67.153542 96.465469,61.774567 
	C95.000435,64.093643 94.080147,65.550423 93.449677,67.655716 
M130.568039,64.727844 
	C129.461304,64.935600 128.354568,65.143349 127.247841,65.351105 
	C127.486481,65.920616 127.725121,66.490135 127.963753,67.059654 
	C128.851929,66.501503 129.740112,65.943352 130.568039,64.727844 
z"/>
<path fill="#465983" opacity="1.000000" stroke="none" 
	d="
M194.749512,314.451263 
	C194.727371,314.115417 194.705231,313.779602 195.177673,313.154602 
	C196.338913,310.697144 197.005600,308.528839 197.672272,306.360565 
	C198.148636,304.800171 198.625015,303.239777 199.516068,301.320526 
	C200.037674,300.334778 200.144608,299.707886 200.251526,299.080994 
	C200.483994,298.190918 200.716476,297.300812 201.443573,296.005249 
	C202.363464,294.088989 202.788727,292.578186 203.213989,291.067413 
	C203.287613,290.595459 203.361237,290.123505 203.886230,289.217712 
	C204.505539,288.082916 204.673492,287.381958 204.841446,286.680969 
	C205.351944,285.024780 205.862457,283.368622 206.822083,281.250977 
	C207.003647,279.513275 206.736099,278.237030 206.468536,276.960815 
	C205.654266,275.981323 204.839996,275.001831 203.959534,273.369690 
	C203.301727,272.139496 202.710114,271.561890 202.118500,270.984283 
	C201.665970,270.376221 201.213425,269.768158 200.808868,268.471375 
	C199.305283,264.846924 197.753693,261.911194 196.202118,258.975433 
	C196.073471,258.619873 195.944809,258.264313 195.871948,257.275879 
	C195.584595,256.085602 195.241455,255.528229 194.898300,254.970871 
	C194.687042,254.699783 194.587570,254.392502 194.751221,253.417267 
	C194.415161,251.508484 193.927795,250.231491 193.440430,248.954483 
	C193.303757,248.204651 193.167099,247.454819 193.357147,246.017639 
	C193.815552,238.283295 193.947250,231.236267 194.334610,223.892273 
	C194.708466,222.042847 194.826691,220.490402 194.944916,218.937958 
	C202.420547,195.849609 217.965546,181.345963 241.463943,175.435974 
	C244.523376,174.666519 246.090805,173.128296 247.156555,170.145889 
	C253.474106,152.466980 259.984741,134.856812 266.483459,117.243088 
	C268.405945,112.032600 270.073761,111.374405 275.106171,113.230179 
	C290.375946,118.861153 305.655457,124.466103 320.949432,130.030914 
	C326.526581,132.060196 327.221466,133.410660 325.244995,138.809494 
	C318.675964,156.753433 312.044006,174.675552 305.706512,192.701080 
	C305.096191,194.436859 305.746704,197.266190 306.858734,198.855499 
	C316.709595,212.934509 321.227203,228.292282 319.087891,245.503159 
	C318.938293,246.706818 319.879639,248.702820 320.903473,249.274918 
	C324.242889,251.140930 324.791168,253.581940 323.355194,256.800323 
	C321.847168,260.180298 322.247559,265.174530 316.198914,264.700897 
	C314.930603,264.601532 312.936310,265.836792 312.282837,267.015106 
	C302.774933,284.159363 288.545532,294.852325 269.511353,299.555206 
	C267.402618,300.076233 265.189850,302.985596 264.323792,305.277924 
	C257.926025,322.211151 251.857315,339.268707 245.686188,356.287567 
	C243.208282,363.121155 242.329056,363.565857 235.560074,361.133575 
	C220.389847,355.682465 205.277481,350.064697 190.038269,344.814606 
	C185.332458,343.193390 184.680557,340.417664 186.133377,336.386261 
	C187.426331,332.798462 188.866837,329.263824 190.730927,325.258606 
	C192.396271,321.358063 193.572891,317.904663 194.749512,314.451263 
M232.175323,351.421967 
	C234.024048,351.995453 235.872772,352.568939 238.125275,353.267700 
	C244.476181,335.773834 250.651489,318.763672 257.094086,301.017242 
	C240.078354,301.152130 226.272949,295.391144 213.946274,285.813812 
	C213.331268,286.634888 212.922318,286.984436 212.760864,287.424774 
	C206.990417,303.162933 201.293427,318.928284 195.443939,334.636871 
	C194.448792,337.309326 195.454712,338.079376 197.763153,338.896240 
	C209.026764,342.882019 220.233490,347.028625 232.175323,351.421967 
M312.732483,149.153427 
	C313.701782,146.504211 314.509827,143.781067 315.681915,141.224854 
	C317.089691,138.154633 316.140137,136.803818 313.037842,135.786209 
	C306.569336,133.664444 300.227386,131.157928 293.826660,128.828171 
	C287.174805,126.407005 280.514893,124.007881 273.520630,121.476860 
	C267.089172,139.133606 260.872467,156.200790 254.852493,172.727890 
	C262.959503,174.418549 270.669647,175.192902 277.743683,177.736496 
	C284.796600,180.272476 291.211761,184.582291 298.413513,188.381882 
	C303.055756,175.621689 307.739502,162.747452 312.732483,149.153427 
M204.240616,258.153107 
	C212.718231,278.728516 233.095901,292.902771 254.676880,293.050995 
	C289.320038,293.288879 315.062866,263.214844 311.167358,230.630081 
	C307.167053,197.169128 272.006134,173.814713 239.847900,183.993164 
	C208.347473,193.963425 192.479416,226.446503 204.240616,258.153107 
z"/>
<path fill="#5B6C8C" opacity="1.000000" stroke="none" 
	d="
M32.592773,88.016968 
	C32.638924,92.887810 32.055611,97.837891 32.047897,102.788879 
	C31.978418,147.393295 32.007057,191.997879 32.014454,236.602402 
	C32.015755,244.421112 33.578671,246.005814 41.218594,246.005356 
	C78.167068,246.003159 115.115547,245.998077 152.981461,245.994034 
	C156.581573,246.005539 159.264267,246.017044 161.992157,246.384460 
	C162.055649,246.978851 162.073914,247.217331 162.092163,247.455780 
	C159.608612,247.537979 157.125107,247.690735 154.641525,247.691788 
	C116.504982,247.707932 78.368431,247.708298 40.231884,247.701935 
	C32.610485,247.700668 30.307896,245.468903 30.305227,237.987640 
	C30.288361,190.691666 30.259909,143.395615 30.370831,96.099899 
	C30.377089,93.430702 31.582802,90.764320 32.592773,88.016968 
z"/>
<path fill="#5B6C8C" opacity="1.000000" stroke="none" 
	d="
M137.191620,47.463501 
	C125.902176,47.853931 114.364967,47.886444 102.829391,48.041012 
	C97.401939,48.113739 91.977631,48.421127 86.287415,48.350174 
	C87.564148,47.556667 89.101830,46.594593 90.647148,46.582157 
	C105.290291,46.464325 119.934753,46.497887 134.578735,46.532871 
	C135.367813,46.534752 136.155945,46.938786 137.191620,47.463501 
z"/>
<path fill="#3B507F" opacity="1.000000" stroke="none" 
	d="
M162.441681,247.532181 
	C162.073914,247.217331 162.055649,246.978851 162.361115,246.309555 
	C163.510162,242.053497 164.335449,238.228241 165.102997,234.670609 
	C167.395630,236.109482 169.759171,237.592865 172.073410,239.408875 
	C171.325150,241.101929 170.626205,242.462326 169.927261,243.822723 
	C169.595612,244.222488 169.263977,244.622269 168.384705,245.162262 
	C167.620270,245.622253 167.403503,245.942032 167.186737,246.261810 
	C167.186737,246.261810 167.155624,246.057831 166.831482,246.095001 
	C165.975967,246.562775 165.444595,246.993393 164.913223,247.424042 
	C164.205872,247.485550 163.498535,247.547058 162.441681,247.532181 
z"/>
<path fill="#5B6C8C" opacity="1.000000" stroke="none" 
	d="
M194.078964,224.189255 
	C193.947250,231.236267 193.815552,238.283295 193.413910,245.638245 
	C192.822571,241.225021 192.429169,236.507080 192.216736,231.781006 
	C192.136566,229.997192 192.553436,228.103378 189.365570,229.757080 
	C190.091431,227.976379 191.224319,226.148102 192.931442,224.196304 
	C193.696777,224.111618 193.887878,224.150436 194.078964,224.189255 
z"/>
<path fill="#5B6C8C" opacity="1.000000" stroke="none" 
	d="
M170.266006,243.784210 
	C170.626205,242.462326 171.325150,241.101929 172.392426,239.371277 
	C173.853302,238.365555 174.945831,237.730087 176.038361,237.094620 
	C177.574707,236.428955 179.111038,235.763275 181.023956,235.149826 
	C177.801941,238.049927 174.203339,240.897812 170.266006,243.784210 
z"/>
<path fill="#5B6C8C" opacity="1.000000" stroke="none" 
	d="
M153.538223,58.755867 
	C151.008499,56.661438 148.513412,54.240108 145.972015,51.484566 
	C148.474762,53.576557 151.023819,56.002762 153.538223,58.755867 
z"/>
<path fill="#5B6C8C" opacity="1.000000" stroke="none" 
	d="
M70.562782,59.887390 
	C69.310692,63.473713 67.732002,67.169067 65.845024,70.971573 
	C67.103218,67.384628 68.669693,63.690521 70.562782,59.887390 
z"/>
<path fill="#5B6C8C" opacity="1.000000" stroke="none" 
	d="
M162.669708,85.932289 
	C161.969208,85.475655 160.386688,84.856308 160.164948,83.916039 
	C159.773666,82.256958 160.212082,80.402184 160.557083,78.342186 
	C161.340851,80.578369 161.870712,83.101707 162.669708,85.932289 
z"/>
<path fill="#5B6C8C" opacity="1.000000" stroke="none" 
	d="
M194.470428,314.676605 
	C193.572891,317.904663 192.396271,321.358063 190.921173,324.931915 
	C191.812256,321.668884 193.001801,318.285400 194.470428,314.676605 
z"/>
<path fill="#5B6C8C" opacity="1.000000" stroke="none" 
	d="
M196.181488,259.341553 
	C197.753693,261.911194 199.305283,264.846924 200.791992,268.184692 
	C199.205048,265.626984 197.682953,262.667328 196.181488,259.341553 
z"/>
<path fill="#5B6C8C" opacity="1.000000" stroke="none" 
	d="
M192.514587,90.762115 
	C190.980728,89.738869 189.513474,88.386398 187.988098,86.720917 
	C189.480392,87.749565 191.030792,89.091232 192.514587,90.762115 
z"/>
<path fill="#5B6C8C" opacity="1.000000" stroke="none" 
	d="
M64.967308,73.287552 
	C64.983795,74.933144 64.765266,76.805969 64.235542,78.851746 
	C64.193657,77.188065 64.462982,75.351425 64.967308,73.287552 
z"/>
<path fill="#5B6C8C" opacity="1.000000" stroke="none" 
	d="
M75.505211,53.865208 
	C74.541641,55.524460 73.250809,57.243084 71.633995,59.012161 
	C72.597984,57.349934 73.887962,55.637257 75.505211,53.865208 
z"/>
<path fill="#5B6C8C" opacity="1.000000" stroke="none" 
	d="
M197.392410,306.590576 
	C197.005600,308.528839 196.338913,310.697144 195.299500,312.928497 
	C195.655350,310.934601 196.383942,308.877594 197.392410,306.590576 
z"/>
<path fill="#5B6C8C" opacity="1.000000" stroke="none" 
	d="
M182.272797,234.737885 
	C183.252731,233.555954 184.558807,232.364059 186.232605,231.268433 
	C185.266556,232.485748 183.932755,233.606812 182.272797,234.737885 
z"/>
<path fill="#5B6C8C" opacity="1.000000" stroke="none" 
	d="
M145.638046,50.836746 
	C144.246674,50.439865 142.672287,49.780674 141.012329,48.813526 
	C142.436188,49.195187 143.945618,49.884808 145.638046,50.836746 
z"/>
<path fill="#5B6C8C" opacity="1.000000" stroke="none" 
	d="
M202.938782,291.260529 
	C202.788727,292.578186 202.363464,294.088989 201.701843,295.765564 
	C201.864838,294.438812 202.264191,292.946228 202.938782,291.260529 
z"/>
<path fill="#5B6C8C" opacity="1.000000" stroke="none" 
	d="
M206.458038,277.373474 
	C206.736099,278.237030 207.003647,279.513275 207.003464,280.921204 
	C206.639664,279.963989 206.543594,278.875061 206.458038,277.373474 
z"/>
<path fill="#5B6C8C" opacity="1.000000" stroke="none" 
	d="
M193.359436,249.306366 
	C193.927795,250.231491 194.415161,251.508484 194.817322,253.180023 
	C194.247543,252.269135 193.762985,250.963684 193.359436,249.306366 
z"/>
<path fill="#5B6C8C" opacity="1.000000" stroke="none" 
	d="
M160.678894,75.722458 
	C160.099426,74.853722 159.607056,73.640610 159.241547,72.063858 
	C159.834259,72.926163 160.300125,74.152130 160.678894,75.722458 
z"/>
<path fill="#5B6C8C" opacity="1.000000" stroke="none" 
	d="
M81.777367,49.499374 
	C80.973419,50.414196 79.865219,51.239697 78.425980,52.062302 
	C79.220993,51.176296 80.347054,50.293175 81.777367,49.499374 
z"/>
<path fill="#76829C" opacity="1.000000" stroke="none" 
	d="
M194.334610,223.892273 
	C193.887878,224.150436 193.696777,224.111618 193.215485,224.031860 
	C192.887711,223.547256 192.850159,223.103607 192.929077,222.260406 
	C193.283096,221.555359 193.520630,221.249847 193.758148,220.944321 
	C193.930023,220.594574 194.101898,220.244827 194.609344,219.416534 
	C194.826691,220.490402 194.708466,222.042847 194.334610,223.892273 
z"/>
<path fill="#5B6C8C" opacity="1.000000" stroke="none" 
	d="
M193.556519,220.448120 
	C193.520630,221.249847 193.283096,221.555359 192.872131,221.930954 
	C192.555405,221.150040 192.412109,220.299026 192.491028,219.271057 
	C192.927109,219.380035 193.140991,219.665970 193.556519,220.448120 
z"/>
<path fill="#415684" opacity="1.000000" stroke="none" 
	d="
M159.374268,71.483414 
	C158.415115,71.680641 157.514420,71.578255 156.613724,71.475868 
	C156.862885,71.015999 157.112045,70.556122 157.957413,70.052155 
	C158.735825,70.010384 158.918045,70.012711 159.100266,70.015045 
	C159.211090,70.404625 159.321899,70.794212 159.374268,71.483414 
z"/>
<path fill="#5B6C8C" opacity="1.000000" stroke="none" 
	d="
M159.228058,69.812050 
	C158.918045,70.012711 158.735825,70.010384 158.280426,70.002213 
	C158.007645,69.491638 158.008057,68.986923 158.078400,68.109604 
	C158.550842,68.361008 158.953354,68.985031 159.228058,69.812050 
z"/>
<path fill="#5B6C8C" opacity="1.000000" stroke="none" 
	d="
M77.739441,52.106598 
	C77.524574,52.690891 76.998062,53.289463 76.139618,53.858841 
	C76.347725,53.260052 76.887756,52.690468 77.739441,52.106598 
z"/>
<path fill="#5B6C8C" opacity="1.000000" stroke="none" 
	d="
M199.992889,299.228577 
	C200.144608,299.707886 200.037674,300.334778 199.680054,301.004211 
	C199.530991,300.489899 199.632629,299.933014 199.992889,299.228577 
z"/>
<path fill="#5B6C8C" opacity="1.000000" stroke="none" 
	d="
M204.591370,286.831635 
	C204.673492,287.381958 204.505539,288.082916 204.086426,288.916199 
	C204.003952,288.359772 204.172638,287.671021 204.591370,286.831635 
z"/>
<path fill="#5B6C8C" opacity="1.000000" stroke="none" 
	d="
M157.720551,65.746704 
	C157.156952,65.445480 156.631241,64.835159 156.173035,63.888279 
	C156.746506,64.180351 157.252472,64.808975 157.720551,65.746704 
z"/>
<path fill="#5B6C8C" opacity="1.000000" stroke="none" 
	d="
M34.785309,86.432495 
	C34.558609,86.983047 34.043251,87.485451 33.231644,87.970009 
	C33.455818,87.429550 33.976238,86.906944 34.785309,86.432495 
z"/>
<path fill="#5B6C8C" opacity="1.000000" stroke="none" 
	d="
M202.131500,271.296692 
	C202.710114,271.561890 203.301727,272.139496 203.851364,273.067932 
	C203.254425,272.815521 202.699463,272.212311 202.131500,271.296692 
z"/>
<path fill="#5B6C8C" opacity="1.000000" stroke="none" 
	d="
M194.779938,255.180084 
	C195.241455,255.528229 195.584595,256.085602 195.882523,256.990112 
	C195.445404,256.687897 195.053482,256.038605 194.779938,255.180084 
z"/>
<path fill="#5B6C8C" opacity="1.000000" stroke="none" 
	d="
M165.135223,247.541977 
	C165.444595,246.993393 165.975967,246.562775 166.873047,246.189423 
	C166.611572,246.717773 165.984406,247.188843 165.135223,247.541977 
z"/>
<path fill="#5B6C8C" opacity="1.000000" stroke="none" 
	d="
M167.486130,246.219604 
	C167.403503,245.942032 167.620270,245.622253 168.134064,245.254913 
	C168.215897,245.530701 168.000702,245.854050 167.486130,246.219604 
z"/>
<path fill="#FCFDFD" opacity="1.000000" stroke="none" 
	d="
M157.781799,100.579964 
	C157.686340,106.418610 157.590881,112.257263 157.503845,119.005783 
	C157.494919,151.303726 157.463882,182.691772 157.473511,214.079834 
	C157.475143,219.383652 157.651932,224.687393 157.747787,229.991180 
	C157.746231,231.017700 157.744675,232.044235 157.419220,233.504211 
	C155.361847,234.316452 153.628983,235.022491 151.894821,235.025711 
	C117.410896,235.089798 82.926361,234.986893 48.443344,235.175491 
	C43.899864,235.200348 42.924446,233.759354 42.940483,229.474640 
	C43.096375,187.827805 43.039326,146.180176 43.046757,104.532784 
	C43.046967,103.367241 42.843571,102.122902 43.184814,101.059631 
	C43.489986,100.108734 44.435410,98.617439 45.067444,98.632835 
	C51.317177,98.785080 57.560467,99.201645 63.805584,99.543343 
	C63.797943,103.076530 63.790302,106.609711 63.991322,110.911209 
	C66.445358,112.627235 68.713249,114.316536 70.927826,114.249329 
	C72.293800,114.207878 73.578506,111.488518 74.899704,109.971436 
	C75.151505,106.570694 75.403305,103.169952 76.085693,99.147194 
	C90.444275,98.474159 104.372238,98.398140 118.300270,98.380623 
	C128.116409,98.368271 128.116516,98.403740 129.076996,108.264626 
	C129.093094,108.429741 129.037613,108.641891 129.120712,108.754440 
	C130.500641,110.623512 131.599182,113.554367 133.371811,114.046509 
	C135.258255,114.570267 137.786575,112.782181 140.034637,112.003510 
	C140.034637,112.003517 140.259888,111.841179 140.547058,111.440628 
	C141.102219,107.970390 141.265930,104.886124 141.692078,101.838562 
	C141.851746,100.696831 142.712418,98.658539 143.100296,98.694229 
	C148.010406,99.145905 152.892532,99.901711 157.781799,100.579964 
z"/>
<path fill="#384E80" opacity="1.000000" stroke="none" 
	d="
M158.146088,230.053040 
	C157.651932,224.687393 157.475143,219.383652 157.473511,214.079834 
	C157.463882,182.691772 157.494919,151.303726 157.632233,119.459991 
	C159.179459,118.726387 160.606735,118.448448 162.848114,118.011963 
	C162.848114,128.334717 162.848114,138.315170 162.848114,148.368805 
	C163.913055,148.229599 164.435623,148.255753 164.467148,148.143707 
	C167.039948,139.000793 167.037140,139.000000 176.951721,139.000000 
	C188.000443,139.000000 188.000534,139.000000 188.000595,149.940765 
	C188.000671,165.734543 187.901917,181.529221 188.046066,197.321686 
	C188.109421,204.263870 188.247559,211.254990 189.122131,218.125824 
	C189.947937,224.613480 186.975067,227.669418 181.578979,230.174667 
	C179.271622,231.245911 177.847107,234.218704 176.029907,236.711029 
	C174.945831,237.730087 173.853302,238.365555 172.441742,239.038635 
	C169.759171,237.592865 167.395630,236.109482 165.102997,234.670609 
	C164.335449,238.228241 163.510162,242.053497 162.315918,245.953644 
	C159.264267,246.017044 156.581573,246.005539 153.450073,245.982559 
	C153.180618,242.850677 154.089050,240.461792 157.208374,238.732895 
	C160.801483,236.741364 161.393845,233.502838 158.146088,230.053040 
M165.999420,184.402573 
	C165.608749,179.799973 165.218094,175.197372 164.827423,170.594772 
	C164.419708,170.630402 164.011978,170.666046 163.604263,170.701691 
	C163.604263,178.915771 163.604263,187.129852 163.604263,195.343933 
	C163.957535,195.370880 164.310822,195.397827 164.664093,195.424774 
	C165.109207,192.061508 165.554306,188.698257 165.999420,184.402573 
M165.852280,226.011703 
	C165.383621,223.188705 164.914963,220.365707 164.446304,217.542709 
	C164.131073,217.610657 163.815842,217.678619 163.500610,217.746567 
	C163.500610,221.309311 163.500610,224.872055 163.500610,229.622803 
	C164.687378,227.983505 165.134003,227.366608 165.852280,226.011703 
z"/>
<path fill="#F7F9FA" opacity="1.000000" stroke="none" 
	d="
M128.994095,85.994736 
	C118.314796,86.021851 107.635506,86.048958 96.464264,85.613693 
	C95.911484,83.764473 95.850632,82.377632 95.789787,80.990791 
	C95.940140,79.939690 96.090492,78.888588 96.391251,77.238976 
	C96.631889,76.090874 96.722137,75.541283 96.812378,74.991692 
	C97.137299,74.183388 97.462212,73.375092 98.057022,72.027649 
	C98.743950,70.341675 99.160980,69.194847 99.578011,68.048019 
	C100.382339,66.973030 101.186668,65.898041 102.377213,64.399269 
	C106.242538,59.701805 111.051315,59.358364 116.020912,59.490257 
	C116.416473,59.661842 116.812042,59.833424 117.673065,60.335464 
	C119.711533,61.899754 121.284538,63.133583 122.857544,64.367416 
	C123.595634,65.470230 124.333717,66.573051 125.310028,68.187119 
	C126.010391,69.473358 126.472519,70.248344 126.934662,71.023338 
	C127.411995,72.778008 127.889336,74.532684 128.431580,76.883667 
	C128.659668,77.988625 128.822830,78.497284 128.986008,79.005936 
	C128.980469,79.465218 128.974930,79.924492 129.032654,81.092056 
	C129.061966,83.198479 129.028030,84.596603 128.994095,85.994736 
z"/>
<path fill="#485B87" opacity="1.000000" stroke="none" 
	d="
M63.823204,99.099655 
	C57.560467,99.201645 51.317177,98.785080 45.067444,98.632835 
	C44.435410,98.617439 43.489986,100.108734 43.184814,101.059631 
	C42.843571,102.122902 43.046967,103.367241 43.046757,104.532784 
	C43.039326,146.180176 43.096375,187.827805 42.940483,229.474640 
	C42.924446,233.759354 43.899864,235.200348 48.443344,235.175491 
	C82.926361,234.986893 117.410896,235.089798 151.894821,235.025711 
	C153.628983,235.022491 155.361847,234.316452 157.466705,233.729248 
	C156.785950,234.672867 155.923828,236.425034 154.636047,236.832687 
	C152.818665,237.408020 150.686401,236.993713 148.688751,236.993774 
	C115.393707,236.994614 82.098671,236.995819 48.803627,236.992554 
	C41.495869,236.991837 41.004250,236.521255 41.003696,229.461182 
	C41.000420,187.509430 41.001118,145.557678 41.006401,103.605927 
	C41.007233,97.007812 41.021187,97.004128 47.711349,96.993927 
	C51.706741,96.987831 55.709904,96.854256 59.693378,97.072975 
	C61.100594,97.150238 62.459736,98.102943 63.823204,99.099655 
z"/>
<path fill="#E6EDF3" opacity="1.000000" stroke="none" 
	d="
M149.069931,86.186241 
	C146.758453,86.186241 144.446991,86.186241 142.579483,86.186241 
	C140.305527,77.265625 138.129501,68.729111 135.909164,60.018837 
	C139.973755,60.035675 141.965302,63.707424 144.769714,67.050903 
	C145.356857,68.059288 145.717926,68.516685 146.078979,68.974091 
	C146.704453,70.762299 147.329926,72.550507 148.064911,74.943146 
	C148.454453,76.030067 148.734451,76.512558 149.014450,76.995056 
	C149.072479,78.388191 149.130508,79.781319 149.232666,81.987633 
	C149.207825,83.929291 149.138870,85.057762 149.069931,86.186241 
z"/>
<path fill="#EDF3F9" opacity="1.000000" stroke="none" 
	d="
M83.870262,82.003815 
	C83.641937,88.812576 78.945244,85.202560 76.236656,86.159218 
	C74.154160,76.803810 79.795212,64.540176 87.486328,61.088238 
	C86.293419,67.869827 85.088524,74.719559 83.870262,82.003815 
z"/>
<path fill="#485B87" opacity="1.000000" stroke="none" 
	d="
M139.643738,112.040070 
	C137.786575,112.782181 135.258255,114.570267 133.371811,114.046509 
	C131.599182,113.554367 130.500641,110.623512 129.120712,108.754440 
	C129.037613,108.641891 129.093094,108.429741 129.076996,108.264626 
	C128.116516,98.403740 128.116409,98.368271 118.300270,98.380623 
	C104.372238,98.398140 90.444275,98.474159 76.033478,98.675064 
	C76.345879,98.214989 77.137703,97.077927 77.936783,97.072800 
	C94.170639,96.968727 110.405525,97.035805 126.639671,96.957199 
	C129.698624,96.942398 130.770279,98.550873 130.947601,101.185051 
	C131.058640,102.834633 130.981781,104.496727 130.993179,106.153183 
	C131.038712,112.776062 132.740601,113.996109 139.643738,112.040070 
z"/>
<path fill="#485B87" opacity="1.000000" stroke="none" 
	d="
M157.850784,100.123596 
	C152.892532,99.901711 148.010406,99.145905 143.100296,98.694229 
	C142.712418,98.658539 141.851746,100.696831 141.692078,101.838562 
	C141.265930,104.886124 141.102219,107.970390 140.523193,111.303864 
	C140.167770,111.238907 140.098358,110.911362 140.082596,110.581238 
	C139.402893,96.346390 140.920059,94.950470 155.229446,97.106300 
	C156.232071,97.257355 157.027817,98.781555 157.850784,100.123596 
z"/>
<path fill="#445885" opacity="1.000000" stroke="none" 
	d="
M115.884148,59.156670 
	C111.051315,59.358364 106.242538,59.701805 102.432159,64.110168 
	C101.556808,60.005898 103.328247,58.061119 107.671143,58.443039 
	C110.353615,58.678940 113.054672,58.703590 115.884148,59.156670 
z"/>
<path fill="#485B87" opacity="1.000000" stroke="none" 
	d="
M74.634445,110.089188 
	C73.578506,111.488518 72.293800,114.207878 70.927826,114.249329 
	C68.713249,114.316536 66.445358,112.627235 64.165443,111.334488 
	C67.712128,112.932701 71.263657,114.487495 74.634445,110.089188 
z"/>
<path fill="#445885" opacity="1.000000" stroke="none" 
	d="
M93.304764,67.331459 
	C94.080147,65.550423 95.000435,64.093643 96.465469,61.774567 
	C98.085274,67.153542 97.141251,68.332024 93.304764,67.331459 
z"/>
<path fill="#445885" opacity="1.000000" stroke="none" 
	d="
M122.879852,63.982143 
	C121.284538,63.133583 119.711533,61.899754 117.996994,60.364014 
	C119.537704,61.240360 121.219933,62.418613 122.879852,63.982143 
z"/>
<path fill="#445885" opacity="1.000000" stroke="none" 
	d="
M130.598175,65.056519 
	C129.740112,65.943352 128.851929,66.501503 127.963753,67.059654 
	C127.725121,66.490135 127.486481,65.920616 127.247841,65.351105 
	C128.354568,65.143349 129.461304,64.935600 130.598175,65.056519 
z"/>
<path fill="#485B87" opacity="1.000000" stroke="none" 
	d="
M149.295792,86.390907 
	C149.138870,85.057762 149.207825,83.929291 149.363831,82.385345 
	C149.474472,83.511780 149.498062,85.053680 149.295792,86.390907 
z"/>
<path fill="#445885" opacity="1.000000" stroke="none" 
	d="
M129.350204,85.941818 
	C129.028030,84.596603 129.061966,83.198479 129.206543,81.395630 
	C129.446899,82.623573 129.576614,84.256241 129.350204,85.941818 
z"/>
<path fill="#445885" opacity="1.000000" stroke="none" 
	d="
M95.444702,81.075348 
	C95.850632,82.377632 95.911484,83.764473 95.998962,85.567795 
	C93.063019,84.885544 93.387863,83.155823 95.444702,81.075348 
z"/>
<path fill="#445885" opacity="1.000000" stroke="none" 
	d="
M99.221848,68.107590 
	C99.160980,69.194847 98.743950,70.341675 98.026794,71.696091 
	C98.106354,70.658165 98.486023,69.412666 99.221848,68.107590 
z"/>
<path fill="#445885" opacity="1.000000" stroke="none" 
	d="
M127.191460,70.840942 
	C126.472519,70.248344 126.010391,69.473358 125.544754,68.348686 
	C126.176926,68.885529 126.812592,69.772041 127.191460,70.840942 
z"/>
<path fill="#485B87" opacity="1.000000" stroke="none" 
	d="
M146.298325,68.796906 
	C145.717926,68.516685 145.356857,68.059288 144.989685,67.301743 
	C145.494949,67.540985 146.006302,68.080360 146.298325,68.796906 
z"/>
<path fill="#445885" opacity="1.000000" stroke="none" 
	d="
M129.200470,78.884972 
	C128.822830,78.497284 128.659668,77.988625 128.620270,77.228134 
	C128.967682,77.572205 129.191299,78.168106 129.200470,78.884972 
z"/>
<path fill="#485B87" opacity="1.000000" stroke="none" 
	d="
M149.239838,76.846375 
	C148.734451,76.512558 148.454453,76.030067 148.237488,75.262192 
	C148.688766,75.550430 149.076996,76.124062 149.239838,76.846375 
z"/>
<path fill="#445885" opacity="1.000000" stroke="none" 
	d="
M96.527054,75.030609 
	C96.722137,75.541283 96.631889,76.090874 96.334488,76.842453 
	C96.165466,76.386139 96.203598,75.727837 96.527054,75.030609 
z"/>
<path fill="#F9FAFB" opacity="1.000000" stroke="none" 
	d="
M231.817825,351.270142 
	C220.233490,347.028625 209.026764,342.882019 197.763153,338.896240 
	C195.454712,338.079376 194.448792,337.309326 195.443939,334.636871 
	C201.293427,318.928284 206.990417,303.162933 212.760864,287.424774 
	C212.922318,286.984436 213.331268,286.634888 213.946274,285.813812 
	C226.272949,295.391144 240.078354,301.152130 257.094086,301.017242 
	C250.651489,318.763672 244.476181,335.773834 238.125275,353.267700 
	C235.872772,352.568939 234.024048,351.995453 231.817825,351.270142 
z"/>
<path fill="#F9FAFB" opacity="1.000000" stroke="none" 
	d="
M312.577881,149.513336 
	C307.739502,162.747452 303.055756,175.621689 298.413513,188.381882 
	C291.211761,184.582291 284.796600,180.272476 277.743683,177.736496 
	C270.669647,175.192902 262.959503,174.418549 254.852493,172.727890 
	C260.872467,156.200790 267.089172,139.133606 273.520630,121.476860 
	C280.514893,124.007881 287.174805,126.407005 293.826660,128.828171 
	C300.227386,131.157928 306.569336,133.664444 313.037842,135.786209 
	C316.140137,136.803818 317.089691,138.154633 315.681915,141.224854 
	C314.509827,143.781067 313.701782,146.504211 312.577881,149.513336 
z"/>
<path fill="#E8EDF3" opacity="1.000000" stroke="none" 
	d="
M204.108948,257.788025 
	C192.479416,226.446503 208.347473,193.963425 239.847900,183.993164 
	C272.006134,173.814713 307.167053,197.169128 311.167358,230.630081 
	C315.062866,263.214844 289.320038,293.288879 254.676880,293.050995 
	C233.095901,292.902771 212.718231,278.728516 204.108948,257.788025 
M208.236923,225.041855 
	C208.072296,231.971329 207.016205,239.016846 207.900421,245.809799 
	C211.361694,272.401276 240.464127,291.696899 266.328705,285.040405 
	C294.384094,277.820129 309.310577,253.801422 303.333984,225.494156 
	C299.582245,207.724686 282.396790,191.638046 264.395203,189.045135 
	C238.499893,185.315231 216.776001,198.991394 208.236923,225.041855 
z"/>
<path fill="#3B507F" opacity="1.000000" stroke="none" 
	d="
M165.999420,184.868790 
	C165.554306,188.698257 165.109207,192.061508 164.664093,195.424774 
	C164.310822,195.397827 163.957535,195.370880 163.604263,195.343933 
	C163.604263,187.129852 163.604263,178.915771 163.604263,170.701691 
	C164.011978,170.666046 164.419708,170.630402 164.827423,170.594772 
	C165.218094,175.197372 165.608749,179.799973 165.999420,184.868790 
z"/>
<path fill="#3B507F" opacity="1.000000" stroke="none" 
	d="
M165.716446,226.380707 
	C165.134003,227.366608 164.687378,227.983505 163.500610,229.622803 
	C163.500610,224.872055 163.500610,221.309311 163.500610,217.746567 
	C163.815842,217.678619 164.131073,217.610657 164.446304,217.542709 
	C164.914963,220.365707 165.383621,223.188705 165.716446,226.380707 
z"/>
<path fill="#485983" opacity="1.000000" stroke="none" 
	d="
M208.356674,224.645203 
	C216.776001,198.991394 238.499893,185.315231 264.395203,189.045135 
	C282.396790,191.638046 299.582245,207.724686 303.333984,225.494156 
	C309.310577,253.801422 294.384094,277.820129 266.328705,285.040405 
	C240.464127,291.696899 211.361694,272.401276 207.900421,245.809799 
	C207.016205,239.016846 208.072296,231.971329 208.356674,224.645203 
M215.102509,242.072769 
	C217.883835,264.162537 238.566727,280.714142 260.140625,278.114716 
	C282.245636,275.451355 298.873474,255.744431 296.818146,234.645447 
	C294.543762,211.298264 274.849915,194.390503 252.265564,196.395782 
	C229.569473,198.411011 213.135559,218.173691 215.102509,242.072769 
z"/>
<path fill="#F6F8FA" opacity="1.000000" stroke="none" 
	d="
M215.070328,241.618271 
	C213.135559,218.173691 229.569473,198.411011 252.265564,196.395782 
	C274.849915,194.390503 294.543762,211.298264 296.818146,234.645447 
	C298.873474,255.744431 282.245636,275.451355 260.140625,278.114716 
	C238.566727,280.714142 217.883835,264.162537 215.070328,241.618271 
M243.757523,217.789032 
	C241.931732,217.309418 240.105927,216.829803 238.280136,216.350174 
	C238.424973,218.317902 237.952255,220.631683 238.826050,222.190903 
	C241.913513,227.700195 245.812729,232.767914 248.731247,238.354599 
	C251.348160,243.363907 255.195999,244.157913 259.976959,243.154282 
	C266.463837,241.792542 272.972504,240.458801 279.338409,238.644897 
	C281.142792,238.130783 283.890839,235.842148 283.766022,234.615662 
	C283.417725,231.193329 280.462341,232.051575 277.883789,232.358536 
	C271.380096,233.132767 265.116241,236.445755 258.274872,234.192368 
	C257.421844,233.911392 256.130890,234.959885 254.906158,235.446686 
	C251.265533,229.610901 247.744156,223.966263 243.757523,217.789032 
z"/>
<path fill="#4D5D84" opacity="1.000000" stroke="none" 
	d="
M243.990143,218.055328 
	C247.744156,223.966263 251.265533,229.610901 254.906158,235.446686 
	C256.130890,234.959885 257.421844,233.911392 258.274872,234.192368 
	C265.116241,236.445755 271.380096,233.132767 277.883789,232.358536 
	C280.462341,232.051575 283.417725,231.193329 283.766022,234.615662 
	C283.890839,235.842148 281.142792,238.130783 279.338409,238.644897 
	C272.972504,240.458801 266.463837,241.792542 259.976959,243.154282 
	C255.195999,244.157913 251.348160,243.363907 248.731247,238.354599 
	C245.812729,232.767914 241.913513,227.700195 238.826050,222.190903 
	C237.952255,220.631683 238.424973,218.317902 238.280136,216.350174 
	C240.105927,216.829803 241.931732,217.309418 243.990143,218.055328 
z"/>
</svg>