<?xml version="1.0" encoding="utf-8" ?><svg xmlns="http://www.w3.org/2000/svg" xmlns:xlink="http://www.w3.org/1999/xlink" width="358" height="364" viewBox="0 0 358 364"><path fill="white" d="M0 0L358 0L358 364L0 364L0 0Z"/><path fill="#3E8668" d="M151.942 23.3706C152.79 22.9857 153.538 22.7553 154.478 22.7394C168.126 22.5079 181.791 22.7486 195.444 22.667C198.276 22.6501 204.674 22.343 206.992 23.7103C208.16 24.2874 209.015 25.475 209.864 26.4848C215.978 27.1779 220.953 25.41 225.942 30.5005C227.808 32.4031 229.086 34.8033 229.623 37.4135C230.314 40.8264 230.069 51.0164 230.073 55.0818L230.043 88.5085C243.467 88.7585 254.78 87.801 265.846 96.8965C273.223 102.96 278.503 111.79 279.283 121.36C279.633 125.649 279.567 129.839 279.564 134.135L279.55 152.997L279.554 214.784L279.563 267.742L279.564 283.496C279.561 287.377 279.648 291.948 279.143 295.738C278.264 302.106 275.651 308.11 271.589 313.092C266.412 319.387 257.189 325.541 249.052 326.353C248.651 327.776 248.137 329.164 247.515 330.505C244.588 336.82 238.697 342.089 231.172 338.709C226.646 336.676 224.06 331.631 222.53 327.082C218.223 326.923 213.036 327.058 208.667 327.061L182.752 327.063C167.057 327.064 149.584 326.713 133.998 327.257C133.282 335.679 122.908 343.456 115.166 337.752C111.476 335.034 108.743 330.804 107.904 326.32C89.0444 321.599 77.7112 306.371 78.6053 287.506C78.7399 284.665 78.5975 281.485 78.5934 278.612L78.5828 246.517L78.5433 135.125C78.5119 124.569 77.9072 116.952 83.4755 107.429C85.2741 104.353 86.7369 101.995 89.3665 99.4978C101.5 87.9729 112.477 88.6339 127.829 88.6817C127.776 74.0081 127.846 59.284 127.854 44.603C127.857 39.1979 128.45 34.2352 132.511 30.2325C136.656 26.147 142.581 26.4884 148.143 26.6615C149.069 25.2246 150.388 24.0828 151.942 23.3706Z"/><path fill="white" d="M114.181 104.342C116.797 103.979 127.398 104.24 130.737 104.242L166.692 104.227L217.835 104.23L233.464 104.203C240.798 104.19 247.603 103.542 254.101 107.674C258.895 110.674 262.295 115.462 263.548 120.977C264.523 125.44 264.13 140.482 264.128 145.836L264.124 195.308L264.127 259.88L264.144 280.154C264.148 283.642 264.283 288.527 264.016 291.895C263.712 295.414 262.521 298.798 260.556 301.732C256.939 307.218 252.077 309.823 245.835 311.144C240.29 311.891 228.177 311.519 222.191 311.513L178.611 311.518L135.005 311.517C132.607 311.517 130.201 311.563 127.805 311.541C118.86 311.458 110.053 312.822 102.419 306.918C97.9111 303.425 94.9678 298.291 94.2305 292.637C93.84 289.468 93.9491 285.279 93.9479 282.017L93.9573 266.173L93.9666 213.072L93.9619 152.456L93.974 133.963C93.9771 131.109 93.8647 126.224 94.1462 123.543C94.5514 119.619 96.0577 115.89 98.4914 112.785C102.447 107.723 107.893 105.088 114.181 104.342Z"/><path fill="#3E8668" d="M126.876 125.055C133.777 124.662 136.261 128.879 136.077 135.253C135.981 138.572 136.105 142.259 136.104 145.627L136.103 176.337L136.106 246.065C136.107 258.418 136.183 270.777 136.003 283.127C135.929 288.239 134.205 290.845 129.056 291.713C127.771 291.754 126.675 291.72 125.463 291.246C123.697 290.556 121.771 289.314 121.086 287.45C120.095 284.755 120.63 238.314 120.632 231.153L120.631 169.792C120.62 158.156 120.589 146.522 120.642 134.887C120.667 129.396 121.118 126.767 126.876 125.055Z"/><path fill="#3E8668" d="M228.933 125.083C232.033 124.865 234.807 125.893 236.607 128.497C237.557 129.872 237.42 131.083 237.456 132.705C237.54 136.437 237.511 140.178 237.512 143.912L237.515 175.404L237.517 247.789C237.519 260.031 237.56 272.275 237.508 284.516C237.489 288.987 234.859 290.962 230.757 291.775C227.516 291.743 222.87 290.026 222.46 286.289C221.854 280.758 222.131 274.741 222.132 269.138L222.134 234.583L222.136 167.414C222.135 155.96 222.031 144.491 222.198 133.042C222.263 128.58 224.667 125.919 228.933 125.083Z"/><path fill="#3E8668" d="M177.642 125.061C181.894 124.835 186.501 126.608 186.655 131.351C187.064 144.003 186.87 156.928 186.872 169.579L186.879 238.523L186.879 270.446C186.877 274.559 186.92 278.668 186.805 282.781C186.693 286.816 186.238 288.541 182.791 290.784C179.74 292.169 176.198 292.107 173.627 289.696C173.067 289.157 171.986 287.866 171.895 287.094C171.317 282.168 171.521 277.015 171.522 272.055L171.522 242.41L171.526 170.082C171.524 157.757 171.51 145.431 171.535 133.106C171.544 128.759 173.206 125.988 177.642 125.061Z"/><path fill="white" d="M211.57 42.1068C212.503 42.1446 213.693 42.1023 214.644 42.0912C214.828 46.8334 214.66 52.6894 214.658 57.5307L214.647 87.6796C212.481 87.4399 208.63 87.5722 206.317 87.5854L191.711 87.633L143.823 87.6921C143.311 86.8933 143.465 84.1453 143.465 83.0724C143.467 69.4508 143.489 55.829 143.511 42.2074C145.148 42.1946 146.785 42.2118 148.422 42.2592C149.123 43.0873 149.893 43.8538 150.725 44.5503C152.89 46.3632 161.711 45.7845 164.81 45.7852L184.385 45.7954L197.827 45.8032C199.926 45.8028 202.955 45.8856 204.989 45.6485C207.875 45.312 208.073 42.3505 211.286 42.125L211.57 42.1068Z"/></svg>