<?xml version="1.0" encoding="utf-8" ?><svg xmlns="http://www.w3.org/2000/svg" xmlns:xlink="http://www.w3.org/1999/xlink" width="1223" height="586" viewBox="0 0 1223 586"><path fill="#00843F" transform="matrix(3.66168 0 0 3.6625 0 -0.00012207)" d="M140.052 160C138.326 159.331 133.183 159.067 131.14 158.849C107.166 156.286 83.3532 151.249 60.8752 142.389C31.9571 130.992 -5.9153 107.868 2.00666 71.2775C8.39754 46.1193 34.0985 30.4365 56.5166 21.0445C91.9098 6.21675 131.059 0.957808 169.214 0.656877C174.204 0.260609 179.809 1.40638 184.653 1.2289C190.347 1.02025 194.683 1.69972 200.219 2.19452C225.59 4.46233 251.327 9.50748 275.007 19.061C297.769 28.2444 323.405 43.1917 332.344 67.3314C333.02 69.1868 333.153 71.3693 333.969 73.2341L334 73.3039L334 88.6763C332.135 93.414 331.662 97.1529 328.938 101.918C318.768 119.709 299.242 131.597 281.078 139.688C263.547 147.497 244.397 152.597 225.654 155.887C222.291 156.496 218.914 157.026 215.526 157.477C212.675 157.84 197.311 159.349 195.888 160L140.052 160Z"/><path fill="#FFFFF5" transform="matrix(3.66168 0 0 3.6625 0 -0.00012207)" d="M157.595 5.63564C158.185 5.60904 158.776 5.58654 159.366 5.56816C207.53 4.12492 276.173 14.0719 313.487 48.0071C322.342 56.0601 329.523 67.5438 329.855 79.7771C330.173 91.512 324.544 102.533 316.422 110.746C283.693 143.846 221.873 154.883 177.619 156.061C175.872 156.127 174.125 156.183 172.377 156.228C124.117 157.458 59.5063 146.869 21.9513 113.709C2.0015 96.0932 -0.321212 69.6599 19.2051 50.682C53.0272 17.8098 112.241 6.70391 157.595 5.63564Z"/><path fill="#00843F" transform="matrix(3.66168 0 0 3.6625 0 -0.00012207)" d="M110.891 100.057C114.059 99.8612 114.711 104.199 113.55 106.272C111.743 107.667 110.62 105.396 109.163 104.022C106.201 103.485 105.329 103.397 102.367 103.979C102.087 105.784 101.538 108.438 102.469 109.968C106.264 112.62 105.539 106.947 107.467 106.678C110.604 108.271 109.507 117.046 107.232 117.17C105.873 116.18 105.494 111.79 102.728 114.041C101.838 115.741 102.401 118.614 102.598 120.582C105.886 121.019 106.842 120.993 110.102 120.387C111.648 118.931 112.646 115.845 114.516 116.268C117.238 118.274 114.407 122.492 112.98 124.529C108.437 123.607 102.493 124.091 97.8699 123.977C96.722 123.948 93.5051 124.088 92.5871 123.768C92.3347 123.325 92.2106 123.065 92.0123 122.597C91.0877 122.707 90.7522 124.264 88.3687 124.695C82.662 125.728 80.2659 122.396 79.4419 117.148C79.1445 115.254 76.5588 112.285 75.2226 115.46C75.2075 117.157 75.3731 118.529 75.5549 120.204C76.3281 120.811 76.9546 121.189 77.3185 122.103C77.311 123.29 76.9308 123.843 75.6247 124.1C73.2998 124.558 65.7011 124.965 64.9554 122.189C65.2905 121.364 66.4449 120.411 67.1389 119.759C67.7842 117.26 67.5124 107.904 67.4886 104.748C66.5781 104.037 64.8076 102.977 64.9415 101.795C67.2861 99.793 85.0985 99.197 86.9962 103.361C89.0523 107.871 86.9804 109.769 83.8578 112.069C88.6468 114.555 88.3234 115.344 89.5118 120.544C90.2551 120.972 92.1909 122.185 92.8458 121.781C96.3704 119.608 94.9532 106.801 94.044 103.938C92.8816 103.404 92.169 103.302 91.939 101.963C92.3453 101.351 92.7979 101.03 93.5778 100.908C97.9726 100.221 106.781 101.129 110.891 100.057Z"/><path fill="#FFFFF5" transform="matrix(3.66168 0 0 3.6625 0 -0.00012207)" d="M75.7773 103.735C76.5433 103.744 77.5272 103.747 78.1821 104.195C79.1665 104.867 79.2666 106.304 79.4778 107.382C79.2205 108.41 78.8641 109.266 78.3685 110.203C77.5965 110.456 76.9313 110.697 76.1034 110.607C75.5787 110.234 75.4242 110.039 75.1877 109.416C74.6716 108.058 75.1911 105.057 75.7773 103.735Z"/><path fill="#00843F" transform="matrix(3.66168 0 0 3.6625 0 -0.00012207)" d="M190.562 82.2992C194.661 75.0622 202.289 73.1855 210.182 74.4442C214.955 75.2052 218.412 77.5233 222.757 79.0942C218.063 84.0668 213.203 88.4778 205.905 88.629C200.479 88.7414 194.662 86.9277 190.353 83.6277C188.75 84.0417 187.935 84.1545 186.28 84.3269L185.063 86.4725C179.263 86.6042 171.572 84.9106 165.74 87.3693C165.584 87.7805 165.161 88.225 164.851 88.6294C162.109 92.2177 156.869 97.9151 152.562 92.9773C151.418 91.6656 155.573 87.4725 156.079 85.6971C151.115 86.6161 150.591 86.7505 145.73 85.569C139.842 89.5157 137.895 88.6505 131.489 86.4249C129.295 87.0987 125.371 88.5474 124.305 85.5289C124.647 82.1223 131.148 81.4842 133.668 82.2401C137.341 83.3424 139.112 84.1715 142.555 82.2528C145.388 80.6743 149.199 81.788 152.579 81.763C152.951 81.3406 154.193 81.1418 154.864 80.9613C157.62 81.0431 159.6 81.3746 162.266 82.0364C163.842 82.4276 166.555 83.1135 167.423 81.2728C168.169 81.3607 168.849 81.5161 169.53 81.2041C170.16 81.1907 170.796 81.2286 171.423 81.2904C174.705 81.6135 177.887 81.356 181.171 81.2191L182.392 79.5302C182.949 80.0051 182.982 80.1004 183.219 80.7985L183.21 81.2309C184.542 81.8157 185.34 82.0051 186.494 82.9209C187.882 82.6754 189.154 82.4479 190.562 82.2992Z"/><path fill="#0FA942" transform="matrix(3.66168 0 0 3.6625 0 -0.00012207)" d="M156.079 85.6971C156.77 85.7569 158.074 85.9091 158.718 85.9143C159.718 85.8364 162.017 86.7795 163.355 87.0154C164.268 87.0983 164.839 87.1405 165.74 87.3693C165.584 87.7805 165.161 88.225 164.851 88.6294C162.109 92.2177 156.869 97.9151 152.562 92.9773C151.418 91.6656 155.573 87.4725 156.079 85.6971Z"/><path fill="#FFFFF5" transform="matrix(3.66168 0 0 3.6625 0 -0.00012207)" d="M158.718 85.9143C159.718 85.8364 162.017 86.7795 163.355 87.0154C162.321 88.6622 157.735 92.963 155.768 92.7838L155.444 92.3634C155.317 90.4643 157.593 89.3217 158.718 85.9143Z"/><path fill="#00843F" transform="matrix(3.66168 0 0 3.6625 0 -0.00012207)" d="M205.864 99.9829C212.723 98.5082 219.469 102.908 220.884 109.779C222.3 116.65 217.842 123.358 210.959 124.714C204.159 126.053 197.551 121.661 196.152 114.874C194.754 108.086 199.089 101.44 205.864 99.9829Z"/><path fill="#FFFFF5" transform="matrix(3.66168 0 0 3.6625 0 -0.00012207)" d="M206.805 104.492C207.126 104.589 207.446 104.697 207.753 104.833C209.766 105.725 211.151 108.02 211.908 109.99C212.762 112.213 213.691 115.553 212.605 117.853C212.081 118.961 211.345 119.438 210.248 119.841C210.001 119.808 209.756 119.77 209.514 119.708C207.996 119.325 206.933 117.981 206.187 116.687C204.755 114.201 203.475 110.064 204.288 107.198C204.684 105.802 205.617 105.155 206.805 104.492Z"/><path fill="#00843F" transform="matrix(3.66168 0 0 3.6625 0 -0.00012207)" d="M173.897 100.34C175.827 100.15 178.717 100.001 180.488 100.914C181.129 101.245 181.269 101.505 181.497 102.146C181.411 103.211 179.784 104.464 179.05 105.201C178.986 106.036 178.868 106.931 178.928 107.766C178.969 108.328 179.186 108.888 179.626 109.256C180.948 110.363 184.144 109.715 185.775 109.604C185.796 108.249 185.824 106.924 185.616 105.58C185.408 104.228 184.285 104.093 183.578 103.121C183.257 102.68 183.292 102.461 183.365 101.952C183.743 101.441 184.089 101.098 184.699 100.886C187.232 100.006 192.481 99.7454 194.887 101.017C195.519 101.351 195.701 101.696 195.891 102.344C195.706 103.253 194.787 103.966 194.207 104.66C192.635 106.538 193.365 117.464 193.59 120.05C194.306 120.544 194.99 120.96 195.434 121.733C195.526 122.383 195.526 122.525 195.25 123.124C194.125 124.136 192.709 124.205 191.269 124.322C188.966 124.367 185.831 124.709 183.871 123.315C183.583 122.827 183.429 122.654 183.509 122.065C183.644 121.071 184.657 120.461 185.392 119.893C185.558 118.595 185.961 116.906 185.755 115.621C185.667 115.07 185.388 114.455 184.931 114.126C183.556 113.137 180.686 113.875 179.074 114.13C178.931 115.927 178.941 117.655 179.038 119.454C179.612 119.987 180.672 120.784 180.807 121.594C180.906 122.191 180.787 122.677 180.402 123.148C179.632 124.09 177.8 124.311 176.661 124.38C174.57 124.508 170.817 124.737 169.22 123.153C168.745 122.682 168.764 122.339 168.77 121.724C169.116 120.9 169.969 120.515 170.7 120.076C170.897 119.309 171.086 118.525 171.177 117.738C171.413 115.694 171.748 106.872 171.043 105.339C170.705 104.604 169.538 103.899 168.995 103.219C168.954 102.639 168.929 102.272 169.301 101.779C170.173 100.623 172.548 100.522 173.897 100.34Z"/><path fill="#00843F" transform="matrix(3.66168 0 0 3.6625 0 -0.00012207)" d="M142.574 100.337C143.893 100.26 145.386 100.068 146.683 100.353C151.763 101.47 155.586 108.902 159.7 109.703C159.967 109.625 160.284 109.593 160.455 109.368C161.15 108.453 160.831 105.563 160.25 104.596C159.704 103.688 158.399 102.86 158.274 101.755C158.224 101.31 158.392 101.187 158.649 100.861C159.791 100.257 161.19 100.252 162.455 100.221C164.487 100.173 166.549 100.191 168.117 101.682C168.675 103.127 166.595 103.59 165.931 104.823C163.963 108.478 166.269 118.139 164.823 122.948C164.623 123.612 164.35 123.973 163.741 124.297C162.785 124.344 162.504 124.112 161.688 123.659C158.978 121.487 151.705 113.416 148.75 113.297C148.218 113.537 147.915 113.676 147.704 114.267C147.241 115.559 147.632 118.474 148.239 119.627C148.639 120.388 149.325 120.894 149.704 121.734C150.051 122.503 149.918 122.933 149.648 123.664C149.167 124.148 148.655 124.309 147.992 124.398C146.084 124.654 142.318 124.47 140.766 123.28C140.507 122.792 140.378 122.574 140.494 122.005C140.69 121.038 141.7 120.503 142.458 119.996C143.445 115.387 143.674 109.022 142.09 104.544C141.621 104.245 141.137 103.96 140.677 103.646C140.208 103.327 139.827 102.946 139.729 102.363C139.656 101.93 139.701 101.698 139.965 101.345C140.523 100.598 141.717 100.476 142.574 100.337Z"/><path fill="#00843F" transform="matrix(3.66168 0 0 3.6625 0 -0.00012207)" d="M48.6508 100.294C52.3329 99.8873 55.8581 101.377 59.4133 100.337C60.0963 100.92 60.8161 101.62 61.3031 102.377C62.2198 103.803 62.3355 105.52 61.9571 107.149C61.7629 107.984 61.4575 108.31 60.7774 108.74C57.7714 109.147 56.1049 105.75 53.8174 104.486C52.8367 103.945 51.2865 103.768 50.2135 104.084C48.997 104.442 48.0965 105.395 47.5223 106.493C46.2832 108.86 46.363 111.929 47.1507 114.428C47.7922 116.463 49.2649 118.457 51.1884 119.439C51.9054 119.805 52.8047 120.123 53.5997 119.846C54.3876 119.571 54.8135 118.79 55.1557 118.084C54.8472 115.991 52.244 115.97 51.5537 114.264C51.4257 113.947 51.523 113.847 51.6486 113.546C52.7217 112.577 54.4 112.289 55.7789 112.057L57.1375 112.005C59.5542 111.924 63.0117 111.819 64.9013 113.588C65.0719 114.041 65.1873 114.237 65.0066 114.717C64.6866 115.566 63.5872 115.931 62.8205 116.278C62.3305 117.444 61.8553 118.675 61.1609 119.735C59.5727 122.16 57.0577 123.68 54.2478 124.26C50.6357 125.006 46.6475 124.28 43.5697 122.238C40.8758 120.478 38.9917 117.72 38.332 114.57C37.7323 111.448 38.385 108.215 40.1492 105.571C42.1531 102.573 45.196 100.995 48.6508 100.294Z"/><path fill="#00843F" transform="matrix(3.66168 0 0 3.6625 0 -0.00012207)" d="M225.624 100.353C227.398 100.252 229.308 100.211 231.075 100.415C232.139 100.537 233.387 100.734 234.09 101.617C234.568 103.696 232.473 103.605 231.949 105.18C231.142 107.61 231.128 114.549 232.292 116.876C232.9 118.091 233.927 119.072 235.233 119.491C236.572 119.921 238.204 119.857 239.459 119.198C240.704 118.544 241.454 117.391 241.843 116.072C242.355 114.339 242.507 105.529 241.513 104.127C240.902 103.265 239.81 103.283 239.241 102.242C239.3 101.764 239.294 101.51 239.66 101.157C240.709 100.146 243.52 100.24 244.863 100.279C246.231 100.319 248.237 100.325 249.247 101.399C249.41 102.03 249.333 102.162 249.1 102.772C248.556 103.101 247.857 103.466 247.498 104.002C244.819 107.997 248.82 115.994 245.048 120.82C243.225 123.153 240.122 124.108 237.291 124.443C233.735 124.863 229.172 124.275 226.291 121.964C221.711 118.289 224.014 110.238 223.481 105.081C222.875 104.555 222.047 103.936 221.673 103.217C221.347 102.59 221.432 102.17 221.648 101.551C222.741 100.431 224.16 100.464 225.624 100.353Z"/><path fill="#00843F" transform="matrix(3.66168 0 0 3.6625 0 -0.00012207)" d="M256.943 100.31C259.489 99.9007 265.366 100.223 267.569 101.633C268.518 102.241 269.215 103.141 269.457 104.25C269.689 105.313 269.82 106.52 269.21 107.473C266.289 109.002 262.831 103.302 259.49 104.036C259.147 104.111 258.928 104.245 258.74 104.542C258.408 105.068 258.465 105.871 258.585 106.454C258.97 108.314 265.682 109.847 267.345 110.941C268.668 111.812 269.716 112.966 270.035 114.556C270.41 116.423 269.852 118.886 268.803 120.462C267.03 123.126 263.931 123.918 260.983 124.492C260.438 124.502 259.893 124.507 259.347 124.505C256.589 124.49 252.645 124.406 250.599 122.306C249.311 120.983 248.608 118.535 248.698 116.723C248.733 116.016 248.987 115.684 249.49 115.247C251.267 115.382 252.815 117.874 254.113 119.034C255.179 119.987 256.734 120.819 258.202 120.715C259.43 120.627 260.333 119.933 261.102 119.03L261.014 118.422C259.285 116.181 255.599 115.566 253.242 114.02C251.381 112.8 249.974 111.506 249.522 109.249C249.166 107.475 249.587 105.669 250.598 104.181C252.087 101.993 254.402 100.792 256.943 100.31Z"/><path fill="#00843F" transform="matrix(3.66168 0 0 3.6625 0 -0.00012207)" d="M134.915 100.069L135.75 100.006C136.34 100.218 136.751 100.468 137.115 100.991C137.867 102.074 138.233 104.071 137.951 105.355C137.809 106.002 137.522 106.365 136.97 106.709C134.95 106.848 133.909 104.609 132.269 103.802C130.724 103.041 127.788 103.613 126.191 104.113C126.019 105.323 125.179 109.354 126.465 110.055C130.647 112.336 129.305 106.762 131.483 106.652C134.437 108.562 133.326 116.408 131.583 117.263C129.657 117.02 130.117 114.295 129.025 113.769C124.988 111.824 126.313 118.594 126.576 120.58C129.613 121.042 131.541 121.062 134.473 120.107L135.99 117.852C136.576 116.825 137.25 115.726 138.548 116.045C140.52 117.996 138.162 122.744 136.983 124.562C136.453 124.49 134.759 124.294 134.334 124.198C131.509 123.565 117.532 124.599 115.942 123.332L115.944 122.68C116.417 121.726 117.429 121.144 118.316 120.511C119.113 115.688 118.89 109.198 118.378 104.357C117.477 103.831 116.353 103.266 115.713 102.479C115.662 101.702 115.608 101.996 116.012 101.279C117.32 100.205 130.949 100.931 134.915 100.069Z"/><path fill="#00843F" transform="matrix(3.66168 0 0 3.6625 0 -0.00012207)" d="M289.45 100.102L290.374 100.06C290.83 100.251 291.172 100.455 291.489 100.844C292.347 101.901 292.625 103.418 292.472 104.749C292.374 105.603 292.142 106.222 291.456 106.758C289.915 106.967 288.369 104.682 287.016 103.842C284.789 103.599 282.916 103.524 280.705 103.976C280.412 105.313 280.127 107.287 280.332 108.636C280.437 109.331 280.65 109.852 281.239 110.258C281.776 110.628 282.722 110.507 283.324 110.388C284.432 109.573 284.22 108.225 284.945 107.141C285.235 106.708 285.391 106.694 285.872 106.603C286.336 106.877 286.68 107.146 286.965 107.613C288.091 109.461 287.684 113.093 287.22 115.102C287 116.051 286.778 116.729 285.932 117.257C284.339 116.766 284.413 114.541 283.123 113.558C282.924 113.406 282.49 113.196 282.235 113.233C281.714 113.31 281.312 113.675 281.007 114.088C279.959 115.515 280.797 118.827 281.091 120.507C283.975 121.064 286.309 120.999 289.085 119.994C289.645 119.237 290.125 118.391 290.626 117.593C290.862 117.188 291.187 116.746 291.521 116.42C292.037 115.918 292.283 115.81 292.967 115.837C293.324 116.171 293.512 116.54 293.633 117.012C294.3 119.619 292.832 122.334 291.564 124.5C289.515 124.241 287.454 124.08 285.39 124.017C282.953 123.942 271.987 124.442 270.448 123.349L270.459 122.694C270.838 121.811 271.822 121.258 272.572 120.703C273.697 115.478 273.887 109.145 272.424 103.979C271.912 103.733 271.244 103.475 270.813 103.108C270.369 102.729 270.342 102.381 270.309 101.844C270.868 101.203 271.463 100.976 272.297 100.821C273.974 100.508 275.864 100.67 277.573 100.668C281.452 100.663 285.624 100.761 289.45 100.102Z"/><path fill="#00843F" transform="matrix(3.66168 0 0 3.6625 0 -0.00012207)" d="M204.756 51.6797C203.604 59.9398 205.099 66.7586 196.993 72.7617C194.137 74.8769 189.225 77.7711 185.637 77.4862C185.115 77.3156 184.331 76.7203 183.851 76.3883C182.904 71.9514 183.585 67.0636 186.112 63.269C190.603 56.527 197.929 54.5376 204.756 51.6797Z"/><path fill="#0FA942" transform="matrix(3.66168 0 0 3.6625 0 -0.00012207)" d="M173.065 14.1665C175.104 14.146 175.345 15.7712 174.75 17.3238C171.44 25.9577 162.987 39.4979 155.019 44.2797C154.152 44.3457 153.96 44.2368 153.443 43.6474C153.266 42.9334 153.391 42.2144 153.579 41.5205C155.87 33.0833 165.887 18.6635 173.065 14.1665Z"/><path fill="#0FA942" transform="matrix(3.66168 0 0 3.6625 0 -0.00012207)" d="M152.579 81.763C151.71 79.7495 150.975 78.3912 150.194 76.2378C148.964 72.8404 151.44 60.7785 150.909 59.2508C150.003 58.7264 129.699 61.4311 126.858 61.0822C125.185 60.8769 120.033 62.23 118.933 60.3056C119.168 58.7671 122.95 57.2427 124.313 56.585C131.514 53.1091 138.939 52.426 146.826 52.4932C147.822 52.5017 149.599 52.6296 149.549 53.9437C149.168 54.317 148.619 54.5689 148.083 54.5725C139.755 54.6281 132.322 55.2085 124.805 59.1021C128.63 59.0637 132.453 58.8684 136.262 58.5167C140.843 58.1094 147.129 57.0932 151.796 56.8768C152.534 56.9273 153.282 58.1549 153.28 58.7383C153.255 68.0372 149.828 72.1533 154.864 80.9613C154.193 81.1418 152.951 81.3406 152.579 81.763Z"/><path fill="#00843F" transform="matrix(3.66168 0 0 3.6625 0 -0.00012207)" d="M148.723 129.814C149.466 129.716 150.112 129.642 150.861 129.773C151.613 131.097 150.982 138.97 151.167 141.135C151.318 142.888 152.167 142.831 152.363 143.888C152.394 144.057 152.19 144.268 152.096 144.411C150.788 144.987 148.774 145.536 147.341 145.412C147.061 145.027 146.785 144.64 146.512 144.25C145.364 144.155 144.549 145.529 141.565 145.379C140.839 145.001 140.077 144.291 139.519 143.698C138.458 142.57 137.988 141.106 138.043 139.574C138.097 138.098 138.374 136.398 139.529 135.359C141.117 133.931 143.192 134.326 145.119 134.436C145.881 134.48 146.179 134.401 146.734 133.905C146.649 132.939 145.853 132.665 145.541 131.809C145.394 131.406 145.529 131.246 145.689 130.876C146.531 130.179 147.683 130.044 148.723 129.814Z"/><path fill="#FFFFF5" transform="matrix(3.66168 0 0 3.6625 0 -0.00012207)" d="M144.46 135.882C144.899 135.942 145.596 135.993 145.939 136.284C146.549 136.801 146.756 138.006 146.81 138.774C146.918 140.294 146.553 142.193 145.537 143.354C145.075 143.241 144.448 143.11 144.07 142.821C143.325 142.251 142.946 141.163 142.87 140.262C142.727 138.569 143.404 137.143 144.46 135.882Z"/><path fill="#0FA942" transform="matrix(3.66168 0 0 3.6625 0 -0.00012207)" d="M183.695 22.5291C185.302 22.6393 185.435 23.9024 184.728 25.0713C180.809 31.5443 172.134 40.6801 165.071 43.4143C164.286 43.2557 164.485 43.4037 163.945 42.8907C162.544 38.3609 178.961 24.1092 183.695 22.5291Z"/><path fill="#00843F" transform="matrix(3.66168 0 0 3.6625 0 -0.00012207)" d="M174.719 134.064C176.255 133.952 177.964 134.082 179.305 134.907C181.091 136.007 181.637 137.791 182.09 139.725C181.911 140.449 181.692 141.26 181.346 141.925C180.317 143.902 178.418 144.739 176.396 145.37C174.424 145.532 172.749 145.504 171.073 144.332C169.916 143.533 169.133 142.298 168.901 140.911C168.663 139.457 169.012 137.968 169.871 136.77C171.083 135.076 172.727 134.393 174.719 134.064Z"/><path fill="#FFFFF5" transform="matrix(3.66168 0 0 3.6625 0 -0.00012207)" d="M174.07 136.131L175.357 136.34C176.214 136.895 176.742 137.797 177.018 138.769C177.443 140.263 177.342 141.932 176.578 143.282C176.232 143.263 175.845 143.239 175.525 143.097C174.828 142.788 174.292 141.711 174.026 141.019C173.41 139.414 173.363 137.691 174.07 136.131Z"/><path fill="#00843F" transform="matrix(3.66168 0 0 3.6625 0 -0.00012207)" d="M159.648 134.078C161.174 133.976 162.675 133.978 164.051 134.737C165.39 135.475 166.368 136.662 166.78 138.14C167.166 139.501 166.995 140.959 166.303 142.193C165.349 143.884 163.482 144.846 161.671 145.343C159.774 145.526 158.017 145.518 156.373 144.443C155.165 143.669 154.327 142.434 154.054 141.026C153.777 139.59 154.084 138.102 154.908 136.893C156.03 135.244 157.743 134.439 159.648 134.078Z"/><path fill="#FFFFF5" transform="matrix(3.66168 0 0 3.6625 0 -0.00012207)" d="M159.093 136.135C159.516 136.158 160.091 136.169 160.474 136.363C161.275 136.768 161.816 137.96 162.058 138.796C162.495 140.31 162.44 141.925 161.673 143.298C161.346 143.245 161.004 143.188 160.693 143.073C159.962 142.801 159.439 141.823 159.148 141.135C158.471 139.541 158.451 137.743 159.093 136.135Z"/><path fill="#00843F" transform="matrix(3.66168 0 0 3.6625 0 -0.00012207)" d="M100.721 134.056C102.372 134.011 103.816 134.033 105.26 134.93C106.484 135.676 107.355 136.884 107.675 138.281C108.002 139.68 107.754 141.152 106.988 142.367C105.833 144.193 104 144.943 101.974 145.393C100.152 145.459 98.7212 145.469 97.1656 144.415C95.9785 143.61 95.1443 142.397 94.8894 140.979C94.6308 139.514 94.9749 138.007 95.8436 136.8C97.0765 135.066 98.6892 134.41 100.721 134.056Z"/><path fill="#FFFFF5" transform="matrix(3.66168 0 0 3.6625 0 -0.00012207)" d="M99.9177 136.209C100.299 136.19 100.832 136.125 101.198 136.238C101.835 136.435 102.331 137.241 102.599 137.814C103.327 139.373 103.38 141.464 102.793 143.063C102.364 143.083 101.787 143.146 101.386 142.972C100.712 142.679 100.188 141.662 99.9232 140.996C99.3384 139.525 99.2795 137.658 99.9177 136.209Z"/><path fill="#00843F" transform="matrix(3.66168 0 0 3.6625 0 -0.00012207)" d="M115.04 134.123L115.192 134.116C116.152 134.832 115.335 139.745 115.654 141.25C115.81 141.989 116.026 142.39 116.658 142.808C117.326 142.968 117.681 142.972 118.315 142.697C118.933 142.078 119.052 141.476 119.076 140.618C119.141 138.275 118.698 136.449 117.078 134.75C119.169 134.321 121.359 134.209 123.485 134.014C123.476 136.837 123.341 139.732 123.607 142.543C124.08 142.889 124.399 143.133 124.634 143.683C124.476 144.245 124.357 144.376 123.842 144.662C122.946 145.16 120.302 145.635 119.329 145.328C119.132 145.265 118.841 144.567 118.727 144.358C117.057 143.517 115.676 145.816 113.945 145.522C112.71 145.312 111.984 144.262 111.318 143.315C110.997 141.258 111.04 139.088 110.978 137.006L109.057 134.78C111.05 134.434 113.023 134.26 115.04 134.123Z"/><path fill="#169A50" transform="matrix(3.66168 0 0 3.6625 0 -0.00012207)" d="M253.186 61.9151C255.486 61.328 260.307 61.732 260.006 65.0922C259.365 66.1209 259.154 66.3177 258.241 67.1183L257.9 67.3567C259.275 67.9737 260.688 68.7122 260.442 70.4341C259.665 71.6523 258.265 72.1956 256.9 72.5022C254.858 72.978 252.72 72.8237 250.768 72.0598C248.47 70.2459 249.619 68.5551 251.813 67.5357L251.698 67.2599C248.332 65.3015 249.584 62.4615 253.186 61.9151Z"/><path fill="#0FA942" transform="matrix(3.66168 0 0 3.6625 0 -0.00012207)" d="M253.186 61.9151C255.486 61.328 260.307 61.732 260.006 65.0922C259.365 66.1209 259.154 66.3177 258.241 67.1183C257.557 67.0024 257.295 66.7842 256.709 66.4059C254.984 66.5932 254.216 66.6733 252.572 66.1392C252.293 66.5156 252.013 66.9164 251.698 67.2599C248.332 65.3015 249.584 62.4615 253.186 61.9151Z"/><path fill="#FFFFF5" transform="matrix(3.66168 0 0 3.6625 0 -0.00012207)" d="M251.99 63.588C254.355 63.0538 257.005 62.2059 258.451 64.8149C257.987 65.2472 257.181 66.0469 256.709 66.4059C254.984 66.5932 254.216 66.6733 252.572 66.1392C251.754 65.1492 251.774 64.8014 251.99 63.588Z"/><path fill="#FFFFF5" transform="matrix(3.66168 0 0 3.6625 0 -0.00012207)" d="M250.768 72.0598C248.47 70.2459 249.619 68.5551 251.813 67.5357L252.657 68.3469C254.631 68.0086 255.233 67.9532 257.191 68.329C257.812 68.8867 257.994 69.0063 258.15 69.8067C257.409 71.9134 253.85 71.5048 252.077 71.1935C251.534 71.7004 251.448 71.7633 250.768 72.0598Z"/><path fill="#0FA942" transform="matrix(3.66168 0 0 3.6625 0 -0.00012207)" d="M250.768 72.0598C248.47 70.2459 249.619 68.5551 251.813 67.5357L252.657 68.3469C251.829 69.1633 251.807 68.9572 251.529 69.9777C251.701 70.4878 251.766 70.7469 252.077 71.1935C251.534 71.7004 251.448 71.7633 250.768 72.0598Z"/><path fill="#00843F" transform="matrix(3.66168 0 0 3.6625 0 -0.00012207)" d="M218.609 129.538C219.681 129.443 220.792 129.526 221.868 129.556C222.358 129.832 222.869 130.122 223.319 130.461C223.936 130.925 224.417 131.587 224.528 132.357C224.33 132.939 224.186 133.066 223.724 133.473C222.175 133.95 221.168 132.693 219.881 132.064C219.341 131.801 219.121 131.758 218.564 131.961C218.372 132.406 218.207 132.629 218.32 133.124C218.717 134.866 222.217 135.866 223.61 136.743C223.343 137.748 221.908 138.398 221.451 139.493C221.031 140.501 221.612 141.769 221.988 142.714C222.378 142.902 222.769 143.083 223.091 143.378C223.43 143.69 223.402 143.769 223.427 144.228C223.281 144.438 223.113 144.637 222.893 144.772C221.41 145.681 218.165 145.71 216.543 145.222C215.85 145.014 215.613 144.747 215.297 144.135C215.487 143.241 215.979 142.984 216.642 142.392C216.728 141.43 217.141 139.335 216.339 138.595C215.878 138.17 215.361 138.12 214.926 137.54C214.761 136.541 215.505 136.618 215.926 135.86C216.517 134.796 215.068 132.708 215.602 131.554C216.157 130.354 217.459 129.967 218.609 129.538Z"/><path fill="#0FA942" transform="matrix(3.66168 0 0 3.6625 0 -0.00012207)" d="M187.986 33.5348C188.946 33.4699 189.48 33.4644 190.031 34.272C189.96 35.2339 188.426 36.6184 187.722 37.2207C183.185 41.1027 177.609 44.7242 171.811 46.3196C170.93 46.4871 170.298 46.4268 169.657 45.8541C170.337 41.9436 184.065 34.5993 187.986 33.5348Z"/><path fill="#00843F" transform="matrix(3.66168 0 0 3.6625 0 -0.00012207)" d="M230.644 134.052C232.169 133.963 233.512 134.041 234.887 134.769C235.84 135.274 236.775 136.265 237.07 137.33C237.28 138.089 237.078 138.544 236.712 139.173C234.998 140.41 232.213 139.731 230.179 140.118L230.01 141.024C230.524 141.632 231.652 142.647 232.441 142.804C232.473 142.811 232.506 142.816 232.539 142.822C233.983 143.094 235.368 141.865 236.776 142.163C236.82 142.172 236.863 142.184 236.906 142.194C236.792 142.557 236.665 142.928 236.485 143.264C235.973 144.221 234.519 145.144 233.491 145.425C232.033 145.824 230.16 145.469 228.862 144.731C227.412 143.905 226.313 142.558 225.88 140.939C225.533 139.64 225.627 138.133 226.333 136.965C227.224 135.489 229.01 134.441 230.644 134.052Z"/><path fill="#FFFFF5" transform="matrix(3.66168 0 0 3.6625 0 -0.00012207)" d="M231.273 135.385C231.656 135.483 232.062 135.581 232.427 135.737C233.019 135.99 233.204 136.452 233.413 137.007C233.184 137.725 233.021 137.834 232.435 138.309C231.98 138.286 231.404 138.298 230.973 138.148C230.462 137.97 230.361 137.743 230.138 137.289C230.235 136.476 230.758 135.974 231.273 135.385Z"/><path fill="#00843F" transform="matrix(3.66168 0 0 3.6625 0 -0.00012207)" d="M132.258 130.99C132.346 131.03 132.336 131.02 132.423 131.095C132.975 131.571 132.926 133.237 132.979 133.961C133.691 133.968 134.528 133.912 135.223 134.057C135.697 134.156 136.009 134.36 136.277 134.762L136.055 135.255C135.199 135.942 133.905 135.966 132.845 136.097C132.815 137.368 132.777 138.643 132.787 139.915C132.82 144.051 134.988 141.358 136.454 142.792C136.078 143.878 134.971 144.648 134.019 145.203C132.831 145.405 131.607 145.39 130.404 145.417C130.025 145.155 129.647 144.888 129.291 144.594C126.998 142.704 128.291 139.288 128.011 136.82C127.861 135.496 126.567 135.858 125.731 135.212C125.759 135.086 125.794 134.974 125.852 134.858C126.393 133.77 131.005 131.442 132.258 130.99Z"/><path fill="#00843F" transform="matrix(3.66168 0 0 3.6625 0 -0.00012207)" d="M188.653 134.086C188.863 134.058 189.103 134.141 189.311 134.185C189.567 134.709 189.736 135.232 189.899 135.791C191.031 135.891 191.896 134.127 193.238 133.986C193.781 134.094 194.259 134.235 194.654 134.644C195.12 135.127 195.477 135.947 195.44 136.615C195.408 137.184 194.847 137.983 194.428 138.352C193.027 139.584 191.58 137.862 190.114 137.798L189.68 138.207C189.343 139.323 189.344 141.009 189.681 142.121C189.832 142.62 189.976 142.657 190.403 142.894C190.469 142.937 190.537 142.977 190.601 143.024C191.176 143.437 191.324 143.591 191.439 144.273L191.031 144.809C189.441 145.61 186.578 145.841 184.884 145.24C184.24 145.012 184.046 144.774 183.748 144.196C183.962 143.293 184.357 143.007 184.986 142.348C185.107 140.742 185.081 139.149 185.053 137.541C184.755 137.279 184.384 136.995 184.158 136.669C183.86 136.238 183.939 136.019 184.024 135.543C185.022 134.375 187.2 134.31 188.653 134.086Z"/><path fill="#00843F" transform="matrix(3.66168 0 0 3.6625 0 -0.00012207)" d="M202.799 129.592L203.162 129.885C203.731 132.993 202.989 139.113 203.249 142.831L204.862 145.123C202.382 145.373 200.076 145.401 197.601 145.164C197.369 144.89 197.355 144.587 197.302 144.245C197.518 143.82 197.776 143.51 198.052 143.127C199.346 141.331 198.812 135.922 198.443 133.76C197.763 133.019 197.119 132.243 196.467 131.478C198.606 130.414 200.436 129.87 202.799 129.592Z"/><path fill="#169A50" transform="matrix(3.66168 0 0 3.6625 0 -0.00012207)" d="M97.0085 71.9854C96.3013 75.958 103.565 74.2849 104.546 75.0463C103.362 77.8723 96.5038 76.716 95.2564 73.9184C93.1531 69.201 98.1865 65.3416 102.619 66.7691C105.261 67.62 107.082 70.181 103.782 71.7653C101.6 71.9217 99.2064 71.9573 97.0085 71.9854Z"/><path fill="#FFFFF5" transform="matrix(3.66168 0 0 3.6625 0 -0.00012207)" d="M97.2145 70.1811C98.6814 67.8914 102.335 66.6396 103.516 69.6248L103.466 70.3699C103.408 71.2932 103.333 70.9479 103.782 71.7653C101.6 71.9217 99.2064 71.9573 97.0085 71.9854C97.1048 71.6077 97.1733 70.6151 97.2145 70.1811Z"/><path fill="#0FA942" transform="matrix(3.66168 0 0 3.6625 0 -0.00012207)" d="M97.0085 71.9854C97.1048 71.6077 97.1733 70.6151 97.2145 70.1811C99.5051 70.4215 101.153 70.3994 103.466 70.3699C103.408 71.2932 103.333 70.9479 103.782 71.7653C101.6 71.9217 99.2064 71.9573 97.0085 71.9854Z"/><path fill="#0FA942" transform="matrix(3.66168 0 0 3.6625 0 -0.00012207)" d="M187.253 44.5858C188.635 44.4396 190.24 44.205 191.288 45.1643C191.383 47.814 179.929 50.0766 177.742 50.4417C176.072 50.556 174.416 50.9522 173.142 50.0054C172.712 46.9959 185.032 44.9152 187.253 44.5858Z"/><path fill="#0FA942" transform="matrix(3.66168 0 0 3.6625 0 -0.00012207)" d="M167.423 81.2728C170.53 73.0256 171.471 66.2672 171.242 57.5887C171.222 56.8338 171.837 55.6491 172.49 55.2069C172.701 55.2565 172.896 55.2417 173.015 55.4326C174.557 57.8962 172.588 72.3816 171.759 75.6604C171.296 77.4957 169.813 79.4715 169.53 81.2041C168.849 81.5161 168.169 81.3607 167.423 81.2728Z"/><path fill="#00843F" transform="matrix(3.66168 0 0 3.6625 0 -0.00012207)" d="M209.604 134.342L212.176 134.151C212.061 136.921 212.079 139.695 212.228 142.463C212.565 142.907 213.172 143.562 213.245 144.118C213.299 144.531 213.133 144.667 212.906 144.982C211.804 145.487 210.34 145.356 209.139 145.374C208.468 145.341 207.528 145.392 206.909 145.138C206.451 144.95 206.4 144.756 206.224 144.331C206.42 143.51 206.93 143.045 207.498 142.464L207.525 137.611C206.82 137.089 206.342 136.793 206.184 135.906C206.971 134.737 208.299 134.64 209.604 134.342Z"/><path fill="#FFFFF5" transform="matrix(3.66168 0 0 3.6625 0 -0.00012207)" d="M237.657 72.6176C231.619 68.415 239.111 64.4727 244.351 66.5972C244.538 67.28 244.699 67.7149 244.621 68.4293C244.881 69.491 245.01 69.856 244.802 70.943C244.783 71.3633 244.788 72.2587 244.631 72.5938C244.014 72.4578 242.906 72.7228 242.24 72.8403C240.404 72.9803 239.458 72.8372 237.657 72.6176Z"/><path fill="#169A50" transform="matrix(3.66168 0 0 3.6625 0 -0.00012207)" d="M237.657 72.6176C231.619 68.415 239.111 64.4727 244.351 66.5972C244.538 67.28 244.699 67.7149 244.621 68.4293C243.212 67.5247 241.962 67.0681 240.251 67.395C238.24 67.779 236.796 69.9635 239.046 71.1866C239.794 71.5933 241.175 71.5345 242.036 71.5398C242.159 72.0091 242.291 72.3591 242.24 72.8403C240.404 72.9803 239.458 72.8372 237.657 72.6176Z"/><path fill="#169A50" transform="matrix(3.66168 0 0 3.6625 0 -0.00012207)" d="M244.802 70.943C244.783 71.3633 244.788 72.2587 244.631 72.5938C244.014 72.4578 242.906 72.7228 242.24 72.8403C242.291 72.3591 242.159 72.0091 242.036 71.5398C242.844 71.4088 243.975 71.1252 244.802 70.943Z"/><path fill="#169A50" transform="matrix(3.66168 0 0 3.6625 0 -0.00012207)" d="M90.327 66.5474C91.8917 66.4645 93.7189 66.0203 93.9441 67.8728C93.3607 68.6729 87.7673 67.9352 87.3192 70.3012C86.4204 75.0474 90.5316 75.7773 94.1361 74.34C94.368 74.6682 94.3828 75.0033 94.4508 75.4063C92.6479 78.4849 82.1031 76.0203 85.5433 70.0144C86.7864 67.8442 88.0753 67.3171 90.327 66.5474Z"/><path fill="#00843F" transform="matrix(3.66168 0 0 3.6625 0 -0.00012207)" d="M231.898 63.088C232.747 62.9814 232.584 62.8645 233.158 63.2468C233.247 64.7569 233.4 72.3308 233.131 73.5003C232.305 73.9053 231.14 73.6735 230.575 72.9435L230.629 65.0839C229.519 64.9101 229.073 64.9894 228.288 64.3311L228.464 63.9423C229.528 63.319 230.679 63.2492 231.898 63.088Z"/><path fill="#0FA942" transform="matrix(3.66168 0 0 3.6625 0 -0.00012207)" d="M155.394 50.0528C157.096 49.804 158.682 50.9704 158.951 52.6693C159.221 54.3683 158.073 55.9678 156.378 56.2575C155.263 56.4481 154.131 56.0243 153.416 55.148C152.7 54.2718 152.511 53.0785 152.92 52.0239C153.33 50.9694 154.275 50.2165 155.394 50.0528Z"/><path fill="#169A50" transform="matrix(3.66168 0 0 3.6625 0 -0.00012207)" d="M72.6328 65.8355C76.5638 69.0006 75.6432 65.5632 81.0706 66.9896L80.723 68.462C78.6327 67.6625 77.2905 68.1189 75.2855 68.8313C75.2176 70.8727 75.8169 74.3737 74.9143 75.8643C74.1122 76.2774 74.4411 76.203 73.4694 76.0307C72.6088 75.1215 72.7454 67.5255 72.6328 65.8355Z"/><path fill="#169A50" transform="matrix(3.66168 0 0 3.6625 0 -0.00012207)" d="M62.6243 66.7029C63.7629 66.5164 64.8577 66.1322 65.7405 67.0239L65.7831 67.4122C64.9712 68.2719 62.973 68.3128 61.6831 68.7622L61.5482 69.4757C62.7248 71.1401 65.1752 72.2183 65.6334 74.1589C65.3337 75.5332 64.1944 76.0241 62.8738 76.2618C61.7456 76.6072 60.8119 76.4915 59.7152 76.1869L59.6096 75.8753C61.6314 74.6201 62.5602 75.2721 63.9113 74.1455L63.9708 74.0951C62.7565 72.6172 59.7115 71.1364 59.7537 69.1996C60.1706 67.8439 61.4066 67.3559 62.6243 66.7029Z"/><path fill="#00843F" transform="matrix(3.66168 0 0 3.6625 0 -0.00012207)" d="M63.9708 74.0951L64.583 74.2098L64.6682 74.6855C64.0701 75.4574 63.6579 75.7034 62.8738 76.2618C61.7456 76.6072 60.8119 76.4915 59.7152 76.1869L59.6096 75.8753C61.6314 74.6201 62.5602 75.2721 63.9113 74.1455L63.9708 74.0951Z"/><path fill="#0FA942" transform="matrix(3.66168 0 0 3.6625 0 -0.00012207)" d="M62.6243 66.7029C63.7629 66.5164 64.8577 66.1322 65.7405 67.0239L65.7831 67.4122C64.9712 68.2719 62.973 68.3128 61.6831 68.7622C62.0636 68.1211 62.5763 67.9086 63.225 67.5185L62.6243 66.7029Z"/><path fill="#0FA942" transform="matrix(3.66168 0 0 3.6625 0 -0.00012207)" d="M269.25 69.7382C269.61 70.0433 269.826 70.2724 270.276 70.4245L270.172 70.7565C270.923 71.4128 271.773 71.6112 272.295 72.1543C272.637 73.794 272.489 75.421 270.567 75.9796C269.268 76.4922 263.735 77.2766 263.308 75.4229C264.311 74.8071 266.238 75.1067 267.5 75.1859C269.248 74.8408 269.625 74.7487 270.651 73.3204C268.875 71.1734 266.435 72.07 264.777 70.777C265.167 70.3864 268.37 69.9109 269.25 69.7382Z"/><path fill="#0FA942" transform="matrix(3.66168 0 0 3.6625 0 -0.00012207)" d="M244.351 66.5972C250.747 69.5168 245.677 75.8458 240.238 76.917C239.296 77.0227 238.196 77.2533 237.459 76.564C237.844 75.9399 237.876 76.078 238.669 75.7145C240.889 76.152 243.314 74.1438 244.631 72.5938C244.788 72.2587 244.783 71.3633 244.802 70.943C245.01 69.856 244.881 69.491 244.621 68.4293C244.699 67.7149 244.538 67.28 244.351 66.5972Z"/><path fill="#00843F" transform="matrix(3.66168 0 0 3.6625 0 -0.00012207)" d="M240.238 76.917C239.296 77.0227 238.196 77.2533 237.459 76.564C237.844 75.9399 237.876 76.078 238.669 75.7145C239.388 76.0747 239.812 76.2216 240.238 76.917Z"/><path fill="#169A50" transform="matrix(3.66168 0 0 3.6625 0 -0.00012207)" d="M67.5554 67.7092L67.6758 66.9621C68.561 66.5445 69.7077 66.5118 70.2188 67.5082C69.8138 70.2884 70.4699 73.9883 70.0178 76.0139L69.5837 76.2835C66.5445 75.8912 67.7032 70.5342 67.5554 67.7092Z"/><path fill="#0FA942" transform="matrix(3.66168 0 0 3.6625 0 -0.00012207)" d="M81.0706 66.9896C82.3261 67.609 82.7317 67.7787 83.2246 69.1912C83.8464 70.9729 84.0742 75.3939 82.4492 76.6547C80.3491 75.4778 82.0197 71.0348 80.723 68.462L81.0706 66.9896Z"/><path fill="#00843F" transform="matrix(3.66168 0 0 3.6625 0 -0.00012207)" d="M209.153 129.555C209.633 129.539 210.177 129.498 210.65 129.591C211.203 129.7 211.527 129.975 211.847 130.421C211.889 131.02 211.893 131.232 211.529 131.743C211.01 132.469 209.88 132.561 209.062 132.708C208.177 132.814 207.24 132.789 206.496 132.261C206.332 131.824 206.259 131.708 206.468 131.252C206.949 130.197 208.146 129.924 209.153 129.555Z"/><path fill="#0FA942" transform="matrix(3.66168 0 0 3.6625 0 -0.00012207)" d="M269.588 67.2281C268.688 67.2412 268.036 67.0321 267.014 67.1548C266.133 67.2604 264.358 67.6475 263.655 67.3432C263.587 66.5664 263.503 66.8537 264.023 66.219C265.605 65.4339 268.564 65.5508 270.244 66.027L269.588 67.2281Z"/><path fill="#00843F" transform="matrix(3.66168 0 0 3.6625 0 -0.00012207)" d="M270.244 66.027C273.102 67.3032 273.199 69.1573 270.276 70.4245C269.826 70.2724 269.61 70.0433 269.25 69.7382C270.222 68.5958 270.175 68.4955 269.588 67.2281L270.244 66.027Z"/><path fill="#0FA942" transform="matrix(3.66168 0 0 3.6625 0 -0.00012207)" d="M183.851 76.3883C184.331 76.7203 185.115 77.3156 185.637 77.4862C184.774 78.5599 184.009 79.6725 183.219 80.7985C182.982 80.1004 182.949 80.0051 182.392 79.5302C182.982 78.5364 183.676 77.5224 183.851 76.3883Z"/><path fill="#0FA942" transform="matrix(3.66168 0 0 3.6625 0 -0.00012207)" d="M67.5946 62.7644C68.478 62.7156 69.5209 62.5371 70.2331 62.9981C70.606 63.847 70.465 63.7598 70.2888 64.7636C69.3326 64.8638 68.31 65.0531 67.56 64.4787C67.2634 63.6324 67.3908 63.7398 67.5946 62.7644Z"/></svg>