<svg version="1.1" id="Layer_1" xmlns="http://www.w3.org/2000/svg" xmlns:xlink="http://www.w3.org/1999/xlink" x="0px" y="0px"
	 width="100%" viewBox="0 0 392 364" enable-background="new 0 0 392 364" xml:space="preserve" shape-rendering="geometricPrecision">
<style>
  path { fill: #FFFFFF !important; stroke: #FFFFFF !important; stroke-width: 1.5; stroke-linejoin: round; stroke-linecap: round; }
  path[fill^="#F"], path[fill^="#f"], path[fill^="#D"], path[fill^="#d"], path[fill^="#E"], path[fill^="#e"] { fill: #3E8668 !important; stroke: #3E8668 !important; stroke-width: 1.5; stroke-linejoin: round; stroke-linecap: round; }
</style>
<path fill="#5C836A" opacity="1.000000" stroke="none" 
	d="
M225.000000,365.000000 
	C150.000015,365.000000 75.500023,365.000000 1.000030,365.000000 
	C1.000020,243.666702 1.000020,122.333405 1.000010,1.000079 
	C131.666611,1.000053 262.333221,1.000053 392.999878,1.000026 
	C392.999908,122.333252 392.999908,243.666504 392.999939,364.999878 
	C337.166656,365.000000 281.333344,365.000000 225.000000,365.000000 
M143.542892,181.631485 
	C142.469101,182.117264 141.395294,182.603043 139.793243,183.378159 
	C139.517334,183.896683 139.241440,184.415207 138.504395,185.292374 
	C138.629669,186.929688 138.754959,188.566986 138.852936,191.028030 
	C139.085449,192.653000 139.317978,194.277969 139.423920,196.632019 
	C139.740616,198.052185 140.057312,199.472366 140.305618,201.704819 
	C140.519974,202.761810 140.734329,203.818817 140.760300,205.607254 
	C141.099731,207.296448 141.439178,208.985641 141.627029,211.256516 
	C141.751144,211.837418 141.875259,212.418304 141.865173,213.695435 
	C144.289536,230.116714 146.713898,246.537979 149.095169,263.706146 
	C149.199142,264.443634 149.303101,265.181122 149.270081,266.718811 
	C149.665741,268.749084 150.061401,270.779388 150.372101,273.549133 
	C150.494171,274.026398 150.616226,274.503632 150.592560,275.840088 
	C151.646896,284.913452 152.430588,294.030029 153.870590,303.041779 
	C154.582947,307.499786 156.504593,311.764526 158.162537,316.716980 
	C161.759094,320.966736 166.358749,322.547089 171.885025,322.511139 
	C191.532578,322.383240 211.189682,322.098358 230.827438,322.552856 
	C250.306274,323.003632 253.044113,316.971008 254.530685,303.010895 
	C255.885040,290.292236 257.650391,277.617340 259.397247,264.488647 
	C259.467743,264.174927 259.437500,263.871246 259.725739,262.956085 
	C259.949402,260.942474 260.173035,258.928833 260.622437,256.194885 
	C260.663269,255.443573 260.704102,254.692245 261.079681,253.261612 
	C262.223572,245.918228 263.488678,238.591248 264.484253,231.227814 
	C266.164276,218.801605 267.673462,206.352295 269.514709,193.187683 
	C269.544342,192.422791 269.573975,191.657883 269.971069,190.304977 
	C269.758392,188.333527 269.545715,186.362076 269.329254,184.128876 
	C269.329254,184.128876 269.123871,183.966537 268.933105,183.253708 
	C264.973053,182.582977 261.034180,181.554520 257.048401,181.318802 
	C249.615402,180.879211 249.604050,181.071045 250.191727,173.374817 
	C250.127930,172.910858 250.064133,172.446884 250.337723,171.415543 
	C255.215866,162.528885 260.079651,153.634308 264.979584,144.759705 
	C266.804810,141.453888 268.714569,138.194763 270.984680,134.386566 
	C271.397491,133.374832 271.810333,132.363083 272.776276,130.929214 
	C274.902771,123.571999 277.029266,116.214790 279.463501,108.257545 
	C279.523895,107.814163 279.584290,107.370789 280.046112,106.512329 
	C280.157776,105.962738 280.269409,105.413147 280.721649,104.222885 
	C280.891418,103.274628 281.061188,102.326378 281.771484,100.927032 
	C283.825470,93.291222 285.879456,85.655403 288.145660,77.424500 
	C288.210846,76.798622 288.276062,76.172752 288.800415,74.968582 
	C290.495056,69.536789 288.811188,64.999603 284.538940,61.666054 
	C279.893372,58.041183 274.524780,57.745342 269.612854,60.941319 
	C266.560699,62.927189 263.966949,62.919258 260.746094,61.867393 
	C254.903366,59.959301 248.968124,58.319439 243.027695,56.731514 
	C239.613449,55.818863 236.967911,57.113983 236.057602,60.589718 
	C234.549637,66.347557 233.352768,72.186874 231.822433,78.476196 
	C231.774323,78.821175 231.726212,79.166145 231.178833,80.010963 
	C229.762695,85.386353 228.346558,90.761742 226.620468,96.741539 
	C226.559570,97.187347 226.498672,97.633156 225.975906,98.623177 
	C225.156555,101.456314 224.337204,104.289452 223.179657,107.912132 
	C223.270248,109.570305 223.360840,111.228477 223.551620,113.517174 
	C231.377090,115.975128 239.202545,118.433083 247.523453,121.597702 
	C247.009979,123.728798 246.496506,125.859886 245.508942,128.266174 
	C245.292969,128.758286 245.076996,129.250381 244.272415,130.059464 
	C240.143326,136.612946 236.014236,143.166443 231.391708,150.196671 
	C229.285446,156.790497 227.179184,163.384323 224.860901,170.469711 
	C224.878891,170.647247 224.896866,170.824799 224.667709,171.129807 
	C224.667709,171.129807 224.671432,171.407898 224.236679,171.909744 
	C224.054520,172.970474 223.872345,174.031204 223.382874,175.791656 
	C223.179337,177.039963 222.975800,178.288269 222.111023,180.099792 
	C220.294846,180.572845 218.501846,181.293274 216.657532,181.466034 
	C213.117035,181.797699 209.547455,181.818710 205.089920,181.788025 
	C201.729645,181.847275 198.369354,181.906525 194.274811,181.655228 
	C190.512711,181.758606 186.750610,181.862000 182.071640,181.789337 
	C177.379044,181.848328 172.686462,181.907333 167.270966,181.691040 
	C166.516083,181.782516 165.761215,181.873978 164.224991,181.760086 
	C163.155624,181.814423 162.086243,181.868759 160.402802,181.606491 
	C158.595444,181.715088 156.788101,181.823700 154.193130,181.756943 
	C153.127563,181.831863 152.061996,181.906784 150.226669,181.693817 
	C149.151596,181.793198 148.076523,181.892578 146.499374,181.871048 
	C146.332733,181.914154 146.166077,181.957245 145.374969,181.744888 
	C144.931259,181.782120 144.487549,181.819336 143.542892,181.631485 
z"/>
<path fill="#F1F7F3" opacity="1.000000" stroke="none" 
	d="
M269.123871,183.966537 
	C269.123871,183.966537 269.329254,184.128876 269.255981,184.679993 
	C269.323029,187.118393 269.463287,189.005692 269.603577,190.892990 
	C269.573975,191.657883 269.544342,192.422791 269.168579,193.810669 
	C266.544861,209.190140 264.177399,223.933609 262.039337,238.710281 
	C261.311005,243.744202 261.159821,248.861649 260.744934,253.940933 
	C260.704102,254.692245 260.663269,255.443573 260.261536,256.820251 
	C259.702606,259.489655 259.504547,261.533630 259.306488,263.577637 
	C259.437500,263.871246 259.467743,264.174927 259.091064,265.021820 
	C258.203522,267.793915 257.401337,270.001434 257.078064,272.277039 
	C255.465454,283.629822 254.081879,295.015656 252.418472,306.360626 
	C250.755096,317.705353 246.684128,320.972656 234.922424,320.498169 
	C232.733353,316.957031 230.077042,317.149811 224.576233,320.903442 
	C218.722473,320.898834 213.339020,320.876129 207.827118,320.540741 
	C206.069183,319.359100 204.359100,318.611053 202.830139,317.591370 
	C200.808044,316.242828 198.927795,314.681580 197.454376,313.184204 
	C206.628845,313.191467 215.335480,313.226227 224.097168,313.595032 
	C225.246475,314.859772 226.340714,315.790527 227.434967,316.721252 
	C228.276962,315.579590 229.118973,314.437927 230.419189,313.264832 
	C234.562073,312.447083 238.246765,311.660767 241.994507,310.651367 
	C242.057587,310.428223 242.332932,310.055054 242.642212,309.880188 
	C243.481201,306.228973 244.010925,302.752594 244.454224,299.083191 
	C244.322418,298.589355 244.403214,298.327423 244.860809,297.800415 
	C245.922302,293.827606 247.042679,290.195007 247.476791,286.482117 
	C248.270203,279.696503 248.657654,272.863434 249.183258,265.715210 
	C249.235291,264.941589 249.318481,264.502869 249.648315,263.861694 
	C250.034317,261.798645 250.173676,259.938110 250.279205,257.669067 
	C250.727386,254.203720 251.209396,251.146912 251.887558,247.934601 
	C252.086319,246.859406 252.088943,245.939758 252.059143,244.602814 
	C252.263306,242.820404 252.499863,241.455292 252.978226,239.820465 
	C253.339844,237.805527 253.459656,236.060272 253.527100,234.023376 
	C253.615067,233.162857 253.755417,232.593994 254.115021,231.682251 
	C254.416016,229.998260 254.497772,228.657135 254.513550,227.105850 
	C254.428268,226.585159 254.521133,226.312897 254.962555,225.756042 
	C255.667984,221.064774 256.137054,216.696335 256.533905,212.117371 
	C256.435608,211.593506 256.523804,211.316559 256.960022,210.762650 
	C257.516785,206.976883 257.839783,203.504456 258.122864,199.631104 
	C258.275299,198.182190 258.467621,197.134186 258.876007,195.905060 
	C258.830200,194.468918 258.568298,193.213913 257.987732,191.908508 
	C256.821350,191.725525 255.973572,191.592972 254.786469,191.193390 
	C252.354782,190.624054 250.264893,190.082092 248.169617,190.060379 
	C238.446640,189.959625 228.722168,190.003113 219.137787,189.668854 
	C219.848618,187.267014 220.419861,185.191269 221.245026,182.874695 
	C221.923401,181.601410 222.347824,180.568985 222.772247,179.536575 
	C222.975800,178.288269 223.179337,177.039963 223.773163,175.208801 
	C224.332764,173.553268 224.502090,172.480591 224.671417,171.407898 
	C224.671432,171.407898 224.667709,171.129807 225.082184,171.231003 
	C227.029266,172.913040 228.561859,174.493896 230.163422,176.550507 
	C230.387482,177.651917 230.542587,178.277573 230.776581,179.057175 
	C230.741867,179.517471 230.628235,179.823837 230.462341,180.402115 
	C230.946426,181.094788 231.482773,181.515549 232.414001,181.869156 
	C233.869217,181.859146 234.929565,181.916290 236.257965,182.152008 
	C237.350266,182.553116 238.174530,182.775650 239.144287,183.304077 
	C243.614197,188.114090 244.827866,187.895096 248.390549,182.131180 
	C255.573929,182.802719 262.348907,183.384628 269.123871,183.966537 
z"/>
<path fill="#F1F7F3" opacity="1.000000" stroke="none" 
	d="
M288.341248,75.546875 
	C288.276062,76.172752 288.210846,76.798622 287.827576,77.964569 
	C286.942566,79.674171 286.375580,80.843704 285.464661,81.919830 
	C283.313416,81.177094 281.506134,80.527763 279.651306,79.557045 
	C279.558929,78.807381 279.514099,78.379105 279.632507,77.612785 
	C279.926910,76.539696 280.058105,75.804649 280.433960,74.793549 
	C280.146667,72.574089 279.614746,70.630699 279.062744,68.586884 
	C279.042664,68.486465 278.837891,68.490692 278.637726,68.203033 
	C276.881042,68.215553 275.324554,68.515724 273.802368,68.822533 
	C273.836731,68.829170 273.818939,68.761505 273.501373,68.925804 
	C271.994263,73.410530 270.804718,77.730965 269.434662,82.388351 
	C269.146271,83.474831 269.038361,84.224358 268.703979,85.167877 
	C268.204803,85.891037 267.932098,86.420204 267.404175,87.104004 
	C266.788055,88.845604 266.427216,90.432571 266.071716,92.344666 
	C265.731140,93.453278 265.385193,94.236755 264.726501,95.198608 
	C263.736816,98.158501 263.059906,100.940010 262.401642,104.016861 
	C262.234222,104.868370 262.048157,105.424530 261.586853,106.143570 
	C260.940979,108.223068 260.570312,110.139702 260.199738,112.425125 
	C260.122375,113.525635 260.044922,114.257355 259.742004,115.012527 
	C259.516510,115.035995 259.080658,115.160866 258.809021,114.955704 
	C256.977478,113.795738 255.417587,112.840942 253.880386,111.508240 
	C253.821243,103.878059 246.136597,106.039268 241.937958,101.277061 
	C245.594223,100.751228 248.300247,100.362053 251.412415,99.979103 
	C253.382935,99.342964 254.947296,98.700592 256.691284,97.944778 
	C256.885406,97.211845 256.899933,96.592361 256.915283,95.590698 
	C257.306793,93.481606 257.697449,91.754692 258.299438,89.763924 
	C260.710724,85.765945 259.697937,83.611664 255.368286,83.028473 
	C254.220474,82.873871 253.091843,82.576965 251.669403,82.139809 
	C248.429398,80.960442 246.415085,79.227661 246.727539,75.621178 
	C247.535828,74.682968 248.077728,73.956039 248.814423,73.330795 
	C249.441269,73.417946 249.873322,73.403419 250.558121,73.607986 
	C251.896378,73.936333 252.981873,74.045593 254.436584,74.318138 
	C255.859299,74.690315 256.912811,74.899223 258.260773,75.361618 
	C260.512421,76.455589 262.388702,76.934372 262.940155,74.032799 
	C263.572906,70.703400 261.350403,70.324829 258.944702,70.165878 
	C259.005615,70.063530 259.084381,69.838730 258.958252,69.578323 
	C258.217682,68.865166 257.603241,68.412415 256.875092,67.643547 
	C254.841904,65.214317 252.922394,63.101204 251.389526,61.020363 
	C252.583878,61.221958 253.434174,61.282104 254.192566,61.577888 
	C260.279083,63.951694 265.952728,65.203453 272.561127,61.845573 
	C278.598602,58.777794 285.615662,62.158180 287.386108,67.709053 
	C288.171844,70.172592 288.050751,72.925385 288.341248,75.546875 
z"/>
<path fill="#F4FAF6" opacity="1.000000" stroke="none" 
	d="
M220.991104,183.115540 
	C220.419861,185.191269 219.848618,187.267014 219.099518,189.918884 
	C218.914032,190.830643 218.906372,191.166260 218.443848,191.587494 
	C199.364517,191.604950 180.740067,191.536804 161.807877,191.204315 
	C158.966995,191.102753 156.433823,191.265564 153.577667,191.519165 
	C151.930466,191.776978 150.606262,191.944000 148.918732,192.036865 
	C145.506332,190.646347 142.457275,189.329987 139.344269,187.629700 
	C139.175385,186.475098 139.070465,185.704407 138.965530,184.933731 
	C139.241440,184.415207 139.517334,183.896683 140.425400,183.255951 
	C142.039993,183.091568 143.022446,183.049408 144.276764,182.929291 
	C145.032227,182.567688 145.515823,182.284027 145.999420,182.000366 
	C146.166077,181.957245 146.332733,181.914154 146.815460,182.249619 
	C147.784073,183.223251 148.436615,183.818314 149.089142,184.413376 
	C149.724899,183.602814 150.360657,182.792252 150.996429,181.981689 
	C152.061996,181.906784 153.127563,181.831863 154.885162,182.045563 
	C157.390427,182.197159 159.203644,182.060135 161.016876,181.923111 
	C162.086243,181.868759 163.155624,181.814423 164.731964,182.106934 
	C166.157242,182.291290 167.075546,182.128815 167.993866,181.966339 
	C172.686462,181.907333 177.379044,181.848328 182.880066,182.084564 
	C187.462021,182.241791 191.235550,182.103775 195.009079,181.965775 
	C198.369354,181.906525 201.729645,181.847275 205.896194,182.088440 
	C211.465347,182.631073 216.228226,182.873306 220.991104,183.115540 
z"/>
<path fill="#F4FAF6" opacity="1.000000" stroke="none" 
	d="
M251.002884,60.988091 
	C252.922394,63.101204 254.841904,65.214317 256.856079,67.961777 
	C256.960693,68.808212 256.970642,69.020294 256.650940,69.182922 
	C255.913437,68.960266 255.505600,68.787079 254.885605,68.349701 
	C253.597794,67.867035 252.522141,67.648544 251.134369,67.418709 
	C250.207321,67.298805 249.592361,67.190247 248.817078,66.752411 
	C246.936356,66.641869 245.216003,66.860580 243.333908,67.412788 
	C243.016479,68.467255 242.860779,69.188232 242.503601,70.118301 
	C242.247620,70.891396 242.193100,71.455399 242.012970,72.239029 
	C241.811584,72.609352 241.735840,72.760056 241.382324,73.102890 
	C239.565262,79.408012 238.025940,85.520988 236.459869,91.935928 
	C236.240738,92.810966 236.048386,93.384026 235.564636,94.153313 
	C234.683945,96.771568 234.094650,99.193611 233.485382,101.925140 
	C233.254181,102.814224 233.042923,103.393829 232.626343,104.070999 
	C232.334961,104.795578 232.248886,105.422592 232.244507,106.360229 
	C232.868805,107.567467 233.411392,108.464088 234.046204,109.557365 
	C234.758118,109.840683 235.377777,109.927345 236.345428,110.006577 
	C237.791321,110.356422 238.889206,110.713715 240.111084,111.315361 
	C241.162491,111.687630 242.089920,111.815536 243.363770,111.950157 
	C245.184982,112.489365 246.659760,113.021858 248.102692,113.954872 
	C247.732101,116.166771 247.393356,117.978149 246.679413,119.730927 
	C238.686600,117.410431 231.069016,115.148537 223.451416,112.886650 
	C223.360840,111.228477 223.270248,109.570305 223.622101,107.361305 
	C224.777740,105.251633 225.490921,103.692795 226.384537,102.010391 
	C226.731262,101.257568 226.897552,100.628296 227.040527,99.741852 
	C226.824066,99.016113 226.630920,98.547539 226.437775,98.078972 
	C226.498672,97.633156 226.559570,97.187347 227.013062,96.221741 
	C228.829803,90.305008 230.253952,84.908066 231.678101,79.511124 
	C231.726212,79.166145 231.774323,78.821175 232.167450,77.973717 
	C233.911209,73.121689 235.322739,68.776192 236.705719,64.421638 
	C238.841095,57.698082 240.365265,56.873379 247.031357,59.087978 
	C248.413116,59.547024 249.681992,60.345860 251.002884,60.988091 
z"/>
<path fill="#D9E7DE" opacity="1.000000" stroke="none" 
	d="
M234.969620,320.824158 
	C246.684128,320.972656 250.755096,317.705353 252.418472,306.360626 
	C254.081879,295.015656 255.465454,283.629822 257.078064,272.277039 
	C257.401337,270.001434 258.203522,267.793915 259.009705,265.239075 
	C257.650391,277.617340 255.885040,290.292236 254.530685,303.010895 
	C253.044113,316.971008 250.306274,323.003632 230.827438,322.552856 
	C211.189682,322.098358 191.532578,322.383240 171.885025,322.511139 
	C166.358749,322.547089 161.759094,320.966736 158.132797,316.311707 
	C158.103058,315.906403 158.327057,315.696167 158.613525,315.871765 
	C162.952072,317.650665 167.004150,319.253937 171.521057,320.874054 
	C183.975769,320.878448 195.965683,320.865936 207.955582,320.853455 
	C213.339020,320.876129 218.722473,320.898834 225.024094,320.923157 
	C228.951385,320.891235 231.960510,320.857697 234.969620,320.824158 
z"/>
<path fill="#F4FAF6" opacity="1.000000" stroke="none" 
	d="
M279.698853,79.878441 
	C281.506134,80.527763 283.313416,81.177094 285.432251,82.300499 
	C284.239563,88.975761 282.735260,95.176941 281.230957,101.378120 
	C281.061188,102.326378 280.891418,103.274628 280.347870,104.621964 
	C279.864288,105.656494 279.754456,106.291946 279.644653,106.927406 
	C279.584290,107.370789 279.523895,107.814163 279.070374,108.777939 
	C276.787933,114.532150 274.898651,119.765968 272.678345,124.899124 
	C270.608215,124.200211 268.869110,123.601967 267.085693,122.683777 
	C267.383362,121.582962 267.725433,120.802101 268.344177,120.037796 
	C268.805481,120.047462 268.990143,120.040581 269.410065,119.985489 
	C269.757294,119.289139 269.869293,118.640984 269.934357,117.554970 
	C269.772858,116.542076 269.658264,115.967026 269.565796,115.026886 
	C269.784454,113.461754 269.981018,112.261703 270.384216,110.938416 
	C270.761108,110.542778 270.947052,110.281593 271.425232,109.852905 
	C272.142365,107.450493 272.582977,105.226768 273.018951,102.634842 
	C273.434357,100.857704 273.854401,99.448769 274.536560,97.866890 
	C275.151672,95.783676 275.504700,93.873413 275.849762,91.594025 
	C275.925446,90.493896 276.009094,89.762886 276.330444,88.790558 
	C276.980743,87.025604 277.393341,85.501976 277.950653,83.682358 
	C278.195923,82.518333 278.296478,81.650291 278.632874,80.659164 
	C279.145416,80.316864 279.422150,80.097656 279.698853,79.878441 
z"/>
<path fill="#F4FAF6" opacity="1.000000" stroke="none" 
	d="
M149.407074,265.918610 
	C149.303101,265.181122 149.199142,264.443634 149.255188,263.008942 
	C149.218781,258.892273 149.022354,255.472824 149.214905,252.009262 
	C150.727051,250.942566 151.912140,249.978928 152.956985,248.881729 
	C154.131073,247.648804 155.178513,246.295303 156.387451,245.050018 
	C156.493835,245.105804 156.441437,245.340302 156.326126,245.728088 
	C156.572571,247.778824 156.934326,249.441772 157.432312,251.520599 
	C158.090530,256.296967 158.612518,260.657440 158.871017,265.164124 
	C158.703720,266.563354 158.799911,267.816376 158.913849,269.502869 
	C159.315887,273.949921 159.700150,277.963470 159.726196,282.029175 
	C157.490601,283.092010 155.613205,284.102722 153.540405,284.797028 
	C152.847015,281.329132 152.349045,278.177612 152.097168,274.765991 
	C155.895218,269.424530 155.702286,268.403961 150.788818,266.922241 
	C150.223236,266.458557 149.815155,266.188568 149.407074,265.918610 
z"/>
<path fill="#F8FDF9" opacity="1.000000" stroke="none" 
	d="
M247.054596,119.789528 
	C247.393356,117.978149 247.732101,116.166771 248.441071,113.931366 
	C249.961639,113.019035 251.111984,112.530739 252.530884,112.041855 
	C253.152176,111.989555 253.504944,111.937843 253.857697,111.886139 
	C255.417587,112.840942 256.977478,113.795738 258.841919,115.170448 
	C259.146423,115.590363 259.039612,116.011452 258.744873,116.209732 
	C257.861481,118.842644 257.272858,121.277275 256.638367,124.045578 
	C256.369720,125.244118 256.146942,126.108971 255.675491,127.141319 
	C255.258560,127.867836 255.090317,128.426865 254.697845,129.159393 
	C253.948837,129.871460 253.424042,130.410019 252.652039,131.006409 
	C252.255356,131.706650 252.105911,132.349030 251.880402,133.300812 
	C251.150787,134.387665 250.497238,135.165115 249.503998,136.046326 
	C247.195465,136.558350 245.226624,136.966644 243.257782,137.374939 
	C243.607361,135.619827 243.948959,133.863052 244.310196,132.110336 
	C244.473724,131.316910 244.676208,130.531525 244.861023,129.742493 
	C245.076996,129.250381 245.292969,128.758286 246.062592,128.011429 
	C248.652863,125.262672 252.183640,122.855125 247.063797,119.907928 
	C247.059479,119.868568 247.054596,119.789528 247.054596,119.789528 
z"/>
<path fill="#F8FDF9" opacity="1.000000" stroke="none" 
	d="
M247.982147,182.041565 
	C244.827866,187.895096 243.614197,188.114090 239.321960,183.101135 
	C239.599762,182.120163 239.845398,181.648041 240.086197,181.133423 
	C240.081375,181.090927 240.166428,181.081650 240.430023,180.871521 
	C240.841980,179.813370 240.990341,178.965317 241.140381,177.749176 
	C241.498444,175.943420 241.854843,174.505737 242.492065,172.860275 
	C243.361847,170.244385 243.950790,167.836304 244.568665,165.119812 
	C244.804108,164.230408 245.010635,163.649399 245.525116,162.908691 
	C246.436325,160.998428 247.039581,159.247849 247.686996,157.348724 
	C247.731140,157.200150 247.950348,156.980972 248.175735,156.920563 
	C248.594421,156.238174 248.787720,155.616196 249.071732,154.669876 
	C249.655487,153.605438 250.148544,152.865341 250.756897,152.552124 
	C254.607178,159.498337 250.787109,165.671051 250.000336,171.982925 
	C250.064133,172.446884 250.127930,172.910858 249.780426,173.944870 
	C248.906815,177.023804 248.444489,179.532684 247.982147,182.041565 
z"/>
<path fill="#D2E3D8" opacity="1.000000" stroke="none" 
	d="
M251.389526,61.020363 
	C249.681992,60.345860 248.413116,59.547024 247.031357,59.087978 
	C240.365265,56.873379 238.841095,57.698082 236.705719,64.421638 
	C235.322739,68.776192 233.911209,73.121689 232.268646,77.731552 
	C233.352768,72.186874 234.549637,66.347557 236.057602,60.589718 
	C236.967911,57.113983 239.613449,55.818863 243.027695,56.731514 
	C248.968124,58.319439 254.903366,59.959301 260.746094,61.867393 
	C263.966949,62.919258 266.560699,62.927189 269.612854,60.941319 
	C274.524780,57.745342 279.893372,58.041183 284.538940,61.666054 
	C288.811188,64.999603 290.495056,69.536789 288.570831,75.257729 
	C288.050751,72.925385 288.171844,70.172592 287.386108,67.709053 
	C285.615662,62.158180 278.598602,58.777794 272.561127,61.845573 
	C265.952728,65.203453 260.279083,63.951694 254.192566,61.577888 
	C253.434174,61.282104 252.583878,61.221958 251.389526,61.020363 
z"/>
<path fill="#DDEAE3" opacity="1.000000" stroke="none" 
	d="
M244.566711,129.900970 
	C244.676208,130.531525 244.473724,131.316910 244.310196,132.110336 
	C243.948959,133.863052 243.607361,135.619827 243.257782,137.374939 
	C245.226624,136.966644 247.195465,136.558350 249.480316,136.397949 
	C245.399399,143.994766 241.002457,151.343719 236.524506,158.290131 
	C235.550644,155.301453 239.448685,149.618652 232.059464,150.825531 
	C231.962906,150.211273 231.924026,149.965607 231.885162,149.719940 
	C236.014236,143.166443 240.143326,136.612946 244.566711,129.900970 
z"/>
<path fill="#F6FBF8" opacity="1.000000" stroke="none" 
	d="
M267.130035,123.003723 
	C268.869110,123.601967 270.608215,124.200211 272.646423,125.298416 
	C272.704773,127.649376 272.463959,129.500366 272.223145,131.351349 
	C271.810333,132.363083 271.397491,133.374832 270.496948,134.782745 
	C267.000336,139.300583 264.063721,143.478638 260.925110,147.499039 
	C260.251617,148.361771 258.847290,148.654007 257.779602,149.209045 
	C257.499481,147.895737 256.759308,146.474564 257.036560,145.291946 
	C257.586731,142.945251 258.697906,140.730072 259.684753,138.147339 
	C261.194702,135.555588 262.597107,133.277069 264.322601,130.844208 
	C265.301453,128.619492 265.957245,126.549126 266.622192,124.209152 
	C266.797577,123.627609 266.963806,123.315666 267.130035,123.003723 
z"/>
<path fill="#D9E7DE" opacity="1.000000" stroke="none" 
	d="
M259.577271,138.460541 
	C258.697906,140.730072 257.586731,142.945251 257.036560,145.291946 
	C256.759308,146.474564 257.499481,147.895737 257.779602,149.209045 
	C258.847290,148.654007 260.251617,148.361771 260.925110,147.499039 
	C264.063721,143.478638 267.000336,139.300583 270.297485,135.046631 
	C268.714569,138.194763 266.804810,141.453888 264.979584,144.759705 
	C260.079651,153.634308 255.215866,162.528885 250.169037,171.699234 
	C250.787109,165.671051 254.607178,159.498337 250.775421,152.227600 
	C253.644836,147.137665 256.611053,142.799103 259.577271,138.460541 
z"/>
<path fill="#F6FBF8" opacity="1.000000" stroke="none" 
	d="
M139.408218,188.013611 
	C142.457275,189.329987 145.506332,190.646347 148.967499,192.359894 
	C149.391312,193.625916 149.403030,194.494751 149.314880,195.844543 
	C149.222977,198.607773 149.230942,200.890076 149.045990,203.464569 
	C148.011093,207.834244 146.208511,209.834213 142.051514,206.644104 
	C141.643402,205.901688 141.296051,205.388748 140.948685,204.875809 
	C140.734329,203.818817 140.519974,202.761810 140.486450,201.020996 
	C140.295013,198.859100 139.922760,197.381012 139.550491,195.902939 
	C139.317978,194.277969 139.085449,192.653000 138.979889,190.257828 
	C139.207291,188.996292 139.307755,188.504944 139.408218,188.013611 
z"/>
<path fill="#E2EDE6" opacity="1.000000" stroke="none" 
	d="
M142.112274,206.873581 
	C146.208511,209.834213 148.011093,207.834244 149.174072,203.773071 
	C150.228653,205.866211 150.962265,207.943085 151.786377,210.355865 
	C151.853928,211.152618 151.831009,211.613434 151.662811,212.411621 
	C151.699753,216.448029 151.881973,220.147049 151.700424,223.910400 
	C149.483307,226.329437 147.629959,228.684158 145.636490,230.684357 
	C144.330704,224.552948 143.165039,218.776062 141.999359,212.999191 
	C141.875259,212.418304 141.751144,211.837418 141.758911,210.490173 
	C141.964615,208.773758 142.038452,207.823669 142.112274,206.873581 
z"/>
<path fill="#F8FDF9" opacity="1.000000" stroke="none" 
	d="
M232.117157,151.194138 
	C239.448685,149.618652 235.550644,155.301453 236.507904,158.593079 
	C236.347473,159.858490 236.122635,160.418411 235.597931,161.169067 
	C234.764191,163.521118 234.230331,165.682434 233.692535,168.169647 
	C233.446625,169.327911 233.204651,170.160248 232.721909,171.121475 
	C232.338013,172.171570 232.194885,173.092773 232.049133,174.347061 
	C231.902924,175.097855 231.759354,175.515564 231.360046,175.933334 
	C230.767670,175.980499 230.431061,176.027618 230.094452,176.074738 
	C228.561859,174.493896 227.029266,172.913040 225.205765,171.167267 
	C224.896866,170.824799 224.878891,170.647247 225.211090,169.973450 
	C227.746582,163.382828 229.931870,157.288483 232.117157,151.194138 
z"/>
<path fill="#D9E7DE" opacity="1.000000" stroke="none" 
	d="
M260.912292,253.601273 
	C261.159821,248.861649 261.311005,243.744202 262.039337,238.710281 
	C264.177399,223.933609 266.544861,209.190140 269.038483,194.173187 
	C267.673462,206.352295 266.164276,218.801605 264.484253,231.227814 
	C263.488678,238.591248 262.223572,245.918228 260.912292,253.601273 
z"/>
<path fill="#D9E7DE" opacity="1.000000" stroke="none" 
	d="
M141.932281,213.347321 
	C143.165039,218.776062 144.330704,224.552948 145.696335,231.105835 
	C146.872849,238.605698 147.849396,245.329544 148.825928,252.053375 
	C149.022354,255.472824 149.218781,258.892273 149.276733,262.635498 
	C146.713898,246.537979 144.289536,230.116714 141.932281,213.347321 
z"/>
<path fill="#D9E7DE" opacity="1.000000" stroke="none" 
	d="
M151.851074,275.026123 
	C152.349045,278.177612 152.847015,281.329132 153.584717,285.235840 
	C154.801117,292.696625 155.777771,299.402161 156.786819,306.468750 
	C156.857712,307.555145 156.896210,308.280579 156.955444,309.392151 
	C157.426483,311.750916 157.876770,313.723541 158.327057,315.696167 
	C158.327057,315.696167 158.103058,315.906403 157.991089,316.011566 
	C156.504593,311.764526 154.582947,307.499786 153.870590,303.041779 
	C152.430588,294.030029 151.646896,284.913452 150.851929,275.409668 
	C151.357803,274.996338 151.604401,275.011963 151.851074,275.026123 
z"/>
<path fill="#D9E7DE" opacity="1.000000" stroke="none" 
	d="
M248.390564,182.131180 
	C248.444489,179.532684 248.906815,177.023804 249.648712,174.270569 
	C249.604050,181.071045 249.615402,180.879211 257.048401,181.318802 
	C261.034180,181.554520 264.973053,182.582977 269.028503,183.610123 
	C262.348907,183.384628 255.573929,182.802719 248.390564,182.131180 
z"/>
<path fill="#D2E3D8" opacity="1.000000" stroke="none" 
	d="
M223.501526,113.201912 
	C231.069016,115.148537 238.686600,117.410431 246.679398,119.730927 
	C247.054596,119.789528 247.059479,119.868568 247.056763,120.144157 
	C247.054047,120.419746 247.028015,120.891029 247.028015,120.891029 
	C239.202545,118.433083 231.377090,115.975128 223.501526,113.201912 
z"/>
<path fill="#D9E7DE" opacity="1.000000" stroke="none" 
	d="
M232.059464,150.825531 
	C229.931870,157.288483 227.746582,163.382828 225.317108,169.727661 
	C227.179184,163.384323 229.285446,156.790497 231.638428,149.958313 
	C231.924026,149.965607 231.962906,150.211273 232.059464,150.825531 
z"/>
<path fill="#D2E3D8" opacity="1.000000" stroke="none" 
	d="
M272.499695,131.140289 
	C272.463959,129.500366 272.704773,127.649376 272.977478,125.399094 
	C274.898651,119.765968 276.787933,114.532150 278.916473,109.077957 
	C277.029266,116.214790 274.902771,123.571999 272.499695,131.140289 
z"/>
<path fill="#D2E3D8" opacity="1.000000" stroke="none" 
	d="
M281.501221,101.152573 
	C282.735260,95.176941 284.239563,88.975761 285.776245,82.393913 
	C286.375580,80.843704 286.942566,79.674171 287.721497,78.262115 
	C285.879456,85.655403 283.825470,93.291222 281.501221,101.152573 
z"/>
<path fill="#D9E7DE" opacity="1.000000" stroke="none" 
	d="
M221.245026,182.874695 
	C216.228226,182.873306 211.465347,182.631073 206.346191,182.178711 
	C209.547455,181.818710 213.117035,181.797699 216.657532,181.466034 
	C218.501846,181.293274 220.294846,180.572845 222.441635,179.818176 
	C222.347824,180.568985 221.923401,181.601410 221.245026,182.874695 
z"/>
<path fill="#D2E3D8" opacity="1.000000" stroke="none" 
	d="
M231.428467,79.761047 
	C230.253952,84.908066 228.829803,90.305008 227.168030,95.919540 
	C228.346558,90.761742 229.762695,85.386353 231.428467,79.761047 
z"/>
<path fill="#E2EDE6" opacity="1.000000" stroke="none" 
	d="
M152.097168,274.765991 
	C151.604401,275.011963 151.357803,274.996338 150.924805,274.980103 
	C150.616226,274.503632 150.494171,274.026398 150.524628,272.842346 
	C150.766876,270.462402 150.856598,268.789185 150.946335,267.115997 
	C155.702286,268.403961 155.895218,269.424530 152.097168,274.765991 
z"/>
<path fill="#D9E7DE" opacity="1.000000" stroke="none" 
	d="
M194.641937,181.810501 
	C191.235550,182.103775 187.462021,182.241791 183.338501,182.172577 
	C186.750610,181.862000 190.512711,181.758606 194.641937,181.810501 
z"/>
<path fill="#E2EDE6" opacity="1.000000" stroke="none" 
	d="
M247.275726,121.244370 
	C247.028015,120.891029 247.054047,120.419746 247.061081,120.183517 
	C252.183640,122.855125 248.652863,125.262672 246.299637,127.873825 
	C246.496506,125.859886 247.009979,123.728798 247.275726,121.244370 
z"/>
<path fill="#D2E3D8" opacity="1.000000" stroke="none" 
	d="
M226.204102,102.133949 
	C225.490921,103.692795 224.777740,105.251633 223.791199,106.966537 
	C224.337204,104.289452 225.156555,101.456314 226.206848,98.351074 
	C226.630920,98.547539 226.824066,99.016113 226.877426,99.983498 
	C226.559799,101.032852 226.381943,101.583397 226.204102,102.133949 
z"/>
<path fill="#D9E7DE" opacity="1.000000" stroke="none" 
	d="
M150.788818,266.922241 
	C150.856598,268.789185 150.766876,270.462402 150.567108,272.472626 
	C150.061401,270.779388 149.665741,268.749084 149.338577,266.318726 
	C149.815155,266.188568 150.223236,266.458557 150.788818,266.922241 
z"/>
<path fill="#D9E7DE" opacity="1.000000" stroke="none" 
	d="
M259.516113,263.266846 
	C259.504547,261.533630 259.702606,259.489655 260.148682,257.180420 
	C260.173035,258.928833 259.949402,260.942474 259.516113,263.266846 
z"/>
<path fill="#D9E7DE" opacity="1.000000" stroke="none" 
	d="
M269.787323,190.598984 
	C269.463287,189.005692 269.323029,187.118393 269.257874,184.810852 
	C269.545715,186.362076 269.758392,188.333527 269.787323,190.598984 
z"/>
<path fill="#D9E7DE" opacity="1.000000" stroke="none" 
	d="
M160.709839,181.764801 
	C159.203644,182.060135 157.390427,182.197159 155.278961,182.133240 
	C156.788101,181.823700 158.595444,181.715088 160.709839,181.764801 
z"/>
<path fill="#E2EDE6" opacity="1.000000" stroke="none" 
	d="
M150.611542,181.837769 
	C150.360657,182.792252 149.724899,183.602814 149.089142,184.413376 
	C148.436615,183.818314 147.784073,183.223251 147.066498,182.310074 
	C148.076523,181.892578 149.151596,181.793198 150.611542,181.837769 
z"/>
<path fill="#D9E7DE" opacity="1.000000" stroke="none" 
	d="
M142.051514,206.644104 
	C142.038452,207.823669 141.964615,208.773758 141.834702,210.199341 
	C141.439178,208.985641 141.099731,207.296448 140.854492,205.241531 
	C141.296051,205.388748 141.643402,205.901688 142.051514,206.644104 
z"/>
<path fill="#D9E7DE" opacity="1.000000" stroke="none" 
	d="
M139.344269,187.629700 
	C139.307755,188.504944 139.207291,188.996292 138.993530,189.845963 
	C138.754959,188.566986 138.629669,186.929688 138.734955,185.113052 
	C139.070465,185.704407 139.175385,186.475098 139.344269,187.629700 
z"/>
<path fill="#D9E7DE" opacity="1.000000" stroke="none" 
	d="
M139.487213,196.267487 
	C139.922760,197.381012 140.295013,198.859100 140.520645,200.614853 
	C140.057312,199.472366 139.740616,198.052185 139.487213,196.267487 
z"/>
<path fill="#D9E7DE" opacity="1.000000" stroke="none" 
	d="
M144.004883,183.007233 
	C143.022446,183.049408 142.039993,183.091568 140.689514,183.111282 
	C141.395294,182.603043 142.469101,182.117264 143.785507,182.031738 
	C144.020386,182.623749 144.012634,182.815491 144.004883,183.007233 
z"/>
<path fill="#D9E7DE" opacity="1.000000" stroke="none" 
	d="
M224.454041,171.658813 
	C224.502090,172.480591 224.332764,173.553268 223.926819,174.858948 
	C223.872345,174.031204 224.054520,172.970474 224.454041,171.658813 
z"/>
<path fill="#E2EDE6" opacity="1.000000" stroke="none" 
	d="
M167.632416,181.828690 
	C167.075546,182.128815 166.157242,182.291290 165.122620,182.209595 
	C165.761215,181.873978 166.516083,181.782516 167.632416,181.828690 
z"/>
<path fill="#D2E3D8" opacity="1.000000" stroke="none" 
	d="
M279.845398,106.719864 
	C279.754456,106.291946 279.864288,105.656494 280.177551,104.942291 
	C280.269409,105.413147 280.157776,105.962738 279.845398,106.719864 
z"/>
<path fill="#E2EDE6" opacity="1.000000" stroke="none" 
	d="
M144.276764,182.929291 
	C144.012634,182.815491 144.020386,182.623749 144.035980,182.144287 
	C144.487549,181.819336 144.931259,181.782120 145.687195,181.872620 
	C145.515823,182.284027 145.032227,182.567688 144.276764,182.929291 
z"/>
<path fill="#5E846B" opacity="1.000000" stroke="none" 
	d="
M151.808090,212.074265 
	C151.831009,211.613434 151.853928,211.152618 151.842270,209.927582 
	C151.010040,204.563446 150.212387,199.963516 149.414734,195.363586 
	C149.403030,194.494751 149.391312,193.625916 149.330826,192.434052 
	C150.606262,191.944000 151.930466,191.776978 153.925491,191.669373 
	C157.102737,191.642105 159.609177,191.555389 162.115601,191.468658 
	C180.740067,191.536804 199.364517,191.604950 218.901154,191.726624 
	C231.584167,191.673584 243.354980,191.567001 255.125809,191.460403 
	C255.973572,191.592972 256.821350,191.725525 258.003479,192.323563 
	C258.445190,193.888092 258.552551,194.987137 258.659912,196.086197 
	C258.467621,197.134186 258.275299,198.182190 257.968018,199.974091 
	C257.477478,204.170670 257.101868,207.623322 256.726257,211.075974 
	C256.523804,211.316559 256.435608,211.593506 256.314087,212.439301 
	C255.686432,217.340805 255.206314,221.709854 254.726196,226.078888 
	C254.521133,226.312897 254.428268,226.585159 254.309845,227.345886 
	C254.080002,229.205780 253.987869,230.615448 253.895752,232.025131 
	C253.755417,232.593994 253.615067,233.162857 253.319366,234.331390 
	C253.021469,236.650757 252.878952,238.370468 252.736420,240.090164 
	C252.499863,241.455292 252.263306,242.820404 251.909180,244.884644 
	C251.758224,246.419220 251.724823,247.254669 251.691406,248.090118 
	C251.209396,251.146912 250.727386,254.203720 250.066528,257.985535 
	C249.725662,260.495056 249.563660,262.279633 249.401657,264.064178 
	C249.318481,264.502869 249.235291,264.941589 248.975555,266.040619 
	C247.402725,277.168762 246.006470,287.636597 244.610214,298.104401 
	C244.403214,298.327423 244.322418,298.589355 244.236633,299.405853 
	C243.514603,303.299347 242.923767,306.677216 242.332932,310.055054 
	C242.332932,310.055054 242.057587,310.428223 241.538025,310.758606 
	C217.423264,311.229431 193.827850,311.431549 170.233337,311.355469 
	C168.833038,311.350983 166.850372,309.372101 166.183365,307.853241 
	C165.211502,305.640228 165.150833,303.016327 164.767960,300.557281 
	C163.083374,289.737732 161.422607,278.914520 159.796082,267.774292 
	C159.604141,266.643311 159.369324,265.830597 159.134506,265.017914 
	C158.612518,260.657440 158.090530,256.296967 157.540543,251.156860 
	C157.155518,248.698257 156.798477,247.019287 156.441437,245.340302 
	C156.441437,245.340302 156.493835,245.105804 156.470795,244.726501 
	C156.362640,243.913544 156.277512,243.479858 156.295197,242.768143 
	C156.144577,241.362823 155.891129,240.235565 155.686005,238.701508 
	C155.519608,237.233032 155.304916,236.171310 155.191284,234.823639 
	C155.070648,233.780167 154.848953,233.022675 154.675110,232.065125 
	C154.734116,231.576416 154.646225,231.321976 154.569321,230.730988 
	C153.722260,224.264893 152.765182,218.169586 151.808090,212.074265 
z"/>
<path fill="#678674" opacity="1.000000" stroke="none" 
	d="
M232.962677,170.992599 
	C233.204651,170.160248 233.446625,169.327911 233.940170,167.903870 
	C234.760452,165.200897 235.329132,163.089615 235.897812,160.978348 
	C236.122635,160.418411 236.347473,159.858490 236.588898,158.995605 
	C241.002457,151.343719 245.399399,143.994766 249.820007,136.294205 
	C250.497238,135.165115 251.150787,134.387665 252.144775,133.151398 
	C252.623230,132.111267 252.761246,131.529922 252.899261,130.948578 
	C253.424042,130.410019 253.948837,129.871460 254.920288,129.085815 
	C255.552689,128.217102 255.738434,127.595467 255.924164,126.973831 
	C256.146942,126.108971 256.369720,125.244118 256.866455,123.879044 
	C257.573975,122.548706 258.007538,121.718582 258.824463,120.940277 
	C261.155304,122.710938 263.102722,124.429787 265.044952,126.506027 
	C264.692993,128.241791 264.346252,129.620163 263.999512,130.998535 
	C262.597107,133.277069 261.194702,135.555588 259.684784,138.147339 
	C256.611053,142.799103 253.644836,147.137665 250.660110,151.800720 
	C250.148544,152.865341 249.655487,153.605438 248.814392,154.826477 
	C248.294342,155.865280 248.122345,156.423126 247.950348,156.980972 
	C247.950348,156.980972 247.731140,157.200150 247.403595,157.548141 
	C246.456421,159.620209 245.836777,161.344299 245.217133,163.068390 
	C245.010635,163.649399 244.804108,164.230408 244.309708,165.370026 
	C243.418289,168.308441 242.814774,170.688263 242.211243,173.068069 
	C241.854843,174.505737 241.498444,175.943420 240.942612,178.000641 
	C240.550919,179.440659 240.358673,180.261154 240.166428,181.081650 
	C240.166428,181.081650 240.081375,181.090927 239.735367,181.155411 
	C238.256210,181.471085 237.123077,181.722260 235.989929,181.973434 
	C234.929565,181.916290 233.869217,181.859146 232.266083,181.611725 
	C231.320419,180.991028 230.917511,180.560608 230.514603,180.130188 
	C230.628235,179.823837 230.741867,179.517471 230.999054,178.820190 
	C231.300323,177.597260 231.458054,176.765274 231.615784,175.933289 
	C231.759354,175.515564 231.902924,175.097855 232.282745,174.113892 
	C232.666901,172.695953 232.814789,171.844284 232.962677,170.992599 
z"/>
<path fill="#D9E7DE" opacity="1.000000" stroke="none" 
	d="
M159.753204,268.092621 
	C161.422607,278.914520 163.083374,289.737732 164.767960,300.557281 
	C165.150833,303.016327 165.211502,305.640228 166.183365,307.853241 
	C166.850372,309.372101 168.833038,311.350983 170.233337,311.355469 
	C193.827850,311.431549 217.423264,311.229431 241.474960,310.981750 
	C238.246765,311.660767 234.562073,312.447083 229.998108,313.219666 
	C227.426605,313.224304 225.734360,313.242676 224.042130,313.261047 
	C215.335480,313.226227 206.628845,313.191467 196.987610,313.152100 
	C190.368866,313.198578 184.684708,313.249634 178.623901,313.281708 
	C173.604538,313.104797 168.566071,314.546326 164.891418,309.687561 
	C164.227875,308.217072 163.685165,307.046875 163.139145,305.458679 
	C162.118683,297.352783 161.101547,289.664917 160.084412,281.977051 
	C159.700150,277.963470 159.315887,273.949921 159.048035,269.331421 
	C159.340897,268.496796 159.537140,268.285522 159.753204,268.092621 
z"/>
<path fill="#F4FAF6" opacity="1.000000" stroke="none" 
	d="
M179.000519,313.300690 
	C184.684708,313.249634 190.368866,313.198578 196.519806,313.179626 
	C198.927795,314.681580 200.808044,316.242828 202.830139,317.591370 
	C204.359100,318.611053 206.069183,319.359100 207.827118,320.540710 
	C195.965683,320.865936 183.975769,320.878448 171.688736,320.597992 
	C173.927917,317.970245 176.464218,315.635468 179.000519,313.300690 
z"/>
<path fill="#D9E7DE" opacity="1.000000" stroke="none" 
	d="
M254.786469,191.193390 
	C243.354980,191.567001 231.584167,191.673584 219.356033,191.641022 
	C218.906372,191.166260 218.914032,190.830643 218.959961,190.244995 
	C228.722168,190.003113 238.446640,189.959625 248.169617,190.060379 
	C250.264893,190.082092 252.354782,190.624054 254.786469,191.193390 
z"/>
<path fill="#D9E7DE" opacity="1.000000" stroke="none" 
	d="
M244.860809,297.800415 
	C246.006470,287.636597 247.402725,277.168762 249.006714,266.375549 
	C248.657654,272.863434 248.270203,279.696503 247.476791,286.482117 
	C247.042679,290.195007 245.922302,293.827606 244.860809,297.800415 
z"/>
<path fill="#F4FAF6" opacity="1.000000" stroke="none" 
	d="
M234.922424,320.498169 
	C231.960510,320.857697 228.951385,320.891235 225.494415,320.905090 
	C230.077042,317.149811 232.733353,316.957031 234.922424,320.498169 
z"/>
<path fill="#D9E7DE" opacity="1.000000" stroke="none" 
	d="
M254.962555,225.756042 
	C255.206314,221.709854 255.686432,217.340805 256.386353,212.649841 
	C256.137054,216.696335 255.667984,221.064774 254.962555,225.756042 
z"/>
<path fill="#F4FAF6" opacity="1.000000" stroke="none" 
	d="
M224.097168,313.595032 
	C225.734360,313.242676 227.426605,313.224304 229.539917,313.251099 
	C229.118973,314.437927 228.276962,315.579590 227.434967,316.721252 
	C226.340714,315.790527 225.246475,314.859772 224.097168,313.595032 
z"/>
<path fill="#D9E7DE" opacity="1.000000" stroke="none" 
	d="
M256.960022,210.762650 
	C257.101868,207.623322 257.477478,204.170670 258.007935,200.375015 
	C257.839783,203.504456 257.516785,206.976883 256.960022,210.762650 
z"/>
<path fill="#D9E7DE" opacity="1.000000" stroke="none" 
	d="
M242.642212,309.880188 
	C242.923767,306.677216 243.514603,303.299347 244.323029,299.598877 
	C244.010925,302.752594 243.481201,306.228973 242.642212,309.880188 
z"/>
<path fill="#D9E7DE" opacity="1.000000" stroke="none" 
	d="
M249.648315,263.861694 
	C249.563660,262.279633 249.725662,260.495056 250.100342,258.394043 
	C250.173676,259.938110 250.034317,261.798645 249.648315,263.861694 
z"/>
<path fill="#D9E7DE" opacity="1.000000" stroke="none" 
	d="
M252.978241,239.820465 
	C252.878952,238.370468 253.021469,236.650757 253.371735,234.623047 
	C253.459656,236.060272 253.339844,237.805527 252.978241,239.820465 
z"/>
<path fill="#D9E7DE" opacity="1.000000" stroke="none" 
	d="
M258.876007,195.905060 
	C258.552551,194.987137 258.445190,193.888092 258.322144,192.373962 
	C258.568298,193.213913 258.830200,194.468918 258.876007,195.905060 
z"/>
<path fill="#E2EDE6" opacity="1.000000" stroke="none" 
	d="
M236.257965,182.152008 
	C237.123077,181.722260 238.256210,181.471085 239.740189,181.197906 
	C239.845398,181.648041 239.599762,182.120163 239.176453,182.795227 
	C238.174530,182.775650 237.350266,182.553116 236.257965,182.152008 
z"/>
<path fill="#D9E7DE" opacity="1.000000" stroke="none" 
	d="
M254.115021,231.682251 
	C253.987869,230.615448 254.080002,229.205780 254.375824,227.556061 
	C254.497772,228.657135 254.416016,229.998260 254.115021,231.682251 
z"/>
<path fill="#D9E7DE" opacity="1.000000" stroke="none" 
	d="
M251.887573,247.934601 
	C251.724823,247.254669 251.758224,246.419220 251.941589,245.301941 
	C252.088943,245.939758 252.086319,246.859406 251.887573,247.934601 
z"/>
<path fill="#E2EDE6" opacity="1.000000" stroke="none" 
	d="
M230.462341,180.402115 
	C230.917511,180.560608 231.320419,180.991028 231.871231,181.678864 
	C231.482773,181.515549 230.946426,181.094788 230.462341,180.402115 
z"/>
<path fill="#E2EDE6" opacity="1.000000" stroke="none" 
	d="
M231.360031,175.933334 
	C231.458054,176.765274 231.300323,177.597260 230.920135,178.666229 
	C230.542587,178.277573 230.387482,177.651917 230.163422,176.550507 
	C230.431061,176.027618 230.767670,175.980499 231.360031,175.933334 
z"/>
<path fill="#658571" opacity="1.000000" stroke="none" 
	d="
M235.856018,93.957092 
	C236.048386,93.384026 236.240738,92.810966 236.709625,91.660400 
	C238.544128,85.025520 240.102112,78.968140 241.660080,72.910751 
	C241.735840,72.760056 241.811584,72.609352 242.214203,72.133743 
	C242.595734,71.175636 242.650406,70.542427 242.705063,69.909210 
	C242.860779,69.188232 243.016479,68.467255 243.650650,67.451950 
	C245.745224,67.132317 247.361313,67.106995 248.977417,67.081680 
	C249.592361,67.190247 250.207321,67.298805 251.356445,67.673569 
	C252.959656,68.164474 254.028702,68.389183 255.097748,68.613884 
	C255.505600,68.787079 255.913437,68.960266 256.848755,69.401543 
	C257.945618,69.725990 258.514984,69.782364 259.084381,69.838730 
	C259.084381,69.838730 259.005615,70.063530 258.943176,70.522141 
	C258.575928,72.356544 258.271118,73.732338 257.966309,75.108131 
	C256.912811,74.899223 255.859299,74.690315 254.178009,74.113358 
	C252.468613,73.626495 251.386978,73.507698 250.305359,73.388893 
	C249.873322,73.403419 249.441269,73.417946 248.451050,73.431335 
	C247.415634,74.230942 246.938400,75.031700 246.461166,75.832458 
	C246.415085,79.227661 248.429398,80.960442 251.841660,82.410583 
	C254.228638,85.267235 256.158356,87.647507 258.088074,90.027779 
	C257.697449,91.754692 257.306793,93.481606 256.711731,95.722794 
	C256.318359,96.500740 256.108948,96.747017 255.524689,97.023567 
	C252.769623,97.412575 250.368896,97.753914 247.557343,98.087646 
	C241.060028,97.665367 240.509186,98.170006 240.317352,103.990936 
	C238.258392,102.561958 236.564758,101.143593 234.873001,99.357780 
	C235.201935,97.312592 235.528976,95.634842 235.856018,93.957092 
z"/>
<path fill="#5E7E6B" opacity="1.000000" stroke="none" 
	d="
M265.050171,126.148628 
	C263.102722,124.429787 261.155304,122.710938 258.834473,120.655403 
	C258.817902,119.223206 259.174713,118.127701 259.710815,116.924637 
	C259.915894,116.207741 259.941650,115.598404 259.967468,114.989067 
	C260.044922,114.257355 260.122375,113.525635 260.407776,112.143387 
	C261.031158,109.655464 261.446594,107.818077 261.862061,105.980690 
	C262.048157,105.424530 262.234222,104.868370 262.662659,103.752914 
	C263.616425,100.469154 264.327850,97.744698 265.039246,95.020233 
	C265.385193,94.236755 265.731140,93.453278 266.294922,92.222183 
	C266.743073,91.525551 266.973419,91.276535 267.478180,90.863159 
	C268.145203,88.790497 268.537842,86.882187 268.930450,84.973877 
	C269.038361,84.224358 269.146271,83.474831 269.676117,82.173706 
	C271.338348,77.335236 272.578644,73.048370 273.818939,68.761505 
	C273.818939,68.761505 273.836731,68.829170 274.310577,68.840866 
	C276.135590,68.731934 277.486725,68.611313 278.837891,68.490692 
	C278.837891,68.490692 279.042664,68.486465 279.049866,69.010864 
	C279.434479,71.380043 279.811859,73.224823 280.189270,75.069603 
	C280.058105,75.804649 279.926910,76.539696 279.403809,77.831833 
	C278.806946,79.186707 278.601990,79.984482 278.397034,80.782257 
	C278.296478,81.650291 278.195923,82.518333 277.680908,83.824951 
	C276.875214,85.852974 276.483978,87.442429 276.092743,89.031883 
	C276.009094,89.762886 275.925446,90.493896 275.627869,91.851868 
	C274.845978,93.976006 274.278015,95.473175 273.453003,97.146439 
	C272.822693,99.226341 272.449402,101.130135 272.085205,103.416962 
	C271.621979,105.521469 271.149658,107.242943 270.483032,109.071381 
	C270.251678,109.806114 270.214630,110.433891 270.177612,111.061661 
	C269.981018,112.261703 269.784454,113.461754 269.313660,115.281906 
	C268.715424,117.275085 268.391479,118.648170 268.067505,120.021255 
	C267.725433,120.802101 267.383362,121.582962 267.085693,122.683777 
	C266.963806,123.315666 266.797577,123.627609 266.375671,124.360985 
	C265.763367,125.237823 265.406769,125.693222 265.050171,126.148628 
z"/>
<path fill="#DDEAE3" opacity="1.000000" stroke="none" 
	d="
M240.682678,104.001549 
	C240.509186,98.170006 241.060028,97.665367 247.763489,98.309082 
	C249.255753,99.016380 250.131012,99.494629 251.006287,99.972870 
	C248.300247,100.362053 245.594223,100.751228 241.937958,101.277061 
	C246.136597,106.039268 253.821243,103.878059 253.880386,111.508240 
	C253.504944,111.937843 253.152176,111.989555 252.493835,111.715393 
	C251.381332,110.104797 250.870514,108.263329 249.708923,107.645554 
	C246.859970,106.130402 243.710968,105.179482 240.682678,104.001549 
z"/>
<path fill="#789082" opacity="1.000000" stroke="none" 
	d="
M258.299438,89.763924 
	C256.158356,87.647507 254.228638,85.267235 252.126663,82.616180 
	C253.091843,82.576965 254.220474,82.873871 255.368286,83.028473 
	C259.697937,83.611664 260.710724,85.765945 258.299438,89.763924 
z"/>
<path fill="#789082" opacity="1.000000" stroke="none" 
	d="
M258.260773,75.361618 
	C258.271118,73.732338 258.575928,72.356544 258.882263,70.624496 
	C261.350403,70.324829 263.572906,70.703400 262.940155,74.032799 
	C262.388702,76.934372 260.512421,76.455589 258.260773,75.361618 
z"/>
<path fill="#6D8979" opacity="1.000000" stroke="none" 
	d="
M273.501373,68.925804 
	C272.578644,73.048370 271.338348,77.335236 269.856628,81.836754 
	C270.804718,77.730965 271.994263,73.410530 273.501373,68.925804 
z"/>
<path fill="#DDEAE3" opacity="1.000000" stroke="none" 
	d="
M264.726501,95.198616 
	C264.327850,97.744698 263.616425,100.469154 262.643982,103.457565 
	C263.059906,100.940010 263.736816,98.158501 264.726501,95.198616 
z"/>
<path fill="#789082" opacity="1.000000" stroke="none" 
	d="
M251.412415,99.979095 
	C250.131012,99.494629 249.255753,99.016380 248.174332,98.316696 
	C250.368896,97.753914 252.769623,97.412575 255.680389,97.295609 
	C256.297516,97.699387 256.404572,97.878799 256.511658,98.058212 
	C254.947296,98.700592 253.382935,99.342964 251.412415,99.979095 
z"/>
<path fill="#6D8979" opacity="1.000000" stroke="none" 
	d="
M268.703979,85.167877 
	C268.537842,86.882187 268.145203,88.790497 267.454590,90.519142 
	C267.324188,89.209442 267.491791,88.079414 267.659424,86.949371 
	C267.932098,86.420204 268.204803,85.891037 268.703979,85.167877 
z"/>
<path fill="#DDEAE3" opacity="1.000000" stroke="none" 
	d="
M261.586853,106.143570 
	C261.446594,107.818077 261.031158,109.655464 260.407684,111.774597 
	C260.570312,110.139702 260.940979,108.223068 261.586853,106.143570 
z"/>
<path fill="#6D8979" opacity="1.000000" stroke="none" 
	d="
M280.433929,74.793549 
	C279.811859,73.224823 279.434479,71.380043 279.069946,69.111282 
	C279.614746,70.630699 280.146667,72.574089 280.433929,74.793549 
z"/>
<path fill="#DDEAE3" opacity="1.000000" stroke="none" 
	d="
M267.404175,87.104004 
	C267.491791,88.079414 267.324188,89.209442 267.180176,90.683502 
	C266.973419,91.276535 266.743073,91.525551 266.289551,91.897049 
	C266.427216,90.432571 266.788055,88.845604 267.404175,87.104004 
z"/>
<path fill="#6D8979" opacity="1.000000" stroke="none" 
	d="
M278.637726,68.203033 
	C277.486725,68.611313 276.135590,68.731934 274.276245,68.834229 
	C275.324554,68.515724 276.881042,68.215553 278.637726,68.203033 
z"/>
<path fill="#789082" opacity="1.000000" stroke="none" 
	d="
M250.558121,73.607986 
	C251.386978,73.507698 252.468613,73.626495 253.808807,73.950081 
	C252.981873,74.045593 251.896378,73.936333 250.558121,73.607986 
z"/>
<path fill="#789082" opacity="1.000000" stroke="none" 
	d="
M246.727539,75.621178 
	C246.938400,75.031700 247.415634,74.230942 248.256241,73.329651 
	C248.077728,73.956039 247.535828,74.682968 246.727539,75.621178 
z"/>
<path fill="#6D8979" opacity="1.000000" stroke="none" 
	d="
M278.632874,80.659164 
	C278.601990,79.984482 278.806946,79.186707 279.240601,78.169876 
	C279.514099,78.379105 279.558929,78.807381 279.651306,79.557053 
	C279.422150,80.097656 279.145416,80.316864 278.632874,80.659164 
z"/>
<path fill="#DDEAE3" opacity="1.000000" stroke="none" 
	d="
M256.691284,97.944771 
	C256.404572,97.878799 256.297516,97.699387 256.034729,97.247940 
	C256.108948,96.747017 256.318359,96.500740 256.710876,96.104973 
	C256.899933,96.592361 256.885406,97.211845 256.691284,97.944771 
z"/>
<path fill="#D2E3D8" opacity="1.000000" stroke="none" 
	d="
M258.958252,69.578323 
	C258.514984,69.782364 257.945618,69.725990 257.178406,69.451004 
	C256.970642,69.020294 256.960693,68.808212 256.969757,68.277893 
	C257.603241,68.412415 258.217682,68.865166 258.958252,69.578323 
z"/>
<path fill="#789082" opacity="1.000000" stroke="none" 
	d="
M259.741974,115.012527 
	C259.941650,115.598404 259.915894,116.207741 259.592316,116.667282 
	C259.209534,116.348801 259.124573,116.180130 259.039612,116.011452 
	C259.039612,116.011452 259.146423,115.590363 259.113525,115.375610 
	C259.080658,115.160866 259.516510,115.035995 259.741974,115.012527 
z"/>
<path fill="#D9E7DE" opacity="1.000000" stroke="none" 
	d="
M161.807877,191.204315 
	C159.609177,191.555389 157.102737,191.642105 154.248489,191.578598 
	C156.433823,191.265564 158.966995,191.102753 161.807877,191.204315 
z"/>
<path fill="#678674" opacity="1.000000" stroke="none" 
	d="
M240.317352,103.990936 
	C243.710968,105.179482 246.859970,106.130402 249.708923,107.645554 
	C250.870514,108.263329 251.381332,110.104797 252.225281,111.715988 
	C251.111984,112.530739 249.961639,113.019035 248.472916,113.530838 
	C246.659760,113.021858 245.184982,112.489365 243.129517,111.716644 
	C241.694916,111.341278 240.841003,111.206139 239.987091,111.070999 
	C238.889206,110.713715 237.791321,110.356422 236.149811,109.798172 
	C235.055435,109.518372 234.504715,109.439537 233.953979,109.360703 
	C233.411392,108.464088 232.868805,107.567467 232.458466,106.165176 
	C232.671051,105.097473 232.751358,104.535454 232.831665,103.973427 
	C233.042923,103.393829 233.254181,102.814224 233.709732,101.733932 
	C234.259735,100.730568 234.565414,100.227898 234.871109,99.725220 
	C236.564758,101.143593 238.258392,102.561958 240.317352,103.990936 
z"/>
<path fill="#D2E3D8" opacity="1.000000" stroke="none" 
	d="
M241.382324,73.102890 
	C240.102112,78.968140 238.544128,85.025520 236.736389,91.358437 
	C238.025940,85.520988 239.565262,79.408012 241.382324,73.102890 
z"/>
<path fill="#D2E3D8" opacity="1.000000" stroke="none" 
	d="
M234.873001,99.357780 
	C234.565414,100.227898 234.259735,100.730568 233.729706,101.424454 
	C234.094650,99.193611 234.683945,96.771568 235.564636,94.153313 
	C235.528976,95.634842 235.201935,97.312592 234.873001,99.357780 
z"/>
<path fill="#789082" opacity="1.000000" stroke="none" 
	d="
M248.817078,66.752411 
	C247.361313,67.106995 245.745224,67.132317 243.812378,67.118469 
	C245.216003,66.860580 246.936356,66.641869 248.817078,66.752411 
z"/>
<path fill="#E2EDE6" opacity="1.000000" stroke="none" 
	d="
M240.111084,111.315361 
	C240.841003,111.206139 241.694916,111.341278 242.783081,111.709930 
	C242.089920,111.815536 241.162491,111.687630 240.111084,111.315361 
z"/>
<path fill="#D2E3D8" opacity="1.000000" stroke="none" 
	d="
M254.885605,68.349701 
	C254.028702,68.389183 252.959656,68.164474 251.668549,67.684906 
	C252.522141,67.648544 253.597794,67.867035 254.885605,68.349701 
z"/>
<path fill="#E2EDE6" opacity="1.000000" stroke="none" 
	d="
M234.046219,109.557358 
	C234.504715,109.439537 235.055435,109.518372 235.801804,109.805611 
	C235.377777,109.927345 234.758118,109.840683 234.046219,109.557358 
z"/>
<path fill="#E2EDE6" opacity="1.000000" stroke="none" 
	d="
M226.384537,102.010391 
	C226.381943,101.583397 226.559799,101.032852 226.900757,100.240662 
	C226.897552,100.628296 226.731262,101.257568 226.384537,102.010391 
z"/>
<path fill="#789082" opacity="1.000000" stroke="none" 
	d="
M242.503601,70.118301 
	C242.650406,70.542427 242.595734,71.175636 242.339828,71.914131 
	C242.193100,71.455399 242.247620,70.891396 242.503601,70.118301 
z"/>
<path fill="#E2EDE6" opacity="1.000000" stroke="none" 
	d="
M232.626343,104.070999 
	C232.751358,104.535454 232.671051,105.097473 232.376770,105.854553 
	C232.248886,105.422592 232.334961,104.795578 232.626343,104.070999 
z"/>
<path fill="#F1F7F3" opacity="1.000000" stroke="none" 
	d="
M178.623886,313.281708 
	C176.464218,315.635468 173.927917,317.970245 171.223923,320.581116 
	C167.004150,319.253937 162.952072,317.650665 158.613525,315.871765 
	C157.876770,313.723541 157.426483,311.750916 157.315475,309.472839 
	C160.107254,309.440857 162.559753,309.714325 165.012253,309.987823 
	C168.566071,314.546326 173.604538,313.104797 178.623886,313.281708 
z"/>
<path fill="#DDEAE3" opacity="1.000000" stroke="none" 
	d="
M270.677368,108.964409 
	C271.149658,107.242943 271.621979,105.521469 272.321777,103.399696 
	C272.549255,102.999390 273.023590,103.003044 273.023590,103.003044 
	C272.582977,105.226768 272.142365,107.450493 271.301636,109.588638 
	C270.826782,109.323517 270.752075,109.143967 270.677368,108.964409 
z"/>
<path fill="#DDEAE3" opacity="1.000000" stroke="none" 
	d="
M273.710052,96.970337 
	C274.278015,95.473175 274.845978,93.976006 275.635803,92.220993 
	C275.504700,93.873413 275.151672,95.783676 274.391785,97.601456 
	C273.893280,97.329430 273.801666,97.149887 273.710052,96.970337 
z"/>
<path fill="#6D8979" opacity="1.000000" stroke="none" 
	d="
M273.453003,97.146439 
	C273.801666,97.149887 273.893280,97.329430 274.129639,97.774399 
	C273.854401,99.448769 273.434357,100.857704 273.018951,102.634842 
	C273.023590,103.003044 272.549255,102.999390 272.312683,103.016663 
	C272.449402,101.130135 272.822693,99.226341 273.453003,97.146439 
z"/>
<path fill="#6D8979" opacity="1.000000" stroke="none" 
	d="
M276.330444,88.790558 
	C276.483978,87.442429 276.875214,85.852974 277.536194,84.120941 
	C277.393341,85.501976 276.980743,87.025604 276.330444,88.790558 
z"/>
<path fill="#D2E3D8" opacity="1.000000" stroke="none" 
	d="
M268.344177,120.037796 
	C268.391479,118.648170 268.715424,117.275085 269.291565,115.646988 
	C269.658264,115.967026 269.772858,116.542076 269.785217,117.788818 
	C269.513611,118.984917 269.344208,119.509300 269.174805,120.033691 
	C268.990143,120.040581 268.805481,120.047462 268.344177,120.037796 
z"/>
<path fill="#F6FBF8" opacity="1.000000" stroke="none" 
	d="
M269.410034,119.985489 
	C269.344208,119.509300 269.513611,118.984917 269.832123,118.226669 
	C269.869293,118.640984 269.757294,119.289139 269.410034,119.985489 
z"/>
<path fill="#6D8979" opacity="1.000000" stroke="none" 
	d="
M270.483032,109.071381 
	C270.752075,109.143967 270.826782,109.323517 271.025085,109.767334 
	C270.947052,110.281593 270.761108,110.542778 270.384247,110.938416 
	C270.214630,110.433891 270.251678,109.806114 270.483032,109.071381 
z"/>
<path fill="#F6FBF8" opacity="1.000000" stroke="none" 
	d="
M155.090210,235.109604 
	C155.304916,236.171310 155.519608,237.233032 155.538712,238.971985 
	C155.626205,240.781555 155.909302,241.913879 156.192383,243.046188 
	C156.277512,243.479858 156.362640,243.913544 156.364410,244.670731 
	C155.178513,246.295303 154.131073,247.648804 152.956985,248.881729 
	C151.912140,249.978928 150.727051,250.942566 149.214905,252.009262 
	C147.849396,245.329544 146.872849,238.605698 145.836456,231.460373 
	C147.629959,228.684158 149.483307,226.329437 151.820374,224.287537 
	C153.022476,226.767487 153.740891,228.934616 154.459290,231.101746 
	C154.646225,231.321976 154.734116,231.576416 154.568481,232.356903 
	C154.639404,233.602341 154.864807,234.355972 155.090210,235.109604 
z"/>
<path fill="#F8FDF9" opacity="1.000000" stroke="none" 
	d="
M159.726196,282.029175 
	C161.101547,289.664917 162.118683,297.352783 162.918793,305.702698 
	C160.719315,306.279053 158.736877,306.193390 156.754425,306.107727 
	C155.777771,299.402161 154.801117,292.696625 153.780136,285.552246 
	C155.613205,284.102722 157.490601,283.092010 159.726196,282.029175 
z"/>
<path fill="#E2EDE6" opacity="1.000000" stroke="none" 
	d="
M159.796082,267.774292 
	C159.537140,268.285522 159.340897,268.496796 159.030273,268.897919 
	C158.799911,267.816376 158.703720,266.563354 158.871017,265.164124 
	C159.369324,265.830597 159.604141,266.643311 159.796082,267.774292 
z"/>
<path fill="#D9E7DE" opacity="1.000000" stroke="none" 
	d="
M156.326126,245.728088 
	C156.798477,247.019287 157.155518,248.698257 157.404327,250.740982 
	C156.934326,249.441772 156.572571,247.778824 156.326126,245.728088 
z"/>
<path fill="#D2E3D8" opacity="1.000000" stroke="none" 
	d="
M258.744873,116.209732 
	C259.124573,116.180130 259.209534,116.348801 259.413025,116.774841 
	C259.174713,118.127701 258.817902,119.223206 258.451111,120.603577 
	C258.007538,121.718582 257.573975,122.548706 256.912354,123.545372 
	C257.272858,121.277275 257.861481,118.842644 258.744873,116.209732 
z"/>
<path fill="#789082" opacity="1.000000" stroke="none" 
	d="
M255.675491,127.141319 
	C255.738434,127.595467 255.552689,128.217102 255.144501,128.912308 
	C255.090317,128.426865 255.258560,127.867836 255.675491,127.141319 
z"/>
<path fill="#D2E3D8" opacity="1.000000" stroke="none" 
	d="
M252.652039,131.006409 
	C252.761246,131.529922 252.623230,132.111267 252.220825,132.842010 
	C252.105911,132.349030 252.255356,131.706650 252.652039,131.006409 
z"/>
<path fill="#D2E3D8" opacity="1.000000" stroke="none" 
	d="
M242.492081,172.860275 
	C242.814774,170.688263 243.418289,168.308441 244.280792,165.678421 
	C243.950790,167.836304 243.361847,170.244385 242.492081,172.860275 
z"/>
<path fill="#D2E3D8" opacity="1.000000" stroke="none" 
	d="
M245.525085,162.908691 
	C245.836777,161.344299 246.456421,159.620209 247.359467,157.696716 
	C247.039581,159.247849 246.436325,160.998428 245.525085,162.908691 
z"/>
<path fill="#D2E3D8" opacity="1.000000" stroke="none" 
	d="
M248.175751,156.920563 
	C248.122345,156.423126 248.294342,155.865280 248.723663,155.150818 
	C248.787720,155.616196 248.594421,156.238174 248.175751,156.920563 
z"/>
<path fill="#E2EDE6" opacity="1.000000" stroke="none" 
	d="
M240.430023,180.871521 
	C240.358673,180.261154 240.550919,179.440659 240.940918,178.368713 
	C240.990341,178.965317 240.841980,179.813370 240.430023,180.871521 
z"/>
<path fill="#D2E3D8" opacity="1.000000" stroke="none" 
	d="
M265.044952,126.506027 
	C265.406769,125.693222 265.763367,125.237823 266.366486,124.630585 
	C265.957245,126.549126 265.301453,128.619492 264.322601,130.844208 
	C264.346252,129.620163 264.692993,128.241791 265.044952,126.506027 
z"/>
<path fill="#D9E7DE" opacity="1.000000" stroke="none" 
	d="
M149.314880,195.844543 
	C150.212387,199.963516 151.010040,204.563446 151.751801,209.591660 
	C150.962265,207.943085 150.228653,205.866211 149.366974,203.480865 
	C149.230942,200.890076 149.222977,198.607773 149.314880,195.844543 
z"/>
<path fill="#D9E7DE" opacity="1.000000" stroke="none" 
	d="
M154.569321,230.730988 
	C153.740891,228.934616 153.022476,226.767487 152.184143,224.223221 
	C151.881973,220.147049 151.699753,216.448029 151.662811,212.411621 
	C152.765182,218.169586 153.722260,224.264893 154.569321,230.730988 
z"/>
<path fill="#DDEAE3" opacity="1.000000" stroke="none" 
	d="
M235.597931,161.169067 
	C235.329132,163.089615 234.760452,165.200897 233.944122,167.577942 
	C234.230331,165.682434 234.764191,163.521118 235.597931,161.169067 
z"/>
<path fill="#E2EDE6" opacity="1.000000" stroke="none" 
	d="
M232.721909,171.121475 
	C232.814789,171.844284 232.666901,172.695953 232.285400,173.780823 
	C232.194885,173.092773 232.338013,172.171570 232.721909,171.121475 
z"/>
<path fill="#F4FAF6" opacity="1.000000" stroke="none" 
	d="
M156.786819,306.468750 
	C158.736877,306.193390 160.719315,306.279053 162.922119,306.120697 
	C163.685165,307.046875 164.227875,308.217072 164.891418,309.687561 
	C162.559753,309.714325 160.107254,309.440857 157.294724,309.086670 
	C156.896210,308.280579 156.857712,307.555145 156.786819,306.468750 
z"/>
<path fill="#D9E7DE" opacity="1.000000" stroke="none" 
	d="
M156.295197,242.768143 
	C155.909302,241.913879 155.626205,240.781555 155.490402,239.378769 
	C155.891129,240.235565 156.144577,241.362823 156.295197,242.768143 
z"/>
<path fill="#D9E7DE" opacity="1.000000" stroke="none" 
	d="
M155.191284,234.823639 
	C154.864807,234.355972 154.639404,233.602341 154.520630,232.556946 
	C154.848953,233.022675 155.070648,233.780167 155.191284,234.823639 
z"/>
</svg>